<svg xmlns="http://www.w3.org/2000/svg" viewBox="0 0 482.74 458.99"><defs><style>.cls-1{opacity:0.1;}.cls-2{fill:#fff;}.cls-3{fill:#169a8f;}.cls-4{fill:#793292;}.cls-5{fill:#f6bd0f;}.cls-6{fill:#f01586;}.cls-7{fill:#e9ac2b;}.cls-8{fill:#be8e25;}.cls-9{fill:#009f97;}.cls-10{fill:#c45a8a;}.cls-11{fill:#1982bf;}.cls-12{isolation:isolate;}</style></defs><g id="Capa_1" data-name="Capa 1"><g class="cls-1"><path class="cls-2" d="M209.88,169.18a22.79,22.79,0,0,1,14.74-14.53,146.51,146.51,0,0,0-14.74,14.53Z"/><path class="cls-2" d="M194.89,161.2a69.91,69.91,0,0,1-6-16.59,25.61,25.61,0,0,1,6,16.59Z"/><path class="cls-2" d="M335.86,311.6c-1,11.53-13.17,16.8-19.78,24.85-7.09,7.76-11.46,18.68-8.21,29.14-5-10.15-.63-22.6,6.66-30.51,3.12-3.64,8.49-7.75,12.25-10.76,4.08-3.38,7.94-7.34,9.08-12.72Z"/><path class="cls-2" d="M306.55,376.3a9,9,0,0,1-4.42,7.92,4,4,0,0,1-3.21.25,8.56,8.56,0,0,0,2.31-1.6c2-1.91,3.33-4.61,5.32-6.57Z"/><path class="cls-2" d="M311.74,380.79c1.63,1.39,3.16,3.12,4.64,4.62.49.53,1,1,1.56,1.73a4.51,4.51,0,0,1-2.47-.39,6.07,6.07,0,0,1-3.73-6Z"/><path class="cls-2" d="M395.93,181.76a48,48,0,0,0,12.2.71,8.74,8.74,0,0,1-12.2-.71Z"/><path class="cls-2" d="M390.68,188.86c3,6.89,3.47,14.87,7.24,21.34a21.34,21.34,0,0,0,18.28,10.54c-7.74,1.76-16.16-2.67-20.06-9.5s-4-14.81-5.46-22.38Z"/><path class="cls-2" d="M289.68,140.51c-12.08-10.22-16.59-28.07-11.92-43a38.34,38.34,0,0,1,7.29-13.71,50.7,50.7,0,0,0-5.73,14.13,48.19,48.19,0,0,0,10.36,42.63Z"/><path class="cls-2" d="M286.74,75.56a25.61,25.61,0,0,1-4.32-12.26,17,17,0,0,1,4.32,12.26Z"/><path class="cls-2" d="M118.1,256.69c-29.3,17.55-42.91,56.87-30.55,88.69a35.63,35.63,0,0,0,8,12.05,34,34,0,0,1-8.92-11.63c-4.28-9-5.67-19-5.43-28.9.6-24.66,14.6-49.12,36.9-60.21Z"/><path class="cls-2" d="M177.46,338.18c-3.91,14.1-15.58,26.3-29.81,30.08a68.25,68.25,0,0,0,29.81-30.08Z"/><path class="cls-2" d="M181.6,347.3a54.94,54.94,0,0,0,11.73,22.16c-7.68-4.23-12.41-13.47-11.73-22.16Z"/><path class="cls-2" d="M332.38,285.66c9.86,7.07,21,14.62,33.72,13,4-.51,8-2,12-3.25a41.16,41.16,0,0,1-11.77,4.84c-13.05,2.54-25.42-5.51-34-14.64Z"/><path class="cls-2" d="M388,222.31c31,11,55.17,37.77,65.17,68.82a113.22,113.22,0,0,1,5.69,32,135.56,135.56,0,0,0-7.21-31.47c-10.76-30.49-33.93-56.31-63.65-69.35Z"/><path class="cls-2" d="M353.87,315.86c7.89,24.46,26.35,45.5,50.57,54.67-25.44-6.37-45.53-29.19-50.57-54.67Z"/><path class="cls-2" d="M366.14,352.41c3.88,12.75-4.41,25.42-13.11,34.12,6.32-10.53,14-21.24,13.11-34.12Z"/><path class="cls-2" d="M234.8,344.43c-5.4,12.68-4,28,4.7,38.84a36.53,36.53,0,0,0,10.38,9,28.68,28.68,0,0,1-11.61-7.95c-9.76-10.55-11.3-27.84-3.47-39.88Z"/><path class="cls-2" d="M262.74,138.65c-6.69,6.33-3,16.63,3.93,21.13a42,42,0,0,0,7.58,4c-5.89-.61-11.93-3.63-14.93-9-3.14-5.14-2.38-13.3,3.42-16.16Z"/><path class="cls-2" d="M142.54,226.67c-34.26-15.55-66.51-42-77.88-79.08a94.48,94.48,0,0,1-3.18-45.28A73.43,73.43,0,0,1,69,80.87C62.52,94.55,60.42,110,61.89,125c4.26,47.32,40.47,81.05,80.65,101.68Z"/><path class="cls-2" d="M132.43,68.91C151,74.51,165.76,91,170.36,109.69,163,92.13,149.69,77.21,132.43,68.91Z"/><path class="cls-2" d="M191.61,111.73c4.13-16.57,5.59-36.57-7.87-49.36,15.87,10.67,15,33.65,7.87,49.36Z"/><path class="cls-2" d="M404.48,164.48c6-5,22.5-3,25.65,4.6-3.28-3.39-7.76-4.26-12.22-4.94s-9-1.07-13.43.34Z"/><path class="cls-2" d="M408.72,127.74c7-11.06,20.77-19.26,34.11-15.8a22.24,22.24,0,0,1,11.32,6.63,27.05,27.05,0,0,0-11.66-5.06c-13-2.41-25.11,5.08-33.77,14.23Z"/><path class="cls-2" d="M44.12,268.75c5.32-14.06,20.31-23.58,35.24-23.42a31.06,31.06,0,0,1,14.34,3.49,39.52,39.52,0,0,0-14.3-1.88,44.13,44.13,0,0,0-35.28,21.81Z"/><path class="cls-2" d="M84.89,235.19c-6.09-3.34-8.1-12.53-4.16-18.2a25.38,25.38,0,0,0,4.16,18.2Z"/><path class="cls-2" d="M399.86,115.53c-1.71-3.46-4.07-8.39-6-11.66s-4.91-7.87-7-11.06a33.24,33.24,0,0,1,13,22.72Z"/><path class="cls-2" d="M408.08,104.65a14.41,14.41,0,0,1,14.24-8.49,67.45,67.45,0,0,0-14.24,8.49Z"/><path class="cls-2" d="M266.22,293.46c17.7-.52,32.56,14.9,33.79,32.18a35.83,35.83,0,0,1-2.29,16.63,43.84,43.84,0,0,0,.69-16.44c-2.14-16.55-15.4-30.5-32.19-32.37Z"/><path class="cls-2" d="M314.83,209.82C356.76,208.12,399,228,426,262.24c10.53,13.35,19,29.31,20.37,46.68s-5.58,36.18-19.8,44.81c-14,8.49-32.37,5.56-45.56-4.25s-21.73-25.42-26.87-41.66S346.9,274.46,344,257.6c-3.42-20-10.07-42.56-27.7-50.32"/><path class="cls-2" d="M183.75,237c-17.95,3-35.87,7.84-51.82,17.13s-29.87,23.46-36.74,41.39-5.83,39.75,5,55.33A34.2,34.2,0,0,0,112,361.85c5.31,2.79,11.37,3.59,17.29,3.43,10.32-.29,20.8-3.59,28.7-10.67,14.58-13.05,17.53-35.4,18.86-55.63s2.72-42.33,15.6-57.27"/><path class="cls-2" d="M182.28,290.23a120.57,120.57,0,0,1,27.54,24c4.78,5.61,9.22,12.06,10.26,19.56s-2.36,16.15-9.11,18.54c-6.39,2.26-13.54-1.77-17.4-7.63s-5.19-13.15-6.37-20.2-1.56-28.89-5.24-34.88"/><path class="cls-2" d="M202.93,168.31a129.47,129.47,0,0,1-1.47-37.13c.8-7.53,2.41-15.33,7-21.12s12.93-8.79,19.08-5c5.81,3.61,7.69,12,6.12,19s-5.84,12.84-10,18.44-19.32,20.33-21.1,27.24"/><path class="cls-2" d="M331.8,304.55a151.52,151.52,0,0,0-16.23-41.23c-4.48-7.76-10-15.38-17.76-19.18s-18.31-2.51-23.16,5c-4.6,7.09-2.62,17.25,2.43,24s12.52,10.8,19.77,14.61,29,13.43,34.23,20"/><path class="cls-2" d="M318.64,266.75c-27.05-37.75-32.09-92-12.51-134.65,5.61-12.22,13.27-23.71,23.8-31.42s24.23-11.21,36.41-7.11c20.86,7,30.87,34.26,26.77,57.15s-18.71,41.91-33.92,58.65S329,245.6,318.92,266.3"/><path class="cls-2" d="M324.17,275.35a60.06,60.06,0,0,1,35.21-14.61c10.84-.71,24.47,4.75,24.75,16.31.21,8.22-7.21,14.87-14.84,16.09s-15.29-1.64-22.44-4.76S332,277,324.24,277"/><path class="cls-2" d="M185.35,109.83a47.14,47.14,0,0,0,1.23-26.95c-1.89-7.49-8-15.57-15-13.3-4.95,1.61-7.34,8-6.44,13.48s4.24,10,7.61,14.18,10.35,7.27,12,12.49"/><path class="cls-2" d="M393.59,184.14a45.67,45.67,0,0,0,10.82,24.4c5,5.66,14,9.69,19.12,4.2,3.65-3.9,2.92-10.78-.28-15.12s-8.15-6.7-13-8.7-12.34-1.22-16.14-5"/><path class="cls-2" d="M212.25,228.7a120.26,120.26,0,0,1-81.42-18.92C106.75,193.92,88,169.1,78.54,140.66c-6.12-18.46-7.72-40.91,4.1-55.91,12.14-15.39,35.2-17,51.84-7.54s27.52,27.67,34,46.56,9.16,39,13.88,58.43,15.44,31.28,28.84,45.44"/><path class="cls-2" d="M99.92,251.05a75,75,0,0,0-22.25,1.52c-7.28,1.62-14.51,4.42-20.19,9.54s-9.62,12.82-9.16,20.73,6,15.57,13.39,16.71c7.52,1.17,14.92-4.58,18-12,1.64-3.86,2.33-8.09,3.56-12.11a44.22,44.22,0,0,1,19.06-24.87"/><path class="cls-2" d="M135.85,243.63a47.66,47.66,0,0,1-40.67-4.55c-3.94-2.45-7.85-6-8.43-10.82-.71-5.93,4.39-11.4,10-12.24s11.12,1.93,15.44,5.77,7.7,8.69,11.56,13,7.27,6.82,12.76,8.08"/><path class="cls-2" d="M285.41,178.41c18.72,33.74.43,77.64-26.16,103.82-8.56,8.42-18.9,15.28-30.4,17.22s-24.23-1.74-31.66-11.29c-9.13-11.76-8.16-30-.2-42.72,9.62-15.33,25.36-28.57,42.6-30.18,32.64-3,48.09-32.45,46.23-35.53"/><path class="cls-2" d="M289.71,168.67c.35-5.82-.32-11.86-3-16.94s-7.63-9-13.1-9.19c-2.94-.09-6.21,1.21-7.31,4.11-1.41,3.69,1.44,7.79,4.75,9.64s7.18,2.46,10.37,4.55a14.44,14.44,0,0,1,6,8.83"/><path class="cls-2" d="M241.61,339.54c-.37,7.85-2.45,9.54-2.82,17.39-.26,5.7-.48,11.68,1.82,16.84s8,9.06,13.06,7.06,6.93-8.85,5.61-14.35-5-10-8.41-14.29-8-6.21-8.76-11.83"/><path class="cls-2" d="M254.07,301.77a40.51,40.51,0,0,1,30,10.4c6,5.44,10.69,13.26,10.55,21.67s-6.31,16.87-14.2,17.15c-8.64.3-17.45-8-18.09-17.17-1.05-14.92-2-26.95-7.63-31.53"/><path class="cls-2" d="M294.72,139.09c-12.26-10.77-15.69-31.36-7.66-46,3.54-6.44,9.38-11.83,16.31-12.91S318.08,83.34,320,90.52c2.38,8.93-4.35,17.46-10.63,23.9s-15.95,15.38-14.1,24.46"/><path class="cls-2" d="M344.64,307.33c3.66,13.49,11.08,27.58,9.77,41.55s-10,28.32-23,30.56a14.91,14.91,0,0,1-11.56-2.35c-3.95-3-5.84-8.38-5.86-13.53s-.08-10.2,1.8-14.95c1.31-3.32,4.73-7.51,6.86-10.31s4.28-3.84,6.63-6.14a66.74,66.74,0,0,0,15.49-23.6"/><path class="cls-2" d="M398.86,160.61c5.77-10.16,9.73-23.14,18.64-30.28s22.22-9.63,31-2.31a14.28,14.28,0,0,1,5.25,9c.52,4.32-1.53,8.66-4.53,11.63s-5.89,5.89-9.74,7.37c-2.69,1-7.09,1.18-9.94,1.37-2.7.18-4.69-.63-7.39-.87a49.88,49.88,0,0,0-22.62,3.28"/><path class="cls-2" d="M251.47,107.54c5-7.64,2.54-19.67-5.07-24.3-1.28-.79-2.88-1.37-4.21-.69-2.6,1.33-1.63,5.47-.28,8.18Q246.47,99.88,251,109"/><path class="cls-2" d="M438.76,223.17c3.34,2.37,6.38,6,6.05,10a4,4,0,0,1-.93,2.43,2.08,2.08,0,0,1-2.4.52,2.9,2.9,0,0,1-.91-.9,12.16,12.16,0,0,1-1.24-11.72"/><path class="cls-2" d="M295.61,73c.09-2.14,1.89-3.8,3.68-5A4.91,4.91,0,0,1,302.5,67c1.14.15,2.17,1.41,1.68,2.45a2.76,2.76,0,0,1-1.41,1.14A53.39,53.39,0,0,1,297,73"/><path class="cls-2" d="M90.43,366.77c-3,4.11-8.37,5.66-12.11,9.08a4.33,4.33,0,0,0-1.48,2.21,3.5,3.5,0,0,0,1.24,3.06c2.62,2.41,7.17,1.58,9.55-1.08S90.52,373.49,90,370"/><path class="cls-2" d="M102.6,369a17.21,17.21,0,0,1,12,7.77,3.06,3.06,0,0,1,.62,2.24,2.3,2.3,0,0,1-.94,1.25c-2.14,1.56-5.29.58-7.18-1.26s-3-4.35-4.43-6.54"/><path class="cls-2" d="M471.77,330.37c.23,6-8,9.79-7.78,15.81a3.43,3.43,0,0,0,.41,1.63,3.08,3.08,0,0,0,3.31,1.24,6.3,6.3,0,0,0,3.14-2,14.25,14.25,0,0,0,2.43-15.57"/><path class="cls-2" d="M478.36,327.52a6.36,6.36,0,0,0,7.65-.11"/><path class="cls-2" d="M427.48,373.92a57.92,57.92,0,0,1,13.37-2c4.52,0,9.17,1.16,12.65,4a9.3,9.3,0,0,1,3.53,5.68,5.44,5.44,0,0,1-2.83,5.71,7.57,7.57,0,0,1-2.95.5,17.11,17.11,0,0,1-9-1.93c-5-2.9-8-9.44-13.76-9.91"/><path class="cls-2" d="M426.34,396.91a26.06,26.06,0,0,1,10,14.38,6.51,6.51,0,0,1,.07,4.18c-1,2.29-4.19,3-6.37,1.78a8,8,0,0,1-3.66-6.18,32.57,32.57,0,0,1,.38-7.43,15,15,0,0,0-.6-7.35"/><path class="cls-2" d="M336.74,389.27a31.11,31.11,0,0,1,8.58,3.5c2.58,1.72,4.7,4.42,4.93,7.52a3,3,0,0,1-.8,2.61,2.55,2.55,0,0,1-2.85.05,7.3,7.3,0,0,1-2.1-2.15q-4-5.49-7.95-11.09"/><path class="cls-2" d="M330,398.76l-4.46,2.56a9.41,9.41,0,0,0-3.58,2.95c-.82,1.34-.79,3.33.49,4.24s3.32.21,4.31-1.11a11.45,11.45,0,0,0,1.62-4.61,7.28,7.28,0,0,1,2.19-4.3"/><path class="cls-2" d="M234.62,329.37c-1.73-.84-1.37-3.8.38-4.56s3.92.43,4.69,2.18a3.31,3.31,0,0,1-.14,3.16,2.06,2.06,0,0,1-2.89.51"/><path class="cls-2" d="M271.19,375.87a8.53,8.53,0,0,1,6.24,5.15,3.74,3.74,0,0,1,.23,2.48,3.32,3.32,0,0,1-2,1.9,4.72,4.72,0,0,1-5-.91,3.73,3.73,0,0,1-.24-4.93"/><path class="cls-2" d="M214,374.07c-2.54.44-5.15,1.85-6,4.29s1.07,5.69,3.63,5.35a4.19,4.19,0,0,0,3.18-3.09A12.25,12.25,0,0,0,215,376"/><path class="cls-2" d="M268.74,133.55l-2.76-3.1c-1.1-1.23-2.26-2.58-2.4-4.22s1.33-3.48,2.92-3a4,4,0,0,1,1.87,1.61c1.54,2,3.15,4.72,2,7"/><path class="cls-2" d="M65.05,71A27.41,27.41,0,0,0,75.51,57.76,22.83,22.83,0,0,0,75.08,41a8.91,8.91,0,0,0-2.75-3.78,4.27,4.27,0,0,0-4.46-.5C65.55,38.05,65.62,41.35,66,44c1.07,7.32,2.17,15-.22,22"/><path class="cls-2" d="M85.28,62.53c2.53-2.81,6.42-4,10.19-4.35a6.66,6.66,0,0,1,4,.59,2.74,2.74,0,0,1,1.24,3.46c-.75,1.32-2.59,1.39-4.11,1.28l-8.34-.57"/><path class="cls-3" d="M180.08,123.05a2.29,2.29,0,1,1,.37,1.21"/><path class="cls-2" d="M182.58,123.05c0-.11,0-.21,0-.32l-.09.66a2.85,2.85,0,0,1,.14-.5l-.25.6a2.62,2.62,0,0,1,.3-.51l-.39.51a2.4,2.4,0,0,1,.45-.45l-.51.39a2.58,2.58,0,0,1,.6-.36l-.6.25a2.61,2.61,0,0,1,.61-.16l-.66.08a2.26,2.26,0,0,1,.52,0l-.66-.09a2.19,2.19,0,0,1,.5.14L182,123a1.92,1.92,0,0,1,.46.27l-.5-.39a2.65,2.65,0,0,1,.37.38l-.39-.5a2.7,2.7,0,0,1,.35.59l-.25-.6a3.9,3.9,0,0,1,.18.67l-.09-.67a3.42,3.42,0,0,1,0,.64l.09-.67a2.73,2.73,0,0,1-.15.56l.25-.6a2.67,2.67,0,0,1-.25.43l.39-.51a2.24,2.24,0,0,1-.34.35l.51-.39a3.2,3.2,0,0,1-.51.29l.6-.26a2.64,2.64,0,0,1-.61.17l.66-.09a2.66,2.66,0,0,1-.69,0l.67.09a2.93,2.93,0,0,1-.66-.18l.59.25a2.55,2.55,0,0,1-.5-.3l.51.39a1.82,1.82,0,0,1-.34-.34l.39.51-.09-.13a2.65,2.65,0,0,0-1.49-1.14,2.5,2.5,0,0,0-2.83,3.67,4.57,4.57,0,0,0,1.83,1.66,5.1,5.1,0,0,0,1.21.42,5,5,0,0,0,1.28.11,5.36,5.36,0,0,0,1.26-.21A4.54,4.54,0,0,0,185,127a4.08,4.08,0,0,0,1-.81,5.37,5.37,0,0,0,.55-.75,5.44,5.44,0,0,0,.37-.86,4.51,4.51,0,0,0,.22-1.26A5.42,5.42,0,0,0,187,122a5,5,0,0,0-.42-1.19,2.77,2.77,0,0,0-.34-.57,7.94,7.94,0,0,0-.58-.72,5.81,5.81,0,0,0-.73-.58,4.11,4.11,0,0,0-1.14-.54,2,2,0,0,0-.33-.08,4.6,4.6,0,0,0-1-.11,6,6,0,0,0-1,.11,2.21,2.21,0,0,0-.37.08,7.27,7.27,0,0,0-.91.38,2.22,2.22,0,0,0-.37.21,5.1,5.1,0,0,0-1.06.9,4.79,4.79,0,0,0-1,1.72,2.66,2.66,0,0,0-.1.38,6,6,0,0,0-.12,1,2.61,2.61,0,0,0,.73,1.77,2.57,2.57,0,0,0,1.77.73,2.53,2.53,0,0,0,1.77-.73,2.66,2.66,0,0,0,.73-1.77Z"/><path class="cls-2" d="M171.49,55.46c-1.22-2.22-.79-5-.33-7.44a6.71,6.71,0,0,1,1-2.88,2.28,2.28,0,0,1,2.71-.85,3,3,0,0,1,1.23,2.61,11.18,11.18,0,0,1-2.93,8"/><path class="cls-2" d="M158.14,56.4a2.48,2.48,0,1,0-.07-.16"/><path class="cls-2" d="M445.83,175.85a4,4,0,0,1,5.58,2.42,3.71,3.71,0,0,1-4.09,4.3c-2.3-.46-3.43-3.79-1.8-5.49"/><path class="cls-2" d="M452,165.73a14.35,14.35,0,0,1,10.46-2.86,10.11,10.11,0,0,1,8.15,6.71c.54,1.85-.05,4.46-2,4.65a4.07,4.07,0,0,1-2.24-.67L454,167"/><path class="cls-2" d="M70.58,205.7a3.7,3.7,0,1,0-.74.43"/><path class="cls-2" d="M379.3,76.81a4.52,4.52,0,0,0,6.66.71c1.77-1.84,1-5.49-1.45-6.23s-5.18,2.18-4.08,4.49"/><path class="cls-2" d="M407.39,84.33a26.79,26.79,0,0,1,1.54-16.87,13.5,13.5,0,0,1,5.5-6.67c2.58-1.4,6.13-1.31,8.16.83,3.3,3.49.66,9.33-2.85,12.63s-8.08,6.21-9,10.94"/><path class="cls-2" d="M95.25,394.89c1.85-3.23,7.72-2.45,8.67,1.14s-3.74,7.18-7,5.3a8.68,8.68,0,0,1-1.14-6.17"/><path class="cls-2" d="M294.47,426.54c-.85,3-.8,6.56,1.37,8.78s6.84,1.64,7.46-1.4c.93-4.53-6.34-5.83-8.82-9.74"/><path class="cls-2" d="M37,191.92c.17,1.72,2.34,2.75,4,2.12a4.4,4.4,0,0,0,2.5-4.18c0-2.12-1.65-4.35-3.76-4.28S36.32,189,38.17,190"/><path class="cls-2" d="M352.59,71.29c-3.58-6.88-7.93-14.42-15.39-16.54-2.66-.76-6.57.27-6.36,3a4.9,4.9,0,0,0,1.68,2.87A48.11,48.11,0,0,0,351,72.32"/><path class="cls-2" d="M141.85,59.06a22.3,22.3,0,0,1,6.22-19c2.9,1.61,3.45,5.8,2.06,8.82a31.84,31.84,0,0,1-7.82,9.64"/><path class="cls-2" d="M277.44,38.26c-.08-2.08.42-4.35,2-5.64s4.54-.93,5.23,1c1,2.91-3,4.8-6.1,5.21"/><path class="cls-2" d="M197.53,381.84a39.38,39.38,0,0,1-13,8.92c-3.51,1.48-8,3.44-7.88,7.25a5.62,5.62,0,0,0,1.81,3.73c4.31,4.2,12.1,1.9,15.6-3s3.91-11.27,4.19-17.28"/><path class="cls-2" d="M124.9,53c-2.93-1.61-.8-7.06,2.52-6.7S132.19,51.49,130,54a6.66,6.66,0,0,1-4-2.27"/><path class="cls-2" d="M471.53,201.55c-.56-3.24,4.39-5.67,6.61-3.24s-.66,7.14-3.83,6.28"/><path class="cls-2" d="M213.82,77.3A5.33,5.33,0,1,0,208.49,72a5.38,5.38,0,0,0,5.33,5.33Z"/><path class="cls-2" d="M149.77,415.6a5.33,5.33,0,1,0-5.33-5.33,5.38,5.38,0,0,0,5.33,5.33Z"/><path class="cls-2" d="M25.21,147.85a5.33,5.33,0,1,0-5.32-5.33,5.39,5.39,0,0,0,5.32,5.33Z"/><path class="cls-2" d="M45,362.69a5.33,5.33,0,1,0-5.33-5.33A5.38,5.38,0,0,0,45,362.69Z"/><path class="cls-2" d="M468.31,256.86a5.33,5.33,0,1,0-5.33-5.32,5.38,5.38,0,0,0,5.33,5.32Z"/><path class="cls-2" d="M452.11,76.54a5.33,5.33,0,1,0-5.32-5.33,5.39,5.39,0,0,0,5.32,5.33Z"/><path class="cls-2" d="M387.32,397.24a5.33,5.33,0,1,0-5.32-5.33,5.39,5.39,0,0,0,5.32,5.33Z"/><path class="cls-2" d="M371.13,32.27a5.33,5.33,0,1,0-5.33-5.33,5.39,5.39,0,0,0,5.33,5.33Z"/><path class="cls-2" d="M123.11,11.07a5.38,5.38,0,0,0,5.33-5.32,5.33,5.33,0,1,0-10.65,0,5.42,5.42,0,0,0,5.32,5.32Z"/><path class="cls-2" d="M241.55,159.68a5.33,5.33,0,1,0-5.32-5.32,5.38,5.38,0,0,0,5.32,5.32Z"/><path class="cls-2" d="M268.55,79.27c3.42,0,3.43-5.32,0-5.32s-3.44,5.32,0,5.32Z"/><path class="cls-2" d="M50.43,234.76c3.42,0,3.43-5.32,0-5.32s-3.44,5.32,0,5.32Z"/><path class="cls-2" d="M49.35,334.11c3.42,0,3.43-5.33,0-5.33s-3.44,5.33,0,5.33Z"/><path class="cls-2" d="M49.35,63.08c3.42,0,3.43-5.33,0-5.33s-3.44,5.33,0,5.33Z"/><path class="cls-2" d="M365.73,57.68c3.43,0,3.43-5.33,0-5.33s-3.43,5.33,0,5.33Z"/><path class="cls-2" d="M460.75,368.66c3.43,0,3.43-5.32,0-5.32s-3.43,5.32,0,5.32Z"/><path class="cls-2" d="M361.41,427c3.43,0,3.43-5.32,0-5.32s-3.43,5.32,0,5.32Z"/><path class="cls-2" d="M316.06,314.67c3.43,0,3.43-5.32,0-5.32s-3.43,5.32,0,5.32Z"/><path class="cls-2" d="M429.44,182.94c3.43,0,3.43-5.33,0-5.33s-3.43,5.33,0,5.33Z"/><path class="cls-2" d="M244.05,43c3.43,0,3.43-5.32,0-5.32s-3.43,5.32,0,5.32Z"/><path class="cls-2" d="M284.36,405.78c3.43,0,3.44-5.33,0-5.33s-3.43,5.33,0,5.33Z"/><path class="cls-2" d="M407.46,32.16c3.43,0,3.44-5.32,0-5.32s-3.43,5.32,0,5.32Z"/><path class="cls-2" d="M133.19,392.82c3.43,0,3.44-5.33,0-5.33s-3.43,5.33,0,5.33Z"/><path class="cls-2" d="M228.58,434a5.33,5.33,0,1,0-5.33-5.33,5.38,5.38,0,0,0,5.33,5.33Z"/><path class="cls-2" d="M295.88,6.75a5.38,5.38,0,0,0,5.33-5.32,5.42,5.42,0,0,0-5.33-5.33,5.38,5.38,0,0,0-5.32,5.33,5.42,5.42,0,0,0,5.32,5.32Z"/><path class="cls-2" d="M221,315.79c3.42,0,3.43-5.32,0-5.32s-3.44,5.32,0,5.32Z"/><path class="cls-2" d="M178.91,455.09c3.42,0,3.43-5.33,0-5.33s-3.44,5.33,0,5.33Z"/><path class="cls-2" d="M200.5,4.81c3.43,0,3.43-5.33,0-5.33s-3.43,5.33,0,5.33Z"/></g><path class="cls-4" d="M175.06,431.13c21.87-11.81,48.71-18.35,73.75-22.63,37.87-6.48,76.31-11.21,112.78-22.75s71.53-30.71,93.57-60.34,28.62-71,9.56-102.34c-19.4-31.93-61.62-47.56-100.65-44.48s-74.86,22.11-104.83,45.77C195.31,274.82,153.61,349,143.6,426.7Z"/><path class="cls-5" d="M252.63,402c-53.81,38.56-131.14,45.75-192,17.82-17.43-8-33.81-18.92-44.79-33.93S-.11,351.37,5.73,334c10-29.74,48.85-44,81.48-38.17S147,322.5,170.82,344.19s51.65,43.1,81.17,57.41"/><path class="cls-6" d="M120,361.14c8.67-4.64,21-2.22,27.53,5.4,2.89,3.35,4.69,7.78,3.84,11.92s-4.88,7.63-9.33,7.2c-5.54-.55-8.92-6.15-11.23-11.05s-5.3-12.24-10.81-13.12"/><path class="cls-2" d="M114.8,355.92A45.86,45.86,0,1,1,69.3,309.7,45.86,45.86,0,0,1,114.8,355.92Z"/><g id="g4812"><path id="path4677" class="cls-7" d="M64.69,328.35l.32-5.68,1.11,2.57.66-2.5L68,325.21l1-2.87,1.1,2.76.93-2.47.83,2.48,1.31-2.57.18,5.81Z"/><path id="ellipse4679" class="cls-8" d="M69,327.41c2.39,0,4.33.39,4.33.88s-1.94.87-4.33.87-4.33-.39-4.33-.87S66.62,327.41,69,327.41Z"/><path id="circle4681" class="cls-7" d="M65,322.15a.47.47,0,0,1,.47.47.48.48,0,0,1-.47.48.49.49,0,0,1-.48-.48A.48.48,0,0,1,65,322.15Z"/><path id="circle4683" class="cls-7" d="M66.79,322a.48.48,0,1,1-.47.48A.47.47,0,0,1,66.79,322Z"/><path id="circle4685" class="cls-7" d="M71,321.87a.47.47,0,1,1,0,.94.47.47,0,1,1,0-.94Z"/><path id="circle4687" class="cls-7" d="M73.14,321.89a.47.47,0,0,1,.47.47.47.47,0,1,1-.94,0A.47.47,0,0,1,73.14,321.89Z"/><path id="circle4689" class="cls-7" d="M69,321.17a.76.76,0,0,1,.77.77.77.77,0,0,1-.77.78.78.78,0,0,1-.78-.78A.77.77,0,0,1,69,321.17Z"/><path id="path4691" class="cls-7" d="M68.41,317.05h1.3l-.63,2.76Z"/><path id="path4693" class="cls-7" d="M73.11,317.56l1,.66-1.87,1.69Z"/><path id="path4695" class="cls-7" d="M64.56,318l-.94.66,1.86,1.69Z"/><path id="path4697" class="cls-7" d="M61.27,323.43l-.2,1.13,2.2-.27Z"/><path id="path4699" class="cls-7" d="M76.62,323.38l.27,1.12-2.2-.13Z"/></g><path id="path4701" class="cls-9" d="M64.72,339.74l1.22-11.39a12,12,0,0,1,6.34,0l1,11.49a57,57,0,0,0-8.59-.11Z"/><path id="path5997" d="M74.69,358A141.23,141.23,0,0,0,50,359.19a.23.23,0,0,0-.19.26.22.22,0,0,0,.26.19s20.24-3.13,38.15.3a.24.24,0,0,0,.27-.18h0a.23.23,0,0,0-.18-.27h0A94.94,94.94,0,0,0,74.69,358Z"/><path id="path4705" class="cls-10" d="M63.48,351.34,62.29,362.2a19.84,19.84,0,0,0,13.09,0l-1-10.89c-4.91.26-6.89.84-10.89,0Z"/><path id="path4707" class="cls-11" d="M64.71,339.73l-1.23,11.62a24.34,24.34,0,0,0,10.9,0l-1.07-11.52A30.3,30.3,0,0,0,64.71,339.73Z"/><rect id="rect4709" class="cls-2" x="67.9" y="331.54" width="1.91" height="3.84"/><rect id="rect4711" class="cls-2" x="67.9" y="343.61" width="1.91" height="3.84"/><rect id="rect4713" class="cls-2" x="67.9" y="355.31" width="1.91" height="3.84"/><path id="path4715" d="M58.47,356.67a1,1,0,0,0,0-.42,2.37,2.37,0,0,1-.08-.33c0,.07-.22,0-.22,0a.21.21,0,0,0,0,.3.28.28,0,0,1,0,.32,3.1,3.1,0,0,0-.33-.45c-.1-.21.22-.53.22-.53s.28-.07.28-.07.19-.21.19-.21a.5.5,0,0,1,.61.08c.15.07,0,.48,0,.48l0,.32c-.07.22-.37.2-.37.2l0,.26a1.84,1.84,0,0,0,.44.14,2.1,2.1,0,0,0,.53.37.22.22,0,0,0,.18-.09s.29-.35.27-.39a.59.59,0,0,1,0-.34s.19-.17.26-.14.28.17.16.41c0,0-.28.67-.59.8a1.22,1.22,0,0,1-.62,0s-.17,0-.19.13c0,0-.1.52,0,.61a8.65,8.65,0,0,1,.42.77l-.16.11s.23.94.28,1l.61.17a1.65,1.65,0,0,1-.72.29s-.42-1.37-.49-1.42h-.29s-.2.71-.46.75c0,0-.21.08-.51-.43l-.12-.13s0,.41-.16.42h-.15a3.19,3.19,0,0,1,.12-.84s.33.05.39.26c0,0,.24.24.3.19l.07-.26-.27,0,.3-.94a1.31,1.31,0,0,0-.24-.87,10.42,10.42,0,0,0-.83-.76s-.21.11-.43-.25a.61.61,0,0,1-.1-.31l-1-1.71.07,1.4s.56,2.35.61,2.37.62,1.95.65,2l0,.09a10.36,10.36,0,0,1,1.09.2s.23.09,0,.23c0,0-1.25.33-1.37.35a4.88,4.88,0,0,0-.27-.56l-.17,0s-1.09-3-1.06-3.26a12.61,12.61,0,0,1-.52,2.88l-.36.39a5.41,5.41,0,0,1,.55.92.31.31,0,0,1-.22.14l-1.23-.65s.27-.73.4-.78.85-2.06.61-2.72c0,0-.76-2.51-.87-2.81a17.18,17.18,0,0,0,0,2l0,.77s.24.33,0,.46a.35.35,0,0,1-.54,0s-.13-.28-.06-.38-1.27-1-1.32-1.37l-.41-.84s-.08.68-.08.88a12.48,12.48,0,0,1,.53,2.55l-.28.07a19.29,19.29,0,0,1,.21,2s.79.31.82.48a5.63,5.63,0,0,0-.91,0l-.32,0A9.26,9.26,0,0,0,51,359l-.17-.52a1.43,1.43,0,0,1-.65.07,4,4,0,0,1-.48.84s-.66.44-.8.49h0a3.64,3.64,0,0,1-.25,1,9.9,9.9,0,0,0-.28-1s1.2-.72,1.08-.8.34-.53.31-.66-.69,0-.71-.17a13.49,13.49,0,0,0,.6-2.27s0-.13-.22-.11c0,0-.44-.11-.41-.2l.2-1.48s-.07-.25-.11-.2-.07.07-.17.09-.07,0-.19-.11a.43.43,0,0,0-.24-.14s-.19-.05-.19-.21c0,0,0-.15.12-.13a.34.34,0,0,1,.22.17.83.83,0,0,1,.24.14,1.92,1.92,0,0,0,.14-.15s-.46-.23-.32-.63c0,0,.16-.23.43,0a.62.62,0,0,1,.14.47.61.61,0,0,1,.5.15s.24-.15.31-.14l0-.35a1.88,1.88,0,0,1-.38.13s-.36-1.13.19-1.47c0,0,.43-.29.61,0a1.29,1.29,0,0,1,.29,1.14l-.39.18s.1.29.11.36.49,0,.62.33c.05.08.74,1.67.74,1.67s1,1.27,1.08,1.32,0-.1,0-.15a28.72,28.72,0,0,1-.05-3.11s.41-.73.9-.76c0,0-.76-1.57-.53-1.9,0,0,.35-.34.65-.26,0,0,.26-.14.28-.25s.21.07.08.38a3,3,0,0,1,.23,1.22s-.34.1-.33.22.15.37.17.46a1.35,1.35,0,0,1,1.31.53L57,355.56s.32.33.31.55c0,0,.43.45.59.48a.4.4,0,0,0,.56.08Z"/><g id="text4719" class="cls-12"><g class="cls-12"><path d="M47.09,369.34v3.29h5.76v2.31H47.09v4.53H44.21V367h9.41v2.31Z"/><path d="M63.26,376.81H57.48l-1.1,2.66h-3L59,367h2.85l5.56,12.44h-3Zm-.91-2.19-2-4.77-2,4.77Z"/><path d="M76.61,379.47,74.21,376H71.56v3.46H68.68V367h5.39a6.87,6.87,0,0,1,2.87.55,4.34,4.34,0,0,1,1.88,1.56,4.4,4.4,0,0,1,.65,2.4,4.27,4.27,0,0,1-.66,2.4,4.21,4.21,0,0,1-1.9,1.53l2.79,4Zm-.73-9.53a3,3,0,0,0-2-.57H71.56v4.34h2.35a3,3,0,0,0,2-.57,2.22,2.22,0,0,0,0-3.2Z"/><path d="M84.28,378.85a6.12,6.12,0,0,1-2.43-2.3,6.63,6.63,0,0,1,0-6.6,6.19,6.19,0,0,1,2.43-2.3,7.24,7.24,0,0,1,3.5-.84,7.17,7.17,0,0,1,3.48.84,6.43,6.43,0,0,1,2.44,8.9,6.21,6.21,0,0,1-2.44,2.3,7.17,7.17,0,0,1-3.48.84A7.24,7.24,0,0,1,84.28,378.85Zm5.49-2.12a3.58,3.58,0,0,0,1.39-1.42,4.42,4.42,0,0,0,0-4.12,3.49,3.49,0,0,0-1.39-1.41,4.14,4.14,0,0,0-4,0,3.52,3.52,0,0,0-1.4,1.41,4.42,4.42,0,0,0,0,4.12,3.61,3.61,0,0,0,1.4,1.42,4.21,4.21,0,0,0,4,0Z"/></g></g><g id="g4835"><g id="text4723"><path id="path4770" d="M50.9,387.15a8.09,8.09,0,0,1,.06-.89c0-.34.11-.71.17-1.09l.24-1.14c.09-.37.19-.71.28-1a7.5,7.5,0,0,1,.25-.73c.09-.19.16-.28.23-.28a.54.54,0,0,1,.18,0l.25.08.22.12c.06,0,.09.07.09.11l0,0-.06.08,0,.06a4.4,4.4,0,0,0-.26.59c-.08.24-.17.5-.25.8s-.16.6-.24.92-.14.63-.2.94c.12-.39.25-.77.39-1.15s.27-.74.41-1.06.24-.51.37-.73a4.64,4.64,0,0,1,.4-.55.93.93,0,0,1,.33-.24.8.8,0,0,1,.36-.09.68.68,0,0,1,.57.26,1.11,1.11,0,0,1,.23.62,2.38,2.38,0,0,1-.08.82,2.82,2.82,0,0,1-.33.82,2.14,2.14,0,0,1-.55.64,1.22,1.22,0,0,1-.73.25.88.88,0,0,1-.33-.07.74.74,0,0,1-.28-.22.12.12,0,0,1,0-.09.17.17,0,0,1,0-.1.1.1,0,0,1,0-.07s.05,0,.08,0a.4.4,0,0,0,.28.1.68.68,0,0,0,.45-.18,1.86,1.86,0,0,0,.35-.47,3,3,0,0,0,.34-1.23,1.14,1.14,0,0,0-.06-.47.23.23,0,0,0-.23-.18c-.13,0-.28.11-.44.33a4.44,4.44,0,0,0-.51.92q-.18.42-.36.9l-.33,1c-.11.33-.21.65-.3,1s-.16.62-.22.89a.15.15,0,0,1-.16.11l-.18,0-.18-.09a.44.44,0,0,1-.15-.12.19.19,0,0,1-.06-.13Z"/><path id="path4773" d="M54.87,387.57a.75.75,0,0,1-.35-.07.61.61,0,0,1-.2-.19.36.36,0,0,1-.07-.26.5.5,0,0,1,.08-.27.55.55,0,0,1,.25-.23,1,1,0,0,1,.34-.09l.29,0,.26,0a.81.81,0,0,0-.14-.35l-.23-.33c-.07-.12-.14-.24-.2-.36a.93.93,0,0,1-.1-.45.83.83,0,0,1,.08-.36,1.21,1.21,0,0,1,.21-.28,1.28,1.28,0,0,1,.3-.17,1.07,1.07,0,0,1,.35-.06.43.43,0,0,1,.23.08.69.69,0,0,1,.24.18,1.21,1.21,0,0,1,.17.25.55.55,0,0,1,.07.24.56.56,0,0,1,0,.15.48.48,0,0,1-.08.16.32.32,0,0,1-.1.13.14.14,0,0,1-.09,0,.66.66,0,0,1-.3-.07c-.1,0-.16-.1-.16-.14l0,0a.21.21,0,0,0,.19-.13.56.56,0,0,0,.08-.26.28.28,0,0,0,0-.13.11.11,0,0,0-.1-.06.2.2,0,0,0-.14.06.56.56,0,0,0-.1.15.84.84,0,0,0-.05.17.78.78,0,0,0,0,.14.73.73,0,0,0,.08.33,1.67,1.67,0,0,0,.18.28l.2.27a1.15,1.15,0,0,1,.18.29,1.89,1.89,0,0,0,.58-.5,3.17,3.17,0,0,0,.34-.69.09.09,0,0,1,.06-.07h.08s.05,0,.07.05a.1.1,0,0,1,0,.09,2.74,2.74,0,0,1-.42.82,2.09,2.09,0,0,1-.64.53.83.83,0,0,1-.09.5,1.16,1.16,0,0,1-.31.39,1.83,1.83,0,0,1-.46.24,1.79,1.79,0,0,1-.51.07Zm.59-.92a1.55,1.55,0,0,1-.33,0,1.18,1.18,0,0,0-.34,0,.27.27,0,0,0-.19.13.28.28,0,0,0,0,.2.31.31,0,0,0,.12.16.35.35,0,0,0,.25,0,.79.79,0,0,0,.32-.23.84.84,0,0,0,.2-.33Z"/><path id="path4775" d="M56.54,386.94a1,1,0,0,0,0-.16,1.11,1.11,0,0,1,0-.17,11.87,11.87,0,0,1,.27-1.23,7.49,7.49,0,0,1,.39-1.16.16.16,0,0,1,.13-.11l.14,0,.16.06.13.08a.62.62,0,0,1,.12.08s0,.07,0,.13a.38.38,0,0,0-.06.13q-.1.28-.21.6l-.18.63c-.06.21-.11.42-.16.62s-.07.37-.1.52,0,.1,0,.1.06,0,.09,0a2.48,2.48,0,0,0,.37-.46A5.18,5.18,0,0,0,58,386c.09-.19.18-.38.25-.57l.21-.5a.12.12,0,0,1,.07-.07h.08a.09.09,0,0,1,.06.06.1.1,0,0,1,0,.09l-.15.39-.22.52c-.09.18-.18.37-.29.56s-.21.35-.32.51a2.55,2.55,0,0,1-.36.37.61.61,0,0,1-.36.14.54.54,0,0,1-.21,0,.64.64,0,0,1-.15-.14.61.61,0,0,1-.09-.18.5.5,0,0,1,0-.21Zm1.38-4.37c.08-.16.14-.24.2-.24a.86.86,0,0,1,.22.08,1.13,1.13,0,0,1,.29.15c.12.08.13.2,0,.35l-.17.26-.22.32-.24.27a.35.35,0,0,1-.19.11.18.18,0,0,1-.21-.16,1.1,1.1,0,0,1,0-.4,3,3,0,0,1,.14-.45c.06-.14.1-.24.13-.29Z"/><path id="path4777" d="M59.09,387.52a1.05,1.05,0,0,1-.78-.26,1.12,1.12,0,0,1-.32-.63,2.17,2.17,0,0,1,0-.83,3.15,3.15,0,0,1,.3-.83,3,3,0,0,1,.49-.64.85.85,0,0,1,.57-.25.73.73,0,0,1,.3.06.78.78,0,0,1,.26.17.65.65,0,0,1,.19.24.48.48,0,0,1,.07.26,1.45,1.45,0,0,1,0,.35,1.25,1.25,0,0,1-.11.31.69.69,0,0,1-.14.22.2.2,0,0,1-.15.09.51.51,0,0,1-.24-.09,1.15,1.15,0,0,1-.23-.18.1.1,0,0,1,0-.1.24.24,0,0,1,.1-.1.9.9,0,0,0,.23-.21.88.88,0,0,0,.16-.28.38.38,0,0,0,0-.26.1.1,0,0,0-.11-.08.5.5,0,0,0-.36.19,2.59,2.59,0,0,0-.32.49,3.22,3.22,0,0,0-.22.64,2.12,2.12,0,0,0-.08.64,1.13,1.13,0,0,0,.12.48.42.42,0,0,0,.38.2.77.77,0,0,0,.53-.23,2.61,2.61,0,0,0,.44-.57,4.3,4.3,0,0,0,.36-.71c.11-.25.2-.48.28-.67s0-.06.07-.06H61a.13.13,0,0,1,.07.06.14.14,0,0,1,0,.09l-.3.73a6.34,6.34,0,0,1-.42.82,2.82,2.82,0,0,1-.55.67,1,1,0,0,1-.69.27Z"/><path id="path4779" d="M61.07,386.92h.08l.25-.05.25-.07a2.29,2.29,0,0,0,.21-.39,2.48,2.48,0,0,0,.17-.48,2.19,2.19,0,0,0,.12-.49,2.68,2.68,0,0,0,.05-.46.85.85,0,0,0-.05-.32.27.27,0,0,0-.15-.15.3.3,0,0,0-.2,0,.58.58,0,0,0-.22.18,2.48,2.48,0,0,0-.32.51,2.72,2.72,0,0,0-.2.63,2.6,2.6,0,0,0-.07.61A1.15,1.15,0,0,0,61.07,386.92Zm.34-2.79a.47.47,0,0,1,.31,0,1,1,0,0,1,.3.13.94.94,0,0,1,.37.07.91.91,0,0,1,.31.16.79.79,0,0,1,.21.24A.5.5,0,0,1,63,385a2.46,2.46,0,0,1-.07.6,3,3,0,0,1-.18.6,3.39,3.39,0,0,0,.51-.56,2.93,2.93,0,0,0,.37-.67s0-.06.07-.06h.09a.09.09,0,0,1,.06.06.1.1,0,0,1,0,.09,3.32,3.32,0,0,1-1.34,1.59,2.39,2.39,0,0,1-.56.65,1.12,1.12,0,0,1-.71.25.84.84,0,0,1-.42-.1,1.3,1.3,0,0,1-.31-.26,1.63,1.63,0,0,1-.19-.34,1.18,1.18,0,0,1-.06-.36,3.25,3.25,0,0,1,.07-.67,5.3,5.3,0,0,1,.23-.67,2.58,2.58,0,0,1,.36-.58,1.45,1.45,0,0,1,.49-.41Z"/><path id="path4781" d="M62.86,389.19a8.09,8.09,0,0,1,.06-.89c0-.35.08-.71.14-1.09s.12-.77.2-1.14.15-.71.22-1,.16-.55.23-.74.14-.28.21-.28l.18,0,.25.09a.94.94,0,0,1,.22.12c.06,0,.09.08.09.11s0,0,0,0a.13.13,0,0,1-.06.07.43.43,0,0,0,0,.07,3.26,3.26,0,0,0-.15.32,3,3,0,0,0-.14.42c.08-.16.18-.32.27-.47l.3-.44a1.24,1.24,0,0,1,.28-.28.44.44,0,0,1,.29-.12.48.48,0,0,1,.26.07,1,1,0,0,1,.22.19,1,1,0,0,1,.16.25.56.56,0,0,1,.06.23,2.18,2.18,0,0,1-.15.76,5.82,5.82,0,0,1-.34.77,2.91,2.91,0,0,0,.56-.55,3.16,3.16,0,0,0,.46-.79.07.07,0,0,1,.07-.06h.08a.09.09,0,0,1,.06.06.1.1,0,0,1,0,.09,3.18,3.18,0,0,1-.62,1,3.06,3.06,0,0,1-.92.72,2.65,2.65,0,0,1-.53.57.79.79,0,0,1-.79.17.78.78,0,0,1-.19-.12c0,.22-.08.44-.11.65s-.06.41-.08.59,0,.36-.05.5,0,.27,0,.36,0,.1-.1.1l-.18,0-.18-.08-.15-.12a.24.24,0,0,1-.06-.14ZM65,384.55a5.26,5.26,0,0,0-.7,1.06,7.19,7.19,0,0,0-.44,1.17l0,.1a.28.28,0,0,1,0,.09.58.58,0,0,1,.22-.06,1,1,0,0,0,.22-.05l.27-.07a3,3,0,0,0,.24-.41,2.94,2.94,0,0,0,.23-.51,5.22,5.22,0,0,0,.18-.56,4.24,4.24,0,0,0,.08-.58c0-.18,0-.26-.13-.25a.16.16,0,0,0-.13.07Z"/><path id="path4783" d="M67.22,387.52a1.28,1.28,0,0,1-.63-.14,1.06,1.06,0,0,1-.36-.4,1.35,1.35,0,0,1-.14-.54,2.72,2.72,0,0,1,0-.64,3.94,3.94,0,0,1,.22-.63,2.73,2.73,0,0,1,.32-.56,2,2,0,0,1,.4-.38.81.81,0,0,1,.46-.15.6.6,0,0,1,.27.07,1.18,1.18,0,0,1,.53.46.53.53,0,0,1,.1.28,1.07,1.07,0,0,1-.16.55,1.71,1.71,0,0,1-.39.46,2.7,2.7,0,0,1-.52.3,1.76,1.76,0,0,1-.53.1,1.16,1.16,0,0,0,.1.58.43.43,0,0,0,.42.24.72.72,0,0,0,.49-.23,2.67,2.67,0,0,0,.46-.57,5.29,5.29,0,0,0,.37-.71c.12-.25.21-.48.29-.67s0-.06.06-.06h.08a.13.13,0,0,1,.07.06.07.07,0,0,1,0,.09c-.08.21-.18.46-.31.75a5.34,5.34,0,0,1-.43.82,3.57,3.57,0,0,1-.55.66,1,1,0,0,1-.67.26Zm.34-2.93a1.23,1.23,0,0,0-.24.26,1.88,1.88,0,0,0-.21.37,2.85,2.85,0,0,0-.16.44,3.82,3.82,0,0,0-.09.44.56.56,0,0,0,.34-.12,1.18,1.18,0,0,0,.32-.31,1.53,1.53,0,0,0,.23-.44,1.47,1.47,0,0,0,.09-.5c0-.1,0-.15-.1-.18a.19.19,0,0,0-.18,0Z"/><path id="path4785" d="M70.09,386.68v-.06s0,0,0-.07c-.07.13-.13.25-.21.37a1.47,1.47,0,0,1-.23.31,1,1,0,0,1-.26.21.54.54,0,0,1-.3.08.56.56,0,0,1-.47-.2,1,1,0,0,1-.15-.49,4,4,0,0,1,0-.75,4.1,4.1,0,0,1,.22-.78,2.81,2.81,0,0,1,.36-.69,1.49,1.49,0,0,1,.53-.48.34.34,0,0,1,.22-.05.52.52,0,0,1,.21,0,.67.67,0,0,1,.21.09l.2.1c.07-.31.14-.6.21-.88s.15-.52.22-.73a5,5,0,0,1,.2-.51c.07-.12.12-.18.18-.18a.54.54,0,0,1,.18,0l.25.08.22.12c.07,0,.1.07.1.11s0,0,0,0l-.06.08,0,.06a5.32,5.32,0,0,0-.34.84c-.12.37-.23.76-.34,1.19s-.19.85-.28,1.27-.14.77-.18,1.07,0,.22.14.1a3.46,3.46,0,0,0,.35-.46c.11-.19.21-.37.3-.56s.18-.37.26-.56L72,385a.12.12,0,0,1,.07-.07h.09a.09.09,0,0,1,.06.06.14.14,0,0,1,0,.09c0,.1-.1.23-.16.39s-.13.33-.22.52-.18.37-.28.56-.21.35-.33.51a1.81,1.81,0,0,1-.36.37.61.61,0,0,1-.36.14.41.41,0,0,1-.27-.08.6.6,0,0,1-.14-.21,1.18,1.18,0,0,1,0-.27,2.53,2.53,0,0,1,0-.28Zm.13-2.21a.5.5,0,0,0-.39.22,2.43,2.43,0,0,0-.3.56,5.63,5.63,0,0,0-.21.69,3.44,3.44,0,0,0-.11.64.92.92,0,0,0,0,.35q.06.12.15.12c.1,0,.2-.09.31-.27a3.71,3.71,0,0,0,.29-.53c.09-.21.17-.42.24-.64l.09-.49c0-.17.07-.34.1-.51a.19.19,0,0,0-.19-.14Z"/><path id="path4787" d="M73,386.94a1,1,0,0,0,0-.16,1.11,1.11,0,0,1,0-.17.07.07,0,0,0,0-.05,3,3,0,0,1-.43.68.67.67,0,0,1-.53.28.57.57,0,0,1-.4-.14.72.72,0,0,1-.16-.39,3,3,0,0,1,0-.78,3.54,3.54,0,0,1,.23-.83,3.49,3.49,0,0,1,.4-.74,1.58,1.58,0,0,1,.56-.51.33.33,0,0,1,.21-.05.57.57,0,0,1,.22,0,1,1,0,0,1,.22.09l.23.12,0-.05,0-.06c0-.07.07-.11.12-.11l.14,0a.76.76,0,0,1,.16.06l.14.08.11.08s.06.07,0,.13a.83.83,0,0,0-.07.13c-.07.19-.13.39-.2.6s-.12.42-.17.63-.1.42-.14.62-.07.37-.1.52,0,.1,0,.1.06,0,.09,0a2.45,2.45,0,0,0,.36-.46,3.91,3.91,0,0,0,.31-.57q.13-.28.24-.57c.07-.19.14-.35.19-.5a.12.12,0,0,1,.07-.07H75a.09.09,0,0,1,.06.06.1.1,0,0,1,0,.09c0,.1-.09.23-.16.39s-.13.33-.21.52-.18.37-.28.56-.21.35-.32.51a2,2,0,0,1-.34.37.61.61,0,0,1-.36.14.54.54,0,0,1-.21,0,.64.64,0,0,1-.15-.14.61.61,0,0,1-.09-.18.5.5,0,0,1,0-.21Zm-.66.14a.29.29,0,0,0,.21-.14,2.82,2.82,0,0,0,.23-.36,4.49,4.49,0,0,0,.22-.49c.07-.18.13-.35.19-.52s.11-.32.15-.46.08-.24.1-.31a.49.49,0,0,0,0-.11,1.17,1.17,0,0,1,0-.11.24.24,0,0,0-.21-.11.55.55,0,0,0-.41.24,2.35,2.35,0,0,0-.34.59,4.34,4.34,0,0,0-.24.72,5.22,5.22,0,0,0-.1.65.49.49,0,0,1,0,.11.57.57,0,0,0,0,.13l0,.12a.1.1,0,0,0,.08.05Z"/><path id="path4789" d="M75.83,386.58a3,3,0,0,1-.43.67.69.69,0,0,1-.52.27.57.57,0,0,1-.4-.14.66.66,0,0,1-.17-.39,3,3,0,0,1,0-.78,4.87,4.87,0,0,1,.23-.83,3.52,3.52,0,0,1,.41-.74,1.58,1.58,0,0,1,.56-.51.33.33,0,0,1,.21-.05.69.69,0,0,1,.24.05l.22.1.21.1s0,0,0-.05a.14.14,0,0,1,0-.06c0-.07.07-.11.12-.11a.64.64,0,0,1,.3.09,1.33,1.33,0,0,1,.26.16.07.07,0,0,1,0,.08.16.16,0,0,1,0,.09,1.8,1.8,0,0,0-.08.21c-.09.3-.18.61-.26.91s-.14.59-.21.85v.08a6.31,6.31,0,0,0,.64-.71,3.66,3.66,0,0,0,.49-.92.09.09,0,0,1,.06-.07h.09a.13.13,0,0,1,.07.06.11.11,0,0,1,0,.08,3.91,3.91,0,0,1-.64,1.12,5.32,5.32,0,0,1-.81.83c-.06.28-.13.56-.2.83s-.16.55-.26.82a1.82,1.82,0,0,1-.41.68,1,1,0,0,1-.74.26.81.81,0,0,1-.31-.06.64.64,0,0,1-.25-.21.7.7,0,0,1-.12-.28.81.81,0,0,1,0-.31,1.11,1.11,0,0,1,.1-.29,1.38,1.38,0,0,1,.17-.25,2.06,2.06,0,0,1,.26-.25l.3-.21.31-.2.3-.18c0-.12.06-.24.1-.36s.07-.25.1-.38Zm.27-2.11a.55.55,0,0,0-.41.24,2.69,2.69,0,0,0-.33.59,4.34,4.34,0,0,0-.24.72,3.84,3.84,0,0,0-.1.65.49.49,0,0,1,0,.11.57.57,0,0,0,0,.13.53.53,0,0,0,0,.12.1.1,0,0,0,.08.05.29.29,0,0,0,.21-.14,2.82,2.82,0,0,0,.23-.36c.07-.15.14-.31.21-.49s.14-.35.2-.52.1-.32.15-.46.08-.24.1-.31,0-.07,0-.11,0-.08,0-.11a.24.24,0,0,0-.21-.11Zm-1.33,4.69a.33.33,0,0,0,.23-.11.74.74,0,0,0,.2-.33c0-.15.1-.31.15-.49s.12-.36.17-.55l-.32.21a3,3,0,0,0-.34.26,1.52,1.52,0,0,0-.26.32.62.62,0,0,0-.09.38.42.42,0,0,0,.06.21.22.22,0,0,0,.2.1Z"/><path id="path4791" d="M78,386.92h.08l.25-.05.25-.07a1.75,1.75,0,0,0,.21-.39,3.41,3.41,0,0,0,.18-.48,2.88,2.88,0,0,0,.11-.49,2.68,2.68,0,0,0,0-.46.85.85,0,0,0,0-.32.27.27,0,0,0-.15-.15.3.3,0,0,0-.2,0,.67.67,0,0,0-.22.18,2.1,2.1,0,0,0-.31.51,2.74,2.74,0,0,0-.21.63,2.6,2.6,0,0,0-.07.61A1.15,1.15,0,0,0,78,386.92Zm.34-2.79a.47.47,0,0,1,.31,0,1,1,0,0,1,.3.13.94.94,0,0,1,.37.07.91.91,0,0,1,.31.16,1,1,0,0,1,.22.24.58.58,0,0,1,.07.28,2.46,2.46,0,0,1-.07.6,3,3,0,0,1-.18.6,3.44,3.44,0,0,0,.89-1.23.07.07,0,0,1,.06-.06h.09a.09.09,0,0,1,.06.06.1.1,0,0,1,0,.09,3.32,3.32,0,0,1-1.34,1.59,2.23,2.23,0,0,1-.56.65,1.12,1.12,0,0,1-.71.25.87.87,0,0,1-.42-.1,1.3,1.3,0,0,1-.31-.26,1.63,1.63,0,0,1-.19-.34,1.18,1.18,0,0,1-.06-.36,3.25,3.25,0,0,1,.07-.67,5.3,5.3,0,0,1,.23-.67,2.58,2.58,0,0,1,.36-.58,1.56,1.56,0,0,1,.49-.41Z"/><path id="path4793" d="M81.48,386.58a3.36,3.36,0,0,1-.43.67.7.7,0,0,1-.52.27.6.6,0,0,1-.41-.14A.73.73,0,0,1,80,387a2.62,2.62,0,0,1,0-.78,3.54,3.54,0,0,1,.23-.83,3.49,3.49,0,0,1,.4-.74,1.7,1.7,0,0,1,.57-.51.31.31,0,0,1,.21-.05.69.69,0,0,1,.24.05l.21.1.22.1a.43.43,0,0,0,0-.05l0-.06c0-.07.07-.11.12-.11a.71.71,0,0,1,.3.09,1.74,1.74,0,0,1,.26.16.11.11,0,0,1,0,.08l0,.09a.9.9,0,0,0-.08.21c-.1.3-.19.61-.27.91l-.2.85,0,.08a5.47,5.47,0,0,0,.64-.71,3.68,3.68,0,0,0,.5-.92.09.09,0,0,1,.06-.07h.08a.13.13,0,0,1,.07.06.06.06,0,0,1,0,.08,3.67,3.67,0,0,1-.63,1.12,6.4,6.4,0,0,1-.81.83c-.07.28-.13.56-.21.83a7.81,7.81,0,0,1-.26.82,1.7,1.7,0,0,1-.41.68.94.94,0,0,1-.74.26.89.89,0,0,1-.31-.06.72.72,0,0,1-.25-.21.57.57,0,0,1-.11-.28.81.81,0,0,1,0-.31.86.86,0,0,1,.11-.29,1,1,0,0,1,.17-.25,2,2,0,0,1,.25-.25l.3-.21.31-.2.3-.18c0-.12.07-.24.1-.36Zm.27-2.11a.52.52,0,0,0-.41.24,2.07,2.07,0,0,0-.33.59,4.34,4.34,0,0,0-.24.72,4,4,0,0,0-.11.65.49.49,0,0,1,0,.11s0,.09,0,.13a.56.56,0,0,0,0,.12.08.08,0,0,0,.07.05.33.33,0,0,0,.22-.14,2.84,2.84,0,0,0,.22-.36,4.51,4.51,0,0,0,.21-.49c.08-.18.14-.35.2-.52s.11-.32.15-.46.08-.24.11-.31l0-.11a.76.76,0,0,0,0-.11.22.22,0,0,0-.2-.11Zm-1.33,4.69a.33.33,0,0,0,.23-.11.74.74,0,0,0,.19-.33c0-.15.11-.31.16-.49s.11-.36.17-.55l-.33.21c-.12.08-.23.17-.34.26a1.92,1.92,0,0,0-.26.32.69.69,0,0,0-.09.38.58.58,0,0,0,.07.21.21.21,0,0,0,.2.1Z"/><path id="path4795" d="M82.81,386.94a1,1,0,0,0,0-.16,1.11,1.11,0,0,1,0-.17,11.87,11.87,0,0,1,.27-1.23,7.49,7.49,0,0,1,.39-1.16c0-.07.08-.11.13-.11l.14,0,.16.06.14.08.11.08s0,.07,0,.13a.38.38,0,0,0-.06.13q-.11.28-.21.6l-.18.63c-.06.21-.11.42-.15.62l-.11.52c0,.06,0,.1,0,.1s.06,0,.09,0a2.48,2.48,0,0,0,.37-.46,5.18,5.18,0,0,0,.31-.57c.09-.19.18-.38.25-.57l.21-.5a.12.12,0,0,1,.07-.07h.08a.09.09,0,0,1,.06.06.1.1,0,0,1,0,.09l-.15.39c-.06.16-.14.33-.22.52s-.18.37-.29.56-.21.35-.32.51a2.55,2.55,0,0,1-.36.37.61.61,0,0,1-.36.14.46.46,0,0,1-.2,0,.52.52,0,0,1-.16-.14.61.61,0,0,1-.09-.18.5.5,0,0,1,0-.21Z"/><path id="path4797" d="M85.73,386.94a.92.92,0,0,0,0-.16l0-.17a.43.43,0,0,0,0-.05,3.44,3.44,0,0,1-.43.68.69.69,0,0,1-.53.28.56.56,0,0,1-.4-.14.73.73,0,0,1-.17-.39,3.47,3.47,0,0,1,0-.78,4.1,4.1,0,0,1,.23-.83,4,4,0,0,1,.4-.74,1.7,1.7,0,0,1,.57-.51.31.31,0,0,1,.2-.05.62.62,0,0,1,.23,0l.22.09.23.12,0-.05s0,0,0-.06.08-.11.13-.11l.14,0,.16.06.14.08.11.08s.05.07,0,.13a.75.75,0,0,0-.06.13c-.07.19-.14.39-.2.6s-.12.42-.17.63-.1.42-.14.62-.07.37-.1.52,0,.1,0,.1.06,0,.1,0a2.45,2.45,0,0,0,.36-.46c.11-.18.21-.37.31-.57a4.53,4.53,0,0,0,.23-.57l.2-.5a.12.12,0,0,1,.07-.07h.08a.09.09,0,0,1,.06.06.1.1,0,0,1,0,.09l-.15.39c-.06.16-.13.33-.21.52s-.18.37-.29.56a4.33,4.33,0,0,1-.31.51,2.49,2.49,0,0,1-.34.37.61.61,0,0,1-.36.14.46.46,0,0,1-.21,0,.4.4,0,0,1-.15-.14,1,1,0,0,1-.1-.18.74.74,0,0,1,0-.21Zm-.66.14a.29.29,0,0,0,.21-.14,2.84,2.84,0,0,0,.22-.36,4.48,4.48,0,0,0,.23-.49c.06-.18.13-.35.18-.52a4.27,4.27,0,0,0,.16-.46c0-.14.08-.24.1-.31l0-.11.06-.11a.25.25,0,0,0-.21-.11.55.55,0,0,0-.42.24,2.34,2.34,0,0,0-.33.59,4.34,4.34,0,0,0-.24.72,3.84,3.84,0,0,0-.1.65s0,.06,0,.11a.57.57,0,0,0,0,.13.27.27,0,0,0,0,.12.09.09,0,0,0,.08.05Z"/></g><g id="text4743"><path id="path4767" d="M84.22,383.83a.26.26,0,0,1-.18-.07.28.28,0,0,1-.07-.19.44.44,0,0,1,0-.14l.68-1.52a.46.46,0,0,1,.17-.21.46.46,0,0,1,.24-.08.51.51,0,0,1,.33.13.45.45,0,0,1,.14.33.63.63,0,0,1-.16.41l-.94,1.22a.3.3,0,0,1-.24.12Z"/></g></g></g></svg>