<svg xmlns="http://www.w3.org/2000/svg" viewBox="0 0 119.53 120.31"><defs><style>.cls-1{fill:#fff;}.cls-2{fill:#f86e6e;}</style></defs><g id="Capa_1" data-name="Capa 1"><ellipse class="cls-1" cx="59.76" cy="60.16" rx="59.76" ry="60.16"/><ellipse class="cls-2" cx="80.92" cy="39.21" rx="4.64" ry="4.67"/><path class="cls-2" d="M60.28,40.53a19.63,19.63,0,1,0,19.5,19.63A19.59,19.59,0,0,0,60.28,40.53Zm0,32.2A12.58,12.58,0,1,1,72.77,60.16,12.54,12.54,0,0,1,60.28,72.73Z"/><path class="cls-2" d="M75.76,100H44.14a23.9,23.9,0,0,1-23.78-24V44.24A23.89,23.89,0,0,1,44.14,20.3H75.76A23.89,23.89,0,0,1,99.55,44.24V76.07A23.9,23.9,0,0,1,75.76,100ZM44.14,27.8A16.41,16.41,0,0,0,27.81,44.24V76.07A16.41,16.41,0,0,0,44.14,92.52H75.76A16.41,16.41,0,0,0,92.1,76.07V44.24A16.41,16.41,0,0,0,75.76,27.8Z"/></g></svg>