<svg id="Capa_2" data-name="Capa 2" xmlns="http://www.w3.org/2000/svg" xmlns:xlink="http://www.w3.org/1999/xlink" viewBox="0 0 1366 623.8"><defs><style>.cls-1{fill:none;}.cls-2{clip-path:url(#clip-path);}.cls-3{fill:#f20d5f;}.cls-4{fill:#793292;}.cls-5{fill:#f6bd0f;}.cls-6{fill:#169a8f;}.cls-7{fill:#f01586;}.cls-8{clip-path:url(#clip-path-2);}.cls-9{fill:#19917a;}.cls-10{opacity:0.05;}.cls-11{clip-path:url(#clip-path-3);}.cls-12,.cls-13{fill:#fff;}.cls-13{font-size:36px;font-family:FuturaBT-Book, Futura Bk BT;}.cls-14{clip-path:url(#clip-path-4);}</style><clipPath id="clip-path"><rect class="cls-1" x="72.82" y="-682.56" width="1366" height="623.8"/></clipPath><clipPath id="clip-path-2"><rect class="cls-1" x="-1366" width="1366" height="623.8"/></clipPath><clipPath id="clip-path-3"><rect class="cls-1" width="1366" height="623.8"/></clipPath><clipPath id="clip-path-4"><rect class="cls-1" x="1366" width="1366" height="623.8"/></clipPath></defs><g class="cls-2"><path class="cls-3" d="M879.69-13.19A49.26,49.26,0,0,0,893,.39c-6.67-.95-12.34-6.95-13.26-13.58Z"/><path class="cls-4" d="M715.07-91c-12.94,26.81-9.89,60.72,9.36,83.71a72.74,72.74,0,0,0,22.91,18.65A65.29,65.29,0,0,1,723.2-6.25C702.9-29,699.72-64.82,715.07-91Z"/><path class="cls-4" d="M1127.34-27.9c9.42-2.19,18.94-4.38,28.6-4.34s19.63,2.48,27.07,8.65c3.76,3.11,6.88,7.32,7.55,12.15S1189-1.19,1184.5.79a16.43,16.43,0,0,1-6.31,1.06c-6.65.14-13.5-.8-19.24-4.14-10.66-6.19-17.18-20.19-29.46-21.2"/><path class="cls-5" d="M1124.9,21.31a55.68,55.68,0,0,1,21.46,30.76c.8,2.93,1.32,6.14.14,8.93-2.07,4.9-9,6.36-13.63,3.81s-7.19-7.93-7.83-13.21.26-10.61.82-15.9.74-10.81-1.28-15.73"/><path class="cls-3" d="M933.17,5c6.37,1.87,12.85,3.8,18.38,7.49s10,9.47,10.55,16.09c.15,2-.18,4.28-1.73,5.59s-4.21,1.19-6.09.11a15.7,15.7,0,0,1-4.5-4.61q-8.67-11.74-17-23.73"/><path class="cls-3" d="M918.74,25.25l-9.54,5.49c-2.91,1.66-5.93,3.45-7.67,6.31s-1.68,7.12,1.05,9.06,7.11.45,9.22-2.36,2.72-6.43,3.48-9.87,1.91-7,4.69-9.2"/><path class="cls-5" d="M416.47,17c4-6.9,16.52-5.25,18.56,2.45s-8,15.36-14.89,11.34a18.6,18.6,0,0,1-2.44-13.21"/><path class="cls-5" d="M842.74,84.69c-1.82,6.4-1.72,14,2.92,18.79s14.64,3.52,16-3c2-9.69-13.56-12.49-18.87-20.84"/><path class="cls-5" d="M635.32-10.94A84.38,84.38,0,0,1,607.46,8.15c-7.52,3.16-17.07,7.34-16.85,15.49a12,12,0,0,0,3.87,8c9.21,9,25.88,4.07,33.37-6.39s8.36-24.12,9-37"/><path class="cls-4" d="M533.13,55.21a5.33,5.33,0,1,0-5.33-5.33,5.38,5.38,0,0,0,5.33,5.33Z"/><path class="cls-6" d="M1041.42,15.93a5.38,5.38,0,0,0,5.32-5.32,5.33,5.33,0,1,0-10.65,0,5.42,5.42,0,0,0,5.33,5.32Z"/><path class="cls-7" d="M986,82.59c3.43,0,3.43-5.33,0-5.33s-3.43,5.33,0,5.33Z"/><path class="cls-3" d="M821.12,37.24c3.43,0,3.43-5.33,0-5.33s-3.43,5.33,0,5.33Z"/><path class="cls-3" d="M497.66,9.51c3.43,0,3.44-5.33,0-5.33s-3.43,5.33,0,5.33Z"/><path class="cls-3" d="M701.75,94.58a5.33,5.33,0,1,0-5.33-5.33,5.39,5.39,0,0,0,5.33,5.33Z"/><path class="cls-6" d="M595.47,142.75c3.43,0,3.43-5.33,0-5.33s-3.43,5.33,0,5.33Z"/></g><g class="cls-8"><rect class="cls-9" x="-1366" y="-29.2" width="1366" height="683"/></g><g class="cls-11"><rect class="cls-5" y="-24.2" width="1366" height="683"/><g class="cls-10"><path class="cls-12" d="M550.1,159.9a91.6,91.6,0,0,1,43.69-43.06A150,150,0,0,0,550.1,159.9Z"/><path class="cls-12" d="M505.66,136.27c-5.23-16.15-11.49-33.44-17.8-49.19a134.84,134.84,0,0,1,17.8,49.19Z"/><path class="cls-12" d="M923.55,582.11c-2.85,25-25.51,40.42-43.14,55.61-23.9,20.28-44.43,48.46-44,81a67.35,67.35,0,0,0,4.18,23.41,64.85,64.85,0,0,1-5.19-23.39c-1.32-33.11,19.3-62.14,43.81-82.46,17.69-15.11,40.29-29.5,44.36-54.19Z"/><path class="cls-12" d="M1101.63,197.19a52.41,52.41,0,0,0,36.17,2.12c-11,6.5-26,5.57-36.17-2.12Z"/><path class="cls-12" d="M1086.07,218.25c10.86,32.41,9.14,68.55,43.31,87.25a58.55,58.55,0,0,0,32.34,7.25,55,55,0,0,1-33.09-5.83c-35.3-18.36-34-55.16-42.56-88.67Z"/><path class="cls-12" d="M786.64,74.9C746.87,37.59,737-25.23,761-73.79a119.87,119.87,0,0,1,11.94-19.57,131.58,131.58,0,0,0-11,20C739.53-24.46,749.23,36.07,786.64,74.9Z"/><path class="cls-12" d="M278,419.31c-77.08,44.11-116.63,135-103.19,221.82,4.39,28.27,14.8,57.07,36.36,76.83-11.06-9.43-19.42-21.74-25.54-34.89-15-33.26-17.78-71-13.16-106.9C180.67,511.28,220,450.34,278,419.31Z"/><path class="cls-12" d="M913.22,505.22c33.58,27.71,73.67,52.33,118.18,35.64,5.9-2,11.66-4.34,17.46-6.61-5.62,2.7-11.3,5.26-17.11,7.56-44.3,18.52-86.6-6.55-118.53-36.59Z"/><path class="cls-12" d="M1078.24,317.4c106.16,40.35,183.31,140.5,204.09,251.12a354.08,354.08,0,0,1,6,47.77,375.29,375.29,0,0,0-7-47.57c-22.23-110-98.42-208.69-203.1-251.32Z"/><path class="cls-12" d="M977,594.73c18,64.38,63.12,121.41,123.35,151.1a210.56,210.56,0,0,0,26.55,11,190.65,190.65,0,0,1-27-10c-61.2-28.45-107.33-86.54-122.92-152Z"/><path class="cls-12" d="M706.79,69.4c-6.94,5.06-10.85,13.33-11.87,21.71-2.06,17.11,8.64,33.27,22.69,42.26a94.71,94.71,0,0,0,23.3,10.55c-12.59-2.7-25.22-7.93-34.5-17.2A46.05,46.05,0,0,1,693.71,104C691,91.38,695.32,76.32,706.79,69.4Z"/><path class="cls-12" d="M350.47,330.34C228.16,272.7,119.33,170.82,108.24,29.17c-3.7-44.77,3.41-91,24.35-131A221.77,221.77,0,0,0,112.14-38c-14.53,89.15,18.07,181.69,77.25,248.61,44.28,50.93,101.06,89.56,161.08,119.71Z"/><path class="cls-12" d="M1127,146c12-7.32,26.94-7.1,40.4-5.07,10.14,1.57,20.79,4.19,28.93,10.85a29,29,0,0,1,6.71,7.87c-4.11-5.56-10-9.33-16.24-11.82a88.66,88.66,0,0,0-19.71-4.86c-13.38-2-27.47-2.73-40.09,3Z"/><path class="cls-12" d="M1139.53,37.06c27-36.92,75.26-61.12,119-38.59A67,67,0,0,1,1274.2,9.89,74.27,74.27,0,0,0,1240-6.67c-39.07-8.18-76.17,14.65-100.46,43.73Z"/><path class="cls-12" d="M58.7,455.09c20.7-47,75.82-76,126.28-65.83A96.66,96.66,0,0,1,205.69,396a103.61,103.61,0,0,0-20.9-5.74C134.6,381.74,81.53,409.91,58.7,455.09Z"/><path class="cls-12" d="M179.57,355.6c-15.79-12.09-21-36.19-12.34-54-5.6,18.56-1.08,39.83,12.34,54Z"/><path class="cls-12" d="M1113.27.87a202.06,202.06,0,0,0-38.62-67.36A131,131,0,0,1,1113.27.87Z"/><path class="cls-12" d="M717.11,528.32c62.65,2.12,105.21,60,98.7,120.48A108.82,108.82,0,0,1,810.48,673a120.42,120.42,0,0,0,3.64-48.94c-5.81-50.32-45.8-92.14-97-95.77Z"/><path class="cls-12" d="M861.2,280.38c124.31-5.05,249.53,54,329.59,155.41,31.23,39.56,56.34,86.87,60.41,138.38S1234.64,681.41,1192.49,707c-41.44,25.16-96,16.46-135.07-12.62S993,619,977.77,570.89,956.29,472,947.75,422c-10.13-59.27-29.86-126.17-82.12-149.18"/><path class="cls-12" d="M472.64,360.81C419.43,369.83,366.3,384,319,411.58s-88.55,69.55-108.91,122.69-17.29,117.85,14.69,164c9.33,13.49,21.08,25.36,35.18,32.77,15.73,8.26,33.69,10.64,51.23,10.15,30.6-.86,61.66-10.63,85.1-31.62,43.2-38.7,51.95-104.94,55.89-164.93s8.07-125.46,46.26-169.75"/><path class="cls-12" d="M468.27,518.74c29.93,18.51,58.38,43.86,81.65,71.16,14.17,16.64,27.31,35.74,30.4,58s-7,47.88-27,55c-18.92,6.7-40.11-5.25-51.58-22.63s-15.37-39-18.86-59.88S478.25,534.72,467.31,517"/><path class="cls-12" d="M529.5,157.33a383.55,383.55,0,0,1-4.36-110.07c2.36-22.33,7.13-45.46,20.76-62.61s38.35-26,56.57-14.74c17.22,10.7,22.81,35.55,18.14,56.19s-17.3,38.06-29.73,54.66S533.62,141,528.34,161.51"/><path class="cls-12" d="M911.51,561.21A449,449,0,0,0,863.41,439c-13.28-23-29.59-45.61-52.66-56.86s-54.26-7.46-68.66,14.78c-13.62,21-7.77,51.13,7.22,71.06s37.1,32,58.61,43.31,85.88,39.82,101.47,59.23"/><path class="cls-12" d="M872.49,449.14C792.3,337.25,777.37,176.46,835.42,50,852.06,13.76,874.76-20.3,906-43.14s71.82-33.24,107.93-21.11c61.84,20.78,91.53,101.58,79.37,169.43S1037.81,229.42,992.7,279s-89.61,107.4-119.37,168.77"/><path class="cls-12" d="M888.91,474.64c29.44-25.5,66.48-40.88,104.35-43.32,32.15-2.08,72.54,14.08,73.4,48.37.6,24.37-21.38,44.08-44,47.68s-45.32-4.87-66.51-14.09-44.14-33.65-67-33.9"/><path class="cls-12" d="M1094.68,204.26a135.44,135.44,0,0,0,32.09,72.32c14.76,16.79,41.43,28.75,56.67,12.46,10.84-11.57,8.65-32-.82-44.82s-24.17-19.87-38.48-25.78-36.59-3.62-47.85-14.73"/><path class="cls-12" d="M557.11,336.35c-83.29,11.06-169.95-9.08-241.34-56.09S188.7,159.68,160.75,75.37C142.61,20.64,137.86-45.92,172.9-90.37c36-45.63,104.35-50.49,153.66-22.35s81.59,82,100.71,138,27.17,115.51,41.14,173.22,45.8,92.72,85.52,134.69"/><path class="cls-12" d="M224.11,402.6a221.48,221.48,0,0,0-65.94,4.53c-21.59,4.77-43,13.08-59.85,28.25s-28.52,38-27.16,61.47S89,543,110.86,546.38c22.29,3.46,44.21-13.57,53.47-35.45,4.85-11.45,6.9-24,10.54-35.91,9.42-30.89,30-57.73,56.51-73.73"/><path class="cls-12" d="M330.63,380.61c-39.53,13.94-84.6,8.9-120.55-13.48-11.69-7.27-23.27-17.79-25-32.08-2.11-17.59,13-33.78,29.49-36.29s33,5.73,45.78,17.09,22.83,25.78,34.28,38.66,21.54,20.21,37.82,23.94"/><path class="cls-12" d="M774,187.27c55.48,100,1.26,230.15-77.57,307.76-25.35,25-56,45.31-90.09,51.07s-71.84-5.17-93.85-33.5c-27.09-34.85-24.2-89-.6-126.62,28.5-45.45,75.16-84.71,126.28-89.48,96.75-9,142.56-96.19,137.05-105.32"/><path class="cls-12" d="M786.75,158.38c1-17.23-1-35.15-8.89-50.2S755.22,81.44,739,80.93c-8.7-.27-18.4,3.6-21.67,12.18-4.17,11,4.27,23.09,14.09,28.6s21.27,7.27,30.73,13.46A42.93,42.93,0,0,1,780,161.36"/><path class="cls-12" d="M681.08,553c31.91-2.51,64.6,8.81,89,30.85C788,599.92,801.78,623.1,801.36,648s-18.69,50-42.09,50.83c-25.63.91-51.72-23.63-53.64-50.88-3.12-44.24-5.89-79.91-22.6-93.47"/><path class="cls-12" d="M801.6,70.7c-36.35-31.93-46.52-92.95-22.71-136.25,10.5-19.09,27.79-35.08,48.33-38.3s43.64,9.28,49.32,30.56C883.6-46.8,863.65-21.52,845-2.43s-47.27,45.6-41.8,72.52"/><path class="cls-12" d="M949.59,569.43c10.85,40,32.84,81.78,28.94,123.2s-29.55,84-68.14,90.59c-11.77,2-24.54.37-34.27-7-11.7-8.87-17.32-24.81-17.38-40.11s-.22-30.21,5.36-44.3c3.88-9.83,14-22.27,20.32-30.56,6-7.85,12.68-11.4,19.67-18.22A198.07,198.07,0,0,0,950,573.1"/><path class="cls-12" d="M1110.32,134.5c17.09-30.11,28.85-68.6,55.24-89.75s65.87-28.56,91.84-6.84c7.94,6.63,14.29,16,15.57,26.68,1.54,12.82-4.54,25.67-13.41,34.48s-17.49,17.46-28.9,21.85c-8,3.07-21,3.49-29.47,4.06-8,.55-13.9-1.85-21.89-2.57a147.79,147.79,0,0,0-67.08,9.72"/><path class="cls-12" d="M1228.58,320c9.9,7,18.93,17.69,17.94,29.77a11.66,11.66,0,0,1-2.75,7.19c-1.79,1.9-4.83,2.79-7.13,1.54a8.43,8.43,0,0,1-2.69-2.66,36,36,0,0,1-3.65-34.72"/><path class="cls-12" d="M623.42,634.77c-5.12-2.47-4.06-11.25,1.15-13.51s11.62,1.27,13.89,6.47c1.31,3,1.46,6.69-.42,9.36s-6.09,3.67-8.55,1.52"/><path class="cls-12" d="M724.58,54.29l-8.19-9.18c-3.26-3.65-6.68-7.65-7.1-12.53s3.93-10.32,8.64-9c2.39.66,4.05,2.77,5.54,4.76,4.57,6.08,9.35,14,5.85,20.76"/><path class="cls-6" d="M461.75,23.15c-.09-4.32,4.8-7.94,8.91-6.59s5.91,7.17,3.28,10.59-8.72,3.2-11.08-.41"/><path class="cls-12" d="M464.25,23.15c0-.16,0-.31,0-.47v-.16c0-.28,0-.21,0,.2.11-.11.13-.59.18-.76a1.68,1.68,0,0,0,.16-.44l-.13.31c0-.1.09-.19.13-.28.15-.29.32-.54.49-.81.3-.47-.38.42,0,0l.32-.36c.18-.19.38-.36.58-.55.4-.38-.47.32,0,0l.39-.27c.27-.17.55-.31.84-.46.49-.26-.55.18,0,0l.45-.15c.25-.08.51-.13.76-.19.54-.12-.6,0,0,0l.46,0h.32l.31,0-.2,0,.84.22c.28.08.25.25-.12-.06a2.35,2.35,0,0,0,.39.19c.21.11.41.25.61.38.44.28-.43-.39-.05,0l.42.4c.1.1.19.21.29.32s.11.29-.12-.17c.13.25.34.48.48.73s.23.42.34.64c.23.48-.2-.56,0-.05.06.18.13.36.18.55a6.09,6.09,0,0,1,.17.71c.05.29-.06.51,0-.08,0,.13,0,.3,0,.43a5.9,5.9,0,0,1,0,.73,3,3,0,0,0,0,.43q.09-.64,0-.24a2.3,2.3,0,0,1-.06.28,5,5,0,0,1-.19.69c-.11.32-.27.3,0-.06a2.35,2.35,0,0,0-.19.39c-.1.18-.35.42-.39.61l.21-.27a2,2,0,0,1-.19.22l-.3.32a1.81,1.81,0,0,0-.33.28c.2-.35.36-.25.05,0s-.41.25-.62.36-.27.11-.39.19c.51-.34.3-.13.06,0a7.39,7.39,0,0,1-.84.23c-.13,0-.3,0-.43.07l.23,0-.29,0a6.46,6.46,0,0,1-.88,0,3.13,3.13,0,0,0-.43,0l.23,0-.22,0a7.17,7.17,0,0,1-.91-.24,2.26,2.26,0,0,0-.41-.15c.54.1.32.14.07,0a7.56,7.56,0,0,1-.86-.52c-.34-.23.15.09.16.13,0-.13-.32-.29-.42-.39s-.2-.21-.3-.32c-.29-.31.34.49-.05-.08A2.5,2.5,0,1,0,460.7,28a9.4,9.4,0,0,0,8.55,4.06,8.9,8.9,0,0,0,7.93-5.76,9.78,9.78,0,0,0-1.46-8.93,9.07,9.07,0,0,0-4.32-3.2,8.59,8.59,0,0,0-5.19,0,9.69,9.69,0,0,0-7,9,2.5,2.5,0,0,0,5,0Z"/><path class="cls-12" d="M1249.55,179.68c6.1-3.36,15,.38,16.56,7.18S1260.8,201,1254,199.61s-10.16-11.26-5.34-16.29"/><path class="cls-12" d="M1267.84,149.67c8.88-6.48,20.15-10.16,31-8.46s21,9.34,24.14,19.89c1.62,5.48-.15,13.21-5.83,13.78-2.34.23-4.57-.9-6.65-2l-36.69-19.37"/><path class="cls-12" d="M137.15,268.18c5.92-4.42,5.07-15.1-1.48-18.54s-15.82,2-16.08,9.33,8.58,13.43,15.36,10.49"/><path class="cls-12" d="M37.64,227.31c.5,5.1,6.93,8.17,11.7,6.3s7.48-7.28,7.42-12.41c-.08-6.27-4.89-12.89-11.16-12.66s-10,10.14-4.54,13.19"/><path class="cls-12" d="M1325.75,255.87c-1.68-9.6,13-16.81,19.58-9.6s-2,21.16-11.37,18.62"/><path class="cls-12" d="M2.66,86.21A5.38,5.38,0,0,0,8,80.88a5.42,5.42,0,0,0-5.32-5.32,5.38,5.38,0,0,0-5.33,5.32,5.42,5.42,0,0,0,5.33,5.33Z"/><path class="cls-12" d="M1316.2,409.38a5.33,5.33,0,1,0-5.33-5.33,5.38,5.38,0,0,0,5.33,5.33Z"/><path class="cls-12" d="M644,121.3a5.33,5.33,0,1,0-5.32-5.33A5.39,5.39,0,0,0,644,121.3Z"/><path class="cls-12" d="M77.4,349.1c3.43,0,3.43-5.33,0-5.33s-3.43,5.33,0,5.33Z"/><path class="cls-12" d="M864.85,586c3.43,0,3.43-5.33,0-5.33s-3.43,5.33,0,5.33Z"/><path class="cls-12" d="M1201,195.45c3.43,0,3.43-5.32,0-5.32s-3.43,5.32,0,5.32Z"/><path class="cls-12" d="M583.11,589.3c3.43,0,3.43-5.32,0-5.32s-3.43,5.32,0,5.32Z"/></g></g><path class="cls-12" d="M569,357.83a21.9,21.9,0,0,1,1.65-8.47,21.11,21.11,0,0,1,4.8-7.09,22,22,0,0,1,7.16-4.74,22.53,22.53,0,0,1,8.54-1.62,21.93,21.93,0,0,1,8.42,1.64,22.69,22.69,0,0,1,7.23,4.81,20.91,20.91,0,0,1,4.8,7,21.84,21.84,0,0,1,1.65,8.43,21.41,21.41,0,0,1-1.65,8.38,21.09,21.09,0,0,1-4.8,7,23.05,23.05,0,0,1-7.27,4.89,21.59,21.59,0,0,1-8.38,1.69,22,22,0,0,1-8.52-1.67,22.19,22.19,0,0,1-12-11.9A21.33,21.33,0,0,1,569,357.83Zm7.38,0a15.12,15.12,0,0,0,4.32,10.92,14,14,0,0,0,10.45,4.47,13.8,13.8,0,0,0,10.36-4.47,16.1,16.1,0,0,0,0-21.84,13.79,13.79,0,0,0-10.36-4.46,14,14,0,0,0-10.48,4.46A15.2,15.2,0,0,0,576.33,357.83Z"/><path class="cls-12" d="M661.93,309.14v68.92h-6.76v-7.38a17.58,17.58,0,0,1-6.22,6.76,16,16,0,0,1-8.54,2.36q-8.76,0-14.12-6t-5.36-15.94q0-10,5.25-16t14-6A15.62,15.62,0,0,1,655,345V309.14Zm-6.76,48.78q0-6.81-3.78-11a12.83,12.83,0,0,0-10-4.16q-6.18,0-9.65,3.78T628.31,357q0,7.52,3.52,11.76a11.89,11.89,0,0,0,9.69,4.25q6.4,0,10-4T655.17,357.92Z"/><path class="cls-12" d="M712.44,358.76H680.21v.63c0,4.35,1.24,7.88,3.73,10.56a12.69,12.69,0,0,0,9.74,4,12.94,12.94,0,0,0,7.38-2.2,19.17,19.17,0,0,0,5.83-6.65l5.29,3.56a20.38,20.38,0,0,1-18.86,11.12q-9.29,0-15-6.14t-5.73-16.1q0-9.56,5.69-15.65a19.14,19.14,0,0,1,14.63-6.09q9,0,14.3,5.78t5.26,15.79ZM705,353.12a11.7,11.7,0,0,0-3.58-8.3c-2.15-1.93-5.09-2.91-8.82-2.91a11.89,11.89,0,0,0-12.36,11.21Z"/><path class="cls-12" d="M723,378.06V337.38h6.18v8.44q2.81-5.28,6-7.55a12.77,12.77,0,0,1,7.69-2.27,13.4,13.4,0,0,1,2.4.2,14,14,0,0,1,2.31.6l-2.31,6.27a16.35,16.35,0,0,0-2.27-.6,10.51,10.51,0,0,0-2-.2q-5.52,0-8.27,4t-2.76,12v19.83Z"/><path class="cls-12" d="M751.62,357.83a22.07,22.07,0,0,1,1.64-8.47,21.28,21.28,0,0,1,4.81-7.09,21.93,21.93,0,0,1,7.16-4.74,22.48,22.48,0,0,1,8.53-1.62,22,22,0,0,1,8.43,1.64,22.91,22.91,0,0,1,7.23,4.81,20.91,20.91,0,0,1,4.8,7,22,22,0,0,1,1.64,8.43,21.59,21.59,0,0,1-1.64,8.38,21.09,21.09,0,0,1-4.8,7,23.17,23.17,0,0,1-7.27,4.89,21.61,21.61,0,0,1-8.39,1.69,22.12,22.12,0,0,1-15.69-6.45,22.57,22.57,0,0,1-4.81-7.12A21.51,21.51,0,0,1,751.62,357.83Zm7.38,0a15.15,15.15,0,0,0,4.31,10.92,14,14,0,0,0,10.45,4.47,13.77,13.77,0,0,0,10.36-4.47,16.1,16.1,0,0,0,0-21.84,13.76,13.76,0,0,0-10.36-4.46,14,14,0,0,0-10.47,4.46A15.2,15.2,0,0,0,759,357.83Z"/><path class="cls-12" d="M802.4,371.21l6-4a12.22,12.22,0,0,0,4.27,4.87,11.13,11.13,0,0,0,6.09,1.63,8.6,8.6,0,0,0,5.53-1.69,5.43,5.43,0,0,0,2.12-4.45,4.82,4.82,0,0,0-1.45-3.56,13.33,13.33,0,0,0-5-2.62l-1.15-.4Q804,355.88,804,348.18a11.12,11.12,0,0,1,4-8.85,15.44,15.44,0,0,1,10.4-3.42,18.4,18.4,0,0,1,9.07,2.11,12.18,12.18,0,0,1,5.43,6l-5.65,3.47a9.43,9.43,0,0,0-3.67-4.31,10.37,10.37,0,0,0-5.62-1.52,7.26,7.26,0,0,0-5,1.72,5.59,5.59,0,0,0-1.94,4.38q0,3.74,8.09,6.27c1,.33,1.81.57,2.41.75q6.62,2.14,9.22,4.87a10,10,0,0,1,2.6,7.23,11.83,11.83,0,0,1-4.11,9.36q-4.11,3.58-10.74,3.58a20.14,20.14,0,0,1-9.67-2.14A15.8,15.8,0,0,1,802.4,371.21Z"/><path class="cls-12" d="M881.68,337.38v40.68h-6.76v-7.38a17.71,17.71,0,0,1-6.24,6.78,16,16,0,0,1-8.52,2.34,18,18,0,0,1-14.12-6q-5.35-6-5.36-15.94t5.21-16q5.21-5.93,13.92-5.93A15.71,15.71,0,0,1,874.75,345v-7.64Zm-6.76,20.72q0-6.9-3.75-11.1a12.56,12.56,0,0,0-9.81-4.2q-6.27,0-9.78,3.87t-3.51,10.8q0,7.39,3.53,11.39t10,4q6.23,0,9.76-3.89T874.92,358.1Z"/><path class="cls-12" d="M525.13,288h56.65q30.45,0,47.82-18T647,221.64q0-19.19-7.92-34a59.15,59.15,0,0,0-22.23-23.29q-14.32-8.53-34.11-8.53H498.94V378.8H484.32V141.24H582.7q24,0,41.72,10.35a71.93,71.93,0,0,1,27.41,28.48q9.74,18.12,9.75,41.57,0,37.47-21.32,59.24t-58.48,21.78h-42V378.8H525.13Zm-.92-114.82h46q21.62,0,36.09,11.87T620.77,222q0,16.44-6.71,27.26a41.5,41.5,0,0,1-18.12,16.14,59.44,59.44,0,0,1-25.43,5.33h-46.3Zm46.3,82.84q14.93,0,25.28-8.38T606.14,222q0-17.67-10.35-25.89t-25.58-8.23H538.84v68.23Z"/><text class="cls-13" transform="translate(457.33 436.59)">POR QUE INVOLUCRAMOS<tspan x="136.97" y="36">LO MEJOR</tspan></text><g class="cls-14"><g class="cls-10"><path class="cls-12" d="M1368.66,89.21a5.33,5.33,0,1,0-5.33-5.33,5.38,5.38,0,0,0,5.33,5.33Z"/></g></g></svg>