<svg id="Capa_2" data-name="Capa 2" xmlns="http://www.w3.org/2000/svg" xmlns:xlink="http://www.w3.org/1999/xlink" viewBox="0 0 1366 689.96"><defs><style>.cls-1{fill:none;}.cls-2{clip-path:url(#clip-path);}.cls-3{clip-path:url(#clip-path-2);}.cls-4{opacity:0.05;}.cls-5{fill:#fff;}.cls-6{clip-path:url(#clip-path-3);}</style><clipPath id="clip-path"><rect class="cls-1" width="1366" height="689.96"/></clipPath><clipPath id="clip-path-2"><rect class="cls-1" x="-47.78" y="748.72" width="1366" height="623.8"/></clipPath><clipPath id="clip-path-3"><rect class="cls-1" x="1318.22" y="748.72" width="1366" height="623.8"/></clipPath></defs><g class="cls-2"><image width="1890" height="2436" transform="translate(357.39 8.63) scale(0.34)" xlink:href="../../../sombrerero%20loco.png"/></g><g class="cls-3"><g class="cls-4"><path class="cls-5" d="M738.86,818.62c-39.77-37.31-49.69-100.13-25.64-148.7a120.48,120.48,0,0,1,11.94-19.56,130.63,130.63,0,0,0-11,20c-22.38,48.91-12.68,109.43,24.73,148.27Z"/><path class="cls-5" d="M730.17,626.08c-4.79-12-9-24-12.81-36.34a108.7,108.7,0,0,1,12.81,36.34Z"/><path class="cls-5" d="M302.69,1074.06C180.38,1016.42,71.55,914.54,60.46,772.89c-3.7-44.77,3.41-91,24.35-131a221.87,221.87,0,0,0-20.45,63.89c-14.53,89.16,18.07,181.7,77.25,248.62,44.28,50.93,101.06,89.56,161.08,119.71Z"/><path class="cls-5" d="M272.73,606.37c47.15,17,85.14,55.26,105.11,100.88,2.39,5.73,5.52,14.13,7.32,20q-2-4.95-3.88-9.91l-4.36-9.7c-21.22-44.74-58.39-82-104.19-101.3Z"/><path class="cls-5" d="M448.16,733.31c13.14-42.86,18.34-94-9.84-132A78.57,78.57,0,0,0,424.81,587a73.61,73.61,0,0,1,14.31,13.63c29.73,37.57,24.86,90.25,9,132.67Z"/><path class="cls-5" d="M1065.49,744.59a202.2,202.2,0,0,0-38.62-67.37,131.07,131.07,0,0,1,38.62,67.37Z"/><path class="cls-5" d="M1089.86,712.33c9.15-14.17,25.31-24.1,42.22-25.16a85.61,85.61,0,0,0-42.22,25.16Z"/><path class="cls-5" d="M824.71,1192.86c-80.19-111.9-95.12-272.68-37.06-399.15,16.64-36.23,39.33-70.29,70.54-93.14s71.82-33.23,107.93-21.1c61.84,20.78,91.53,101.58,79.37,169.43S990,973.14,944.92,1022.76s-89.61,107.39-119.37,168.76"/><path class="cls-5" d="M429.59,727.68a139.84,139.84,0,0,0,3.65-79.89c-5.6-22.21-23.84-46.14-44.49-39.42-14.68,4.78-21.76,23.86-19.09,40s12.55,29.65,22.56,42,30.68,21.56,35.7,37"/><path class="cls-5" d="M509.33,1080.07C426,1091.12,339.38,1071,268,1024S140.93,903.4,113,819.08c-18.14-54.72-22.88-121.29,12.15-165.73,36-45.63,104.35-50.49,153.66-22.35s81.59,82,100.71,138,27.17,115.51,41.14,173.22,45.8,92.72,85.52,134.69"/><path class="cls-5" d="M753.82,814.41c-36.35-31.92-46.52-92.94-22.71-136.25,10.5-19.09,27.79-35.07,48.33-38.29s43.64,9.28,49.32,30.56c7.06,26.49-12.89,51.77-31.52,70.86s-47.27,45.6-41.8,72.51"/><path class="cls-5" d="M625.59,720.88c15-22.62,7.56-58.28-15-72-3.82-2.32-8.56-4.06-12.51-2-7.69,3.95-4.83,16.22-.82,24.25q13.51,27.13,27,54.26"/><path class="cls-5" d="M756.46,618.55c.26-6.36,5.59-11.27,10.91-14.76,2.86-1.87,6.12-3.62,9.51-3.18s6.44,4.16,5,7.25c-.78,1.65-2.52,2.59-4.17,3.39a156.74,156.74,0,0,1-17.23,7.1"/><path class="cls-5" d="M73,612.51c14-9.51,25.29-23.23,31-39.17s5.57-34.07-1.25-49.56c-1.88-4.29-4.37-8.48-8.16-11.23s-9.12-3.75-13.22-1.48c-6.88,3.82-6.69,13.61-5.55,21.4,3.17,21.71,6.43,44.39-.64,65.16"/><path class="cls-5" d="M132.93,587.48c7.5-8.35,19-12,30.23-12.92,4-.33,8.28-.29,11.74,1.76s5.63,6.75,3.66,10.26c-2.21,3.92-7.68,4.11-12.17,3.8l-24.72-1.71"/><path class="cls-5" d="M388.52,566.5c-3.63-6.57-2.36-14.65-1-22,.55-3,1.16-6.11,3-8.54s5.31-3.9,8-2.52,3.51,4.76,3.65,7.75a33.06,33.06,0,0,1-8.67,23.69"/><path class="cls-5" d="M348.92,569.3c2.09,4.72,9.62,5.63,12.77,1.54s.32-11.15-4.78-11.94-9.93,5.07-8.18,9.92"/><path class="cls-5" d="M1004.54,629.79c4.29,6.24,14.49,7.56,19.75,2.11s2.93-16.26-4.31-18.48-15.35,6.49-12.1,13.33"/><path class="cls-5" d="M1087.81,652.1a79.48,79.48,0,0,1,4.57-50c3.52-8,8.66-15.63,16.32-19.79s18.18-3.86,24.17,2.46c9.8,10.35,2,27.68-8.44,37.44s-24,18.41-26.59,32.43"/><path class="cls-5" d="M925.36,613.43c-10.61-20.4-23.5-42.73-45.61-49-7.89-2.25-19.47.81-18.87,9,.24,3.35,2.64,6.11,5,8.51a142.57,142.57,0,0,0,54.73,34.6"/><path class="cls-5" d="M300.64,577.17a66.09,66.09,0,0,1,18.45-56.26c8.6,4.79,10.21,17.2,6.09,26.14S309.9,569.75,302,575.63"/><path class="cls-5" d="M702.6,515.51c-.25-6.14,1.24-12.87,6-16.7s13.43-2.77,15.49,3c3,8.63-9,14.26-18.09,15.46"/><path class="cls-5" d="M250.39,559.12c-8.69-4.77-2.38-20.93,7.48-19.86s14.14,15.48,7.63,23a19.74,19.74,0,0,1-11.68-6.73"/><path class="cls-5" d="M514,620.79a5.33,5.33,0,1,0-5.33-5.33,5.38,5.38,0,0,0,5.33,5.33Z"/><path class="cls-5" d="M1220.4,618.53a5.33,5.33,0,1,0-5.32-5.33,5.39,5.39,0,0,0,5.32,5.33Z"/><path class="cls-5" d="M980.33,487.29A5.33,5.33,0,1,0,975,482a5.38,5.38,0,0,0,5.33,5.33Z"/><path class="cls-5" d="M245.1,424.46a5.33,5.33,0,1,0-5.32-5.32,5.38,5.38,0,0,0,5.32,5.32Z"/><path class="cls-5" d="M676.23,631.87c3.43,0,3.43-5.33,0-5.33s-3.43,5.33,0,5.33Z"/><path class="cls-5" d="M26.42,583.86c3.43,0,3.43-5.33,0-5.33s-3.43,5.33,0,5.33Z"/><path class="cls-5" d="M964.32,567.85c3.42,0,3.43-5.32,0-5.32s-3.44,5.32,0,5.32Z"/><path class="cls-5" d="M603.61,524.23c3.43,0,3.44-5.32,0-5.32s-3.43,5.32,0,5.32Z"/><path class="cls-5" d="M1088,492.22c3.43,0,3.43-5.33,0-5.33s-3.43,5.33,0,5.33Z"/><path class="cls-5" d="M757.27,411.66a5.33,5.33,0,1,0-5.33-5.33,5.38,5.38,0,0,0,5.33,5.33Z"/><path class="cls-5" d="M474.51,411.13c3.43,0,3.44-5.33,0-5.33s-3.43,5.33,0,5.33Z"/></g></g></svg>