<svg id="Capa_2" data-name="Capa 2" xmlns="http://www.w3.org/2000/svg" xmlns:xlink="http://www.w3.org/1999/xlink" viewBox="0 0 1366 623.8"><defs><style>.cls-1{fill:none;}.cls-2{clip-path:url(#clip-path);}.cls-3{opacity:0.05;}.cls-4{clip-path:url(#clip-path-2);}.cls-5{fill:#f86e6e;}.cls-6,.cls-8{fill:#fff;}.cls-7{fill:#169a8f;}.cls-8{font-size:36px;font-family:FuturaBT-Book, Futura Bk BT;}</style><clipPath id="clip-path"><rect class="cls-1" x="-1366" width="1366" height="623.8"/></clipPath><clipPath id="clip-path-2"><rect class="cls-1" width="1366" height="623.8"/></clipPath></defs><g class="cls-4"><rect class="cls-5" y="-21.2" width="1366" height="683"/><g class="cls-3"><path class="cls-6" d="M550.1,162.9a91.6,91.6,0,0,1,43.69-43.06A150,150,0,0,0,550.1,162.9Z"/><path class="cls-6" d="M505.66,139.27c-5.23-16.15-11.49-33.44-17.8-49.19a134.84,134.84,0,0,1,17.8,49.19Z"/><path class="cls-6" d="M923.55,585.11c-2.85,25-25.51,40.42-43.14,55.61-23.9,20.28-44.43,48.46-44,81a67.35,67.35,0,0,0,4.18,23.41,64.85,64.85,0,0,1-5.19-23.39c-1.32-33.11,19.3-62.14,43.81-82.46,17.69-15.11,40.29-29.5,44.36-54.19Z"/><path class="cls-6" d="M1101.63,200.19a52.41,52.41,0,0,0,36.17,2.12c-11,6.5-26,5.57-36.17-2.12Z"/><path class="cls-6" d="M1086.07,221.25c10.86,32.41,9.14,68.55,43.31,87.25a58.55,58.55,0,0,0,32.34,7.25,55,55,0,0,1-33.09-5.83c-35.3-18.36-34-55.16-42.56-88.67Z"/><path class="cls-6" d="M786.64,77.9C746.87,40.59,737-22.23,761-70.79a119.87,119.87,0,0,1,11.94-19.57,131.58,131.58,0,0,0-11,20C739.53-21.46,749.23,39.07,786.64,77.9Z"/><path class="cls-6" d="M278,422.31c-77.08,44.11-116.63,135-103.19,221.82,4.39,28.27,14.8,57.07,36.36,76.83-11.06-9.44-19.42-21.74-25.54-34.89-15-33.26-17.78-71-13.16-106.9C180.67,514.28,220,453.34,278,422.31Z"/><path class="cls-6" d="M913.22,508.22c33.58,27.71,73.67,52.33,118.18,35.64,5.9-2,11.66-4.34,17.46-6.61-5.62,2.7-11.3,5.26-17.11,7.56-44.3,18.52-86.6-6.55-118.53-36.59Z"/><path class="cls-6" d="M1078.24,320.4c106.16,40.35,183.31,140.5,204.09,251.12a354.08,354.08,0,0,1,6,47.77,375.29,375.29,0,0,0-7-47.57c-22.23-110-98.42-208.69-203.1-251.32Z"/><path class="cls-6" d="M977,597.73c18,64.38,63.12,121.41,123.35,151.1a210.56,210.56,0,0,0,26.55,11,190.65,190.65,0,0,1-27-10c-61.2-28.45-107.33-86.54-122.92-152Z"/><path class="cls-6" d="M706.79,72.4c-6.94,5.06-10.85,13.33-11.87,21.71-2.06,17.11,8.64,33.27,22.69,42.26a94.71,94.71,0,0,0,23.3,10.55c-12.59-2.7-25.22-7.93-34.5-17.2A46.05,46.05,0,0,1,693.71,107C691,94.38,695.32,79.32,706.79,72.4Z"/><path class="cls-6" d="M350.47,333.34C228.16,275.7,119.33,173.82,108.24,32.17c-3.7-44.77,3.41-91,24.35-131A221.68,221.68,0,0,0,112.14-35c-14.53,89.15,18.07,181.69,77.25,248.61,44.28,50.93,101.06,89.56,161.08,119.71Z"/><path class="cls-6" d="M1127,149c12-7.32,26.94-7.1,40.4-5.07,10.15,1.57,20.79,4.19,28.93,10.85a29,29,0,0,1,6.71,7.87c-4.11-5.56-10-9.33-16.24-11.82a88.79,88.79,0,0,0-19.71-4.86c-13.38-2-27.47-2.73-40.09,3Z"/><path class="cls-6" d="M1139.53,40.06c27-36.92,75.26-61.12,119-38.59a66.68,66.68,0,0,1,15.62,11.42A74.27,74.27,0,0,0,1240-3.67c-39.07-8.18-76.17,14.65-100.46,43.73Z"/><path class="cls-6" d="M58.7,458.09c20.7-47,75.82-76,126.28-65.83A96.66,96.66,0,0,1,205.69,399a103.61,103.61,0,0,0-20.9-5.74C134.6,384.74,81.53,412.91,58.7,458.09Z"/><path class="cls-6" d="M179.57,358.6c-15.79-12.09-21-36.19-12.34-54-5.6,18.56-1.08,39.83,12.34,54Z"/><path class="cls-6" d="M1113.27,3.87a202.06,202.06,0,0,0-38.62-67.36,131,131,0,0,1,38.62,67.36Z"/><path class="cls-6" d="M717.11,531.32c62.65,2.12,105.21,60,98.7,120.48A108.82,108.82,0,0,1,810.48,676a120.42,120.42,0,0,0,3.64-48.94c-5.81-50.32-45.8-92.14-97-95.77Z"/><path class="cls-6" d="M861.2,283.38c124.31-5.05,249.53,54,329.59,155.41,31.23,39.56,56.34,86.87,60.41,138.38S1234.64,684.41,1192.49,710c-41.44,25.16-96,16.46-135.07-12.62S993,622,977.77,573.89,956.29,475,947.75,425c-10.13-59.27-29.86-126.17-82.12-149.18"/><path class="cls-6" d="M472.64,363.81C419.43,372.83,366.3,387,319,414.58s-88.55,69.55-108.91,122.69-17.29,117.85,14.69,164c9.33,13.49,21.08,25.36,35.18,32.77,15.73,8.26,33.69,10.64,51.23,10.15,30.6-.86,61.66-10.63,85.1-31.62,43.2-38.7,51.95-104.94,55.89-164.93s8.07-125.46,46.26-169.75"/><path class="cls-6" d="M468.27,521.74c29.93,18.51,58.38,43.86,81.65,71.16,14.17,16.64,27.31,35.74,30.4,58s-7,47.88-27,55c-18.92,6.7-40.11-5.25-51.58-22.63s-15.37-39-18.86-59.88S478.25,537.72,467.31,520"/><path class="cls-6" d="M529.5,160.33a383.55,383.55,0,0,1-4.36-110.07c2.36-22.33,7.13-45.46,20.76-62.61s38.35-26,56.57-14.74c17.22,10.7,22.81,35.55,18.14,56.19s-17.3,38.06-29.73,54.66S533.62,144,528.34,164.51"/><path class="cls-6" d="M911.51,564.21A449,449,0,0,0,863.41,442c-13.28-23-29.59-45.61-52.66-56.86s-54.26-7.46-68.66,14.78c-13.62,21-7.77,51.13,7.22,71.06s37.1,32,58.61,43.31,85.88,39.82,101.47,59.23"/><path class="cls-6" d="M872.49,452.14C792.3,340.25,777.37,179.46,835.42,53,852.06,16.76,874.76-17.3,906-40.14s71.82-33.24,107.93-21.11c61.84,20.78,91.53,101.58,79.37,169.43S1037.81,232.42,992.7,282s-89.61,107.4-119.37,168.77"/><path class="cls-6" d="M888.91,477.64c29.44-25.5,66.48-40.88,104.35-43.32,32.15-2.08,72.54,14.08,73.4,48.37.6,24.37-21.38,44.08-44,47.68s-45.32-4.87-66.51-14.09-44.14-33.65-67-33.9"/><path class="cls-6" d="M1094.68,207.26a135.44,135.44,0,0,0,32.09,72.32c14.76,16.79,41.43,28.75,56.67,12.46,10.84-11.57,8.65-32-.82-44.82s-24.17-19.87-38.48-25.78-36.59-3.62-47.85-14.73"/><path class="cls-6" d="M557.11,339.35c-83.29,11.06-169.95-9.08-241.34-56.09S188.7,162.68,160.75,78.37C142.61,23.64,137.86-42.92,172.9-87.37c36-45.63,104.35-50.49,153.66-22.35s81.59,82,100.71,138,27.17,115.51,41.14,173.22,45.8,92.72,85.52,134.69"/><path class="cls-6" d="M224.11,405.6a221.48,221.48,0,0,0-65.94,4.53c-21.59,4.77-43,13.08-59.85,28.25s-28.52,38-27.16,61.47S89,546,110.86,549.38c22.29,3.46,44.21-13.57,53.47-35.45,4.85-11.45,6.9-24,10.54-35.91,9.42-30.89,30-57.73,56.51-73.73"/><path class="cls-6" d="M330.63,383.61c-39.53,13.94-84.6,8.9-120.55-13.48-11.69-7.27-23.27-17.79-25-32.08-2.11-17.59,13-33.78,29.49-36.29s33,5.73,45.78,17.09,22.83,25.78,34.28,38.66,21.54,20.21,37.82,23.94"/><path class="cls-6" d="M774,190.27c55.48,100,1.26,230.15-77.57,307.76-25.35,25-56,45.31-90.09,51.07s-71.84-5.17-93.85-33.5c-27.09-34.85-24.2-89-.6-126.62,28.5-45.45,75.16-84.71,126.28-89.48,96.75-9,142.56-96.19,137.05-105.32"/><path class="cls-6" d="M786.75,161.38c1-17.23-1-35.15-8.89-50.2S755.22,84.44,739,83.93c-8.7-.27-18.4,3.6-21.67,12.18-4.17,11,4.27,23.09,14.09,28.6s21.27,7.27,30.73,13.46A42.93,42.93,0,0,1,780,164.36"/><path class="cls-6" d="M681.08,556c31.91-2.51,64.6,8.81,89,30.85C788,602.92,801.78,626.1,801.36,651s-18.69,50-42.09,50.83c-25.63.91-51.72-23.63-53.64-50.88-3.12-44.24-5.89-79.91-22.6-93.47"/><path class="cls-6" d="M801.6,73.7c-36.35-31.93-46.52-92.95-22.71-136.25,10.5-19.09,27.79-35.08,48.33-38.3s43.64,9.28,49.32,30.56C883.6-43.8,863.65-18.52,845,.57s-47.27,45.6-41.8,72.52"/><path class="cls-6" d="M949.59,572.43c10.85,40,32.84,81.78,28.94,123.2s-29.55,84-68.14,90.59c-11.77,2-24.54.37-34.27-7-11.7-8.87-17.32-24.81-17.38-40.11s-.22-30.21,5.36-44.3c3.88-9.83,14-22.27,20.32-30.56,6-7.85,12.68-11.4,19.67-18.22A198.07,198.07,0,0,0,950,576.1"/><path class="cls-6" d="M1110.32,137.5c17.09-30.11,28.85-68.6,55.24-89.75s65.87-28.56,91.84-6.84c7.94,6.63,14.29,16,15.57,26.68,1.54,12.82-4.54,25.67-13.41,34.48s-17.49,17.46-28.9,21.85c-8,3.07-21,3.49-29.47,4.06-8,.55-13.9-1.85-21.89-2.57a147.79,147.79,0,0,0-67.08,9.72"/><path class="cls-6" d="M1228.58,323c9.9,7,18.93,17.69,17.94,29.77a11.66,11.66,0,0,1-2.75,7.19c-1.79,1.9-4.83,2.79-7.13,1.54a8.43,8.43,0,0,1-2.69-2.66,36,36,0,0,1-3.65-34.72"/><path class="cls-6" d="M623.42,637.77c-5.12-2.47-4.06-11.25,1.15-13.51s11.62,1.27,13.89,6.47c1.31,3,1.46,6.69-.42,9.36s-6.09,3.67-8.55,1.52"/><path class="cls-6" d="M724.58,57.29l-8.19-9.18c-3.26-3.65-6.68-7.65-7.1-12.53s3.93-10.32,8.64-9c2.39.66,4.05,2.77,5.54,4.76,4.57,6.08,9.35,14,5.85,20.76"/><path class="cls-7" d="M461.75,26.15c-.09-4.32,4.8-7.94,8.91-6.59s5.91,7.17,3.28,10.59-8.72,3.2-11.08-.41"/><path class="cls-6" d="M464.25,26.15c0-.16,0-.31,0-.47v-.16c0-.28,0-.21,0,.2.11-.11.13-.59.18-.76a1.68,1.68,0,0,0,.16-.44l-.13.31c0-.1.09-.19.13-.28.15-.29.32-.54.49-.81.3-.47-.38.42,0,0l.32-.36c.18-.19.38-.36.58-.55.4-.38-.47.32,0,0l.39-.27c.27-.17.55-.31.84-.46.49-.26-.55.18,0,0l.45-.15c.25-.08.51-.13.76-.19.54-.12-.6,0,0,0l.46,0h.32l.31,0-.2,0,.84.22c.28.08.25.25-.12-.06a2.35,2.35,0,0,0,.39.19c.21.11.41.25.61.38.44.28-.43-.39-.05,0l.42.4c.1.1.19.21.29.32s.11.29-.12-.17c.13.25.34.48.48.73s.23.42.34.64c.23.48-.2-.56,0-.05.06.18.13.36.18.55a6.09,6.09,0,0,1,.17.71c.05.29-.06.51,0-.08,0,.13,0,.3,0,.43a5.9,5.9,0,0,1,0,.73,3,3,0,0,0,0,.43q.09-.64,0-.24a2.3,2.3,0,0,1-.06.28,5,5,0,0,1-.19.69c-.11.32-.27.3,0-.06a2.35,2.35,0,0,0-.19.39c-.1.18-.35.42-.39.61l.21-.27a2,2,0,0,1-.19.22l-.3.32a1.81,1.81,0,0,0-.33.28c.2-.35.36-.25.05,0s-.41.25-.62.36-.27.11-.39.19c.51-.34.3-.13.06,0a7.39,7.39,0,0,1-.84.23c-.13,0-.3,0-.43.07l.23,0-.29,0a6.46,6.46,0,0,1-.88,0,3.13,3.13,0,0,0-.43,0l.23,0-.22,0a7.17,7.17,0,0,1-.91-.24,2.26,2.26,0,0,0-.41-.15c.54.1.32.14.07,0a7.56,7.56,0,0,1-.86-.52c-.34-.23.15.09.16.13,0-.13-.32-.29-.42-.39s-.2-.21-.3-.32c-.29-.31.34.49-.05-.08A2.5,2.5,0,1,0,460.7,31a9.4,9.4,0,0,0,8.55,4.06,8.9,8.9,0,0,0,7.93-5.76,9.78,9.78,0,0,0-1.46-8.93,9.07,9.07,0,0,0-4.32-3.2,8.59,8.59,0,0,0-5.19,0,9.69,9.69,0,0,0-7,9,2.5,2.5,0,0,0,5,0Z"/><path class="cls-6" d="M1249.55,182.68c6.1-3.36,15,.38,16.56,7.18S1260.8,204,1254,202.61s-10.16-11.26-5.34-16.29"/><path class="cls-6" d="M1267.84,152.67c8.88-6.48,20.15-10.16,31-8.46s21,9.34,24.14,19.89c1.62,5.48-.15,13.21-5.83,13.78-2.34.23-4.57-.9-6.65-2l-36.69-19.37"/><path class="cls-6" d="M137.15,271.18c5.92-4.42,5.07-15.1-1.48-18.54s-15.82,2-16.08,9.33,8.58,13.43,15.36,10.49"/><path class="cls-6" d="M37.64,230.31c.5,5.1,6.93,8.17,11.7,6.3s7.48-7.28,7.42-12.41c-.08-6.27-4.89-12.89-11.16-12.66s-10,10.14-4.54,13.19"/><path class="cls-6" d="M1325.75,258.87c-1.68-9.6,13-16.81,19.58-9.6s-2,21.16-11.37,18.62"/><path class="cls-6" d="M2.66,89.21A5.38,5.38,0,0,0,8,83.88a5.42,5.42,0,0,0-5.32-5.32,5.38,5.38,0,0,0-5.33,5.32,5.42,5.42,0,0,0,5.33,5.33Z"/><path class="cls-6" d="M1316.2,412.38a5.33,5.33,0,1,0-5.33-5.33,5.38,5.38,0,0,0,5.33,5.33Z"/><path class="cls-6" d="M644,124.3a5.33,5.33,0,1,0-5.32-5.33A5.39,5.39,0,0,0,644,124.3Z"/><path class="cls-6" d="M77.4,352.1c3.43,0,3.43-5.33,0-5.33s-3.43,5.33,0,5.33Z"/><path class="cls-6" d="M864.85,589c3.43,0,3.43-5.33,0-5.33s-3.43,5.33,0,5.33Z"/><path class="cls-6" d="M1201,198.45c3.43,0,3.43-5.32,0-5.32s-3.43,5.32,0,5.32Z"/><path class="cls-6" d="M583.11,592.3c3.43,0,3.43-5.32,0-5.32s-3.43,5.32,0,5.32Z"/></g></g><path class="cls-6" d="M615.15,278.78V238.09h6.18v8.45q2.8-5.29,6-7.56a12.82,12.82,0,0,1,7.69-2.27,14.39,14.39,0,0,1,2.4.2,14,14,0,0,1,2.31.6l-2.31,6.27a16.35,16.35,0,0,0-2.27-.6,11.35,11.35,0,0,0-2-.2q-5.52,0-8.27,4t-2.76,12v19.84Z"/><path class="cls-6" d="M683.36,259.48H651.12v.62q0,6.54,3.74,10.56a12.66,12.66,0,0,0,9.73,4,12.94,12.94,0,0,0,7.38-2.2,19.13,19.13,0,0,0,5.83-6.64l5.29,3.55a20.35,20.35,0,0,1-18.85,11.12q-9.3,0-15-6.14t-5.74-16.09q0-9.57,5.69-15.66a19.14,19.14,0,0,1,14.63-6.09q9,0,14.3,5.78t5.27,15.79Zm-7.47-5.65q-.36-5.39-3.58-8.29t-8.83-2.92a11.89,11.89,0,0,0-12.36,11.21Z"/><path class="cls-6" d="M731.74,238.09v40.69H725v-7.39a17.76,17.76,0,0,1-6.25,6.79,16,16,0,0,1-8.51,2.33q-8.78,0-14.12-6t-5.36-15.94q0-10.05,5.2-16t13.92-5.94a16.66,16.66,0,0,1,8.87,2.29,16.47,16.47,0,0,1,6.07,6.83v-7.65ZM725,258.81q0-6.9-3.76-11.09a12.5,12.5,0,0,0-9.8-4.21q-6.27,0-9.79,3.87t-3.51,10.81q0,7.38,3.54,11.38t10,4q6.23,0,9.76-3.89T725,258.81Z"/><path class="cls-6" d="M746.72,243.83h-7.47v-5.74h7.47V221.68h7.12v16.41h7.47v5.74h-7.47v34.95h-7.12Z"/><path class="cls-6" d="M767.93,218.48a4.89,4.89,0,0,1,1.49-3.58,5,5,0,0,1,3.63-1.49,4.85,4.85,0,0,1,3.58,1.51,5,5,0,0,1,1.49,3.65,4.85,4.85,0,0,1-1.47,3.56,4.93,4.93,0,0,1-3.6,1.46,5,5,0,0,1-3.63-1.46A4.94,4.94,0,0,1,767.93,218.48Zm1.65,60.3V238.09h7v40.69Z"/><path class="cls-6" d="M804.66,281.31l-20.14-43.22h7.82l12.23,28.41,12.28-28.41h7.82Z"/><path class="cls-6" d="M870.07,238.09v40.69h-6.76v-7.39a17.76,17.76,0,0,1-6.25,6.79,16,16,0,0,1-8.51,2.33q-8.76,0-14.12-6t-5.36-15.94q0-10.05,5.21-16t13.91-5.94a16.66,16.66,0,0,1,8.87,2.29,16.47,16.47,0,0,1,6.07,6.83v-7.65Zm-6.76,20.72q0-6.9-3.76-11.09a12.5,12.5,0,0,0-9.8-4.21q-6.27,0-9.78,3.87t-3.52,10.81q0,7.38,3.54,11.38t10,4q6.22,0,9.76-3.89T863.31,258.81Z"/><path class="cls-6" d="M699.38,333.29Q688.12,355.22,664.51,368T610.45,380.8q-34.12,0-59.85-15.38t-40.2-43.55q-14.47-28.17-14.47-66.55,0-37.75,14.47-65.79t40.2-43.4q25.74-15.37,59.54-15.38,21.63,0,39.29,6.09a92.51,92.51,0,0,1,30.15,16.75A65.39,65.39,0,0,1,697.86,178l-10.05,9.14q-13.09-23.46-33.2-32.59t-44.47-9.14q-29.85,0-52.23,13.71T523,197.45q-12.49,24.68-12.49,57.87,0,33.81,12.49,58.78t35,38.69q22.53,13.69,52.39,13.7a100.89,100.89,0,0,0,43.7-9.44q20-9.45,35.79-33.51Zm-22.54-22.85q-11.88,18.29-28.32,27t-33.2,8.68a71,71,0,0,1-37-10.05q-16.91-10-27-30.15t-10.05-50.56q0-29.23,10.05-49.34t26.8-30.3A69.53,69.53,0,0,1,615,165.48q16.15,0,32.29,8.37t26.5,26.35l-10.66,9.74A45.86,45.86,0,0,0,652,194.86a57,57,0,0,0-17.21-10.81,52.36,52.36,0,0,0-19.8-4,53.11,53.11,0,0,0-29.84,8.83q-13.41,8.85-21.32,25.59t-7.92,40.81q0,25,7.92,42t21.32,25.58a54.91,54.91,0,0,0,30.15,8.53,51.64,51.64,0,0,0,19.95-4.11,65.9,65.9,0,0,0,18.12-11.27,48.08,48.08,0,0,0,12.49-16.6Z"/><text class="cls-8" transform="translate(513.62 439.59)">POR QUE HACEMOS<tspan x="25.29" y="36">MACH CONTIGO</tspan></text></svg>