<svg id="Capa_2" data-name="Capa 2" xmlns="http://www.w3.org/2000/svg" xmlns:xlink="http://www.w3.org/1999/xlink" viewBox="0 0 1366 623.8"><defs><style>.cls-1{fill:none;}.cls-2{clip-path:url(#clip-path);}.cls-3{clip-path:url(#clip-path-2);}.cls-4{fill:#f20d5f;}.cls-5{fill:#793292;}.cls-6{fill:#f6bd0f;}.cls-7{fill:#169a8f;}.cls-8{fill:#f01586;}.cls-9{fill:#19917a;}.cls-10{clip-path:url(#clip-path-3);}.cls-11{opacity:0.05;}.cls-12{fill:#fff;}</style><clipPath id="clip-path"><rect class="cls-1" y="-748.72" width="1366" height="689.96"/></clipPath><clipPath id="clip-path-2"><rect class="cls-1" y="-682.56" width="1366" height="623.8"/></clipPath><clipPath id="clip-path-3"><rect class="cls-1" x="1366" width="1366" height="623.8"/></clipPath></defs><g class="cls-2"><g class="cls-3"><path class="cls-4" d="M806.87-13.19A49.26,49.26,0,0,0,820.13.39c-6.67-.95-12.34-6.95-13.26-13.58Z"/><path class="cls-5" d="M642.25-91c-12.94,26.81-9.88,60.72,9.36,83.71a72.74,72.74,0,0,0,22.91,18.65A65.29,65.29,0,0,1,650.38-6.25C630.08-29,626.9-64.82,642.25-91Z"/><path class="cls-5" d="M1054.52-27.9c9.42-2.19,18.94-4.38,28.6-4.34s19.63,2.48,27.07,8.65c3.76,3.11,6.88,7.32,7.56,12.15s-1.61,10.25-6.07,12.23a16.43,16.43,0,0,1-6.31,1.06c-6.64.14-13.5-.8-19.24-4.14-10.66-6.19-17.18-20.19-29.46-21.2"/><path class="cls-6" d="M1052.08,21.31a55.75,55.75,0,0,1,21.47,30.76c.79,2.93,1.31,6.14.13,8.93-2.07,4.9-9,6.36-13.63,3.81s-7.19-7.93-7.83-13.21.27-10.61.83-15.9.73-10.81-1.29-15.73"/><path class="cls-4" d="M860.35,5c6.37,1.87,12.85,3.8,18.38,7.49s10,9.47,10.55,16.09c.15,2-.18,4.28-1.72,5.59s-4.22,1.19-6.1.11a15.7,15.7,0,0,1-4.5-4.61q-8.67-11.74-17-23.73"/><path class="cls-4" d="M845.92,25.25l-9.54,5.49c-2.9,1.66-5.93,3.45-7.67,6.31s-1.68,7.12,1,9.06,7.11.45,9.22-2.36,2.72-6.43,3.48-9.87,1.91-7,4.69-9.2"/><path class="cls-6" d="M343.65,17c4-6.9,16.52-5.25,18.57,2.45s-8,15.36-14.9,11.34a18.6,18.6,0,0,1-2.44-13.21"/><path class="cls-6" d="M769.92,84.69c-1.82,6.4-1.72,14,2.92,18.79s14.64,3.52,16-3c2-9.69-13.56-12.49-18.87-20.84"/><path class="cls-6" d="M562.5-10.94A84.38,84.38,0,0,1,534.64,8.15c-7.52,3.16-17.07,7.34-16.85,15.49a12,12,0,0,0,3.87,8c9.21,9,25.88,4.07,33.37-6.39s8.37-24.12,9-37"/><path class="cls-5" d="M460.31,55.21A5.33,5.33,0,1,0,455,49.88a5.38,5.38,0,0,0,5.33,5.33Z"/><path class="cls-7" d="M968.6,15.93a5.38,5.38,0,0,0,5.32-5.32,5.33,5.33,0,1,0-10.65,0,5.42,5.42,0,0,0,5.33,5.32Z"/><path class="cls-8" d="M913.15,82.59c3.43,0,3.43-5.33,0-5.33s-3.43,5.33,0,5.33Z"/><path class="cls-4" d="M748.3,37.24c3.43,0,3.43-5.33,0-5.33s-3.43,5.33,0,5.33Z"/><path class="cls-4" d="M424.84,9.51c3.43,0,3.44-5.33,0-5.33s-3.43,5.33,0,5.33Z"/><path class="cls-4" d="M628.93,94.58a5.33,5.33,0,1,0-5.33-5.33,5.39,5.39,0,0,0,5.33,5.33Z"/><path class="cls-7" d="M522.65,142.75c3.43,0,3.43-5.33,0-5.33s-3.43,5.33,0,5.33Z"/></g><image width="1890" height="2436" transform="translate(357.39 -740.09) scale(0.34)" xlink:href="../../../sombrerero%20loco.png"/></g><rect class="cls-9" width="1366" height="623.8"/><rect class="cls-1" y="-66.16" width="1366" height="689.96"/><g class="cls-10"><g class="cls-11"><path class="cls-12" d="M1368.66,81.21a5.33,5.33,0,1,0-5.33-5.33,5.38,5.38,0,0,0,5.33,5.33Z"/></g></g></svg>