<svg id="Capa_2" data-name="Capa 2" xmlns="http://www.w3.org/2000/svg" xmlns:xlink="http://www.w3.org/1999/xlink" viewBox="0 0 1366 689.96"><defs><style>.cls-1{fill:none;}.cls-2{clip-path:url(#clip-path);}.cls-3{fill:#f20d5f;}.cls-4{fill:#f01586;}.cls-5{fill:#793292;}.cls-6{fill:#169a8f;}.cls-7{fill:#f6bd0f;}.cls-8{fill:#f86e6e;}.cls-9{clip-path:url(#clip-path-2);}.cls-10{opacity:0.05;}.cls-11{fill:#fff;}.cls-12{clip-path:url(#clip-path-3);}</style><clipPath id="clip-path"><rect class="cls-1" y="66.16" width="1366" height="623.8"/></clipPath><clipPath id="clip-path-2"><rect class="cls-1" x="-72.82" y="748.72" width="1366" height="623.8"/></clipPath><clipPath id="clip-path-3"><rect class="cls-1" x="1293.18" y="748.72" width="1366" height="623.8"/></clipPath></defs><g class="cls-2"><path class="cls-3" d="M588.94,282.74a61.7,61.7,0,0,1,31.53-31.08,124,124,0,0,0-31.53,31.08Z"/><path class="cls-3" d="M556.86,265.69c-4.28-11.88-8.53-23.64-12.85-35.51a84.33,84.33,0,0,1,12.85,35.51Z"/><path class="cls-3" d="M858.48,587.49c-1.88,18.14-18.25,29.34-30.94,40.36-17.21,14.6-31.94,34.83-31.83,58.25a48.94,48.94,0,0,0,2.87,16.9,46.49,46.49,0,0,1-3.88-16.88c-1.15-23.94,13.85-45.08,31.57-59.75,12.8-10.85,29.1-21.13,32.21-38.88Z"/><path class="cls-3" d="M987,309.67a43,43,0,0,0,26.11,1.52A22.74,22.74,0,0,1,987,309.67Z"/><path class="cls-3" d="M975.78,324.86c8,23.06,7,49.49,31.37,62.77a42.7,42.7,0,0,0,23.23,5.44,37.38,37.38,0,0,1-12.26-.09,43.37,43.37,0,0,1-29.65-20.82c-8.31-14.55-8.64-31.48-12.69-47.3Z"/><path class="cls-4" d="M759.66,221.4c-24.66-22.7-34-59.88-24.61-91.87A88.09,88.09,0,0,1,749.77,100a99.91,99.91,0,0,0-13.16,30c-8.43,31.87.43,67.4,23,91.45Z"/><path class="cls-4" d="M753.39,82.43a163.65,163.65,0,0,1-9.24-26.23,63.71,63.71,0,0,1,9.24,26.23Z"/><path class="cls-4" d="M392.54,470c-55.27,31.9-83.89,97.61-74.26,160.07,3.13,20.39,10.57,41.15,26,55.49-8-6.76-14.1-15.64-18.56-25.13-13-28.88-13.71-62.19-6.83-92.77,9.49-40.91,36.32-77.93,73.62-97.66Z"/><path class="cls-4" d="M519.55,644.35c-9.95,29.51-34,54.67-63.77,64.37,28.5-12.41,51.13-36.12,63.77-64.37Z"/><path class="cls-4" d="M528.42,663.86a85.78,85.78,0,0,0,25.1,47.42c-15.34-10.4-24.84-29-25.1-47.42Z"/><path class="cls-4" d="M851,532c20.42,16.31,45,32.75,72.31,28.83,8.79-1.32,17.2-4.67,25.59-7.87-9,4.43-18.49,8.78-28.71,10C893.53,565.79,869.46,549.62,851,532Z"/><path class="cls-5" d="M970.13,396.43c76.83,28.8,132.65,101.29,147.44,181.22a252,252,0,0,1,4.17,34.51,275.17,275.17,0,0,0-5.16-34.31c-16.24-79.28-71.11-150.34-146.45-181.42Z"/><path class="cls-5" d="M897,596.59c13.48,46.31,45.71,87.29,89.09,108.93,3.11,1.5,6.27,2.89,9.41,4.34l9.69,3.7a167.64,167.64,0,0,1-19.53-7.13C941.34,686,908.07,644,897,596.59Z"/><path class="cls-5" d="M923.27,674.8c6.58,27.45-10.78,53.26-28,73,14.95-21.71,31.58-45.2,28-73Z"/><path class="cls-5" d="M642.25,657.72c-12.94,26.81-9.88,60.71,9.36,83.71a72.85,72.85,0,0,0,22.91,18.64,65.26,65.26,0,0,1-24.14-17.6c-20.3-22.74-23.48-58.57-8.13-84.75Z"/><path class="cls-5" d="M702,217.43c-4.92,3.72-7.65,9.67-8.35,15.7-1.38,12.26,6.26,23.75,16.27,30.28a72,72,0,0,0,16.7,7.8,54.76,54.76,0,0,1-17.56-6.44c-8.21-4.8-14.79-12.86-16.77-22.29-2-9.2,1.27-20.17,9.71-25Z"/><path class="cls-5" d="M444.85,405.76c-72.6-34.21-141.18-90.48-165.65-169.52-9.78-31-12.91-64.37-7.23-96.47a158.9,158.9,0,0,1,15.61-46c-14.43,29.1-19.15,62.31-16.21,94.47,8.51,101.41,86.75,174.52,173.48,217.48Z"/><path class="cls-5" d="M423.22,68.21c39,13.56,69.67,47.85,81.15,87.26-14.25-38.25-43.45-71-81.15-87.26Z"/><path class="cls-6" d="M549.84,159.83c5.11-18.16,8.78-37.06,7-55.93C555,85.29,547.56,66.54,533,54.22A52.73,52.73,0,0,1,543.42,64c21.73,27,18.23,65.33,6.42,95.85Z"/><path class="cls-6" d="M1005.31,272.7c8.54-5.51,19.49-5.4,29.2-3.95,7.34,1.14,15.09,3.1,20.93,8a20.17,20.17,0,0,1,4.75,5.79c-6.3-7.95-16.44-10.31-26-11.76s-19.7-2-28.9,1.91Z"/><path class="cls-6" d="M1014.37,194.08c19-26.88,54.6-44.58,86-28a48.3,48.3,0,0,1,11.21,8.37,54.29,54.29,0,0,0-24.74-11.72c-28-5.76-54.8,10.65-72.46,31.33Z"/><path class="cls-6" d="M234.25,495.81c12.54-29.27,43.74-49.05,75.44-49.21a70.53,70.53,0,0,1,30.66,6.56,78.56,78.56,0,0,0-30.63-5c-31.25,1.09-61,19.84-75.47,47.6Z"/><path class="cls-7" d="M321.49,424c-11.72-8.43-15.56-26.25-8.9-38.95-3.62,13.48-.45,28.48,8.9,38.95Z"/><path class="cls-7" d="M995.42,168a163.64,163.64,0,0,0-27.88-48.62A88.77,88.77,0,0,1,995.42,168Z"/><path class="cls-7" d="M1013,144.68c6.28-10.49,18.21-17.81,30.48-18.16A69.36,69.36,0,0,0,1013,144.68Z"/><path class="cls-7" d="M709.47,548.66c37.41.3,68.23,32.4,71.39,69a80.38,80.38,0,0,1-4,35.49,88.3,88.3,0,0,0,2.39-35.3C775.17,582,746,551.38,709.47,548.66Z"/><path class="cls-5" d="M813.48,369.71c89.72-3.65,180.1,39,237.89,112.17,22.54,28.55,40.66,62.7,43.59,99.87s-11.94,77.41-42.37,95.88c-29.9,18.16-69.27,11.88-97.49-9.11s-46.49-54.38-57.49-89.13S882.11,508,876,472c-7.32-42.79-21.56-91.07-59.28-107.68"/><path class="cls-4" d="M533,427.76c-38.41,6.51-76.76,16.76-110.88,36.64S358.23,514.6,343.54,553s-12.48,85.06,10.6,118.4c6.73,9.73,15.21,18.3,25.39,23.65,11.36,6,24.32,7.68,37,7.32,22.09-.62,44.5-7.67,61.42-22.82,31.18-27.93,37.5-75.74,40.34-119S524.1,469.92,551.66,438"/><path class="cls-8" d="M529.87,541.75c21.6,13.36,42.14,31.66,58.93,51.36,10.23,12,19.72,25.8,21.94,41.84s-5,34.56-19.49,39.68c-13.65,4.83-29-3.8-37.23-16.34s-11.1-28.13-13.61-43.22-3.34-61.79-11.23-74.61"/><path class="cls-3" d="M574.07,280.89a276.22,276.22,0,0,1-3.15-79.44c1.7-16.12,5.15-32.82,15-45.2s27.68-18.8,40.83-10.63c12.43,7.72,16.47,25.65,13.1,40.55s-12.49,27.47-21.46,39.45S577,269.13,573.22,283.9"/><path class="cls-8" d="M849.79,572.4a323.8,323.8,0,0,0-34.72-88.21c-9.58-16.62-21.36-32.92-38-41s-39.16-5.39-49.56,10.67c-9.82,15.18-5.6,36.9,5.22,51.28s26.78,23.11,42.3,31.26,62,28.74,73.24,42.75"/><path class="cls-7" d="M821.63,491.51C763.75,410.75,753,294.7,794.87,203.42c12-26.16,28.4-50.74,50.92-67.23s51.84-24,77.9-15.23c44.63,15,66.06,73.32,57.28,122.29s-40,89.68-72.58,125.49-64.68,77.51-86.16,121.81"/><path class="cls-4" d="M833.48,509.92a128.48,128.48,0,0,1,75.31-31.27c23.2-1.5,52.36,10.16,53,34.91.44,17.59-15.43,31.82-31.77,34.41s-32.7-3.51-48-10.16-31.86-24.29-48.38-24.47"/><path class="cls-6" d="M536.44,155.76a100.9,100.9,0,0,0,2.63-57.67c-4-16-17.21-33.29-32.11-28.44-10.59,3.44-15.7,17.22-13.77,28.84s9.05,21.4,16.27,30.34,22.15,15.56,25.77,26.71"/><path class="cls-3" d="M982,314.77a97.75,97.75,0,0,0,23.16,52.2c10.65,12.11,29.9,20.74,40.9,9,7.82-8.36,6.25-23.07-.59-32.36S1028,329.26,1017.7,325s-26.42-2.62-34.54-10.64"/><path class="cls-5" d="M594,410.1c-60.12,8-122.66-6.55-174.19-40.48s-91.71-87-111.89-147.89c-13.09-39.5-16.52-87.54,8.77-119.62C342.65,69.17,392,65.67,427.59,86s58.88,59.19,72.69,99.61S519.89,269,530,310.62,563,377.53,591.7,407.83"/><path class="cls-6" d="M353.65,457.92a159.67,159.67,0,0,0-47.6,3.27c-15.58,3.45-31.05,9.44-43.2,20.39S242.26,509,243.25,526s12.9,33.3,28.65,35.74c16.09,2.51,31.91-9.79,38.6-25.58,3.5-8.26,5-17.31,7.6-25.92,6.8-22.29,21.65-41.67,40.79-53.21"/><path class="cls-7" d="M430.53,442a101.94,101.94,0,0,1-87-9.72c-8.43-5.25-16.79-12.84-18-23.15-1.52-12.71,9.39-24.39,21.29-26.2s23.81,4.13,33,12.34,16.48,18.6,24.74,27.9,15.55,14.58,27.3,17.28"/><path class="cls-6" d="M750.53,302.5c40.05,72.2.92,166.12-56,222.13-18.3,18-40.42,32.71-65,36.86s-51.85-3.73-67.74-24.17c-19.55-25.16-17.46-64.24-.43-91.4,20.58-32.8,54.26-61.14,91.15-64.58,69.83-6.53,102.9-69.43,98.92-76"/><path class="cls-5" d="M759.74,281.65c.75-12.44-.68-25.37-6.42-36.24s-16.34-19.29-28-19.66c-6.27-.2-13.28,2.59-15.64,8.79-3,7.91,3.09,16.67,10.17,20.64s15.36,5.25,22.18,9.72a31,31,0,0,1,12.88,18.9"/><path class="cls-5" d="M656.82,647.27c-.79,16.8-5.24,20.39-6,37.2-.57,12.2-1,25,3.89,36s17.19,19.39,27.94,15.11,14.82-18.93,12-30.7-10.63-21.31-18-30.58S659.59,661,657.9,649"/><path class="cls-7" d="M683.47,566.44c23-1.82,46.63,6.36,64.24,22.27,12.89,11.63,22.88,28.36,22.58,46.35s-13.5,36.1-30.38,36.7c-18.51.65-37.34-17.06-38.72-36.73-2.25-31.93-4.25-57.68-16.31-67.47"/><path class="cls-4" d="M770.46,218.36c-26.24-23-33.58-67.08-16.39-98.34,7.58-13.78,20.06-25.32,34.88-27.64s31.5,6.7,35.6,22.06c5.09,19.12-9.3,37.36-22.75,51.14s-34.12,32.92-30.17,52.34"/><path class="cls-3" d="M877.27,578.33c7.84,28.87,23.71,59,20.89,88.93S876.83,727.85,849,732.64c-8.5,1.46-17.71.27-24.73-5-8.45-6.4-12.5-17.91-12.55-29s-.16-21.81,3.87-32c2.8-7.1,10.11-16.07,14.67-22.06,4.31-5.66,9.15-8.22,14.19-13.15A143,143,0,0,0,877.57,581"/><path class="cls-6" d="M993.28,264.41c12.34-21.73,20.83-49.51,39.87-64.78s47.55-20.61,66.3-4.94c5.72,4.79,10.31,11.57,11.23,19.26,1.11,9.25-3.27,18.53-9.68,24.89s-12.62,12.61-20.85,15.77c-5.75,2.21-15.18,2.52-21.27,2.94-5.78.39-10-1.35-15.81-1.86a106.64,106.64,0,0,0-48.41,7"/><path class="cls-7" d="M677.91,150.85c10.81-16.33,5.45-42.06-10.84-52-2.75-1.67-6.16-2.93-9-1.47-5.55,2.86-3.48,11.71-.59,17.51L677,154.07"/><path class="cls-3" d="M1078.65,398.27c7.14,5.07,13.66,12.76,12.94,21.48a8.4,8.4,0,0,1-2,5.2,4.44,4.44,0,0,1-5.14,1.11,6.06,6.06,0,0,1-1.94-1.93,26,26,0,0,1-2.64-25.06"/><path class="cls-4" d="M772.36,77c.19-4.59,4-8.14,7.88-10.65,2.06-1.35,4.42-2.62,6.86-2.29s4.65,3,3.59,5.23a5.86,5.86,0,0,1-3,2.44,112,112,0,0,1-12.43,5.13"/><path class="cls-5" d="M1149.27,627.64c.5,12.86-17,21-16.63,33.83a7.21,7.21,0,0,0,.86,3.48c1.36,2.34,4.45,3.24,7.09,2.67a13.71,13.71,0,0,0,6.72-4.28,30.51,30.51,0,0,0,5.2-33.32"/><path class="cls-5" d="M1163.38,621.55a13.62,13.62,0,0,0,16.36-.24"/><path class="cls-5" d="M641.85,625.49c-3.69-1.78-2.92-8.12.83-9.75s8.39.92,10,4.67a7,7,0,0,1-.31,6.76c-1.35,1.92-4.39,2.65-6.17,1.1"/><path class="cls-5" d="M714.87,206.52,709,199.89c-2.36-2.63-4.82-5.52-5.13-9s2.84-7.45,6.24-6.5c1.72.49,2.92,2,4,3.44,3.3,4.39,6.75,10.11,4.22,15"/><path class="cls-5" d="M279.05,72.63a58.6,58.6,0,0,0,22.37-28.27c4.1-11.51,4-24.59-.91-35.77-1.36-3.1-3.15-6.12-5.89-8.1S288-2.22,285.08-.58c-5,2.75-4.82,9.82-4,15.44,2.29,15.67,4.65,32-.46,47"/><path class="cls-5" d="M322.32,54.57c5.42-6,13.74-8.66,21.82-9.33,2.89-.23,6-.21,8.47,1.27s4.07,4.88,2.64,7.4c-1.59,2.83-5.54,3-8.78,2.75l-17.85-1.23"/><path class="cls-6" d="M525.16,184.05a4.91,4.91,0,1,1,.8,2.58"/><path class="cls-6" d="M506.79,39.42c-2.62-4.74-1.7-10.57-.71-15.9.4-2.16.84-4.41,2.17-6.16s3.83-2.83,5.78-1.83,2.54,3.44,2.64,5.6a23.92,23.92,0,0,1-6.26,17.1"/><path class="cls-6" d="M478.21,41.44c1.51,3.41,7,4.07,9.22,1.11s.23-8-3.45-8.61-7.17,3.65-5.9,7.16"/><path class="cls-6" d="M1093.78,297c4.4-2.42,10.84.28,12,5.18s-3.83,10.2-8.76,9.21-7.34-8.13-3.86-11.76"/><path class="cls-6" d="M1107,275.36c6.42-4.67,14.55-7.33,22.4-6.11s15.16,6.75,17.42,14.36c1.17,3.95-.11,9.54-4.21,9.95a8.86,8.86,0,0,1-4.8-1.44l-26.48-14"/><path class="cls-4" d="M290.88,360.9c4.27-3.19,3.66-10.9-1.07-13.38s-11.41,1.41-11.61,6.74,6.2,9.68,11.09,7.56"/><path class="cls-7" d="M951.42,85.1c3.1,4.51,10.46,5.46,14.26,1.53s2.11-11.74-3.12-13.34-11.07,4.68-8.73,9.62"/><path class="cls-7" d="M1011.52,101.2a57.36,57.36,0,0,1,3.3-36.09c2.54-5.75,6.26-11.28,11.78-14.28S1039.72,48,1044,52.6c7.08,7.48,1.42,20-6.09,27s-17.29,13.29-19.19,23.4"/><path class="cls-7" d="M219.06,331.4c.36,3.68,5,5.89,8.44,4.55s5.4-5.26,5.35-9c0-4.53-3.53-9.3-8-9.14s-7.23,7.32-3.27,9.52"/><path class="cls-7" d="M894.27,73.29c-7.66-14.72-17-30.84-32.92-35.38-5.7-1.63-14.05.58-13.62,6.48.17,2.42,1.9,4.41,3.6,6.14a102.76,102.76,0,0,0,39.5,25"/><path class="cls-7" d="M443.37,47.12a47.7,47.7,0,0,1,13.31-40.6c6.21,3.46,7.37,12.41,4.4,18.87s-11,16.38-16.73,20.62"/><path class="cls-7" d="M733.49,2.62c-.18-4.43.9-9.29,4.36-12s9.7-2,11.18,2.18C751.23-1,742.53,3,736,3.91"/><path class="cls-7" d="M407.09,34.1c-6.26-3.45-1.71-15.11,5.41-14.33S422.7,30.94,418,36.33a14.25,14.25,0,0,1-8.44-4.85"/><path class="cls-7" d="M1148.77,352c-1.21-6.94,9.4-12.14,14.14-6.94s-1.41,15.28-8.21,13.44"/><path class="cls-5" d="M597.35,80.09A5.33,5.33,0,1,0,592,74.77a5.38,5.38,0,0,0,5.32,5.32Z"/><path class="cls-5" d="M193.8,231a5.33,5.33,0,1,0-5.32-5.33A5.39,5.39,0,0,0,193.8,231Z"/><path class="cls-5" d="M236.2,690.72a5.33,5.33,0,1,0-5.33-5.32,5.38,5.38,0,0,0,5.33,5.32Z"/><path class="cls-5" d="M1141.88,464.3a5.33,5.33,0,1,0-5.33-5.33,5.39,5.39,0,0,0,5.33,5.33Z"/><path class="cls-5" d="M1107.22,78.46a5.33,5.33,0,1,0-5.32-5.33,5.39,5.39,0,0,0,5.32,5.33Z"/><path class="cls-5" d="M656.69,256.36a5.33,5.33,0,1,0-5.32-5.32,5.38,5.38,0,0,0,5.32,5.32Z"/><path class="cls-4" d="M714.45,87.35c3.43,0,3.44-5.33,0-5.33s-3.43,5.33,0,5.33Z"/><path class="cls-4" d="M247.75,420c3.43,0,3.43-5.32,0-5.32s-3.43,5.32,0,5.32Z"/><path class="cls-4" d="M245.44,632.61c3.43,0,3.43-5.33,0-5.33s-3.43,5.33,0,5.33Z"/><path class="cls-4" d="M245.44,52.69c3.43,0,3.43-5.32,0-5.32s-3.43,5.32,0,5.32Z"/><path class="cls-4" d="M922.39,41.14c3.43,0,3.43-5.33,0-5.33s-3.43,5.33,0,5.33Z"/><path class="cls-4" d="M816.11,591c3.43,0,3.43-5.33,0-5.33s-3.43,5.33,0,5.33Z"/><path class="cls-4" d="M1058.7,309.15c3.43,0,3.44-5.33,0-5.33s-3.43,5.33,0,5.33Z"/><path class="cls-3" d="M662,9.66c3.43,0,3.44-5.33,0-5.33s-3.43,5.33,0,5.33Z"/><path class="cls-7" d="M612.76,593.42c3.43,0,3.43-5.33,0-5.33s-3.43,5.33,0,5.33Z"/></g><rect class="cls-1" width="1366" height="689.96"/><g class="cls-9"><g class="cls-10"><path class="cls-11" d="M713.82,823.62c-39.77-37.31-49.69-100.13-25.64-148.69a120.14,120.14,0,0,1,11.94-19.57,130.63,130.63,0,0,0-11,20c-22.38,48.91-12.68,109.43,24.73,148.27Z"/><path class="cls-11" d="M705.13,631.08c-4.79-12-9-24-12.8-36.34a108.91,108.91,0,0,1,12.8,36.34Z"/><path class="cls-11" d="M277.65,1079.06C155.34,1021.42,46.51,919.54,35.42,777.89c-3.7-44.77,3.41-91,24.35-131a221.87,221.87,0,0,0-20.45,63.89c-14.53,89.16,18.07,181.7,77.25,248.62,44.28,50.93,101.06,89.56,161.08,119.71Z"/><path class="cls-11" d="M247.69,611.37c47.15,17,85.14,55.26,105.11,100.88,2.39,5.73,5.52,14.13,7.32,20q-2-4.95-3.88-9.91l-4.36-9.7c-21.22-44.74-58.39-82-104.19-101.3Z"/><path class="cls-11" d="M423.12,738.31c13.14-42.86,18.34-94-9.84-132A78.57,78.57,0,0,0,399.77,592a73.61,73.61,0,0,1,14.31,13.63c29.73,37.57,24.86,90.25,9,132.67Z"/><path class="cls-11" d="M1040.45,749.59a202.2,202.2,0,0,0-38.62-67.37,131.07,131.07,0,0,1,38.62,67.37Z"/><path class="cls-11" d="M799.67,1197.86c-80.19-111.9-95.12-272.68-37.06-399.15,16.64-36.23,39.33-70.29,70.54-93.14s71.82-33.23,107.93-21.1c61.84,20.78,91.53,101.58,79.37,169.43S965,978.14,919.88,1027.76s-89.61,107.39-119.37,168.76"/><path class="cls-11" d="M404.55,732.68a139.84,139.84,0,0,0,3.65-79.89c-5.6-22.21-23.84-46.14-44.49-39.42-14.68,4.78-21.76,23.86-19.09,40s12.55,29.65,22.56,42,30.68,21.56,35.7,37"/><path class="cls-11" d="M484.29,1085.07c-83.29,11-170-9.08-241.34-56.09s-127.06-120.58-155-204.9c-18.14-54.72-22.88-121.29,12.15-165.73,36-45.63,104.35-50.49,153.66-22.35s81.59,82,100.71,138,27.17,115.51,41.14,173.22,45.8,92.72,85.52,134.69"/><path class="cls-11" d="M728.78,819.41c-36.35-31.92-46.52-92.94-22.71-136.25,10.5-19.09,27.79-35.07,48.33-38.29s43.64,9.28,49.32,30.56c7.06,26.49-12.89,51.77-31.52,70.86s-47.27,45.6-41.8,72.51"/><path class="cls-11" d="M600.55,725.88c15-22.62,7.56-58.28-15-72-3.82-2.32-8.56-4.06-12.51-2-7.69,3.95-4.83,16.22-.82,24.25q13.51,27.13,27,54.26"/><path class="cls-11" d="M731.42,623.55c.26-6.36,5.59-11.27,10.91-14.76,2.86-1.87,6.12-3.62,9.51-3.18s6.44,4.16,5,7.25c-.78,1.65-2.52,2.59-4.17,3.39a156.74,156.74,0,0,1-17.23,7.1"/><path class="cls-11" d="M47.94,617.51c14-9.51,25.29-23.23,31-39.17s5.57-34.07-1.25-49.56c-1.88-4.29-4.37-8.48-8.16-11.23s-9.12-3.75-13.22-1.48c-6.88,3.82-6.69,13.61-5.55,21.4,3.17,21.71,6.43,44.39-.64,65.16"/><path class="cls-11" d="M107.89,592.48c7.5-8.35,19-12,30.23-12.92,4-.33,8.28-.29,11.74,1.76s5.63,6.75,3.66,10.26c-2.21,3.92-7.68,4.11-12.17,3.8l-24.72-1.71"/><path class="cls-11" d="M363.48,571.5c-3.63-6.57-2.36-14.65-1-22,.55-3,1.16-6.11,3-8.54s5.31-3.9,8-2.52,3.51,4.76,3.65,7.75a33.06,33.06,0,0,1-8.67,23.69"/><path class="cls-11" d="M323.88,574.3c2.09,4.72,9.62,5.63,12.77,1.54s.32-11.15-4.78-11.94-9.93,5.07-8.18,9.92"/><path class="cls-11" d="M979.5,634.79c4.29,6.24,14.49,7.56,19.75,2.11s2.93-16.26-4.31-18.48-15.35,6.49-12.1,13.33"/><path class="cls-11" d="M1062.77,657.1a79.48,79.48,0,0,1,4.57-50c3.52-8,8.66-15.63,16.32-19.79s18.18-3.86,24.17,2.46c9.8,10.35,2,27.68-8.44,37.44s-24,18.41-26.59,32.43"/><path class="cls-11" d="M900.32,618.43c-10.61-20.4-23.5-42.73-45.61-49-7.89-2.25-19.47.81-18.87,9,.24,3.35,2.64,6.11,5,8.51a142.57,142.57,0,0,0,54.73,34.6"/><path class="cls-11" d="M275.6,582.17a66.09,66.09,0,0,1,18.45-56.26c8.6,4.79,10.21,17.2,6.09,26.14s-15.28,22.7-23.17,28.58"/><path class="cls-11" d="M677.56,520.51c-.25-6.14,1.24-12.87,6.05-16.7s13.43-2.77,15.49,3c3,8.63-9,14.26-18.09,15.46"/><path class="cls-11" d="M225.35,564.12c-8.69-4.77-2.38-20.93,7.48-19.86s14.14,15.48,7.63,23a19.74,19.74,0,0,1-11.68-6.73"/><path class="cls-11" d="M489,625.79a5.33,5.33,0,1,0-5.33-5.33,5.38,5.38,0,0,0,5.33,5.33Z"/><path class="cls-11" d="M1195.36,623.53a5.33,5.33,0,1,0-5.32-5.33,5.39,5.39,0,0,0,5.32,5.33Z"/><path class="cls-11" d="M955.29,492.29A5.33,5.33,0,1,0,950,487a5.38,5.38,0,0,0,5.33,5.33Z"/><path class="cls-11" d="M220.06,429.46a5.33,5.33,0,1,0-5.32-5.32,5.38,5.38,0,0,0,5.32,5.32Z"/><path class="cls-11" d="M651.19,636.87c3.43,0,3.43-5.33,0-5.33s-3.43,5.33,0,5.33Z"/><path class="cls-11" d="M1.38,588.86c3.43,0,3.43-5.33,0-5.33s-3.43,5.33,0,5.33Z"/><path class="cls-11" d="M939.28,572.85c3.42,0,3.43-5.32,0-5.32s-3.44,5.32,0,5.32Z"/><path class="cls-11" d="M578.57,529.23c3.43,0,3.44-5.32,0-5.32s-3.43,5.32,0,5.32Z"/><path class="cls-11" d="M1063,497.22c3.43,0,3.43-5.33,0-5.33s-3.43,5.33,0,5.33Z"/><path class="cls-11" d="M732.23,416.66a5.33,5.33,0,1,0-5.33-5.33,5.38,5.38,0,0,0,5.33,5.33Z"/><path class="cls-11" d="M449.47,416.13c3.43,0,3.44-5.33,0-5.33s-3.43,5.33,0,5.33Z"/></g></g><g class="cls-12"><g class="cls-10"><path class="cls-11" d="M1367.38,591.86c3.43,0,3.43-5.33,0-5.33s-3.43,5.33,0,5.33Z"/></g></g></svg>