<svg xmlns="http://www.w3.org/2000/svg" viewBox="0 0 482.74 458.99"><defs><style>.cls-1{fill:#f6bd0f;}.cls-2{opacity:0.1;}.cls-3{fill:#fff;}.cls-4{fill:#169a8f;}.cls-5{fill:#793292;}.cls-6{fill:#f01586;}</style></defs><g id="Capa_2" data-name="Capa 2"><rect class="cls-1" x="-867.49" y="-762.88" width="1366" height="768"/></g><g id="Capa_3" data-name="Capa 3"><g class="cls-2"><path class="cls-3" d="M206.62,173.08a22.79,22.79,0,0,1,14.74-14.53,145.46,145.46,0,0,0-14.74,14.53Z"/><path class="cls-3" d="M191.63,165.1a69.5,69.5,0,0,1-6-16.59,25.67,25.67,0,0,1,6,16.59Z"/><path class="cls-3" d="M332.59,315.5c-1,11.53-13.16,16.8-19.78,24.85-7.09,7.76-11.46,18.68-8.21,29.14-5-10.15-.62-22.6,6.67-30.51,3.11-3.64,8.48-7.75,12.24-10.76,4.09-3.38,7.94-7.34,9.08-12.72Z"/><path class="cls-3" d="M303.28,380.2a9,9,0,0,1-4.42,7.92,4,4,0,0,1-3.2.25,8.5,8.5,0,0,0,2.3-1.6c2-1.91,3.34-4.61,5.32-6.57Z"/><path class="cls-3" d="M308.47,384.69c1.63,1.39,3.16,3.12,4.64,4.62.49.53,1,1.05,1.56,1.73a4.52,4.52,0,0,1-2.47-.39,6.1,6.1,0,0,1-3.73-6Z"/><path class="cls-3" d="M392.67,185.66a48,48,0,0,0,12.2.71,8.74,8.74,0,0,1-12.2-.71Z"/><path class="cls-3" d="M387.42,192.76c3,6.89,3.47,14.87,7.24,21.34a21.31,21.31,0,0,0,18.28,10.54c-7.75,1.76-16.17-2.67-20.07-9.5s-4-14.81-5.45-22.38Z"/><path class="cls-3" d="M286.41,144.41c-12.08-10.22-16.59-28.07-11.92-43a38.36,38.36,0,0,1,7.3-13.71,50.73,50.73,0,0,0-5.74,14.13,48.19,48.19,0,0,0,10.36,42.63Z"/><path class="cls-3" d="M283.48,79.46a25.4,25.4,0,0,1-4.32-12.26,17.11,17.11,0,0,1,4.32,12.26Z"/><path class="cls-3" d="M114.83,260.59c-29.29,17.55-42.91,56.87-30.54,88.69a35.34,35.34,0,0,0,8,12.05,33.88,33.88,0,0,1-8.92-11.63c-4.28-9-5.68-19-5.43-28.9.59-24.66,14.6-49.12,36.89-60.21Z"/><path class="cls-3" d="M174.19,342.08c-3.91,14.1-15.58,26.3-29.8,30.08a68.23,68.23,0,0,0,29.8-30.08Z"/><path class="cls-3" d="M178.34,351.2a54.82,54.82,0,0,0,11.73,22.16c-7.69-4.23-12.41-13.47-11.73-22.16Z"/><path class="cls-3" d="M329.11,289.56c9.87,7.07,21,14.62,33.72,13.05,4.05-.51,8-2,12-3.25a41,41,0,0,1-11.76,4.84c-13.05,2.53-25.42-5.51-34-14.64Z"/><path class="cls-3" d="M384.77,226.21c31,11,55.17,37.77,65.18,68.82a113.21,113.21,0,0,1,5.68,32,136.05,136.05,0,0,0-7.2-31.47c-10.77-30.5-33.93-56.31-63.66-69.35Z"/><path class="cls-3" d="M350.61,319.76c7.88,24.46,26.34,45.5,50.57,54.67-25.44-6.37-45.54-29.19-50.57-54.67Z"/><path class="cls-3" d="M362.87,356.31c3.89,12.75-4.41,25.42-13.1,34.12,6.31-10.53,14-21.24,13.1-34.12Z"/><path class="cls-3" d="M231.54,348.33c-5.4,12.68-4,28,4.7,38.84a36.53,36.53,0,0,0,10.38,9,28.61,28.61,0,0,1-11.61-8c-9.76-10.55-11.3-27.84-3.47-39.88Z"/><path class="cls-3" d="M259.47,142.55c-6.69,6.33-3,16.63,3.94,21.13a41.56,41.56,0,0,0,7.57,4c-5.89-.61-11.92-3.63-14.92-9-3.14-5.14-2.38-13.3,3.41-16.16Z"/><path class="cls-3" d="M139.28,230.57C105,215,72.77,188.57,61.4,151.49a94.62,94.62,0,0,1-3.19-45.28,73.17,73.17,0,0,1,7.57-21.44c-6.52,13.68-8.62,29.14-7.15,44.12,4.26,47.32,40.46,81.05,80.65,101.68Z"/><path class="cls-3" d="M129.17,72.81c18.56,5.6,33.32,22.08,37.92,40.78C159.7,96,146.42,81.11,129.17,72.81Z"/><path class="cls-3" d="M188.35,115.63c4.12-16.57,5.58-36.57-7.88-49.36,15.87,10.67,15,33.65,7.88,49.36Z"/><path class="cls-3" d="M401.22,168.38c5.95-5,22.5-3,25.65,4.6-3.29-3.39-7.76-4.26-12.23-4.95s-9-1.06-13.42.35Z"/><path class="cls-3" d="M405.45,131.64c7.05-11.06,20.78-19.26,34.11-15.8a22.16,22.16,0,0,1,11.32,6.63,27,27,0,0,0-11.65-5.06c-13-2.41-25.11,5.08-33.78,14.23Z"/><path class="cls-3" d="M40.85,272.65c5.33-14.06,20.31-23.58,35.25-23.42a31.12,31.12,0,0,1,14.34,3.49,39.61,39.61,0,0,0-14.31-1.88,44.15,44.15,0,0,0-35.28,21.81Z"/><path class="cls-3" d="M81.63,239.09c-6.1-3.34-8.1-12.53-4.17-18.2a25.38,25.38,0,0,0,4.17,18.2Z"/><path class="cls-3" d="M396.59,119.43c-1.71-3.46-4.06-8.39-6-11.66s-4.9-7.87-7-11.06a33.24,33.24,0,0,1,13,22.72Z"/><path class="cls-3" d="M404.81,108.55a14.42,14.42,0,0,1,14.25-8.49,67.27,67.27,0,0,0-14.25,8.49Z"/><path class="cls-3" d="M263,297.36c17.71-.52,32.56,14.9,33.79,32.18a35.7,35.7,0,0,1-2.29,16.63,43.64,43.64,0,0,0,.7-16.44c-2.14-16.55-15.41-30.5-32.2-32.37Z"/><path class="cls-3" d="M311.56,213.72c41.93-1.7,84.18,18.21,111.18,52.42,10.54,13.35,19,29.31,20.38,46.68s-5.58,36.18-19.8,44.81c-14,8.49-32.38,5.56-45.57-4.25S356,328,350.89,311.72s-7.25-33.36-10.13-50.22c-3.42-20-10.08-42.56-27.7-50.32"/><path class="cls-3" d="M180.49,240.85c-18,3-35.88,7.84-51.82,17.13S98.8,281.44,91.93,299.37s-5.84,39.75,4.95,55.33a34.14,34.14,0,0,0,11.87,11.05c5.31,2.79,11.37,3.59,17.28,3.43,10.32-.29,20.8-3.59,28.71-10.67,14.57-13.05,17.52-35.4,18.85-55.63s2.73-42.33,15.61-57.27"/><path class="cls-3" d="M179,294.13a120.4,120.4,0,0,1,27.55,24c4.78,5.61,9.21,12.06,10.25,19.56s-2.36,16.15-9.11,18.54c-6.38,2.26-13.53-1.77-17.4-7.63s-5.19-13.15-6.36-20.2-1.56-28.89-5.25-34.88"/><path class="cls-3" d="M199.67,172.21a129.11,129.11,0,0,1-1.47-37.13c.79-7.53,2.4-15.33,7-21.12s12.94-8.79,19.08-5c5.81,3.61,7.7,12,6.12,19s-5.83,12.84-10,18.44-19.31,20.33-21.1,27.24"/><path class="cls-3" d="M328.53,308.45a151.5,151.5,0,0,0-16.22-41.23c-4.48-7.76-10-15.38-17.77-19.18s-18.3-2.51-23.16,5c-4.59,7.09-2.62,17.25,2.44,24s12.51,10.8,19.77,14.61,29,13.43,34.23,20"/><path class="cls-3" d="M315.37,270.65c-27.05-37.75-32.09-92-12.5-134.65,5.61-12.22,13.27-23.71,23.79-31.42s24.23-11.21,36.41-7.11c20.86,7,30.88,34.26,26.77,57.15s-18.7,41.91-33.92,58.65-30.23,36.22-40.27,56.93"/><path class="cls-3" d="M320.91,279.25a60.11,60.11,0,0,1,35.2-14.62c10.84-.7,24.47,4.76,24.76,16.32.2,8.22-7.21,14.87-14.85,16.09s-15.28-1.64-22.43-4.76S328.7,280.93,321,280.85"/><path class="cls-3" d="M182.08,113.73a47.22,47.22,0,0,0,1.24-26.95c-1.89-7.5-8-15.57-15-13.3-4.95,1.61-7.34,8-6.44,13.48s4.23,10,7.61,14.18,10.35,7.27,12,12.49"/><path class="cls-3" d="M390.32,188a45.69,45.69,0,0,0,10.83,24.4c5,5.66,14,9.69,19.11,4.2,3.66-3.9,2.92-10.78-.27-15.12s-8.16-6.7-13-8.7-12.35-1.22-16.15-5"/><path class="cls-3" d="M209,232.6a120.22,120.22,0,0,1-81.41-18.92C103.48,197.82,84.71,173,75.28,144.56c-6.12-18.46-7.72-40.91,4.1-55.91,12.13-15.39,35.19-17,51.83-7.54s27.52,27.67,34,46.56,9.17,39,13.88,58.43,15.45,31.28,28.85,45.44"/><path class="cls-3" d="M96.65,255a74.88,74.88,0,0,0-22.24,1.52c-7.29,1.62-14.51,4.42-20.19,9.54s-9.62,12.82-9.16,20.73,6,15.57,13.39,16.71c7.52,1.17,14.91-4.58,18-12,1.64-3.86,2.33-8.09,3.56-12.11A44.31,44.31,0,0,1,99.1,254.51"/><path class="cls-3" d="M132.58,247.53A47.64,47.64,0,0,1,91.92,243c-3.94-2.45-7.85-6-8.43-10.82-.71-5.93,4.39-11.4,10-12.24s11.13,1.93,15.44,5.76,7.7,8.7,11.56,13,7.27,6.82,12.76,8.08"/><path class="cls-3" d="M282.14,182.31c18.72,33.74.43,77.64-26.16,103.82-8.55,8.42-18.89,15.28-30.39,17.22s-24.24-1.74-31.66-11.29c-9.14-11.76-8.16-30-.2-42.72,9.61-15.33,25.35-28.57,42.59-30.18,32.64-3,48.1-32.45,46.24-35.53"/><path class="cls-3" d="M286.45,172.57c.34-5.82-.32-11.86-3-16.94s-7.64-9-13.11-9.19c-2.93-.09-6.21,1.21-7.31,4.11-1.4,3.69,1.44,7.79,4.75,9.64s7.18,2.46,10.37,4.54a14.5,14.5,0,0,1,6,8.84"/><path class="cls-3" d="M238.35,343.44c-.37,7.85-2.45,9.54-2.82,17.39-.27,5.7-.49,11.68,1.82,16.84s8,9.06,13.05,7.06,6.93-8.85,5.62-14.35-5-10-8.42-14.29-8-6.21-8.75-11.83"/><path class="cls-3" d="M250.8,305.67a40.53,40.53,0,0,1,30,10.4c6,5.44,10.69,13.26,10.54,21.67s-6.3,16.87-14.19,17.15c-8.65.3-17.45-8-18.1-17.17-1.05-14.92-2-27-7.62-31.53"/><path class="cls-3" d="M291.46,143c-12.27-10.77-15.7-31.36-7.66-46,3.54-6.44,9.37-11.83,16.3-12.91s14.72,3.13,16.63,10.31c2.39,8.93-4.34,17.46-10.63,23.9S290.16,133.7,292,142.78"/><path class="cls-3" d="M341.38,311.23c3.66,13.49,11.08,27.58,9.76,41.55s-10,28.32-23,30.56A14.88,14.88,0,0,1,316.6,381c-4-3-5.85-8.38-5.87-13.53s-.07-10.2,1.81-14.95c1.31-3.32,4.73-7.51,6.85-10.31,2-2.65,4.28-3.84,6.64-6.14a66.85,66.85,0,0,0,15.48-23.6"/><path class="cls-3" d="M395.6,164.51c5.76-10.16,9.73-23.14,18.63-30.28s22.22-9.63,31-2.31a14.34,14.34,0,0,1,5.26,9c.51,4.33-1.54,8.67-4.53,11.64s-5.9,5.89-9.75,7.37c-2.68,1-7.09,1.18-9.94,1.37-2.7.18-4.69-.63-7.38-.87a49.92,49.92,0,0,0-22.63,3.28"/><path class="cls-3" d="M248.2,111.44c5.05-7.64,2.55-19.67-5.06-24.3-1.29-.79-2.89-1.38-4.22-.69-2.6,1.33-1.63,5.47-.28,8.18l9.12,18.31"/><path class="cls-3" d="M435.49,227.07c3.34,2.37,6.39,6,6.05,10a4,4,0,0,1-.93,2.43,2.07,2.07,0,0,1-2.4.52,2.9,2.9,0,0,1-.91-.9,12.16,12.16,0,0,1-1.23-11.72"/><path class="cls-3" d="M292.35,76.91c.08-2.14,1.88-3.8,3.68-5a4.87,4.87,0,0,1,3.2-1.08c1.14.15,2.18,1.41,1.68,2.45a2.72,2.72,0,0,1-1.41,1.14,51.79,51.79,0,0,1-5.81,2.4"/><path class="cls-3" d="M87.17,370.67c-3,4.11-8.37,5.66-12.12,9.08A4.32,4.32,0,0,0,73.58,382,3.45,3.45,0,0,0,74.82,385c2.62,2.41,7.17,1.58,9.54-1.08s2.89-6.55,2.4-10.08"/><path class="cls-3" d="M99.33,372.9a17.19,17.19,0,0,1,12,7.77,3,3,0,0,1,.62,2.24,2.3,2.3,0,0,1-.94,1.25c-2.13,1.56-5.28.58-7.18-1.26s-3-4.35-4.43-6.54"/><path class="cls-3" d="M468.5,334.27c.23,6-8,9.79-7.78,15.81a3.55,3.55,0,0,0,.41,1.63,3.08,3.08,0,0,0,3.31,1.24,6.26,6.26,0,0,0,3.14-2A14.25,14.25,0,0,0,470,335.38"/><path class="cls-3" d="M475.1,331.42a6.35,6.35,0,0,0,7.64-.11"/><path class="cls-3" d="M424.22,377.82a57.92,57.92,0,0,1,13.36-2c4.52,0,9.18,1.16,12.66,4a9.39,9.39,0,0,1,3.53,5.68,5.45,5.45,0,0,1-2.84,5.71,7.54,7.54,0,0,1-2.95.5,17.17,17.17,0,0,1-9-1.93c-5-2.9-8-9.44-13.77-9.91"/><path class="cls-3" d="M423.07,400.81a26,26,0,0,1,10,14.38,6.51,6.51,0,0,1,.06,4.18c-1,2.29-4.19,3-6.37,1.78a8,8,0,0,1-3.66-6.18,33.16,33.16,0,0,1,.39-7.43,15.21,15.21,0,0,0-.6-7.35"/><path class="cls-3" d="M333.47,393.17a31.05,31.05,0,0,1,8.59,3.5c2.58,1.72,4.69,4.42,4.93,7.52a3,3,0,0,1-.81,2.61,2.55,2.55,0,0,1-2.85.05,7.42,7.42,0,0,1-2.1-2.15q-4.05-5.49-8-11.09"/><path class="cls-3" d="M326.72,402.66l-4.46,2.56a9.48,9.48,0,0,0-3.58,2.95c-.82,1.34-.78,3.33.49,4.24s3.32.2,4.31-1.11a11.61,11.61,0,0,0,1.63-4.61,7.23,7.23,0,0,1,2.19-4.3"/><path class="cls-3" d="M231.35,333.27c-1.73-.84-1.37-3.8.39-4.56s3.92.43,4.68,2.18a3.25,3.25,0,0,1-.14,3.16,2,2,0,0,1-2.88.51"/><path class="cls-3" d="M267.93,379.77a8.54,8.54,0,0,1,6.23,5.15,3.68,3.68,0,0,1,.23,2.48,3.3,3.3,0,0,1-2,1.9,4.74,4.74,0,0,1-5.06-.91,3.72,3.72,0,0,1-.23-4.93"/><path class="cls-3" d="M210.7,378c-2.54.44-5.15,1.85-6,4.29s1.07,5.69,3.63,5.35a4.19,4.19,0,0,0,3.18-3.09,12.25,12.25,0,0,0,.18-4.64"/><path class="cls-3" d="M265.48,137.45c-.93-1-1.85-2.06-2.77-3.1-1.1-1.23-2.25-2.58-2.39-4.22s1.32-3.48,2.91-3a3.89,3.89,0,0,1,1.87,1.61c1.54,2.05,3.15,4.72,2,7"/><path class="cls-3" d="M61.78,74.88A27.35,27.35,0,0,0,72.24,61.66a22.88,22.88,0,0,0-.42-16.72,9,9,0,0,0-2.75-3.78,4.27,4.27,0,0,0-4.46-.5c-2.32,1.29-2.26,4.59-1.88,7.22,1.07,7.32,2.17,15-.21,22"/><path class="cls-3" d="M82,66.43c2.53-2.81,6.42-4,10.2-4.35a6.69,6.69,0,0,1,4,.59,2.72,2.72,0,0,1,1.23,3.46c-.74,1.32-2.59,1.39-4.1,1.28L85,66.84"/><path class="cls-4" d="M176.81,127a2.3,2.3,0,1,1,.38,1.21"/><path class="cls-3" d="M179.31,127c0-.11,0-.21,0-.32l-.08.66a1.78,1.78,0,0,1,.14-.5l-.25.59a2.82,2.82,0,0,1,.29-.5l-.39.51a2.4,2.4,0,0,1,.45-.45l-.51.39a3.08,3.08,0,0,1,.6-.36l-.6.25a2.57,2.57,0,0,1,.62-.16l-.67.08a2.35,2.35,0,0,1,.53,0l-.67-.09a2.05,2.05,0,0,1,.5.14l-.59-.26a2.13,2.13,0,0,1,.46.27l-.51-.39a2.73,2.73,0,0,1,.38.38l-.39-.5a2.45,2.45,0,0,1,.34.59l-.25-.6a2.55,2.55,0,0,1,.18.67l-.09-.67a2.22,2.22,0,0,1,0,.63l.09-.66a2.73,2.73,0,0,1-.15.56l.25-.6a2,2,0,0,1-.24.43l.39-.51a2.32,2.32,0,0,1-.35.35l.51-.39a3.1,3.1,0,0,1-.5.29l.59-.26a2.51,2.51,0,0,1-.61.17l.67-.09a2.66,2.66,0,0,1-.69,0l.66.09a2.93,2.93,0,0,1-.66-.18l.6.25a2.29,2.29,0,0,1-.5-.3l.5.39a2.19,2.19,0,0,1-.34-.34l.39.51a.57.57,0,0,1-.08-.13,2.64,2.64,0,0,0-1.5-1.14,2.55,2.55,0,0,0-1.93.25,2.51,2.51,0,0,0-.89,3.42,4.55,4.55,0,0,0,1.82,1.66,5.43,5.43,0,0,0,1.21.42,5,5,0,0,0,1.28.11,5.44,5.44,0,0,0,1.27-.21,4.54,4.54,0,0,0,1.14-.53,4.25,4.25,0,0,0,.94-.81,4.67,4.67,0,0,0,.55-.75,6.6,6.6,0,0,0,.38-.86,5.09,5.09,0,0,0,.1-2.53,5,5,0,0,0-.43-1.19,3.25,3.25,0,0,0-.33-.57,6.63,6.63,0,0,0-.59-.72,5.81,5.81,0,0,0-.73-.58,4.05,4.05,0,0,0-1.13-.54,1.87,1.87,0,0,0-.34-.08,4.6,4.6,0,0,0-1-.11,6,6,0,0,0-.95.11,2.33,2.33,0,0,0-.36.08,7.41,7.41,0,0,0-.92.38,2.71,2.71,0,0,0-.37.21,5,5,0,0,0-1.05.9,6.49,6.49,0,0,0-.59.79,5.48,5.48,0,0,0-.41.93,2.72,2.72,0,0,0-.11.38,6,6,0,0,0-.12,1,2.62,2.62,0,0,0,.74,1.77,2.5,2.5,0,0,0,3.53,0,2.57,2.57,0,0,0,.73-1.77Z"/><path class="cls-3" d="M168.23,59.36c-1.23-2.22-.8-5-.34-7.44a6.6,6.6,0,0,1,1-2.88,2.27,2.27,0,0,1,2.7-.85,2.94,2.94,0,0,1,1.23,2.61,11.13,11.13,0,0,1-2.92,8"/><path class="cls-3" d="M154.87,60.3a2.56,2.56,0,1,0-.06-.16"/><path class="cls-3" d="M442.56,179.75a4,4,0,0,1,5.59,2.42,3.72,3.72,0,0,1-4.09,4.3c-2.31-.46-3.43-3.8-1.81-5.49"/><path class="cls-3" d="M448.73,169.63a14.36,14.36,0,0,1,10.47-2.86,10.11,10.11,0,0,1,8.14,6.71c.55,1.85,0,4.46-2,4.65a4.1,4.1,0,0,1-2.24-.67l-12.38-6.54"/><path class="cls-3" d="M67.31,209.6a3.7,3.7,0,1,0-.74.43"/><path class="cls-3" d="M376,80.71a4.52,4.52,0,0,0,6.66.71c1.78-1.84,1-5.49-1.45-6.23s-5.18,2.18-4.08,4.49"/><path class="cls-3" d="M404.12,88.23a26.79,26.79,0,0,1,1.54-16.87c1.19-2.68,2.93-5.27,5.51-6.67s6.13-1.31,8.15.83c3.31,3.49.66,9.33-2.85,12.63s-8.08,6.21-9,10.94"/><path class="cls-3" d="M92,398.79c1.86-3.23,7.72-2.45,8.68,1.14s-3.75,7.18-7,5.3a8.63,8.63,0,0,1-1.14-6.17"/><path class="cls-3" d="M291.2,430.44c-.84,3-.8,6.56,1.37,8.78s6.84,1.64,7.47-1.4c.93-4.53-6.34-5.83-8.82-9.74"/><path class="cls-3" d="M33.75,195.82c.17,1.72,2.33,2.75,3.94,2.12a4.41,4.41,0,0,0,2.51-4.18c0-2.12-1.65-4.35-3.77-4.28s-3.37,3.42-1.53,4.45"/><path class="cls-3" d="M349.32,75.19c-3.58-6.88-7.93-14.42-15.39-16.54-2.66-.76-6.56.27-6.36,3a4.9,4.9,0,0,0,1.68,2.87,48.11,48.11,0,0,0,18.46,11.67"/><path class="cls-3" d="M138.58,63a22.31,22.31,0,0,1,6.23-19c2.9,1.61,3.44,5.8,2.05,8.82a31.8,31.8,0,0,1-7.81,9.64"/><path class="cls-3" d="M274.18,42.16c-.09-2.08.42-4.35,2-5.64s4.53-.93,5.22,1c1,2.91-3,4.8-6.1,5.21"/><path class="cls-3" d="M194.26,385.74a39.28,39.28,0,0,1-13,8.92c-3.51,1.48-8,3.44-7.87,7.25a5.57,5.57,0,0,0,1.8,3.73c4.31,4.2,12.1,1.9,15.6-3s3.91-11.27,4.19-17.28"/><path class="cls-3" d="M121.63,56.87c-2.93-1.61-.8-7.06,2.53-6.7s4.77,5.22,2.57,7.74a6.64,6.64,0,0,1-3.94-2.27"/><path class="cls-3" d="M468.27,205.45c-.57-3.24,4.39-5.67,6.6-3.24s-.66,7.14-3.83,6.28"/><path class="cls-3" d="M210.55,81.2a5.33,5.33,0,1,0-5.32-5.33,5.39,5.39,0,0,0,5.32,5.33Z"/><path class="cls-3" d="M146.5,419.5a5.33,5.33,0,1,0-5.32-5.33,5.39,5.39,0,0,0,5.32,5.33Z"/><path class="cls-3" d="M22,151.75a5.33,5.33,0,1,0-5.33-5.33A5.38,5.38,0,0,0,22,151.75Z"/><path class="cls-3" d="M41.76,366.59a5.33,5.33,0,1,0-5.33-5.33,5.39,5.39,0,0,0,5.33,5.33Z"/><path class="cls-3" d="M465.05,260.76a5.33,5.33,0,1,0-5.33-5.32,5.38,5.38,0,0,0,5.33,5.32Z"/><path class="cls-3" d="M448.85,80.44a5.33,5.33,0,1,0-5.33-5.33,5.38,5.38,0,0,0,5.33,5.33Z"/><path class="cls-3" d="M384.06,401.14a5.33,5.33,0,1,0-5.33-5.33,5.38,5.38,0,0,0,5.33,5.33Z"/><path class="cls-3" d="M367.86,36.17a5.33,5.33,0,1,0-5.32-5.33,5.39,5.39,0,0,0,5.32,5.33Z"/><path class="cls-3" d="M119.85,15a5.38,5.38,0,0,0,5.32-5.32,5.33,5.33,0,1,0-10.65,0A5.42,5.42,0,0,0,119.85,15Z"/><path class="cls-3" d="M238.29,163.58a5.33,5.33,0,1,0-5.33-5.32,5.38,5.38,0,0,0,5.33,5.32Z"/><path class="cls-3" d="M265.28,83.17c3.43,0,3.43-5.32,0-5.32s-3.43,5.32,0,5.32Z"/><path class="cls-3" d="M47.16,238.66c3.43,0,3.43-5.32,0-5.32s-3.43,5.32,0,5.32Z"/><path class="cls-3" d="M46.08,338c3.43,0,3.43-5.33,0-5.33s-3.43,5.33,0,5.33Z"/><path class="cls-3" d="M46.08,67c3.43,0,3.43-5.33,0-5.33S42.65,67,46.08,67Z"/><path class="cls-3" d="M362.46,61.58c3.43,0,3.44-5.33,0-5.33s-3.43,5.33,0,5.33Z"/><path class="cls-3" d="M457.49,372.56c3.42,0,3.43-5.32,0-5.32s-3.44,5.32,0,5.32Z"/><path class="cls-3" d="M358.14,430.87c3.43,0,3.44-5.32,0-5.32s-3.43,5.32,0,5.32Z"/><path class="cls-3" d="M312.79,318.57c3.43,0,3.44-5.32,0-5.32s-3.43,5.32,0,5.32Z"/><path class="cls-3" d="M426.17,186.84c3.43,0,3.44-5.33,0-5.33s-3.43,5.33,0,5.33Z"/><path class="cls-3" d="M240.79,46.86c3.42,0,3.43-5.32,0-5.32s-3.44,5.32,0,5.32Z"/><path class="cls-3" d="M281.1,409.68c3.43,0,3.43-5.33,0-5.33s-3.43,5.33,0,5.33Z"/><path class="cls-3" d="M404.2,36.06c3.43,0,3.43-5.32,0-5.32s-3.43,5.32,0,5.32Z"/><path class="cls-3" d="M129.93,396.72c3.42,0,3.43-5.33,0-5.33s-3.44,5.33,0,5.33Z"/><path class="cls-3" d="M225.31,437.9a5.33,5.33,0,1,0-5.32-5.33,5.39,5.39,0,0,0,5.32,5.33Z"/><path class="cls-3" d="M292.62,10.65A5.39,5.39,0,0,0,298,5.33a5.33,5.33,0,1,0-10.66,0,5.42,5.42,0,0,0,5.33,5.32Z"/><path class="cls-3" d="M217.75,319.69c3.43,0,3.43-5.32,0-5.32s-3.43,5.32,0,5.32Z"/><path class="cls-3" d="M175.64,459c3.43,0,3.43-5.33,0-5.33s-3.43,5.33,0,5.33Z"/><path class="cls-3" d="M197.24,8.71c3.42,0,3.43-5.33,0-5.33s-3.44,5.33,0,5.33Z"/></g><path class="cls-5" d="M171.8,435c21.87-11.81,48.7-18.35,73.75-22.63,37.87-6.48,76.3-11.21,112.78-22.75s71.53-30.71,93.56-60.34,28.62-70.95,9.56-102.34c-19.39-31.93-61.62-47.56-100.64-44.48S285.94,204.6,256,228.26C192.05,278.72,150.34,352.87,140.33,430.6Z"/><path class="cls-1" d="M249.37,405.91c-53.82,38.56-131.15,45.75-192,17.82-17.42-8-33.8-18.92-44.79-33.93s-16-34.53-10.15-51.9c10-29.74,48.85-44,81.49-38.17s59.75,26.67,83.61,48.36,51.65,43.1,81.16,57.41"/><path class="cls-6" d="M116.73,365c8.66-4.64,21-2.22,27.53,5.4,2.88,3.35,4.69,7.78,3.83,11.92s-4.87,7.63-9.32,7.2c-5.54-.55-8.93-6.15-11.23-11.05s-5.3-12.24-10.81-13.12"/></g><g id="Capa_1" data-name="Capa 1"><path class="cls-3" d="M111.53,359.82A45.86,45.86,0,1,1,66,313.6,45.85,45.85,0,0,1,111.53,359.82Z"/></g></svg>