<svg xmlns="http://www.w3.org/2000/svg" viewBox="0 0 243.17 459.63"><defs><style>.cls-1{isolation:isolate;}.cls-2{fill:#f6bd0f;}.cls-3{fill:#f20d5f;}.cls-4{fill:#f01586;}.cls-5{fill:#793292;}.cls-6{fill:#169a8f;}.cls-7{fill:#f86e6e;}.cls-8{mix-blend-mode:soft-light;}</style></defs><g class="cls-1"><g id="Capa_2" data-name="Capa 2"><rect class="cls-2" x="-328.34" y="-762.67" width="1366" height="768"/><path class="cls-3" d="M72.51,328.87c-1.23,13.07-15.06,19-22.59,28.14-7.05,7.75-11.73,18.17-10.27,28.76a31.67,31.67,0,0,0,1,4.46,24.36,24.36,0,0,1-2.3-9c-.84-12.85,7.18-24.3,16.71-32.09,6.61-5.5,15.68-11.27,17.41-20.31Z"/><path class="cls-3" d="M140.78,181.29a41.49,41.49,0,0,0,13.87.81,10.32,10.32,0,0,1-13.87-.81Z"/><path class="cls-3" d="M134.82,189.36c3.3,7.88,3.81,16.95,8.11,24.33a24.06,24.06,0,0,0,20.9,11.9c-8.79,1.88-18.27-3.14-22.69-10.86s-4.55-16.81-6.32-25.37Z"/><path class="cls-4" d="M68.55,299.38c11.14,8.18,23.91,16.8,38.35,14.94,4.62-.61,9.11-2.3,13.66-3.8-4.2,2.28-8.56,4.43-13.4,5.39-14.81,2.82-28.78-6.29-38.61-16.53Z"/><path class="cls-5" d="M131.82,227.38c35.1,12.61,62.54,43,74,78.26A129.93,129.93,0,0,1,212.35,342a152.41,152.41,0,0,0-8.08-35.81c-12.18-34.69-38.58-64.1-72.45-78.78Z"/><path class="cls-5" d="M93,333.7c8.77,27.88,29.85,51.9,57.47,62.14C121.62,388.4,98.9,362.6,93,333.7Z"/><path class="cls-5" d="M106.93,375.25C111.13,389.76,101.75,404,92,414c7.34-11.85,16.1-24.13,14.9-38.77Z"/><path class="cls-6" d="M150.51,161.65c6.72-5.45,25.54-3.27,29.15,5.23-3.65-3.94-8.8-5-13.88-5.76s-10.25-1.18-15.27.53Z"/><path class="cls-6" d="M155.32,119.89c8.13-12.44,23.61-21.71,38.75-17.85A25.49,25.49,0,0,1,207,109.47a30.28,30.28,0,0,0-13.22-5.85c-14.81-2.82-28.67,5.74-38.41,16.27Z"/><path class="cls-2" d="M145.25,106a141,141,0,0,0-14.81-25.83A39.56,39.56,0,0,1,145.25,106Z"/><path class="cls-2" d="M154.59,93.65A17.07,17.07,0,0,1,170.78,84a61.36,61.36,0,0,0-16.19,9.65Z"/><path class="cls-5" d="M48.61,213.18c47.65-1.93,95.67,20.71,126.36,59.59,12,15.16,21.6,33.3,23.16,53.05s-6.35,41.12-22.51,50.93c-15.88,9.65-36.79,6.31-51.79-4.84S99.14,343,93.3,324.56s-8.24-37.9-11.51-57.07c-3.89-22.72-11.45-48.37-31.49-57.2"/><path class="cls-7" d="M67.89,320.85A172,172,0,0,0,49.45,274c-5.09-8.82-11.34-17.48-20.19-21.8s-20.8-2.86-26.32,5.67c-5.22,8.07-3,19.6,2.77,27.24s14.22,12.28,22.47,16.61S61.11,317,67.08,324.42"/><path class="cls-2" d="M52.94,277.89C22.19,235,16.46,173.34,38.72,124.85,45.1,111,53.81,97.9,65.77,89.14s27.54-12.74,41.38-8.09c23.71,8,35.09,39,30.43,65S116.32,193.65,99,212.67s-34.36,41.17-45.77,64.7"/><path class="cls-4" d="M59.23,287.66a68.35,68.35,0,0,1,40-16.61c12.32-.8,27.81,5.4,28.14,18.55.23,9.34-8.2,16.9-16.88,18.28S93.13,306,85,302.48s-16.93-12.91-25.7-13"/><path class="cls-3" d="M138.12,184a52,52,0,0,0,12.31,27.73c5.65,6.43,15.88,11,21.72,4.77,4.16-4.43,3.32-12.25-.31-17.18s-9.27-7.62-14.75-9.89-14-1.38-18.35-5.65"/><path class="cls-4" d="M25.76,132.79C11.82,120.55,7.92,97.15,17.05,80.55c4-7.32,10.65-13.45,18.53-14.68s16.73,3.56,18.91,11.71c2.7,10.16-4.94,19.85-12.09,27.17s-18.12,17.49-16,27.81"/><path class="cls-3" d="M82.49,324c4.16,15.33,12.6,31.35,11.1,47.23S82.26,403.42,67.47,406c-4.52.78-9.41.14-13.14-2.68-4.49-3.4-6.64-9.51-6.67-15.38s-.08-11.58,2.06-17c1.49-3.77,5.37-8.54,7.79-11.72,2.29-3,4.86-4.37,7.54-7a76,76,0,0,0,17.6-26.82"/><path class="cls-6" d="M144.12,157.25c6.55-11.54,11.06-26.3,21.18-34.41s25.25-11,35.21-2.62a16.23,16.23,0,0,1,6,10.23c.59,4.91-1.74,9.84-5.14,13.22s-6.71,6.69-11.08,8.38c-3.06,1.17-8.06,1.33-11.3,1.55-3.07.21-5.33-.71-8.39-1a56.59,56.59,0,0,0-25.72,3.72"/><path class="cls-3" d="M189.46,228.35c3.8,2.7,7.26,6.78,6.88,11.42a4.5,4.5,0,0,1-1.06,2.76,2.38,2.38,0,0,1-2.73.59,3.27,3.27,0,0,1-1-1,13.8,13.8,0,0,1-1.4-13.31"/><path class="cls-5" d="M227,350.2c.26,6.83-9.06,11.13-8.84,18a4,4,0,0,0,.46,1.86,3.5,3.5,0,0,0,3.76,1.41,7.25,7.25,0,0,0,3.58-2.27,16.21,16.21,0,0,0,2.76-17.7"/><path class="cls-5" d="M234.47,347a7.23,7.23,0,0,0,8.7-.13"/><path class="cls-5" d="M176.65,399.69c5-1.16,10.06-2.32,15.19-2.3s10.43,1.32,14.38,4.59a10.61,10.61,0,0,1,4,6.46,6.19,6.19,0,0,1-3.22,6.49,8.85,8.85,0,0,1-3.35.57,19.44,19.44,0,0,1-10.22-2.21c-5.66-3.29-9.13-10.72-15.65-11.26"/><path class="cls-2" d="M175.35,425.83a29.61,29.61,0,0,1,11.4,16.34,7.41,7.41,0,0,1,.08,4.74c-1.1,2.61-4.77,3.38-7.25,2s-3.81-4.22-4.16-7a38,38,0,0,1,.44-8.44c.3-2.81.39-5.75-.68-8.36"/><path class="cls-3" d="M73.51,417.14c3.38,1,6.82,2,9.76,4s5.33,5,5.6,8.55a3.47,3.47,0,0,1-.91,3,2.89,2.89,0,0,1-3.24.06,8.22,8.22,0,0,1-2.39-2.45q-4.6-6.23-9-12.6"/><path class="cls-3" d="M65.84,427.93l-5.07,2.91a10.68,10.68,0,0,0-4.07,3.35c-.93,1.52-.9,3.79.56,4.82s3.77.23,4.89-1.26,1.45-3.42,1.85-5.24,1-3.74,2.49-4.89"/><path class="cls-6" d="M197.5,174.57a4.54,4.54,0,0,1,6.35,2.75,4.24,4.24,0,0,1-4.66,4.9c-2.61-.53-3.89-4.32-2-6.25"/><path class="cls-6" d="M204.51,163.07a16.3,16.3,0,0,1,11.89-3.25,11.5,11.5,0,0,1,9.26,7.63c.62,2.1-.06,5.06-2.24,5.28a4.63,4.63,0,0,1-2.54-.76l-14.07-7.43"/><path class="cls-2" d="M121.88,62c1.65,2.4,5.56,2.9,7.57.81s1.13-6.23-1.65-7.08-5.88,2.48-4.64,5.11"/><path class="cls-2" d="M153.81,70.55a30.43,30.43,0,0,1,1.75-19.17c1.35-3.05,3.32-6,6.26-7.58s7-1.49,9.26.94c3.76,4,.75,10.61-3.23,14.35s-9.19,7.06-10.2,12.44"/><path class="cls-2" d="M91.52,55.73c-4.07-7.82-9-16.38-17.49-18.8-3-.86-7.46.31-7.23,3.45a5.57,5.57,0,0,0,1.91,3.26,54.66,54.66,0,0,0,21,13.26"/><path class="cls-2" d="M226.71,203.79c-.64-3.69,5-6.45,7.51-3.69s-.75,8.12-4.36,7.14"/><path class="cls-5" d="M223.05,265.93a5.33,5.33,0,1,0-5.32-5.33,5.39,5.39,0,0,0,5.32,5.33Z"/><path class="cls-5" d="M204.64,61a5.33,5.33,0,1,0-5.32-5.33A5.39,5.39,0,0,0,204.64,61Z"/><path class="cls-6" d="M131,425.47a5.33,5.33,0,1,0-5.32-5.32,5.38,5.38,0,0,0,5.32,5.32Z"/><path class="cls-5" d="M112.6,10.65a5.38,5.38,0,0,0,5.32-5.32,5.33,5.33,0,1,0-10.65,0,5.42,5.42,0,0,0,5.33,5.32Z"/><path class="cls-4" d="M106.46,39.9c3.43,0,3.43-5.33,0-5.33s-3.43,5.33,0,5.33Z"/><path class="cls-4" d="M214.46,393.35c3.43,0,3.43-5.32,0-5.32s-3.43,5.32,0,5.32Z"/><path class="cls-4" d="M101.55,459.63c3.43,0,3.43-5.33,0-5.33s-3.43,5.33,0,5.33Z"/><path class="cls-4" d="M50,332c3.42,0,3.43-5.33,0-5.33S46.57,332,50,332Z"/><path class="cls-4" d="M178.87,182.26c3.43,0,3.43-5.32,0-5.32s-3.43,5.32,0,5.32Z"/><path class="cls-3" d="M153.89,10.9c3.43,0,3.44-5.32,0-5.32s-3.43,5.32,0,5.32Z"/></g></g></svg>