<svg xmlns="http://www.w3.org/2000/svg" xmlns:xlink="http://www.w3.org/1999/xlink" viewBox="0 0 167.79 167.79"><defs><style>.cls-1{fill:none;}.cls-2{clip-path:url(#clip-path);}.cls-3{opacity:0.05;}.cls-4{fill:#fff;}.cls-5{fill:#e9ad2b;}.cls-6{fill:#be8d25;}.cls-7{fill:#e8ac2b;}.cls-8{fill:#009d96;}.cls-9{fill:#c45a89;}.cls-10{fill:#1c81bd;}.cls-11{isolation:isolate;}</style><clipPath id="clip-path"><rect class="cls-1" x="-458.06" y="-887.84" width="1366" height="623.8"/></clipPath></defs><g id="Capa_2" data-name="Capa 2"><g class="cls-2"><g class="cls-3"><path class="cls-4" d="M147.46,41.64a5.33,5.33,0,1,0-5.33-5.32,5.38,5.38,0,0,0,5.33,5.32Z"/><path class="cls-4" d="M.21,109.4c3.42,0,3.43-5.33,0-5.33s-3.44,5.33,0,5.33Z"/></g></g></g><g id="Capa_1" data-name="Capa 1"><g id="g4812"><path id="path4677" class="cls-5" d="M76,38.86l.57-10,2,4.55L79.68,29l2.16,4.37,1.73-5.07,2,4.88,1.63-4.37,1.49,4.39L91,28.59l.32,10.27Z"/><path id="ellipse4679" class="cls-6" d="M83.63,37.21c4.23,0,7.66.69,7.66,1.55s-3.43,1.54-7.66,1.54S76,39.61,76,38.76,79.39,37.21,83.63,37.21Z"/><path id="circle4681" class="cls-7" d="M76.57,27.91a.85.85,0,0,1,.84.84.84.84,0,0,1-1.68,0A.85.85,0,0,1,76.57,27.91Z"/><path id="circle4683" class="cls-7" d="M79.69,27.63a.84.84,0,1,1-.84.84A.84.84,0,0,1,79.69,27.63Z"/><path id="circle4685" class="cls-7" d="M87.16,27.41a.84.84,0,1,1,0,1.67.84.84,0,1,1,0-1.67Z"/><path id="circle4687" class="cls-7" d="M91,27.45a.84.84,0,1,1-.84.84A.83.83,0,0,1,91,27.45Z"/><path id="circle4689" class="cls-7" d="M83.66,26.18a1.37,1.37,0,1,1-1.37,1.37A1.37,1.37,0,0,1,83.66,26.18Z"/><path id="path4691" class="cls-7" d="M82.57,18.91h2.29l-1.1,4.87Z"/><path id="path4693" class="cls-7" d="M90.9,19.81,92.57,21l-3.3,3Z"/><path id="path4695" class="cls-7" d="M75.74,20.6l-1.67,1.17,3.3,3Z"/><path id="path4697" class="cls-7" d="M69.91,30.17l-.35,2,3.89-.47Z"/><path id="path4699" class="cls-7" d="M97.12,30.08l.48,2-3.91-.23Z"/></g><path id="path4701" class="cls-8" d="M76,59l2.16-20.12s6-1.77,11.24,0l1.82,20.3S81.56,58.36,76,59Z"/><path id="path5997" d="M93.69,91.24a250.11,250.11,0,0,0-43.81,2.13.4.4,0,1,0,.13.79s35.86-5.53,67.61.53a.41.41,0,0,0,.47-.32h0a.4.4,0,0,0-.32-.47h0A167.6,167.6,0,0,0,93.69,91.24Z"/><path id="path4705" class="cls-9" d="M73.83,79.5,71.72,98.68a35.33,35.33,0,0,0,23.2,0L93.13,79.46c-8.7.46-12.21,1.47-19.3,0Z"/><path id="path4707" class="cls-10" d="M76,59,73.83,79.51a43.43,43.43,0,0,0,19.31,0l-1.9-20.36S86,58,76,59Z"/><rect id="rect4709" class="cls-4" x="81.67" y="44.51" width="3.39" height="6.78"/><rect id="rect4711" class="cls-4" x="81.67" y="65.84" width="3.39" height="6.78"/><rect id="rect4713" class="cls-4" x="81.67" y="86.5" width="3.39" height="6.78"/><path id="path4715" d="M65,88.91a1.88,1.88,0,0,0,0-.74,5,5,0,0,1-.12-.58c0,.12-.4,0-.4,0a.34.34,0,0,0-.07.51.48.48,0,0,1,0,.57,5.36,5.36,0,0,0-.59-.8c-.17-.36.4-.93.4-.93.1-.26.5-.12.5-.12s.33-.37.33-.37a.89.89,0,0,1,1.08.13c.27.14,0,.86,0,.86l0,.56c-.12.4-.65.36-.65.36l-.06.46a3.45,3.45,0,0,0,.78.25,3.69,3.69,0,0,0,.94.65.37.37,0,0,0,.32-.16,4.29,4.29,0,0,0,.48-.7.94.94,0,0,1-.09-.59s.33-.31.46-.25.49.31.28.73c0,0-.5,1.19-1,1.4a2.08,2.08,0,0,1-1.1-.07s-.3-.05-.34.23c0,0-.17.92-.05,1.08a14.94,14.94,0,0,1,.74,1.36l-.27.2s.4,1.66.48,1.76,1,.29,1.09.3a2.92,2.92,0,0,1-1.28.52s-.75-2.41-.86-2.51h-.52s-.34,1.25-.81,1.33c0,0-.38.13-.91-.76l-.21-.23s0,.73-.28.73l-.26,0a5.34,5.34,0,0,1,.2-1.47s.59.07.7.45c0,0,.41.43.52.34l.12-.47L64,93l.53-1.66a2.29,2.29,0,0,0-.42-1.53,19.57,19.57,0,0,0-1.47-1.34s-.37.18-.76-.44a1.27,1.27,0,0,1-.19-.56l-1.84-3,.12,2.46s1,4.16,1.07,4.2,1.11,3.45,1.15,3.52l.08.14a18.82,18.82,0,0,1,1.93.36s.41.17,0,.42c0,0-2.22.57-2.43.6a9.13,9.13,0,0,0-.48-1l-.31,0S59,89.73,59.08,89.34c0,0-.4,4.47-.91,5.07,0,0-.58.64-.66.7a8.92,8.92,0,0,1,1,1.62.59.59,0,0,1-.38.26l-2.17-1.16s.46-1.29.69-1.38c0,0,1.52-3.64,1.09-4.8,0,0-1.35-4.44-1.55-5a29.62,29.62,0,0,0,0,3.6l-.08,1.36s.42.58-.06.82a.63.63,0,0,1-1-.07s-.24-.51-.11-.67c0,0-2.25-1.75-2.34-2.43l-.73-1.48s-.15,1.19-.14,1.55a22.32,22.32,0,0,1,.94,4.51l-.49.13s.45,3.21.37,3.6c0,0,1.4.54,1.45.85a9.65,9.65,0,0,0-1.61,0l-.58-.06a16.19,16.19,0,0,0,0-3.33l-.3-.93a2.53,2.53,0,0,1-1.14.13,6.65,6.65,0,0,1-.86,1.48,16.22,16.22,0,0,1-1.41.88h0a6.93,6.93,0,0,1-.45,1.86,15.24,15.24,0,0,0-.5-1.82s2.13-1.26,1.92-1.41c0,0,.6-.94.54-1.16,0,0-1.21-.06-1.26-.3,0,0,1.28-3.88,1.07-4,0,0,0-.23-.39-.2,0,0-.78-.19-.72-.35,0,0,.33-2.47.34-2.61s-.12-.46-.19-.36-.11.12-.29.16a.67.67,0,0,1-.34-.2.82.82,0,0,0-.43-.24s-.34-.09-.33-.38c0,0,0-.26.21-.23a.58.58,0,0,1,.39.31A1.53,1.53,0,0,1,48,84a3.2,3.2,0,0,0,.25-.27s-.82-.41-.57-1.12c0,0,.28-.41.77,0a1.07,1.07,0,0,1,.24.82,1.15,1.15,0,0,1,.89.27,2.14,2.14,0,0,1,.54-.24l0-.61a3,3,0,0,1-.66.22s-.63-2,.34-2.6c0,0,.75-.51,1.07,0a2.26,2.26,0,0,1,.52,2l-.69.31s.17.52.2.64.86.09,1.09.59c.1.12,1.32,2.94,1.32,2.94s1.8,2.24,1.9,2.33a.37.37,0,0,1,0-.26,51.75,51.75,0,0,1-.1-5.49s.74-1.3,1.61-1.35c0,0-1.36-2.77-.94-3.36,0,0,.61-.6,1.15-.46,0,0,.45-.24.48-.44,0,0,.39.12.16.68A5.47,5.47,0,0,1,58,80.7s-.61.18-.59.39c0,0,.26.67.29.82a2.4,2.4,0,0,1,2.33.94s2.07,3.68,2.32,4.11c0,0,.57.57.56,1,0,0,.74.8,1,.86a.72.72,0,0,0,1,.14Z"/><g id="text4719" class="cls-11"><g class="cls-11"><path d="M44.79,111.29v5.82H55v4.08H44.79v8H39.68v-22H56.35v4.08Z"/><path d="M73.43,124.49H63.19l-1.95,4.71H56l9.83-22h5l9.86,22H75.39Zm-1.61-3.86-3.49-8.42-3.5,8.42Z"/><path d="M97.1,129.2l-4.26-6.12H88.15v6.12H83v-22h9.55a12.46,12.46,0,0,1,5.09,1A7.86,7.86,0,0,1,101,119.42a7.46,7.46,0,0,1-3.36,2.71l5,7.07Zm-1.3-16.85a5.34,5.34,0,0,0-3.49-1H88.15V119h4.16a5.28,5.28,0,0,0,3.49-1,3.95,3.95,0,0,0,0-5.67Z"/><path d="M110.69,128.1a11,11,0,0,1-4.31-4.06,11.67,11.67,0,0,1,0-11.66,10.91,10.91,0,0,1,4.31-4.07,13.66,13.66,0,0,1,12.37,0,11.19,11.19,0,0,1,0,19.79,13.66,13.66,0,0,1-12.37,0Zm9.72-3.75a6.41,6.41,0,0,0,2.48-2.5,7.83,7.83,0,0,0,0-7.29,6.41,6.41,0,0,0-2.48-2.5,7.43,7.43,0,0,0-7,0,6.41,6.41,0,0,0-2.48,2.5,7.83,7.83,0,0,0,0,7.29,6.41,6.41,0,0,0,2.48,2.5,7.43,7.43,0,0,0,7,0Z"/></g></g><g id="g4835"><g id="text4723"><path id="path4770" d="M51.54,142.76a14,14,0,0,1,.1-1.56c.08-.61.19-1.26.31-1.93s.27-1.35.42-2,.32-1.26.49-1.79a13.1,13.1,0,0,1,.45-1.29c.15-.34.28-.5.39-.5a1.13,1.13,0,0,1,.34.07,3.26,3.26,0,0,1,.44.15,2.69,2.69,0,0,1,.38.2c.11.07.16.14.16.2a.09.09,0,0,1,0,.07l-.1.14a.36.36,0,0,0-.08.12,7.2,7.2,0,0,0-.45,1c-.16.42-.31.89-.46,1.42s-.28,1-.42,1.63-.25,1.11-.35,1.64c.21-.68.44-1.36.68-2s.49-1.3.74-1.87a14.09,14.09,0,0,1,.65-1.29,7.13,7.13,0,0,1,.72-1,1.62,1.62,0,0,1,.57-.42,1.53,1.53,0,0,1,.64-.15,1.2,1.2,0,0,1,1,.45,2,2,0,0,1,.41,1.1,4.35,4.35,0,0,1-.13,1.45,5.32,5.32,0,0,1-.59,1.45,3.82,3.82,0,0,1-1,1.12,2.08,2.08,0,0,1-1.29.44,1.52,1.52,0,0,1-.59-.12,1.33,1.33,0,0,1-.48-.38.34.34,0,0,1-.06-.17.54.54,0,0,1,0-.18.19.19,0,0,1,.09-.12s.09,0,.15.06a.68.68,0,0,0,.48.18,1.19,1.19,0,0,0,.81-.33,3,3,0,0,0,.62-.83,4.77,4.77,0,0,0,.42-1.07,5.09,5.09,0,0,0,.17-1.09,2.09,2.09,0,0,0-.09-.83.43.43,0,0,0-.41-.33c-.23,0-.5.19-.79.59a8.15,8.15,0,0,0-.89,1.63c-.21.49-.43,1-.64,1.58s-.4,1.14-.59,1.73-.37,1.14-.53,1.7-.28,1.09-.39,1.58a.26.26,0,0,1-.29.19,1,1,0,0,1-.32-.06,1.87,1.87,0,0,1-.32-.15,1.09,1.09,0,0,1-.26-.21.36.36,0,0,1-.1-.24Z"/><path id="path4773" d="M58.57,143.51a1.32,1.32,0,0,1-.62-.13.91.91,0,0,1-.36-.34.74.74,0,0,1-.13-.45.86.86,0,0,1,.16-.48.92.92,0,0,1,.44-.41,2,2,0,0,1,.6-.15l.5-.05a3.16,3.16,0,0,0,.47-.06,1.43,1.43,0,0,0-.24-.62c-.13-.2-.27-.39-.41-.59a6.44,6.44,0,0,1-.36-.63,1.8,1.8,0,0,1-.17-.79,1.55,1.55,0,0,1,.14-.65,1.62,1.62,0,0,1,.37-.48,1.91,1.91,0,0,1,.54-.3,1.84,1.84,0,0,1,.62-.11.8.8,0,0,1,.41.14,1.52,1.52,0,0,1,.41.32,1.84,1.84,0,0,1,.3.43,1,1,0,0,1,.12.43.74.74,0,0,1-.06.27,1.11,1.11,0,0,1-.14.29.79.79,0,0,1-.18.22.26.26,0,0,1-.17.09,1.35,1.35,0,0,1-.53-.12c-.18-.09-.27-.17-.27-.25a.09.09,0,0,1,0-.06.4.4,0,0,0,.33-.25.84.84,0,0,0,.14-.45.41.41,0,0,0-.06-.23.19.19,0,0,0-.18-.1.33.33,0,0,0-.24.1.83.83,0,0,0-.19.26,1.71,1.71,0,0,0-.09.3,1.38,1.38,0,0,0,0,.26,1.26,1.26,0,0,0,.14.57,3.84,3.84,0,0,0,.32.5l.36.49a2.42,2.42,0,0,1,.32.49,3,3,0,0,0,1-.87,4.42,4.42,0,0,0,.61-1.23.19.19,0,0,1,.11-.12.2.2,0,0,1,.15,0,.18.18,0,0,1,.12.09.2.2,0,0,1,0,.17,4.65,4.65,0,0,1-.74,1.44,3.55,3.55,0,0,1-1.13.93,1.4,1.4,0,0,1-.16.89,1.83,1.83,0,0,1-.56.68,2.86,2.86,0,0,1-.81.43,3.21,3.21,0,0,1-.9.13Zm1-1.63a2.49,2.49,0,0,1-.59.06,1.88,1.88,0,0,0-.6.06.47.47,0,0,0-.34.24.48.48,0,0,0-.05.35.46.46,0,0,0,.21.27.55.55,0,0,0,.44,0,1.57,1.57,0,0,0,.58-.39,1.59,1.59,0,0,0,.35-.59Z"/><path id="path4775" d="M61.53,142.39a1.41,1.41,0,0,0,0-.28c0-.09,0-.19,0-.29a20.48,20.48,0,0,1,.47-2.19,14.26,14.26,0,0,1,.7-2c.06-.13.14-.2.23-.2a.79.79,0,0,1,.24.05,1.48,1.48,0,0,1,.29.12,1.38,1.38,0,0,1,.24.14l.2.13a.16.16,0,0,1,0,.23.82.82,0,0,0-.1.24c-.14.33-.26.68-.38,1.06s-.22.74-.32,1.12-.19.73-.27,1.08-.14.65-.19.93c0,.11,0,.17,0,.18a.21.21,0,0,0,.17-.08,4.6,4.6,0,0,0,.65-.82,9.49,9.49,0,0,0,.54-1,9.93,9.93,0,0,0,.46-1c.14-.34.26-.63.36-.9a.23.23,0,0,1,.12-.12.2.2,0,0,1,.15,0,.17.17,0,0,1,.11.11.2.2,0,0,1,0,.17c-.07.17-.17.39-.28.68s-.24.58-.39.92-.32.65-.5,1a7.45,7.45,0,0,1-.58.91,3.91,3.91,0,0,1-.63.65,1,1,0,0,1-.64.25.74.74,0,0,1-.36-.09,1.05,1.05,0,0,1-.28-.24,1.26,1.26,0,0,1-.16-.33,1.14,1.14,0,0,1,0-.37ZM64,134.67q.21-.42.36-.42a1.71,1.71,0,0,1,.39.14,2.34,2.34,0,0,1,.5.27c.22.14.24.35.06.62l-.3.45c-.12.19-.25.38-.39.56a5.19,5.19,0,0,1-.43.48.55.55,0,0,1-.33.2.33.33,0,0,1-.38-.29,2,2,0,0,1,0-.71,5,5,0,0,1,.24-.78,5.4,5.4,0,0,1,.23-.52Z"/><path id="path4777" d="M66,143.42a1.94,1.94,0,0,1-1.38-.45,2,2,0,0,1-.56-1.12,3.92,3.92,0,0,1,.08-1.47,5.64,5.64,0,0,1,.54-1.46,4.63,4.63,0,0,1,.87-1.13,1.48,1.48,0,0,1,1-.46,1.24,1.24,0,0,1,.53.12,1.56,1.56,0,0,1,.46.29,1.34,1.34,0,0,1,.33.42.94.94,0,0,1,.14.47,2.7,2.7,0,0,1-.08.62,2.39,2.39,0,0,1-.2.55,1.44,1.44,0,0,1-.24.39.38.38,0,0,1-.27.15,1,1,0,0,1-.43-.15,1.7,1.7,0,0,1-.4-.32.18.18,0,0,1,0-.18.42.42,0,0,1,.17-.18,1.71,1.71,0,0,0,.41-.36,1.8,1.8,0,0,0,.28-.5.79.79,0,0,0,.08-.46.19.19,0,0,0-.2-.15.89.89,0,0,0-.63.35,3.5,3.5,0,0,0-.58.86,6,6,0,0,0-.39,1.13,4.23,4.23,0,0,0-.14,1.12,1.82,1.82,0,0,0,.21.86.72.72,0,0,0,.68.35,1.28,1.28,0,0,0,.93-.41,4.71,4.71,0,0,0,.79-1,10,10,0,0,0,.63-1.27c.2-.45.36-.84.5-1.18a.18.18,0,0,1,.12-.11.17.17,0,0,1,.14,0,.25.25,0,0,1,.12.11.17.17,0,0,1,0,.17c-.14.35-.32.78-.53,1.28a11,11,0,0,1-.74,1.45,5.19,5.19,0,0,1-1,1.18,1.8,1.8,0,0,1-1.23.48Z"/><path id="path4779" d="M69.55,142.36l.15,0a3.71,3.71,0,0,0,.44-.07l.44-.12a4.5,4.5,0,0,0,.38-.7,6,6,0,0,0,.3-.84,7.54,7.54,0,0,0,.22-.88,4.73,4.73,0,0,0,.07-.8,1.41,1.41,0,0,0-.09-.57.39.39,0,0,0-.26-.26.5.5,0,0,0-.35,0,1.22,1.22,0,0,0-.39.32,3.45,3.45,0,0,0-.56.91,5.72,5.72,0,0,0-.49,2.19A2,2,0,0,0,69.55,142.36Zm.61-4.94a.83.83,0,0,1,.54-.06,1.28,1.28,0,0,1,.53.23,1.85,1.85,0,0,1,.67.12,1.92,1.92,0,0,1,.55.29,1.34,1.34,0,0,1,.37.42.93.93,0,0,1,.14.5,5,5,0,0,1-.12,1.06,5.53,5.53,0,0,1-.32,1.05,5.55,5.55,0,0,0,.89-1,5.19,5.19,0,0,0,.67-1.19.18.18,0,0,1,.12-.11.19.19,0,0,1,.15,0,.17.17,0,0,1,.11.11.2.2,0,0,1,0,.17,6,6,0,0,1-2.37,2.81,4.11,4.11,0,0,1-1,1.14,2,2,0,0,1-1.26.44,1.53,1.53,0,0,1-.74-.18,2,2,0,0,1-.54-.45,2.31,2.31,0,0,1-.34-.61,1.84,1.84,0,0,1-.12-.63,5.57,5.57,0,0,1,.14-1.18,7,7,0,0,1,.41-1.19,4.24,4.24,0,0,1,.63-1,2.85,2.85,0,0,1,.87-.73Z"/><path id="path4781" d="M72.73,146.37a14.31,14.31,0,0,1,.1-1.57c.06-.62.14-1.26.25-1.94s.22-1.34.35-2,.26-1.26.4-1.78a12.38,12.38,0,0,1,.4-1.3c.14-.33.26-.5.37-.5a1.25,1.25,0,0,1,.33.08,3.26,3.26,0,0,1,.44.15,2,2,0,0,1,.38.21c.11.07.17.14.17.2l0,.07-.11.12a.62.62,0,0,0-.08.12c-.09.17-.18.36-.27.58s-.16.45-.24.72q.23-.42.48-.81c.18-.27.35-.54.53-.79a2.91,2.91,0,0,1,.49-.5.81.81,0,0,1,.52-.21.88.88,0,0,1,.46.14,1.44,1.44,0,0,1,.4.33,1.79,1.79,0,0,1,.27.44,1,1,0,0,1,.11.41,4,4,0,0,1-.26,1.34,10.29,10.29,0,0,1-.61,1.36,5.07,5.07,0,0,0,1-1,5.72,5.72,0,0,0,.81-1.4.18.18,0,0,1,.12-.11.2.2,0,0,1,.15,0,.23.23,0,0,1,.12.28,6,6,0,0,1-1.09,1.75,6.06,6.06,0,0,1-1.64,1.27,4.7,4.7,0,0,1-.94,1,1.42,1.42,0,0,1-.87.38,1.77,1.77,0,0,1-.54-.07.91.91,0,0,1-.33-.22c-.07.4-.14.78-.2,1.15s-.09.72-.13,1.05-.07.63-.09.89,0,.47,0,.63a.16.16,0,0,1-.18.18,1,1,0,0,1-.32-.06,1.87,1.87,0,0,1-.32-.15,1.09,1.09,0,0,1-.26-.21.37.37,0,0,1-.11-.24Zm3.85-8.19a9.25,9.25,0,0,0-1.22,1.87,12,12,0,0,0-.79,2.06,1.21,1.21,0,0,0,0,.18.5.5,0,0,1,0,.16,1,1,0,0,1,.4-.12,2,2,0,0,0,.39-.07l.47-.14a6,6,0,0,0,.44-.71,7.44,7.44,0,0,0,.41-.9,8.83,8.83,0,0,0,.3-1,6.4,6.4,0,0,0,.15-1c0-.31-.07-.46-.22-.44a.33.33,0,0,0-.25.14Z"/><path id="path4783" d="M80.46,143.42a2.19,2.19,0,0,1-1.12-.25,1.78,1.78,0,0,1-.64-.7,2.43,2.43,0,0,1-.24-1,4.27,4.27,0,0,1,.09-1.12,5.6,5.6,0,0,1,.38-1.11,4.5,4.5,0,0,1,.57-1,3.48,3.48,0,0,1,.71-.68,1.43,1.43,0,0,1,.81-.27,1.11,1.11,0,0,1,.48.14,2,2,0,0,1,.53.33,2.27,2.27,0,0,1,.41.47.94.94,0,0,1,.17.5,1.8,1.8,0,0,1-.28,1,3.09,3.09,0,0,1-.69.8,3.56,3.56,0,0,1-.93.53,2.63,2.63,0,0,1-.92.18,2.07,2.07,0,0,0,.17,1,.75.75,0,0,0,.74.42,1.26,1.26,0,0,0,.88-.41,4.74,4.74,0,0,0,.8-1,10.26,10.26,0,0,0,.67-1.27c.2-.45.37-.84.5-1.18,0-.06,0-.1.1-.11a.22.22,0,0,1,.16,0,.25.25,0,0,1,.12.11.17.17,0,0,1,0,.17c-.14.37-.33.81-.55,1.31a9.11,9.11,0,0,1-.76,1.45,5.62,5.62,0,0,1-1,1.16,1.76,1.76,0,0,1-1.18.47Zm.6-5.18a2,2,0,0,0-.44.47,4.41,4.41,0,0,0-.36.65,5.84,5.84,0,0,0-.29.77,5.93,5.93,0,0,0-.15.78,1.09,1.09,0,0,0,.61-.21,2.2,2.2,0,0,0,.56-.54,3,3,0,0,0,.41-.79,2.73,2.73,0,0,0,.15-.89.29.29,0,0,0-.49-.24Z"/><path id="path4785" d="M85.54,141.94v-.1a.61.61,0,0,0,0-.14,7,7,0,0,1-.36.66,2.92,2.92,0,0,1-.41.55,2.12,2.12,0,0,1-.47.38,1,1,0,0,1-.52.13,1,1,0,0,1-.83-.36,1.78,1.78,0,0,1-.27-.86,6.19,6.19,0,0,1,.09-1.32,7.32,7.32,0,0,1,.38-1.39,5.25,5.25,0,0,1,.65-1.22,3,3,0,0,1,.94-.85.65.65,0,0,1,.38-.09,1,1,0,0,1,.38.08,2.05,2.05,0,0,1,.38.16l.34.17c.13-.54.25-1.06.37-1.54s.26-.93.39-1.3a6.34,6.34,0,0,1,.37-.89q.17-.33.3-.33a1.13,1.13,0,0,1,.33.07,3.26,3.26,0,0,1,.44.15,3,3,0,0,1,.4.2c.11.07.16.14.16.2s0,.06,0,.07a.76.76,0,0,1-.11.14.35.35,0,0,0-.07.12,7.72,7.72,0,0,0-.61,1.48c-.2.64-.4,1.34-.59,2.1s-.35,1.49-.5,2.24-.25,1.37-.32,1.9c0,.33,0,.39.24.17a5.33,5.33,0,0,0,.62-.82,10.37,10.37,0,0,0,.53-1,10.63,10.63,0,0,0,.46-1c.13-.33.24-.61.33-.87a.23.23,0,0,1,.12-.12.2.2,0,0,1,.15,0,.25.25,0,0,1,.13.28c-.08.17-.17.39-.28.68s-.24.58-.39.92-.32.65-.5,1a8.88,8.88,0,0,1-.58.91,3.91,3.91,0,0,1-.63.65,1,1,0,0,1-.64.25.69.69,0,0,1-.48-.15.81.81,0,0,1-.25-.36,1.88,1.88,0,0,1-.06-.49c0-.17,0-.33,0-.48Zm.24-3.91a.92.92,0,0,0-.7.39,3.92,3.92,0,0,0-.53,1,8.84,8.84,0,0,0-.38,1.23,8.06,8.06,0,0,0-.19,1.13,1.66,1.66,0,0,0,0,.62.29.29,0,0,0,.26.21c.17,0,.36-.16.56-.48a6.76,6.76,0,0,0,.5-.94c.16-.37.31-.74.44-1.12l.15-.87.18-.91a.35.35,0,0,0-.33-.24Z"/><path id="path4787" d="M90.61,142.39a1.41,1.41,0,0,0,0-.28c0-.09,0-.19,0-.29a.27.27,0,0,0,0-.11,5.69,5.69,0,0,1-.76,1.21,1.19,1.19,0,0,1-.94.5,1,1,0,0,1-.71-.25,1.23,1.23,0,0,1-.29-.68,5.38,5.38,0,0,1,0-1.38,7,7,0,0,1,.41-1.47,6.09,6.09,0,0,1,.71-1.31,3.28,3.28,0,0,1,1-.91.64.64,0,0,1,.37-.09,1.09,1.09,0,0,1,.39.08,2.14,2.14,0,0,1,.39.16l.41.22a.19.19,0,0,0,.05-.09l0-.11c.06-.13.14-.2.23-.2a.79.79,0,0,1,.24.05,1.48,1.48,0,0,1,.29.12,1.38,1.38,0,0,1,.24.14l.2.13a.16.16,0,0,1,0,.23,1.34,1.34,0,0,0-.12.24c-.12.33-.24.68-.35,1.06s-.21.74-.3,1.12-.17.73-.24,1.08-.13.65-.18.93c0,.11,0,.17,0,.18a.21.21,0,0,0,.17-.08,4.13,4.13,0,0,0,.63-.82,8,8,0,0,0,.55-1c.16-.34.3-.68.42-1s.25-.63.35-.9a.23.23,0,0,1,.12-.12.22.22,0,0,1,.16,0,.18.18,0,0,1,.1.11.2.2,0,0,1,0,.17c-.07.17-.17.39-.28.68s-.22.58-.37.92-.32.65-.51,1a6.32,6.32,0,0,1-.56.91,3.79,3.79,0,0,1-.6.65,1,1,0,0,1-.64.25.74.74,0,0,1-.36-.09,1.23,1.23,0,0,1-.28-.24,1.26,1.26,0,0,1-.16-.33,1.14,1.14,0,0,1,0-.37Zm-1.17.25a.52.52,0,0,0,.38-.25,4.33,4.33,0,0,0,.39-.63,6.21,6.21,0,0,0,.4-.86c.12-.32.23-.63.33-.92s.2-.58.27-.82.15-.42.19-.54l.06-.2.09-.2a.4.4,0,0,0-.37-.19,1,1,0,0,0-.74.42,4.43,4.43,0,0,0-.59,1,8.47,8.47,0,0,0-.42,1.29,6.36,6.36,0,0,0-.19,1.15,1.36,1.36,0,0,1,0,.18,1.93,1.93,0,0,0,0,.24.66.66,0,0,0,.06.2.16.16,0,0,0,.14.09Z"/><path id="path4789" d="M95.71,141.76a5.68,5.68,0,0,1-.75,1.18,1.24,1.24,0,0,1-.93.48,1,1,0,0,1-.71-.25,1.18,1.18,0,0,1-.3-.68,5,5,0,0,1,0-1.38,7,7,0,0,1,.41-1.47,6.09,6.09,0,0,1,.71-1.31,3.28,3.28,0,0,1,1-.91.65.65,0,0,1,.38-.09,1.65,1.65,0,0,1,.43.09,3.26,3.26,0,0,1,.38.18l.37.19a.46.46,0,0,0,0-.09.37.37,0,0,1,0-.11c.05-.13.12-.2.21-.2a1.16,1.16,0,0,1,.53.17,2.8,2.8,0,0,1,.46.27.15.15,0,0,1,.06.15.47.47,0,0,1-.06.15,1.74,1.74,0,0,0-.14.38c-.17.54-.33,1.07-.47,1.6l-.36,1.51,0,.14a9.73,9.73,0,0,0,1.13-1.25,6.42,6.42,0,0,0,.88-1.64.19.19,0,0,1,.11-.12.19.19,0,0,1,.15,0,.25.25,0,0,1,.12.11.14.14,0,0,1,0,.15,7,7,0,0,1-1.12,2,10.48,10.48,0,0,1-1.44,1.46q-.16.75-.36,1.47c-.13.48-.29,1-.46,1.44a3.09,3.09,0,0,1-.73,1.2A1.68,1.68,0,0,1,94,147a1.33,1.33,0,0,1-.55-.12,1,1,0,0,1-.44-.36,1.16,1.16,0,0,1-.21-.5,1.4,1.4,0,0,1,0-.54A1.82,1.82,0,0,1,93,145a2.14,2.14,0,0,1,.3-.44,2.63,2.63,0,0,1,.45-.43l.53-.38.55-.35c.19-.11.37-.22.53-.33l.18-.64.18-.66ZM96.2,138a.94.94,0,0,0-.73.42,4.43,4.43,0,0,0-.59,1,8.47,8.47,0,0,0-.42,1.29,6.36,6.36,0,0,0-.19,1.15,1.36,1.36,0,0,1,0,.18,1.93,1.93,0,0,0,0,.24.66.66,0,0,0,.06.2.16.16,0,0,0,.14.09.52.52,0,0,0,.38-.25,4.33,4.33,0,0,0,.39-.63,7.65,7.65,0,0,0,.38-.86c.13-.32.25-.63.35-.92l.27-.82c.08-.24.15-.42.19-.54l.06-.2c0-.07.05-.14.07-.2a.39.39,0,0,0-.36-.19Zm-2.37,8.29a.59.59,0,0,0,.41-.19,1.23,1.23,0,0,0,.35-.59c.09-.26.18-.55.27-.86s.21-.64.31-1l-.58.38a5.39,5.39,0,0,0-.6.47,2.41,2.41,0,0,0-.46.56,1.17,1.17,0,0,0-.17.66.91.91,0,0,0,.13.38.38.38,0,0,0,.34.18Z"/><path id="path4791" d="M99.5,142.36l.15,0a3.4,3.4,0,0,0,.44-.07l.44-.12a3.79,3.79,0,0,0,.38-.7,7.63,7.63,0,0,0,.31-.84,7.46,7.46,0,0,0,.21-.88,4.73,4.73,0,0,0,.07-.8,1.41,1.41,0,0,0-.09-.57.38.38,0,0,0-.26-.26.47.47,0,0,0-.34,0,1.25,1.25,0,0,0-.4.32,3.45,3.45,0,0,0-.56.91,5.46,5.46,0,0,0-.48,2.19A2,2,0,0,0,99.5,142.36Zm.61-4.94a.83.83,0,0,1,.54-.06,1.38,1.38,0,0,1,.54.23,1.84,1.84,0,0,1,.66.12,1.8,1.8,0,0,1,.55.29,1.37,1.37,0,0,1,.38.42,1,1,0,0,1,.13.5,5,5,0,0,1-.12,1.06,5.53,5.53,0,0,1-.32,1.05,5.6,5.6,0,0,0,.9-1,5.55,5.55,0,0,0,.66-1.19.18.18,0,0,1,.13-.11.19.19,0,0,1,.15,0,.18.18,0,0,1,.1.11.2.2,0,0,1,0,.17,6,6,0,0,1-2.37,2.81,4.11,4.11,0,0,1-1,1.14,2,2,0,0,1-1.25.44,1.57,1.57,0,0,1-.75-.18,2,2,0,0,1-.54-.45,3.05,3.05,0,0,1-.34-.61,1.84,1.84,0,0,1-.12-.63,5.57,5.57,0,0,1,.14-1.18,7,7,0,0,1,.41-1.19,4,4,0,0,1,.64-1,2.82,2.82,0,0,1,.86-.73Z"/><path id="path4793" d="M105.72,141.76a5.7,5.7,0,0,1-.76,1.18,1.22,1.22,0,0,1-.92.48,1,1,0,0,1-.72-.25,1.18,1.18,0,0,1-.3-.68,4.66,4.66,0,0,1,0-1.38,7,7,0,0,1,.4-1.47,6.12,6.12,0,0,1,.72-1.31,3.06,3.06,0,0,1,1-.91.63.63,0,0,1,.38-.09,1.58,1.58,0,0,1,.42.09,2.64,2.64,0,0,1,.38.18l.38.19a.46.46,0,0,0,0-.09.36.36,0,0,1,0-.11c.05-.13.12-.2.22-.2a1.19,1.19,0,0,1,.53.17,2.63,2.63,0,0,1,.45.27.15.15,0,0,1,.06.15.47.47,0,0,1-.06.15,1.74,1.74,0,0,0-.14.38c-.17.54-.32,1.07-.47,1.6l-.36,1.51,0,.14a10.59,10.59,0,0,0,1.14-1.25,7.1,7.1,0,0,0,.88-1.64.18.18,0,0,1,.1-.12.19.19,0,0,1,.15,0,.25.25,0,0,1,.12.11.14.14,0,0,1,0,.15,6.77,6.77,0,0,1-1.12,2,10.48,10.48,0,0,1-1.44,1.46q-.16.75-.36,1.47t-.45,1.44a3.35,3.35,0,0,1-.73,1.2A1.69,1.69,0,0,1,104,147a1.4,1.4,0,0,1-.55-.12,1.1,1.1,0,0,1-.44-.36,1.16,1.16,0,0,1-.21-.5,1.4,1.4,0,0,1,0-.54A1.79,1.79,0,0,1,103,145a2.14,2.14,0,0,1,.3-.44,2.69,2.69,0,0,1,.46-.43l.53-.38.54-.35a6.14,6.14,0,0,0,.53-.33c.06-.21.12-.42.19-.64Zm.48-3.73a1,1,0,0,0-.73.42,4.82,4.82,0,0,0-.59,1,8.47,8.47,0,0,0-.42,1.29,7.25,7.25,0,0,0-.18,1.15s0,.1,0,.18a1.94,1.94,0,0,0,0,.24.66.66,0,0,0,.06.2.14.14,0,0,0,.13.09.5.5,0,0,0,.38-.25,4.32,4.32,0,0,0,.4-.63c.13-.26.26-.55.38-.86s.24-.63.34-.92.2-.58.28-.82l.18-.54.06-.2c0-.07.06-.14.08-.2a.41.41,0,0,0-.37-.19Zm-2.36,8.29a.61.61,0,0,0,.41-.19,1.42,1.42,0,0,0,.35-.59c.09-.26.18-.55.27-.86s.2-.64.3-1c-.17.12-.36.25-.57.38a4.71,4.71,0,0,0-.61.47,2.64,2.64,0,0,0-.45.56,1.09,1.09,0,0,0-.17.66.89.89,0,0,0,.12.38.4.4,0,0,0,.35.18Z"/><path id="path4795" d="M108.08,142.39a1.41,1.41,0,0,0,0-.28c0-.09,0-.19,0-.29a20.48,20.48,0,0,1,.47-2.19,14.29,14.29,0,0,1,.69-2c.07-.13.14-.2.23-.2a.79.79,0,0,1,.24.05,1.26,1.26,0,0,1,.29.12,2,2,0,0,1,.25.14l.19.13a.16.16,0,0,1,0,.23.86.86,0,0,0-.11.24c-.13.33-.26.68-.38,1.06s-.21.74-.32,1.12-.19.73-.27,1.08-.13.65-.18.93c0,.11,0,.17,0,.18s.1,0,.16-.08a4.6,4.6,0,0,0,.65-.82,8,8,0,0,0,.55-1c.17-.34.32-.68.45-1s.27-.63.37-.9a.23.23,0,0,1,.12-.12.19.19,0,0,1,.15,0,.23.23,0,0,1,.12.28c-.07.17-.16.39-.27.68s-.24.58-.4.92-.31.65-.5,1a8.84,8.84,0,0,1-.57.91,4,4,0,0,1-.64.65,1,1,0,0,1-.63.25.75.75,0,0,1-.37-.09,1,1,0,0,1-.27-.24,1.29,1.29,0,0,1-.17-.33,1.14,1.14,0,0,1,0-.37Z"/><path id="path4797" d="M113.25,142.39a1.41,1.41,0,0,0,0-.28c0-.09,0-.19,0-.29s0-.06,0-.11a5.32,5.32,0,0,1-.76,1.21,1.19,1.19,0,0,1-.94.5,1,1,0,0,1-.71-.25,1.23,1.23,0,0,1-.29-.68,5.38,5.38,0,0,1,0-1.38,7,7,0,0,1,.41-1.47,6.09,6.09,0,0,1,.71-1.31,3.28,3.28,0,0,1,1-.91.65.65,0,0,1,.37-.09,1.09,1.09,0,0,1,.39.08,2.23,2.23,0,0,1,.4.16,4,4,0,0,0,.41.22.19.19,0,0,0,0-.09l0-.11c.06-.13.14-.2.23-.2a.79.79,0,0,1,.24.05,1.48,1.48,0,0,1,.29.12,1.38,1.38,0,0,1,.24.14l.2.13a.16.16,0,0,1,0,.23,1.34,1.34,0,0,0-.12.24c-.12.33-.23.68-.35,1.06s-.21.74-.3,1.12-.17.73-.24,1.08-.13.65-.18.93c0,.11,0,.17,0,.18a.21.21,0,0,0,.17-.08,4.57,4.57,0,0,0,.64-.82,9.49,9.49,0,0,0,.54-1c.16-.34.3-.68.43-1l.34-.9a.23.23,0,0,1,.12-.12.22.22,0,0,1,.16,0,.18.18,0,0,1,.1.11.2.2,0,0,1,0,.17l-.28.68c-.1.28-.22.58-.37.92s-.32.65-.5,1a8.81,8.81,0,0,1-.56.91,4.27,4.27,0,0,1-.61.65,1,1,0,0,1-.64.25.74.74,0,0,1-.36-.09,1,1,0,0,1-.27-.24,1.29,1.29,0,0,1-.17-.33,1.14,1.14,0,0,1,0-.37Zm-1.17.25a.52.52,0,0,0,.38-.25,5.37,5.37,0,0,0,.4-.63,7.65,7.65,0,0,0,.39-.86c.12-.32.23-.63.33-.92s.2-.58.28-.82l.18-.54.06-.2.09-.2a.39.39,0,0,0-.36-.19,1,1,0,0,0-.75.42,4.43,4.43,0,0,0-.59,1,8.47,8.47,0,0,0-.42,1.29,7.25,7.25,0,0,0-.18,1.15s0,.1,0,.18a1.94,1.94,0,0,0,0,.24.66.66,0,0,0,.06.2.14.14,0,0,0,.13.09Z"/></g><g id="text4743"><path id="path4767" d="M110.59,136.9a.48.48,0,0,1-.33-.13.49.49,0,0,1-.13-.33.88.88,0,0,1,.07-.25l1.2-2.69a.87.87,0,0,1,.3-.37.75.75,0,0,1,.43-.13.81.81,0,0,1,.57.23.77.77,0,0,1,.26.58,1.12,1.12,0,0,1-.29.73L111,136.68a.49.49,0,0,1-.41.22Z"/></g></g></g></svg>