<svg xmlns="http://www.w3.org/2000/svg" viewBox="0 0 167.79 167.79"><defs><style>.cls-1{fill:#2072a6;}.cls-2{fill:#7590b5;}.cls-3{fill:#ef9326;}.cls-4{fill:#3e6fa8;}</style></defs><g id="Capa_1" data-name="Capa 1"><g id="Layer1001"><path id="path42" class="cls-1" d="M65,77.74c-.51,0-.67-.41-.49-1.22l1.3-5.67c.92-4-.44-6-3.71-6-2.88,0-5,1.84-6,4.8l2.64,1.24c.62-1.8,1.5-2.39,2.52-2.39s1.3.9,1,2.3l-.13.56-2.55.69c-3.21.87-4.72,2.52-5.31,5.11s.3,3.89,2.4,3.89a4.87,4.87,0,0,0,4.33-2.4c-.07,1.69.76,2.4,2.19,2.4a2.64,2.64,0,0,0,1.55-.5l.95-3A1.53,1.53,0,0,1,65,77.74Zm-6.24-.09c-.66,0-.93-.47-.73-1.34a2,2,0,0,1,1.62-1.62l1.85-.6-.3,1.34A2.75,2.75,0,0,1,58.71,77.65ZM77,64.87c-1.66,0-3.2,1.09-4.38,3.3l.57-3H70L66.4,80.76H70l1.88-8.23c.59-2.58,1.7-3.61,2.74-3.61.89,0,1.34.72.84,2.93l-2,8.91H77L79.4,70.39C80.22,66.77,79.17,64.87,77,64.87ZM87.84,76.62a2.56,2.56,0,0,1-1.69.68c-.89,0-1.26-.59-.92-2.08L86.66,69h3.18l.86-3.77H87.52l1.13-5-3.94,1.46-.8,3.49H82.09L81.23,69h1.82l-1.63,7.14c-.8,3.61.37,5,2.77,5a5.51,5.51,0,0,0,3.26-1.18ZM96,65.18H92.4L88.84,80.76h3.6Zm10,12.56c-.51,0-.67-.41-.49-1.22l1.3-5.67c.92-4-.44-6-3.7-6-2.89,0-5,1.84-6,4.8l2.64,1.24c.63-1.8,1.51-2.39,2.52-2.39s1.3.9,1,2.3l-.13.56-2.55.69c-3.21.87-4.71,2.52-5.31,5.11s.3,3.89,2.4,3.89a4.87,4.87,0,0,0,4.33-2.4c-.07,1.69.76,2.4,2.19,2.4a2.64,2.64,0,0,0,1.55-.5l1-3A1.53,1.53,0,0,1,106,77.74Zm-6.24-.09c-.66,0-.93-.47-.73-1.34a2,2,0,0,1,1.62-1.62l1.85-.6-.3,1.34A2.75,2.75,0,0,1,99.77,77.65ZM124.9,64.87c-1.55,0-3.11,1.09-4.28,3.15,0-2.09-1.07-3.15-2.64-3.15s-3.14,1.12-4.31,3.3l.57-3H111l-3.56,15.58h3.61l1.87-8.23c.59-2.55,1.7-3.61,2.7-3.61.85,0,1.28.72.83,2.68l-2.09,9.16H118l1.9-8.32c.54-2.34,1.59-3.52,2.67-3.52.87,0,1.28.72.83,2.68l-2.09,9.16h3.61l2.37-10.37c.83-3.65-.29-5.52-2.37-5.52Zm25.58,0c-1.65,0-3.2,1.09-4.38,3.3l.57-3h-3.22l-3.56,15.58h3.61l1.88-8.23c.59-2.58,1.69-3.61,2.73-3.61s1.35.72.84,2.93l-2,8.91h3.61l2.37-10.37c.83-3.62-.22-5.52-2.41-5.52Zm-10.84,7.88c1.13-4.92,0-7.88-3.5-7.88s-6.21,3-7.39,8.1.17,8.1,3.88,8.1A6.28,6.28,0,0,0,138.44,77l-2.61-1.37a2.52,2.52,0,0,1-2.34,1.71c-1.21,0-1.81-.81-1.58-2.83h7.23a15.44,15.44,0,0,0,.5-1.75Zm-4.37-4.17c1.13,0,1.54,1.06,1.26,3h-4C133.23,69.54,134.13,68.58,135.27,68.58Z"/><path id="path44" class="cls-2" d="M53.58,89.47v-5.4c0-.24.1-.35.29-.35h1.61a2,2,0,0,1,1.72.79,4.62,4.62,0,0,1,0,4.52,2,2,0,0,1-1.72.79H53.87C53.68,89.82,53.58,89.7,53.58,89.47Zm1.12-.8h.78a1,1,0,0,0,.88-.48,2.87,2.87,0,0,0,.29-1.42,2.82,2.82,0,0,0-.29-1.42,1,1,0,0,0-.88-.49H54.7Zm4.15.61a2.9,2.9,0,0,1-.45-1.75,2.87,2.87,0,0,1,.45-1.74,1.71,1.71,0,0,1,2.6,0,2.87,2.87,0,0,1,.45,1.74,2.9,2.9,0,0,1-.45,1.75,1.69,1.69,0,0,1-2.6,0Zm.63-1.74c0,.88.22,1.33.67,1.33s.66-.45.66-1.33-.22-1.33-.66-1.33S59.48,86.65,59.48,87.54Zm4.6,1.33.2,0c.06,0,.11.09.16.26a1.8,1.8,0,0,1,.06.37c0,.28-.23.43-.69.43-.7,0-1.06-.48-1.06-1.42V86.28h-.11c-.15,0-.22-.15-.22-.44V85.7c0-.3.07-.44.22-.44h.11l.1-.83c0-.18.15-.28.39-.28h.22c.24,0,.36.1.36.28v.83h.36c.14,0,.21.14.21.44v.14c0,.29-.07.44-.21.44h-.36v2.21C63.82,88.74,63.91,88.87,64.08,88.87Zm.89-.26a2,2,0,0,1,0-.44,1.34,1.34,0,0,1,.16-.43,1.07,1.07,0,0,1,.35-.38A2.56,2.56,0,0,1,67,87v-.28c0-.34-.19-.5-.56-.5a1.54,1.54,0,0,0-.77.21l-.16.07q-.1,0-.24-.27a1,1,0,0,1-.13-.43c0-.16.13-.3.4-.42a2.38,2.38,0,0,1,1-.18c1,0,1.55.48,1.55,1.46v1.63a7.89,7.89,0,0,0,0,.91l0,.36c0,.09-.09.16-.29.2a1.84,1.84,0,0,1-.43.07.43.43,0,0,1-.2,0,.22.22,0,0,1-.07-.12l0-.13a.85.85,0,0,1,0-.17c0-.08,0-.13,0-.15a1.12,1.12,0,0,1-.45.47,1.19,1.19,0,0,1-.61.2.94.94,0,0,1-.81-.35,1.55,1.55,0,0,1-.26-.93ZM66,88.48a.41.41,0,0,0,.09.28.38.38,0,0,0,.28.11.58.58,0,0,0,.37-.16,1.05,1.05,0,0,0,.27-.39v-.48C66.37,87.84,66,88.05,66,88.48Zm4.69,1.41a1.64,1.64,0,0,1-1.37-.58,2.8,2.8,0,0,1-.45-1.75,2.9,2.9,0,0,1,.45-1.77,1.64,1.64,0,0,1,1.4-.6,2,2,0,0,1,.82.16c.26.11.38.26.38.44a1.05,1.05,0,0,1-.14.4q-.15.27-.24.27l-.13-.06a1.28,1.28,0,0,0-.69-.19.63.63,0,0,0-.56.32,2,2,0,0,0-.19,1,2.17,2.17,0,0,0,.18,1,.6.6,0,0,0,.56.33,1.43,1.43,0,0,0,.74-.21l.13,0c.07,0,.15.09.24.26a.94.94,0,0,1,.13.41.36.36,0,0,1-.16.29.91.91,0,0,1-.38.19A3.24,3.24,0,0,1,70.72,89.89ZM73,84.51c-.28,0-.43-.09-.43-.28v-.7c0-.19.15-.28.43-.28h.21c.29,0,.43.09.43.28v.7c0,.19-.14.28-.43.28Zm-.43,5v-4c0-.19.15-.28.43-.28h.21c.29,0,.43.09.43.28v4c0,.19-.14.28-.43.28H73C72.67,89.83,72.52,89.74,72.52,89.55Zm2.24-.27a2.9,2.9,0,0,1-.45-1.75,2.87,2.87,0,0,1,.45-1.74,1.72,1.72,0,0,1,2.61,0,2.94,2.94,0,0,1,.44,1.74,3,3,0,0,1-.44,1.75,1.7,1.7,0,0,1-2.61,0Zm.63-1.74c0,.88.23,1.33.67,1.33s.67-.45.67-1.33-.23-1.33-.67-1.33S75.39,86.65,75.39,87.54Zm3.17,2V86.79a6.39,6.39,0,0,0,0-.91c0-.18,0-.28,0-.32s.1-.16.3-.2a2,2,0,0,1,.43-.08.43.43,0,0,1,.2,0,.35.35,0,0,1,.07.11l0,.12a1.16,1.16,0,0,1,0,.16c0,.08,0,.12,0,.14a1.71,1.71,0,0,1,.46-.47,1.07,1.07,0,0,1,.61-.19.92.92,0,0,1,.8.34,1.74,1.74,0,0,1,.27,1.07v3c0,.19-.15.28-.44.28h-.2c-.29,0-.43-.09-.43-.28V86.79c0-.36-.15-.54-.44-.54s-.43.17-.57.51v2.79c0,.19-.15.28-.43.28H79C78.7,89.83,78.56,89.74,78.56,89.55Zm5.76.34a1.66,1.66,0,0,1-1.42-.62,2.89,2.89,0,0,1-.47-1.77,2.76,2.76,0,0,1,.47-1.74,1.57,1.57,0,0,1,1.28-.57,1.3,1.3,0,0,1,1.19.63,3.08,3.08,0,0,1,.38,1.62.75.75,0,0,1-.15.31c-.1.13-.18.2-.22.2H83.54a1.09,1.09,0,0,0,.24.71.73.73,0,0,0,.54.21,1.51,1.51,0,0,0,.62-.14l.3-.13c.07,0,.15.08.24.25a.94.94,0,0,1,.13.41q0,.28-.45.45A2.27,2.27,0,0,1,84.32,89.89Zm.39-2.8a1.42,1.42,0,0,0-.13-.64.43.43,0,0,0-.39-.24c-.36,0-.58.29-.65.88Zm1.53,2.18a.88.88,0,0,1,.14-.39c.09-.17.17-.26.25-.26l.25.12a1.11,1.11,0,0,0,.45.13c.3,0,.44-.14.44-.4a.4.4,0,0,0-.15-.33,1,1,0,0,0-.36-.21,4.11,4.11,0,0,1-.42-.21,1,1,0,0,1-.36-.41,1.47,1.47,0,0,1-.15-.71,1.44,1.44,0,0,1,.36-1,1.26,1.26,0,0,1,1-.38,1.9,1.9,0,0,1,.54.07c.35.09.52.25.52.48a1.23,1.23,0,0,1-.1.38c-.08.17-.14.26-.21.26l-.21-.09a1,1,0,0,0-.4-.09c-.26,0-.39.11-.39.31a.35.35,0,0,0,.15.29,2,2,0,0,0,.36.2,3.51,3.51,0,0,1,.43.22,1.12,1.12,0,0,1,.36.43,1.68,1.68,0,0,1,.14.72,1.58,1.58,0,0,1-.37,1.1,1.2,1.2,0,0,1-.93.42,2.31,2.31,0,0,1-.93-.17C86.37,89.61,86.24,89.46,86.24,89.27Zm6.67.62a1.66,1.66,0,0,1-1.41-.62A2.89,2.89,0,0,1,91,87.5a2.76,2.76,0,0,1,.47-1.74,1.55,1.55,0,0,1,1.27-.57,1.28,1.28,0,0,1,1.19.63,3,3,0,0,1,.38,1.62.7.7,0,0,1-.14.31c-.1.13-.18.2-.23.2H92.13a1.14,1.14,0,0,0,.25.71.72.72,0,0,0,.53.21,1.52,1.52,0,0,0,.63-.14l.3-.13c.07,0,.15.08.24.25a.94.94,0,0,1,.13.41q0,.28-.45.45A2.28,2.28,0,0,1,92.91,89.89Zm.39-2.8a1.3,1.3,0,0,0-.13-.64.4.4,0,0,0-.38-.24c-.36,0-.58.29-.66.88Zm3.5,2.46V84c0-.19.15-.29.44-.29h.25c.29,0,.43.1.43.29v5.57c0,.2-.14.29-.43.29h-.25C97,89.84,96.8,89.75,96.8,89.55Zm2,0V86.79a8.41,8.41,0,0,0,0-.91c0-.18-.05-.28-.05-.32s.1-.16.3-.2a2,2,0,0,1,.43-.08.35.35,0,0,1,.19,0,.19.19,0,0,1,.08.11s0,.09,0,.12a1.16,1.16,0,0,1,0,.16.87.87,0,0,1,0,.14,1.71,1.71,0,0,1,.46-.47,1.07,1.07,0,0,1,.61-.19,1,1,0,0,1,.81.34A1.82,1.82,0,0,1,102,86.6v3c0,.19-.14.28-.43.28h-.2c-.29,0-.43-.09-.43-.28V86.79c0-.36-.15-.54-.44-.54s-.43.17-.57.51v2.79c0,.19-.15.28-.43.28h-.21C99,89.83,98.83,89.74,98.83,89.55Zm3.79-.28a.88.88,0,0,1,.14-.39c.09-.17.17-.26.25-.26l.26.12a1,1,0,0,0,.45.13c.29,0,.43-.14.43-.4a.42.42,0,0,0-.14-.33,1,1,0,0,0-.37-.21,4.11,4.11,0,0,1-.42-.21,1,1,0,0,1-.36-.41,1.47,1.47,0,0,1-.15-.71,1.44,1.44,0,0,1,.36-1,1.28,1.28,0,0,1,1-.38,2,2,0,0,1,.55.07c.34.09.52.25.52.48a1.35,1.35,0,0,1-.11.38c-.07.17-.14.26-.2.26l-.22-.09a1,1,0,0,0-.4-.09c-.26,0-.39.11-.39.31a.35.35,0,0,0,.15.29,2,2,0,0,0,.36.2,3.51,3.51,0,0,1,.43.22,1.12,1.12,0,0,1,.36.43,1.54,1.54,0,0,1,.15.72,1.62,1.62,0,0,1-.37,1.1,1.2,1.2,0,0,1-.94.42,2.31,2.31,0,0,1-.93-.17c-.25-.11-.38-.26-.38-.45Zm3.19-.8v-3c0-.19.14-.28.43-.28h.2c.29,0,.43.09.43.28v2.76c0,.36.15.54.44.54s.43-.17.57-.5v-2.8c0-.19.15-.28.44-.28h.2c.29,0,.43.09.43.28v2.76c0,.36,0,.66,0,.91l.05.36c0,.09-.1.16-.29.2a2,2,0,0,1-.44.07.38.38,0,0,1-.19,0,.23.23,0,0,1-.08-.12l0-.13a1.09,1.09,0,0,1,0-.17c0-.08,0-.13,0-.15a1.47,1.47,0,0,1-.46.47,1.06,1.06,0,0,1-.61.2.94.94,0,0,1-.8-.35,1.72,1.72,0,0,1-.26-1.07Zm4,1.08V86.79a6,6,0,0,0,0-.91,2.49,2.49,0,0,1,0-.32c0-.09.1-.16.29-.2a2.07,2.07,0,0,1,.44-.08.38.38,0,0,1,.19,0,.23.23,0,0,1,.07.11l0,.12a1.16,1.16,0,0,1,0,.16c0,.08,0,.12,0,.14a1.71,1.71,0,0,1,.46-.47,1.07,1.07,0,0,1,.61-.19.89.89,0,0,1,1,.66,1.66,1.66,0,0,1,.48-.47,1.14,1.14,0,0,1,.64-.19.91.91,0,0,1,.79.34A1.81,1.81,0,0,1,115,86.6v3c0,.19-.15.28-.43.28h-.21c-.28,0-.43-.09-.43-.28V86.79q0-.54-.42-.54t-.57.51v2.79c0,.19-.15.28-.44.28h-.2c-.29,0-.43-.09-.43-.28V86.79c0-.36-.14-.54-.43-.54s-.42.17-.57.51v2.79c0,.19-.14.28-.43.28h-.2C110,89.83,109.85,89.74,109.85,89.55Zm6.41-.27a3,3,0,0,1-.44-1.75,2.94,2.94,0,0,1,.44-1.74,1.54,1.54,0,0,1,1.31-.6,1.51,1.51,0,0,1,1.3.6,2.87,2.87,0,0,1,.45,1.74,2.9,2.9,0,0,1-.45,1.75,1.52,1.52,0,0,1-1.3.61A1.55,1.55,0,0,1,116.26,89.28Zm.64-1.74c0,.88.22,1.33.67,1.33s.67-.45.67-1.33-.23-1.33-.67-1.33S116.9,86.65,116.9,87.54Zm2.94,1.73a.88.88,0,0,1,.14-.39c.09-.17.17-.26.25-.26l.26.12a1,1,0,0,0,.44.13c.29,0,.44-.14.44-.4a.4.4,0,0,0-.15-.33.9.9,0,0,0-.36-.21,4.11,4.11,0,0,1-.42-.21,1,1,0,0,1-.36-.41,1.47,1.47,0,0,1-.15-.71,1.44,1.44,0,0,1,.36-1,1.26,1.26,0,0,1,1-.38,1.9,1.9,0,0,1,.54.07c.35.09.52.25.52.48a1.23,1.23,0,0,1-.1.38c-.08.17-.14.26-.21.26l-.21-.09a1,1,0,0,0-.4-.09c-.26,0-.39.11-.39.31a.35.35,0,0,0,.15.29,2,2,0,0,0,.36.2,3.51,3.51,0,0,1,.43.22,1.12,1.12,0,0,1,.36.43,1.67,1.67,0,0,1,.15.72,1.58,1.58,0,0,1-.38,1.1,1.18,1.18,0,0,1-.93.42,2.31,2.31,0,0,1-.93-.17c-.25-.11-.38-.26-.38-.45Zm5,.28V84c0-.19.14-.28.43-.28h.38a.45.45,0,0,1,.46.24l1.27,2.72,1.28-2.72a.44.44,0,0,1,.46-.24h.37c.29,0,.43.09.43.28v5.57c0,.19-.14.28-.43.28h-.21c-.29,0-.43-.09-.43-.28V86h0l-1,2.25a.31.31,0,0,1-.29.17h-.21a.31.31,0,0,1-.28-.17l-1-2.25h0v3.6c0,.19-.14.28-.43.28h-.21c-.29,0-.43-.09-.43-.28Zm7.77.34a1.66,1.66,0,0,1-1.42-.62,2.89,2.89,0,0,1-.47-1.77,2.76,2.76,0,0,1,.47-1.74,1.57,1.57,0,0,1,1.28-.57,1.29,1.29,0,0,1,1.19.63,3.08,3.08,0,0,1,.37,1.62.6.6,0,0,1-.14.31c-.1.13-.17.2-.22.2h-1.84a1.09,1.09,0,0,0,.24.71.73.73,0,0,0,.54.21,1.51,1.51,0,0,0,.62-.14l.3-.13c.07,0,.15.08.24.25a.94.94,0,0,1,.13.41c0,.19-.14.34-.44.45a2.36,2.36,0,0,1-.85.18Zm.39-2.8a1.42,1.42,0,0,0-.13-.64.43.43,0,0,0-.39-.24c-.36,0-.57.29-.65.88Zm-.88-2.46c-.15,0-.23,0-.23-.13a.73.73,0,0,1,.11-.28l.19-.37c.06-.12.11-.25.17-.37s.27-.23.58-.23.47,0,.47.12a.28.28,0,0,1-.05.12,1.25,1.25,0,0,1-.17.23L133,84l-.15.2-.2.26a.62.62,0,0,1-.54.22ZM136,89.89a1.11,1.11,0,0,1-1-.63,4,4,0,0,1,0-3.44,1.26,1.26,0,0,1,1.12-.63,1.09,1.09,0,0,1,.74.27V83.53c0-.19.14-.28.43-.28h.21c.28,0,.43.09.43.28v4.75a7.89,7.89,0,0,0,0,.91l0,.36c0,.09-.09.16-.29.2a1.84,1.84,0,0,1-.43.07.38.38,0,0,1-.19,0,.18.18,0,0,1-.08-.12s0-.09,0-.12a1.27,1.27,0,0,1,0-.18c0-.07,0-.12,0-.14a1.19,1.19,0,0,1-.39.47A1,1,0,0,1,136,89.89Zm.32-1.06c.23,0,.43-.17.59-.51V86.37a.88.88,0,0,0-.51-.16c-.44,0-.66.44-.66,1.31S135.88,88.83,136.27,88.83Zm3-4.32c-.29,0-.43-.09-.43-.28v-.7c0-.19.14-.28.43-.28h.2c.29,0,.44.09.44.28v.7c0,.19-.15.28-.44.28Zm-.43,5v-4c0-.19.14-.28.43-.28h.2c.29,0,.44.09.44.28v4c0,.19-.15.28-.44.28h-.2C138.94,89.83,138.8,89.74,138.8,89.55Zm3.61.34a1.64,1.64,0,0,1-1.37-.58,2.8,2.8,0,0,1-.45-1.75,2.9,2.9,0,0,1,.45-1.77,1.64,1.64,0,0,1,1.4-.6,2,2,0,0,1,.82.16c.26.11.38.26.38.44a1,1,0,0,1-.15.4c-.09.18-.17.27-.23.27l-.13-.06a1.28,1.28,0,0,0-.69-.19.63.63,0,0,0-.56.32,2,2,0,0,0-.2,1,2.15,2.15,0,0,0,.19,1,.6.6,0,0,0,.56.33,1.37,1.37,0,0,0,.73-.21l.14,0c.07,0,.15.09.24.26a1.1,1.1,0,0,1,.13.41.36.36,0,0,1-.16.29,1,1,0,0,1-.38.19A3.24,3.24,0,0,1,142.41,89.89Zm2.12-.61a3,3,0,0,1-.44-1.75,2.94,2.94,0,0,1,.44-1.74,1.54,1.54,0,0,1,1.31-.6,1.51,1.51,0,0,1,1.3.6,2.87,2.87,0,0,1,.45,1.74,2.9,2.9,0,0,1-.45,1.75,1.52,1.52,0,0,1-1.3.61A1.55,1.55,0,0,1,144.53,89.28Zm.64-1.74c0,.88.22,1.33.67,1.33s.66-.45.66-1.33-.22-1.33-.66-1.33S145.17,86.65,145.17,87.54Zm2.94,1.73a.88.88,0,0,1,.14-.39c.09-.17.17-.26.25-.26l.25.12a1.11,1.11,0,0,0,.45.13c.3,0,.44-.14.44-.4a.4.4,0,0,0-.15-.33,1,1,0,0,0-.36-.21,4.11,4.11,0,0,1-.42-.21,1,1,0,0,1-.36-.41,1.47,1.47,0,0,1-.15-.71,1.44,1.44,0,0,1,.36-1,1.28,1.28,0,0,1,1-.38,1.9,1.9,0,0,1,.54.07c.35.09.52.25.52.48a1.23,1.23,0,0,1-.1.38c-.08.17-.14.26-.21.26l-.21-.09a1,1,0,0,0-.4-.09c-.26,0-.39.11-.39.31a.35.35,0,0,0,.15.29,2,2,0,0,0,.36.2,3.51,3.51,0,0,1,.43.22,1.12,1.12,0,0,1,.36.43,1.54,1.54,0,0,1,.15.72,1.58,1.58,0,0,1-.38,1.1,1.18,1.18,0,0,1-.93.42,2.31,2.31,0,0,1-.93-.17C148.24,89.61,148.11,89.46,148.11,89.27Z"/><path id="path46" class="cls-3" d="M42.45,42a10.48,10.48,0,0,1,1.6-.19h0a6.8,6.8,0,0,1,2.19.22,5.68,5.68,0,0,1,1.9.92,6.09,6.09,0,0,1,1.43,1.52,7.19,7.19,0,0,1,.87,2,10,10,0,0,1,.34,2.3,14,14,0,0,1-.18,2.53c-.14.86-.31,1.72-.51,2.59s-.46,1.81-.75,2.76-.53,1.76-.78,2.51-.47,1.38-.67,1.92l-.79,2L46,66a3.23,3.23,0,0,1-.15.34,2,2,0,0,1-.79.84,1.51,1.51,0,0,1-1.28.06l-.25-.13A1.66,1.66,0,0,1,42.72,66a2.42,2.42,0,0,1,.1-1.23l.53-1.45c.16-.43.31-.83.47-1.21v0q1-2.32,1.77-4.71c.52-1.58,1-3.17,1.31-4.75.12-.58.21-1.16.28-1.73a15.85,15.85,0,0,0,.1-1.65,4.44,4.44,0,0,0-.63-2.64,2.63,2.63,0,0,0-1.86-1,6,6,0,0,0-1.75,0,8.59,8.59,0,0,0-1.9.55,23.12,23.12,0,0,0-9,6.79,31.24,31.24,0,0,0-5.57,11.24,10.39,10.39,0,0,0-.21,5.58,9.89,9.89,0,0,0,2.89,4.63c.3.27.85.72,1.65,1.34s1.84,1.4,3.14,2.36,2.64,2,3.64,2.8a20.7,20.7,0,0,1,2.44,2.37l.15.15s.08,0,.19-.15h0q2.13-1.91,4-3.33c1.22-1,2.38-1.81,3.47-2.52.29-.19.65-.41,1.07-.64s.89-.49,1.36-.73h0a1.68,1.68,0,0,1,1.34-.12,1.7,1.7,0,0,1,1,1,1.94,1.94,0,0,1,.11,1.27,1.92,1.92,0,0,1-.73,1h0c-.18.13-.38.27-.61.41l-.78.45a39.79,39.79,0,0,0-3.36,2.36c-1.3,1-2.76,2.19-4.39,3.59a5.88,5.88,0,0,1-.44.43h0l0,.06,0,.13c0,.11.08.22.12.31a15.25,15.25,0,0,1,1.54,6,20.77,20.77,0,0,1-.82,6.73,47,47,0,0,1-6.13,13.73,41.24,41.24,0,0,1-10,10.45,10.26,10.26,0,0,1-3,1.6,7.85,7.85,0,0,1-3.1.37,5.09,5.09,0,0,1-1.95-.48A4.56,4.56,0,0,1,17.6,124a5.69,5.69,0,0,1-1-1.78,8.12,8.12,0,0,1-.41-2.17h0a15.5,15.5,0,0,1,.23-3.62,21.79,21.79,0,0,1,1-3.85,39.73,39.73,0,0,1,2.14-4.76,56.25,56.25,0,0,1,3-5h0a78.82,78.82,0,0,1,5.93-7.66c2.27-2.6,4.86-5.3,7.76-8.07l.84-.79c.23-.22.38-.35.45-.41s.11,0,.11,0-.07-.09-.21-.22l-1.38-1.31c-.31-.29-.5-.46-.56-.5l0,0c-.39-.31-1-.75-1.72-1.32l-3-2.18h0c-1.1-.83-2-1.56-2.79-2.21a19.86,19.86,0,0,1-1.87-1.76,12.8,12.8,0,0,1-3.05-5.5A14.81,14.81,0,0,1,23,64.25a28,28,0,0,1,1.82-5.89A32.17,32.17,0,0,1,28,52.75,33,33,0,0,1,34.12,46a18.83,18.83,0,0,1,6.79-3.63l.9-.24a2.86,2.86,0,0,1,.64-.1Zm-3.07,58.85a22.94,22.94,0,0,0,.88-3.38,26.24,26.24,0,0,0,.39-3.61,16.43,16.43,0,0,0-.28-2.61A11,11,0,0,0,39.68,89l0-.12-.06.06c-1.47,1.35-2.87,2.7-4.18,4s-2.55,2.66-3.73,4a74.74,74.74,0,0,0-5.82,7.44,50.59,50.59,0,0,0-4.17,7.24h0a23.51,23.51,0,0,0-1.35,3.44,17.29,17.29,0,0,0-.67,3.22,6.58,6.58,0,0,0,.06,2,2.58,2.58,0,0,0,.55,1.19,1.5,1.5,0,0,0,.85.49,3.17,3.17,0,0,0,1.46-.11,9.34,9.34,0,0,0,2.13-.92,14.38,14.38,0,0,0,2.22-1.61h0a41.63,41.63,0,0,0,7.31-8.24,46.86,46.86,0,0,0,5.15-10.31Z"/><path id="path48" class="cls-3" d="M90.66,56.93l0-.11a1.94,1.94,0,0,1,.68-1.06,1.92,1.92,0,0,1,1.2-.45h2l.49-2.05A2,2,0,0,1,97,51.75h.1a1.64,1.64,0,0,1,.38,0,1.41,1.41,0,0,1,.82.53,1.48,1.48,0,0,1,.31.92h0a1.6,1.6,0,0,1,0,.39l-.4,1.68h1.66a1.57,1.57,0,0,1,.37,0,1.47,1.47,0,0,1,1.14,1.44,1.74,1.74,0,0,1,0,.39l0,.11a2,2,0,0,1-.69,1.07,1.92,1.92,0,0,1-1.19.44h-2l-.49,2.06a2,2,0,0,1-.69,1.06,1.87,1.87,0,0,1-1.19.45h-.11a1.64,1.64,0,0,1-.37-.05,1.47,1.47,0,0,1-.83-.53,1.51,1.51,0,0,1-.3-.91h0a1.58,1.58,0,0,1,0-.38l.4-1.69H92.12a1.73,1.73,0,0,1-.38-.05,1.48,1.48,0,0,1-.82-.52,1.5,1.5,0,0,1-.31-.92h0a1.58,1.58,0,0,1,0-.38Z"/><path id="path50" class="cls-4" d="M135.84,63.58a.86.86,0,0,1-.54-.44.93.93,0,0,1,0-.7,3,3,0,0,1,.2-.41,5.33,5.33,0,0,1,.31-.48h0c.13-.19.25-.35.34-.49l.33-.5.64-1a1.37,1.37,0,0,1,.77-.62,1.54,1.54,0,0,1,1,0,2.17,2.17,0,0,1,.75.39.76.76,0,0,1,.24.86,1.06,1.06,0,0,1-.11.25l-.15.23c-.05.07-.13.15-.22.26h0l-.33.36-.51.56h0l-.18.21h0c-.28.33-.57.65-.86,1a1.55,1.55,0,0,1-.74.51,1.39,1.39,0,0,1-.9,0Z"/></g></g></svg>