<svg xmlns="http://www.w3.org/2000/svg" viewBox="0 0 167.79 167.79"><defs><style>.cls-1{fill:#dce4dc;stroke:#fff;stroke-linejoin:round;}.cls-2{fill:#80c4ca;}.cls-3{fill:#fff;}.cls-4,.cls-5{isolation:isolate;}.cls-5{font-size:13.29px;font-family:Geometric415BT-BlackA, Geometr415 Blk BT;font-weight:800;}.cls-5,.cls-6{fill:#1b9ac4;}.cls-6{stroke:#1b9ac4;stroke-width:0.57px;}.cls-7{fill:#229abf;}</style></defs><g id="Capa_1" data-name="Capa 1"><path id="path3" class="cls-1" d="M77.76,49.08c20.27,0,36.71,16.21,36.71,36.22S98,121.52,77.76,121.52a36.22,36.22,0,1,1,0-72.44Z"/><path id="path5" class="cls-2" d="M70.91,54.54A29.47,29.47,0,1,1,41.06,84,29.67,29.67,0,0,1,70.91,54.54Z"/><path id="path7" class="cls-3" d="M63.74,61.61A22.55,22.55,0,0,1,86.43,84h0A22.69,22.69,0,1,1,63.74,61.61Z"/><g id="text13" class="cls-4"><text class="cls-5" transform="translate(70.53 97.57)">ftalmopiñeres</text></g><path id="path15" class="cls-6" d="M17.84,84.27H41.63V48.06c0-.51.47-.35.47,0V84.27H151c.45,0,.53.48,0,.48H42.1v35.64c0,.52-.47.49-.47,0V84.75H17.84C17.35,84.75,17.28,84.27,17.84,84.27Z"/><path class="cls-7" d="M58.84,71.69A12.94,12.94,0,1,0,71.77,84.63,12.94,12.94,0,0,0,58.84,71.69Zm0,20.4c-3.69,0-6.68-3.34-6.68-7.46s3-7.47,6.68-7.47,6.68,3.34,6.68,7.47S62.52,92.09,58.84,92.09Z"/></g></svg>