<svg id="Capa_2" data-name="Capa 2" xmlns="http://www.w3.org/2000/svg" viewBox="0 0 1366 768"><defs><style>.cls-1{fill:#f6bd0f;}.cls-2{fill:#79328e;}.cls-3{opacity:0.1;}.cls-4{fill:#fff;}.cls-5{fill:#793292;}</style></defs><rect class="cls-1" width="1366" height="768"/><rect class="cls-2" y="-768" width="1366" height="768"/><g class="cls-3"><path class="cls-4" d="M985,777.86a5.33,5.33,0,1,0-5.32-5.33,5.39,5.39,0,0,0,5.32,5.33Z"/><path class="cls-4" d="M1157.76,773.54a5.33,5.33,0,1,0-5.32-5.33,5.39,5.39,0,0,0,5.32,5.33Z"/><path class="cls-4" d="M1062.38,771.59c3.43,0,3.43-5.32,0-5.32s-3.43,5.32,0,5.32Z"/></g><path class="cls-5" d="M113.71,773.33a5.33,5.33,0,1,0-5.32-5.33,5.39,5.39,0,0,0,5.32,5.33Z"/></svg>