<svg xmlns="http://www.w3.org/2000/svg" viewBox="0 0 220.79 231.49"><defs><style>.cls-1{fill:#1e9a80;}.cls-2{fill:#fff;}</style></defs><g id="Capa_1" data-name="Capa 1"><path d="M180.46,116.41a72.32,72.32,0,1,1-72.32-72.33A72.32,72.32,0,0,1,180.46,116.41Z"/><path class="cls-1" d="M108.14,194.58a78.18,78.18,0,1,1,78.18-78.17A78.26,78.26,0,0,1,108.14,194.58Zm0-149.89a71.72,71.72,0,1,0,71.71,71.72A71.8,71.8,0,0,0,108.14,44.69Z"/><path class="cls-1" d="M108.08,204.21a1.59,1.59,0,0,1,0-3.18,84.41,84.41,0,0,0,83.49-72.15,1.59,1.59,0,0,1,3.15.46,87.54,87.54,0,0,1-86.64,74.87Z"/><path class="cls-1" d="M27.14,89.25a1.47,1.47,0,0,1-.54-.1,1.6,1.6,0,0,1-1-2,87.58,87.58,0,0,1,82.44-58,1.6,1.6,0,1,1,0,3.19A84.39,84.39,0,0,0,28.64,88.19,1.59,1.59,0,0,1,27.14,89.25Z"/><path class="cls-1" d="M56.75,92.56H84.57v2.56H59.31v39.09H56.75ZM64,98.11H84.57v2.56h-18v9.72h15.7V113H64Zm0,17.62H82.27v2.57H66.57v15.91H64Z"/><path class="cls-1" d="M98.34,118.3h9.94a11.12,11.12,0,0,0,8.38-3.15,11.7,11.7,0,0,0,3-8.49,12.37,12.37,0,0,0-1.39-6,10.25,10.25,0,0,0-3.89-4.08,11.48,11.48,0,0,0-6-1.5H93.75v39.09H91.19V92.56h17.24a14.19,14.19,0,0,1,7.32,1.81,12.62,12.62,0,0,1,4.81,5,15.16,15.16,0,0,1,1.71,7.3c0,4.37-1.25,7.84-3.74,10.38s-5.91,3.82-10.25,3.82h-7.37v13.35H98.34Zm-.16-20.14h8.07a9.63,9.63,0,0,1,6.32,2.09c1.69,1.38,2.54,3.54,2.54,6.46a9,9,0,0,1-1.17,4.78,7.44,7.44,0,0,1-3.18,2.83,10.47,10.47,0,0,1-4.46.93H98.18Zm8.12,14.53a6.82,6.82,0,0,0,4.43-1.47,6.54,6.54,0,0,0,0-9,7,7,0,0,0-4.48-1.44h-5.5v12Z"/><path class="cls-1" d="M162.74,126.94a14.25,14.25,0,0,1-6.11,6.09,19.53,19.53,0,0,1-9.48,2.25,20,20,0,0,1-10.49-2.7,18.5,18.5,0,0,1-7-7.64,25.23,25.23,0,0,1-2.54-11.67,24.84,24.84,0,0,1,2.54-11.53,18.6,18.6,0,0,1,7-7.61,20,20,0,0,1,10.44-2.7A20.78,20.78,0,0,1,154,92.51a16.18,16.18,0,0,1,5.29,2.93,11.42,11.42,0,0,1,3.2,4.27l-1.76,1.61a12.82,12.82,0,0,0-5.82-5.72A18.59,18.59,0,0,0,147.1,94a17.19,17.19,0,0,0-9.16,2.4,16.36,16.36,0,0,0-6.12,6.73,22.18,22.18,0,0,0-2.19,10.14,22.77,22.77,0,0,0,2.19,10.31,16.23,16.23,0,0,0,6.14,6.78,17.38,17.38,0,0,0,9.19,2.41,17.6,17.6,0,0,0,7.66-1.66,15.9,15.9,0,0,0,6.28-5.87Zm-4-4a13.46,13.46,0,0,1-5,4.73,12.23,12.23,0,0,1-17-5.53,19.68,19.68,0,0,1-1.76-8.87,19.09,19.09,0,0,1,1.76-8.64,12.65,12.65,0,0,1,4.7-5.32A12.11,12.11,0,0,1,153.61,99a11.53,11.53,0,0,1,4.65,4.62l-1.87,1.71a8.07,8.07,0,0,0-1.95-2.64,9.91,9.91,0,0,0-3-1.9,9.42,9.42,0,0,0-8.7.85,10.65,10.65,0,0,0-3.74,4.49,16.58,16.58,0,0,0-1.39,7.15,17.42,17.42,0,0,0,1.39,7.38,10.21,10.21,0,0,0,3.74,4.48,9.57,9.57,0,0,0,5.28,1.5,9.08,9.08,0,0,0,3.5-.73,11.42,11.42,0,0,0,3.18-2,8.54,8.54,0,0,0,2.19-2.91Z"/><path class="cls-2" d="M75.45,146.78,74.66,145H71.92l-.81,1.79H69.93l3.36-7.21,3.35,7.21Zm-3.11-2.73h1.93l-.71-1.58c0-.1-.09-.21-.13-.34a3.88,3.88,0,0,1-.13-.44,4.17,4.17,0,0,1-.13.42,3,3,0,0,1-.13.36Z"/><path class="cls-2" d="M81.43,146.5a2.62,2.62,0,0,1-.53,1.85,2.4,2.4,0,0,1-1.77.53,2.52,2.52,0,0,1-1.48-.38,1.22,1.22,0,0,1-.56-1h1.1a.52.52,0,0,0,.27.44,1.31,1.31,0,0,0,.69.15,1.25,1.25,0,0,0,.94-.29,1.28,1.28,0,0,0,.3-1v-.6a1.94,1.94,0,0,1-.64.58,1.79,1.79,0,0,1-.84.19,1.85,1.85,0,0,1-1.5-.65,2.65,2.65,0,0,1-.55-1.78,2.62,2.62,0,0,1,.56-1.74,1.82,1.82,0,0,1,1.46-.66,1.87,1.87,0,0,1,.94.23,1.36,1.36,0,0,1,.57.66v-.73h1Zm-1-2a1.63,1.63,0,0,0-.33-1.09,1.1,1.1,0,0,0-.9-.38,1.12,1.12,0,0,0-.92.4,2,2,0,0,0,0,2.21,1.2,1.2,0,0,0,1.81,0A1.69,1.69,0,0,0,80.43,144.52Z"/><path class="cls-2" d="M87.17,144.68H83.58a1.53,1.53,0,0,0,.37,1,1.21,1.21,0,0,0,.9.35,1.55,1.55,0,0,0,.83-.21,1.67,1.67,0,0,0,.57-.67l.87.48a2.64,2.64,0,0,1-.94,1,2.52,2.52,0,0,1-1.31.33,2.29,2.29,0,0,1-1.72-.66,2.43,2.43,0,0,1-.64-1.75,2.38,2.38,0,0,1,.66-1.74,2.3,2.3,0,0,1,1.7-.68,2.27,2.27,0,0,1,1.69.62,2.41,2.41,0,0,1,.61,1.74ZM86.1,144a1.06,1.06,0,0,0-.37-.73,1.26,1.26,0,0,0-.84-.26,1.31,1.31,0,0,0-.82.25,1.38,1.38,0,0,0-.43.74Z"/><path class="cls-2" d="M88.23,146.78v-4.49h1V143a2,2,0,0,1,.72-.67,2.41,2.41,0,0,1,1.87-.06,1.26,1.26,0,0,1,.55.47,1.17,1.17,0,0,1,.17.43,4.41,4.41,0,0,1,0,.86v2.73h-1v-2.31a2.07,2.07,0,0,0-.22-1.17.86.86,0,0,0-.76-.3,1.44,1.44,0,0,0-.64.14,1,1,0,0,0-.45.37,1.17,1.17,0,0,0-.15.41,5,5,0,0,0,0,.81v2.05Z"/><path class="cls-2" d="M97.28,143.57a1.53,1.53,0,0,0-.55-.4,1.72,1.72,0,0,0-.68-.14,1.32,1.32,0,0,0-1,.41,1.77,1.77,0,0,0,0,2.18,1.39,1.39,0,0,0,1,.4,1.6,1.6,0,0,0,.67-.14,1.68,1.68,0,0,0,.51-.42v1.18a2.5,2.5,0,0,1-.61.24A3,3,0,0,1,96,147a2.33,2.33,0,0,1-1.73-.67,2.38,2.38,0,0,1-.66-1.74,2.3,2.3,0,0,1,.69-1.75,2.46,2.46,0,0,1,1.8-.67,3.14,3.14,0,0,1,.64.07,2.41,2.41,0,0,1,.55.21Z"/><path class="cls-2" d="M98.24,140.35a.65.65,0,0,1,.19-.45.62.62,0,0,1,.46-.19.65.65,0,0,1,.46,1.1.62.62,0,0,1-.46.19.65.65,0,0,1-.65-.65Zm.14,6.43v-4.49h1v4.49Z"/><path class="cls-2" d="M105.09,146.78h-1v-.59a1.87,1.87,0,0,1-.65.58,1.72,1.72,0,0,1-.83.19,1.85,1.85,0,0,1-1.5-.65,2.65,2.65,0,0,1-.55-1.78,2.62,2.62,0,0,1,.56-1.74,1.82,1.82,0,0,1,1.46-.66,1.87,1.87,0,0,1,.94.23,1.36,1.36,0,0,1,.57.66v-.73h1Zm-1-2.26a1.63,1.63,0,0,0-.33-1.09,1.26,1.26,0,0,0-1.82,0,2,2,0,0,0,0,2.21,1.2,1.2,0,0,0,1.81,0A1.69,1.69,0,0,0,104.1,144.52Z"/><path class="cls-2" d="M115.08,141.53a3.54,3.54,0,0,0-1-.61,3.22,3.22,0,0,0-1.12-.2,2.48,2.48,0,0,0-1.85.73,2.58,2.58,0,0,0-.71,1.88,2.62,2.62,0,0,0,.7,1.86,2.31,2.31,0,0,0,1.75.72,3.12,3.12,0,0,0,1.17-.22,3.61,3.61,0,0,0,1.06-.65v1.27a3.34,3.34,0,0,1-1,.49,4,4,0,0,1-1.16.16,4.09,4.09,0,0,1-1.47-.26,3.48,3.48,0,0,1-2-1.94,3.95,3.95,0,0,1,0-2.87,3.62,3.62,0,0,1,2-1.95,4.06,4.06,0,0,1,1.45-.26,3.75,3.75,0,0,1,1.16.18,4.2,4.2,0,0,1,1.08.54Z"/><path class="cls-2" d="M117.42,143a1.46,1.46,0,0,1,.44-.65,1,1,0,0,1,.67-.22,2,2,0,0,1,.43.05,2.05,2.05,0,0,1,.41.16l-.36.87a.86.86,0,0,0-.29-.14,1.21,1.21,0,0,0-.34,0,.79.79,0,0,0-.74.41,3.21,3.21,0,0,0-.22,1.38v2h-1v-4.5h1Z"/><path class="cls-2" d="M124.28,144.68H120.7a1.53,1.53,0,0,0,.37,1,1.19,1.19,0,0,0,.9.35,1.49,1.49,0,0,0,.82-.21,1.69,1.69,0,0,0,.58-.67l.86.48a2.61,2.61,0,0,1-.93,1A2.52,2.52,0,0,1,122,147a2.29,2.29,0,0,1-1.72-.66,2.67,2.67,0,0,1,0-3.49,2.54,2.54,0,0,1,3.39-.06,2.4,2.4,0,0,1,.6,1.74Zm-1.06-.69a1.1,1.1,0,0,0-.37-.73A1.3,1.3,0,0,0,122,143a1.17,1.17,0,0,0-1.25,1Z"/><path class="cls-2" d="M129.57,146.78h-1v-.59a1.82,1.82,0,0,1-.63.58,1.79,1.79,0,0,1-.84.19,1.85,1.85,0,0,1-1.5-.65,2.65,2.65,0,0,1-.55-1.78,2.62,2.62,0,0,1,.56-1.74,1.82,1.82,0,0,1,1.46-.66,1.9,1.9,0,0,1,.94.23,1.3,1.3,0,0,1,.56.66v-.73h1Zm-1-2.26a1.63,1.63,0,0,0-.32-1.09,1.26,1.26,0,0,0-1.82,0,2,2,0,0,0,0,2.21,1.09,1.09,0,0,0,.9.39,1.12,1.12,0,0,0,.91-.43A1.68,1.68,0,0,0,128.57,144.52Z"/><path class="cls-2" d="M131.23,146.78v-3.59h-.78v-.9h.78v-1.7h1v1.7H133v.9h-.78v3.59Z"/><path class="cls-2" d="M133.84,140.35a.61.61,0,0,1,.19-.45.62.62,0,0,1,.46-.19.65.65,0,0,1,.46.18.63.63,0,0,1,.18.46.6.6,0,0,1-.19.46.58.58,0,0,1-.45.19.66.66,0,0,1-.46-.19A.62.62,0,0,1,133.84,140.35Zm.14,6.43v-4.49h1v4.49Z"/><path class="cls-2" d="M138.05,147l-2.35-4.75h1.12l1,2.26a2,2,0,0,1,.11.31c.05.14.09.3.14.5,0-.14.07-.28.11-.41a3.25,3.25,0,0,1,.15-.4l1-2.26h1.12Z"/><path class="cls-2" d="M145.27,146.78h-1v-.59a1.84,1.84,0,0,1-.64.58,1.74,1.74,0,0,1-.84.19,1.88,1.88,0,0,1-1.5-.65,2.7,2.7,0,0,1-.54-1.78,2.61,2.61,0,0,1,.55-1.74,2,2,0,0,1,2.4-.43,1.36,1.36,0,0,1,.57.66v-.73h1Zm-1-2.26a1.63,1.63,0,0,0-.33-1.09,1.08,1.08,0,0,0-.9-.38,1.1,1.1,0,0,0-.91.4,1.61,1.61,0,0,0-.34,1.1,1.73,1.73,0,0,0,.32,1.11,1.12,1.12,0,0,0,.91.39,1.09,1.09,0,0,0,.9-.43A1.69,1.69,0,0,0,144.27,144.52Z"/></g></svg>