<?xml version="1.0" encoding="UTF-8" standalone="no"?>
<svg
   viewBox="0 0 220.79 231.49"
   version="1.1"
   id="svg53"
   sodipodi:docname="LOGO FPC-39 FONDO NEGRO.svg"
   inkscape:version="1.1.2 (08b2f3d93c, 2022-04-05)"
   xmlns:inkscape="http://www.inkscape.org/namespaces/inkscape"
   xmlns:sodipodi="http://sodipodi.sourceforge.net/DTD/sodipodi-0.dtd"
   xmlns="http://www.w3.org/2000/svg"
   xmlns:svg="http://www.w3.org/2000/svg">
  <sodipodi:namedview
     id="namedview55"
     pagecolor="#ffffff"
     bordercolor="#666666"
     borderopacity="1.0"
     inkscape:pageshadow="2"
     inkscape:pageopacity="0.0"
     inkscape:pagecheckerboard="0"
     showgrid="false"
     inkscape:zoom="3.6459457"
     inkscape:cx="110.3966"
     inkscape:cy="107.10527"
     inkscape:window-width="1848"
     inkscape:window-height="1016"
     inkscape:window-x="72"
     inkscape:window-y="27"
     inkscape:window-maximized="1"
     inkscape:current-layer="Capa_1" />
  <defs
     id="defs4">
    <style
       id="style2">.cls-1{fill:#fff;}.cls-2{fill:#19957d;}</style>
  </defs>
  <g
     id="Capa_1"
     data-name="Capa 1">
    <rect
       width="220.50916"
       height="230.84441"
       id="rect6"
       x="0.36335376"
       y="0.15983464"
       ry="110.25458" />
    <path
       d="M183.62,116.07a73.08,73.08,0,1,1-72.5-73.66A73.08,73.08,0,0,1,183.62,116.07Z"
       id="path8" />
    <path
       class="cls-1"
       d="M 107.68,194.48 C 75.727147,194.22818 47.072334,174.7523 35.079247,145.13531 23.086184,115.51839 28.572665,81.62476 51.346833,59.210997 74.121,36.797235 109.69773,30.277479 139.1196,42.741417 168.54152,55.20538 187.55787,84.167195 187.3,116.12 c -0.39599,43.6046 -36.01463,78.65957 -79.62,78.36 z M 108.88,43 C 79.565423,42.76617 52.997125,60.216603 41.56779,87.211581 30.138479,114.2065 36.099792,145.42777 56.669489,166.31506 77.239186,187.20236 108.36545,193.64132 135.53231,182.62694 162.69923,171.61254 180.55467,145.31472 180.77,116 181.02519,76.010552 148.86866,43.357521 108.88,43 Z"
       id="path10"
       sodipodi:nodetypes="cssscccssscc" />
    <path
       class="cls-1"
       d="M107.54,204.21a1.61,1.61,0,0,1,0-3.22,85.25,85.25,0,0,0,84.93-72.23,1.61,1.61,0,0,1,3.19.49,88.49,88.49,0,0,1-88.15,75Z"
       id="path12" />
    <path
       class="cls-1"
       d="M26.67,87.4a1.51,1.51,0,0,1-.54-.1,1.61,1.61,0,0,1-.95-2.07,88.51,88.51,0,0,1,83.76-57.95,1.61,1.61,0,0,1,0,3.22A85.28,85.28,0,0,0,28.2,86.34,1.61,1.61,0,0,1,26.67,87.4Z"
       id="path14" />
    <path
       class="cls-2"
       d="M56.57,91l28.11.22,0,2.59-25.52-.2-.31,39.5-2.59,0Zm7.29,5.67,20.77.17,0,2.58-18.18-.14-.08,9.82,15.86.13,0,2.59-18.45-.15Zm-.15,17.81,18.46.14,0,2.59-15.86-.12-.13,16.07H63.57Z"
       id="path16" />
    <path
       class="cls-2"
       d="M98.39,117.32l10,.08c3.6,0,6.44-1,8.5-3.11a11.79,11.79,0,0,0,3.14-8.56,12.55,12.55,0,0,0-1.35-6,10.5,10.5,0,0,0-3.91-4.16,11.6,11.6,0,0,0-6-1.56l-14.84-.11-.31,39.49-2.59,0,.34-42.08,17.42.13a14.45,14.45,0,0,1,7.38,1.9A12.65,12.65,0,0,1,121,98.37a15.27,15.27,0,0,1,1.68,7.38q-.06,6.63-3.86,10.46T108.4,120l-7.44-.06-.11,13.49-2.59,0Zm0-20.34,8.15.06a9.72,9.72,0,0,1,6.37,2.16c1.7,1.42,2.54,3.59,2.52,6.55a9.08,9.08,0,0,1-1.23,4.82A7.38,7.38,0,0,1,111,113.4a10.59,10.59,0,0,1-4.52.91l-8.2-.06Zm8.08,14.74a6.92,6.92,0,0,0,4.49-1.45,6.63,6.63,0,0,0,.08-9.15,7.06,7.06,0,0,0-4.52-1.49l-5.56,0-.09,12.09Z"
       id="path18" />
    <path
       class="cls-2"
       d="M163.39,126.58a14.54,14.54,0,0,1-6.22,6.1,19.79,19.79,0,0,1-9.6,2.19A20.24,20.24,0,0,1,137,132.06a18.67,18.67,0,0,1-7.06-7.77,25.35,25.35,0,0,1-2.47-11.81,25.11,25.11,0,0,1,2.65-11.64,18.89,18.89,0,0,1,7.18-7.63,20.24,20.24,0,0,1,10.58-2.64,21,21,0,0,1,6.94,1.14,16.07,16.07,0,0,1,5.32,3,11.64,11.64,0,0,1,3.21,4.34l-1.79,1.61a13.06,13.06,0,0,0-5.84-5.82,18.76,18.76,0,0,0-7.86-1.68,17.35,17.35,0,0,0-9.28,2.36,16.42,16.42,0,0,0-6.23,6.75,22.36,22.36,0,0,0-2.29,10.23,22.93,22.93,0,0,0,2.13,10.43,16.38,16.38,0,0,0,6.15,6.9,17.42,17.42,0,0,0,9.26,2.5,17.65,17.65,0,0,0,7.75-1.61,16,16,0,0,0,6.39-5.89Zm-4-4.08a13.67,13.67,0,0,1-5.06,4.73,12.34,12.34,0,0,1-17.16-5.72,19.89,19.89,0,0,1-1.71-9,19.43,19.43,0,0,1,1.85-8.73,12.85,12.85,0,0,1,4.78-5.33,12.4,12.4,0,0,1,6.55-1.75,12.16,12.16,0,0,1,5.7,1.53,11.55,11.55,0,0,1,4.67,4.7l-1.91,1.71a7.94,7.94,0,0,0-1.95-2.68,10.17,10.17,0,0,0-3-1.95,9.53,9.53,0,0,0-8.8.8,10.83,10.83,0,0,0-3.81,4.5,16.7,16.7,0,0,0-1.46,7.22,17.53,17.53,0,0,0,1.34,7.46,10.39,10.39,0,0,0,3.74,4.56,9.7,9.7,0,0,0,5.33,1.55,9,9,0,0,0,3.54-.7,11.58,11.58,0,0,0,3.23-2,8.38,8.38,0,0,0,2.23-2.92Z"
       id="path20" />
    <path
       class="cls-1"
       d="M75,145.92l-.78-1.81-2.77,0-.83,1.79H69.46l3.44-7.26,3.33,7.31Zm-3.12-2.78,2,0-.71-1.61c0-.1-.09-.22-.13-.35l-.13-.44-.12.43c0,.13-.09.25-.14.36Z"
       id="path22" />
    <path
       class="cls-1"
       d="M81.07,145.68a2.64,2.64,0,0,1-.55,1.87,2.44,2.44,0,0,1-1.79.53,2.55,2.55,0,0,1-1.49-.41,1.25,1.25,0,0,1-.56-1h1.11a.57.57,0,0,0,.27.45,1.45,1.45,0,0,0,.7.16,1.31,1.31,0,0,0,1-.29,1.38,1.38,0,0,0,.3-1v-.6a1.79,1.79,0,0,1-.65.58,1.93,1.93,0,0,1-.85.18,1.9,1.9,0,0,1-1.51-.67,2.76,2.76,0,0,1-.54-1.8,2.69,2.69,0,0,1,.58-1.75,1.87,1.87,0,0,1,1.48-.66,2,2,0,0,1,.95.24,1.39,1.39,0,0,1,.57.67v-.74h1Zm-1-2a1.7,1.7,0,0,0-.32-1.09,1.11,1.11,0,0,0-.92-.4,1.14,1.14,0,0,0-.92.39,1.67,1.67,0,0,0-.35,1.12,1.74,1.74,0,0,0,.31,1.12,1.12,1.12,0,0,0,.92.4,1.16,1.16,0,0,0,.92-.42A1.77,1.77,0,0,0,80.08,143.67Z"
       id="path24" />
    <path
       class="cls-1"
       d="M86.88,143.9l-3.62,0a1.48,1.48,0,0,0,.37,1,1.22,1.22,0,0,0,.9.37,1.59,1.59,0,0,0,.84-.21,1.79,1.79,0,0,0,.59-.67l.87.49a2.68,2.68,0,0,1-1,1,2.59,2.59,0,0,1-1.32.33,2.3,2.3,0,0,1-1.73-.68,2.71,2.71,0,0,1,.05-3.53,2.27,2.27,0,0,1,1.72-.67,2.32,2.32,0,0,1,1.7.64,2.41,2.41,0,0,1,.59,1.76Zm-1.07-.71a1.1,1.1,0,0,0-.36-.75,1.31,1.31,0,0,0-.85-.26,1.34,1.34,0,0,0-.83.24,1.36,1.36,0,0,0-.44.75Z"
       id="path26" />
    <path
       class="cls-1"
       d="M88,146l0-4.53h1v.74a1.93,1.93,0,0,1,.73-.67,2.26,2.26,0,0,1,1-.21,2.08,2.08,0,0,1,.87.17,1.26,1.26,0,0,1,.55.47,1.55,1.55,0,0,1,.17.44,5.56,5.56,0,0,1,0,.87l0,2.75h-1l0-2.33a2.22,2.22,0,0,0-.21-1.18.91.91,0,0,0-.77-.3,1.48,1.48,0,0,0-.65.12,1.06,1.06,0,0,0-.45.38.9.9,0,0,0-.17.42,4.94,4.94,0,0,0,0,.81V146Z"
       id="path28" />
    <path
       class="cls-1"
       d="M97.11,142.85a1.59,1.59,0,0,0-.55-.41,1.72,1.72,0,0,0-.68-.14,1.33,1.33,0,0,0-1,.4,1.61,1.61,0,0,0-.39,1.09,1.57,1.57,0,0,0,.38,1.11,1.43,1.43,0,0,0,1.06.42,1.57,1.57,0,0,0,.67-.14,1.41,1.41,0,0,0,.53-.42V146a2.22,2.22,0,0,1-.62.24,3,3,0,0,1-.69.08,2.33,2.33,0,0,1-2.39-2.46,2.3,2.3,0,0,1,.71-1.76,2.49,2.49,0,0,1,1.82-.66,3.16,3.16,0,0,1,.65.07,2.43,2.43,0,0,1,.55.22Z"
       id="path30" />
    <path
       class="cls-1"
       d="M98.11,139.6a.62.62,0,0,1,.2-.45.66.66,0,0,1,.46-.19.63.63,0,0,1,.46.19.66.66,0,0,1,.18.47.6.6,0,0,1-.19.46.62.62,0,0,1-.46.19.63.63,0,0,1-.46-.2A.64.64,0,0,1,98.11,139.6Zm.09,6.5,0-4.53h1l0,4.54Z"
       id="path32" />
    <path
       class="cls-1"
       d="M105,146.15h-1v-.6a1.81,1.81,0,0,1-.65.59,1.93,1.93,0,0,1-.85.18,1.89,1.89,0,0,1-1.51-.67,3.09,3.09,0,0,1,0-3.55,1.86,1.86,0,0,1,1.48-.66,2,2,0,0,1,.94.24,1.34,1.34,0,0,1,.58.68v-.75h1Zm-1-2.28a1.66,1.66,0,0,0-.31-1.1,1.12,1.12,0,0,0-.92-.4,1.15,1.15,0,0,0-.93.39,1.72,1.72,0,0,0-.34,1.12,1.7,1.7,0,0,0,.31,1.12,1.23,1.23,0,0,0,1.83,0A1.65,1.65,0,0,0,104,143.87Z"
       id="path34" />
    <path
       class="cls-1"
       d="M115.12,140.94a3.44,3.44,0,0,0-1-.63,3,3,0,0,0-1.13-.21,2.46,2.46,0,0,0-1.87.72,2.87,2.87,0,0,0,0,3.77,2.29,2.29,0,0,0,1.76.75,3,3,0,0,0,1.19-.21,3.7,3.7,0,0,0,1.08-.65v1.28a3.33,3.33,0,0,1-1,.49,4,4,0,0,1-1.18.15,4.23,4.23,0,0,1-1.48-.27,3.4,3.4,0,0,1-1.19-.79,3.33,3.33,0,0,1-.78-1.19,3.89,3.89,0,0,1-.26-1.45,3.75,3.75,0,0,1,.29-1.45,3.55,3.55,0,0,1,2-1.95,3.92,3.92,0,0,1,1.47-.25,3.77,3.77,0,0,1,1.17.18,4.28,4.28,0,0,1,1.08.56Z"
       id="path36" />
    <path
       class="cls-1"
       d="M117.47,142.44a1.44,1.44,0,0,1,.44-.66,1.13,1.13,0,0,1,.69-.21,2,2,0,0,1,.43.05,2.41,2.41,0,0,1,.42.16l-.38.88a.71.71,0,0,0-.29-.14.93.93,0,0,0-.34-.05.77.77,0,0,0-.75.4,3.11,3.11,0,0,0-.23,1.39l0,2h-1l0-4.54h1Z"
       id="path38" />
    <path
       class="cls-1"
       d="M124.39,144.19l-3.63,0a1.59,1.59,0,0,0,.37,1,1.19,1.19,0,0,0,.9.36,1.46,1.46,0,0,0,.84-.2,1.71,1.71,0,0,0,.59-.67l.87.49a2.66,2.66,0,0,1-1,1,2.5,2.5,0,0,1-1.33.32,2.29,2.29,0,0,1-1.73-.68,2.69,2.69,0,0,1,.05-3.52,2.25,2.25,0,0,1,1.72-.67,2.29,2.29,0,0,1,1.71.64,2.39,2.39,0,0,1,.59,1.76Zm-1.07-.7a1.08,1.08,0,0,0-.37-.75,1.29,1.29,0,0,0-.85-.26,1.25,1.25,0,0,0-.82.24,1.27,1.27,0,0,0-.44.75Z"
       id="path40" />
    <path
       class="cls-1"
       d="M129.72,146.35h-1v-.59a1.9,1.9,0,0,1-.66.58,1.76,1.76,0,0,1-.84.19,1.87,1.87,0,0,1-1.51-.68,2.65,2.65,0,0,1-.54-1.8,2.6,2.6,0,0,1,.57-1.75,1.83,1.83,0,0,1,1.48-.65,1.79,1.79,0,0,1,.95.24,1.39,1.39,0,0,1,.57.67v-.74h1Zm-1-2.29a1.72,1.72,0,0,0-.32-1.1,1.18,1.18,0,0,0-.91-.4,1.14,1.14,0,0,0-.93.4,1.64,1.64,0,0,0-.35,1.11,1.73,1.73,0,0,0,.32,1.13,1.11,1.11,0,0,0,.91.39,1.06,1.06,0,0,0,.91-.42A1.7,1.7,0,0,0,128.73,144.06Z"
       id="path42" />
    <path
       class="cls-1"
       d="M131.4,146.36l0-3.62h-.79v-.91h.79l0-1.72h1v1.72h.79v.91h-.8l0,3.62Z"
       id="path44" />
    <path
       class="cls-1"
       d="M134.08,139.89a.59.59,0,0,1,.2-.45.62.62,0,0,1,.46-.19.59.59,0,0,1,.46.19.58.58,0,0,1,.18.46.63.63,0,0,1-.18.46.64.64,0,0,1-.47.19.63.63,0,0,1-.46-.2A.62.62,0,0,1,134.08,139.89Zm.09,6.49,0-4.53h1l0,4.53Z"
       id="path46" />
    <path
       class="cls-1"
       d="M138.28,146.69l-2.34-4.83h1.14l1,2.29a2.8,2.8,0,0,1,.11.32c0,.14.09.31.13.5,0-.14.07-.27.12-.41a2.66,2.66,0,0,1,.16-.41l1-2.27h1.13Z"
       id="path48" />
    <path
       class="cls-1"
       d="M145.58,146.47h-1v-.58a1.9,1.9,0,0,1-.66.58,1.93,1.93,0,0,1-.85.18,1.87,1.87,0,0,1-1.5-.67,2.66,2.66,0,0,1-.54-1.81,2.57,2.57,0,0,1,.57-1.74,1.87,1.87,0,0,1,1.48-.66,1.79,1.79,0,0,1,.95.24,1.39,1.39,0,0,1,.57.67v-.74h1Zm-1-2.28a1.64,1.64,0,0,0-.32-1.1,1.1,1.1,0,0,0-.91-.4,1.12,1.12,0,0,0-.93.39,1.72,1.72,0,0,0-.35,1.12,1.7,1.7,0,0,0,.32,1.12,1.12,1.12,0,0,0,.91.4,1.16,1.16,0,0,0,.92-.42A1.76,1.76,0,0,0,144.59,144.19Z"
       id="path50" />
  </g>
</svg>
