<?xml version="1.0" encoding="UTF-8" standalone="no"?>
<svg
   id="svg5211"
   viewBox="0 0 440.64 267.84"
   version="1.1"
   sodipodi:docname="faro4.svg"
   inkscape:version="1.1.2 (08b2f3d93c, 2022-04-05)"
   xmlns:inkscape="http://www.inkscape.org/namespaces/inkscape"
   xmlns:sodipodi="http://sodipodi.sourceforge.net/DTD/sodipodi-0.dtd"
   xmlns="http://www.w3.org/2000/svg"
   xmlns:svg="http://www.w3.org/2000/svg">
  <sodipodi:namedview
     id="namedview214"
     pagecolor="#ffffff"
     bordercolor="#666666"
     borderopacity="1.0"
     inkscape:pageshadow="2"
     inkscape:pageopacity="0.0"
     inkscape:pagecheckerboard="0"
     showgrid="false"
     inkscape:zoom="1.5064964"
     inkscape:cx="263.19346"
     inkscape:cy="210.75391"
     inkscape:window-width="1848"
     inkscape:window-height="1016"
     inkscape:window-x="72"
     inkscape:window-y="27"
     inkscape:window-maximized="1"
     inkscape:current-layer="svg5211" />
  <defs
     id="defs159">
    <style
       id="style157">.cls-1{fill:#1d1d1b;}.cls-2{fill:#eaad2b;}.cls-3{fill:#bf8f25;}.cls-4{fill:#009f98;}.cls-5{fill:#fff;}.cls-6{fill:#c55a8b;}.cls-7{fill:#1b83c0;}.cls-8{isolation:isolate;}</style>
  </defs>
  <rect
     class="cls-1"
     width="446.11713"
     height="269.7876"
     id="rect161"
     x="0.062878706"
     y="-1.9476095"
     style="stroke-width:1.00112"
     ry="77.42308"
     rx="0" />
  <g
     id="g4897">
    <path
       id="path4873"
       class="cls-2"
       d="M123.83,90.31l1.29-22.43,4.37,10.17,2.63-9.9,4.8,9.77,3.86-11.34,4.38,10.91,3.64-9.77,3.32,9.81,5.17-10.19.71,23Z" />
    <path
       id="ellipse4875"
       class="cls-3"
       d="M140.91,86.61c9.44,0,17.1,1.55,17.1,3.46s-7.66,3.46-17.1,3.46S123.82,92,123.82,90.07,131.47,86.61,140.91,86.61Z" />
    <path
       id="circle4877"
       class="cls-2"
       d="M125.18,65.82a1.87,1.87,0,1,1-1.87,1.87A1.87,1.87,0,0,1,125.18,65.82Z" />
    <path
       id="circle4879"
       class="cls-2"
       d="M132.14,65.2a1.87,1.87,0,1,1-1.87,1.87A1.86,1.86,0,0,1,132.14,65.2Z" />
    <path
       id="circle4881"
       class="cls-2"
       d="M148.79,64.7a1.87,1.87,0,1,1-1.87,1.87A1.87,1.87,0,0,1,148.79,64.7Z" />
    <path
       id="circle4883"
       class="cls-2"
       d="M157.23,64.79a1.87,1.87,0,1,1-1.87,1.87A1.88,1.88,0,0,1,157.23,64.79Z" />
    <path
       id="circle4885"
       class="cls-2"
       d="M141,61.94A3.07,3.07,0,1,1,137.92,65,3.06,3.06,0,0,1,141,61.94Z" />
    <path
       id="path4887"
       class="cls-2"
       d="M138.55,45.68h5.12l-2.46,10.89Z" />
    <path
       id="path4889"
       class="cls-2"
       d="M157.13,47.69l3.73,2.62L153.49,57Z" />
    <path
       id="path4891"
       class="cls-2"
       d="M123.32,49.47l-3.72,2.61L127,58.75Z" />
    <path
       id="path4893"
       class="cls-2"
       d="M110.34,70.86l-.78,4.49,8.67-1.06Z" />
    <path
       id="path4895"
       class="cls-2"
       d="M171,70.68l1.06,4.42-8.72-.51Z" />
  </g>
  <path
     id="path4899"
     class="cls-4"
     d="M124,135.31l4.81-45s13.44-4,25.07,0l4,45.39s-21.58-1.84-33.93-.45Z" />
  <path
     id="path6001"
     class="cls-5"
     d="M163.34,207.43a557,557,0,0,0-97.66,4.76.89.89,0,0,0-.76,1,.9.9,0,0,0,1,.75h0s80-12.37,150.75,1.17a.9.9,0,0,0,.34-1.77A373,373,0,0,0,163.34,207.43Z" />
  <path
     id="path4903"
     class="cls-6"
     d="M119.07,181.18l-4.7,42.9a78.42,78.42,0,0,0,51.72,0l-4-43c-19.41,1-27.23,3.31-43,.1Z" />
  <path
     id="path4905"
     class="cls-7"
     d="M123.91,135.29l-4.84,45.91a96.45,96.45,0,0,0,43.06.05l-4.24-45.53s-11.71-2.61-34-.43Z" />
  <rect
     id="rect4907"
     class="cls-5"
     x="136.54"
     y="102.93"
     width="7.56"
     height="15.16" />
  <rect
     id="rect4909"
     class="cls-5"
     x="136.54"
     y="150.63"
     width="7.56"
     height="15.16" />
  <rect
     id="rect4911"
     class="cls-5"
     x="136.54"
     y="196.84"
     width="7.56"
     height="15.16" />
  <path
     id="path4913"
     class="cls-5"
     d="M99.28,202.24a4.2,4.2,0,0,0-.07-1.68,11.87,11.87,0,0,1-.28-1.29c-.09.28-.88.09-.88.09a.77.77,0,0,0-.16,1.15,1.07,1.07,0,0,1,0,1.27A11,11,0,0,0,96.57,200c-.38-.81.9-2.09.9-2.09.22-.58,1.1-.27,1.1-.27.06-.31.74-.82.74-.82a2,2,0,0,1,2.41.29c.61.31.11,1.93.11,1.93l-.06,1.24c-.27.89-1.46.8-1.46.8l-.13,1a8.31,8.31,0,0,0,1.75.56,8.33,8.33,0,0,0,2.09,1.46.86.86,0,0,0,.71-.38,8.42,8.42,0,0,0,1.06-1.55,2.16,2.16,0,0,1-.18-1.33s.73-.68,1-.56c0,0,1.1.69.63,1.64,0,0-1.12,2.66-2.34,3.13a4.62,4.62,0,0,1-2.45-.16.62.62,0,0,0-.75.53s-.39,2-.11,2.4c0,0,1.62,2.76,1.65,3l-.62.46s.89,3.7,1.09,3.93c0,0,2.24.65,2.41.68a6.39,6.39,0,0,1-2.84,1.15s-1.67-5.4-1.93-5.6l-1.15,0s-.77,2.81-1.81,3c0,0-.84.31-2-1.7l-.45-.49s0,1.62-.62,1.62l-.6,0s.1-2.92.46-3.3c0,0,1.31.17,1.55,1,0,0,.93,1,1.17.75l.27-1-1-.12,1.18-3.71a5.16,5.16,0,0,0-.94-3.43s-3.06-3-3.27-3c0,0-.84.42-1.7-1a2.66,2.66,0,0,1-.42-1.23l-4.11-6.75.27,5.51s2.18,9.3,2.4,9.38c0,0,2.45,7.71,2.55,7.88l.17.32a40.69,40.69,0,0,1,4.31.8s.91.37,0,.93c0,0-5,1.27-5.44,1.35A16.84,16.84,0,0,0,91,216.12l-.68-.05s-4.3-12-4.17-12.89c0,0-.91,10-2,11.35,0,0-1.27,1.42-1.45,1.56,0,0,2.13,3,2.19,3.63a1.31,1.31,0,0,1-.85.57l-4.86-2.58s1-2.9,1.56-3.09c0,0,3.38-8.14,2.43-10.74,0,0-3-9.93-3.45-11.09a65.23,65.23,0,0,0-.11,8.05l-.18,3s1,1.29-.13,1.82a1.4,1.4,0,0,1-2.14-.15s-.53-1.14-.23-1.51c0,0-5-3.91-5.23-5.43l-1.63-3.3s-.32,2.66-.32,3.47c.23.56,2.35,8.31,2.1,10.08l-1.09.29s1,7.17.84,8.06c0,0,3.11,1.2,3.22,1.89a20.67,20.67,0,0,0-3.59,0L69.94,219s.44-6-.08-7.44l-.66-2.08a5.56,5.56,0,0,1-2.55.28s-1.35,3-1.92,3.31a34.44,34.44,0,0,1-3.14,2h0s-.46,3.6-1,4.15a34.72,34.72,0,0,0-1.11-4.06s4.75-2.82,4.28-3.16c0,0,1.33-2.09,1.21-2.58,0,0-2.7-.15-2.81-.67,0,0,2.86-8.68,2.38-9,0,0,.07-.51-.86-.45,0,0-1.73-.41-1.61-.77,0,0,.73-5.53.76-5.85,0,0-.27-1-.42-.81s-.26.27-.66.36a1.33,1.33,0,0,1-.74-.43,1.94,1.94,0,0,0-1-.55s-.77-.2-.74-.83c0,0,0-.59.46-.53a1.32,1.32,0,0,1,.87.69,3.34,3.34,0,0,1,.94.56,6.2,6.2,0,0,0,.55-.6s-1.81-.91-1.26-2.51c0,0,.63-.9,1.71.11A2.37,2.37,0,0,1,63.1,190a2.54,2.54,0,0,1,2,.6,4.21,4.21,0,0,1,1.21-.54l-.1-1.38a7.9,7.9,0,0,1-1.47.51s-1.41-4.47.76-5.82c0,0,1.66-1.13,2.38-.12A5,5,0,0,1,69,187.73l-1.52.69s.38,1.17.44,1.44c0,0,1.92.19,2.43,1.31.21.29,2.93,6.58,2.93,6.58s4,5,4.26,5.22c0,0-.1-.4.06-.58,0,0-.64-11.76-.22-12.28,0,0,1.64-2.91,3.57-3,0,0-3-6.2-2.09-7.5,0,0,1.36-1.34,2.56-1,0,0,1-.55,1.08-1,0,0,.87.27.36,1.53,0,0,1.27,3.33.9,4.8,0,0-1.36.39-1.3.87,0,0,.57,1.49.64,1.82a5.35,5.35,0,0,1,5.2,2.1s4.61,8.23,5.17,9.18c0,0,1.28,1.29,1.24,2.14,0,0,1.67,1.78,2.33,1.91a1.59,1.59,0,0,0,2.22.33Z" />
  <g
     id="text4917"
     class="cls-8">
    <g
       class="cls-8"
       id="g192">
      <path
         class="cls-5"
         d="M192.22,116.55v13H215v9.13H192.22V156.6H180.84V107.42H218v9.13Z"
         id="path184" />
      <path
         class="cls-5"
         d="M256.09,146.06H233.26L228.9,156.6H217.23l21.93-49.18H250.4l22,49.18H260.45Zm-3.58-8.64-7.8-18.83-7.8,18.83Z"
         id="path186" />
      <path
         class="cls-5"
         d="M308.86,156.6l-9.49-13.7H288.9v13.7H277.52V107.42h21.29a27.36,27.36,0,0,1,11.35,2.17,16.29,16.29,0,0,1,10,15.67,16,16,0,0,1-10.12,15.53l11,15.81ZM306,118.9q-2.69-2.2-7.8-2.21H288.9v17.14h9.28c3.41,0,6-.74,7.8-2.24a8.9,8.9,0,0,0,0-12.69Z"
         id="path188" />
      <path
         class="cls-5"
         d="M339.17,154.14a24.52,24.52,0,0,1-9.62-9.1,26.15,26.15,0,0,1,0-26.07,24.49,24.49,0,0,1,9.62-9.09,30.38,30.38,0,0,1,27.58,0,25.08,25.08,0,0,1,0,44.26,30.46,30.46,0,0,1-27.58,0Zm21.68-8.4a14.28,14.28,0,0,0,5.51-5.58,17.53,17.53,0,0,0,0-16.3,14.37,14.37,0,0,0-5.51-5.59,16.48,16.48,0,0,0-15.74,0,14.47,14.47,0,0,0-5.52,5.59,17.61,17.61,0,0,0,0,16.3,14.37,14.37,0,0,0,5.52,5.58,16.41,16.41,0,0,0,15.74,0Z"
         id="path190" />
    </g>
  </g>
  <g
     id="g4953">
    <g
       id="g4947">
      <path
         id="path4919"
         class="cls-5"
         d="M207.27,186.9a30.78,30.78,0,0,1,.24-3.47c.18-1.38.4-2.82.67-4.33s.61-3,.95-4.49.72-2.82,1.08-4,.7-2.16,1-2.9.63-1.12.88-1.12a2.82,2.82,0,0,1,.75.17,7.11,7.11,0,0,1,1,.34,5.51,5.51,0,0,1,.84.44c.25.15.37.3.37.43a.21.21,0,0,1-.07.17l-.23.31a.73.73,0,0,0-.17.27,17.29,17.29,0,0,0-1,2.3c-.33.94-.67,2-1,3.17s-.63,2.37-.94,3.65-.56,2.49-.78,3.68q.7-2.29,1.52-4.52c.54-1.51,1.09-2.91,1.65-4.19a27.62,27.62,0,0,1,1.46-2.88,15.21,15.21,0,0,1,1.59-2.19,3.72,3.72,0,0,1,1.28-.95,3.36,3.36,0,0,1,1.42-.34,2.67,2.67,0,0,1,2.26,1,4.41,4.41,0,0,1,.91,2.46,9.58,9.58,0,0,1-.3,3.25,11.86,11.86,0,0,1-1.32,3.24,8.52,8.52,0,0,1-2.19,2.5,4.6,4.6,0,0,1-2.87,1,3.35,3.35,0,0,1-1.32-.27,2.89,2.89,0,0,1-1.08-.84.78.78,0,0,1-.14-.37,1.4,1.4,0,0,1,0-.41.42.42,0,0,1,.2-.27c.09-.05.21,0,.34.13a1.53,1.53,0,0,0,1.08.41,2.6,2.6,0,0,0,1.79-.74,6.66,6.66,0,0,0,1.39-1.86,10.52,10.52,0,0,0,.94-2.4,11.46,11.46,0,0,0,.38-2.43,4.72,4.72,0,0,0-.21-1.86.94.94,0,0,0-.91-.74c-.52,0-1.1.43-1.76,1.31a19.39,19.39,0,0,0-2,3.65c-.47,1.11-.95,2.29-1.42,3.55s-.89,2.54-1.32,3.85-.82,2.56-1.18,3.82-.63,2.43-.88,3.51c-.06.3-.28.44-.64.44a2.28,2.28,0,0,1-.71-.13,4.63,4.63,0,0,1-.71-.34,2.65,2.65,0,0,1-.57-.47.82.82,0,0,1-.24-.55Z" />
      <path
         id="path4921"
         class="cls-5"
         d="M223,188.6a2.93,2.93,0,0,1-1.38-.31,2.17,2.17,0,0,1-.81-.74,1.56,1.56,0,0,1-.27-1,2,2,0,0,1,.33-1.09,2.2,2.2,0,0,1,1-.91,4.76,4.76,0,0,1,1.36-.34l1.11-.1a6.55,6.55,0,0,0,1-.13,3.26,3.26,0,0,0-.54-1.39c-.29-.45-.6-.89-.91-1.32a14,14,0,0,1-.82-1.41,4.17,4.17,0,0,1-.37-1.76,3.44,3.44,0,0,1,.31-1.46,3.74,3.74,0,0,1,.84-1.08,4.33,4.33,0,0,1,1.18-.67,4.15,4.15,0,0,1,1.39-.24,1.63,1.63,0,0,1,.91.31,3.41,3.41,0,0,1,.91.7,4.31,4.31,0,0,1,.68,1,2.06,2.06,0,0,1,.27,1,1.67,1.67,0,0,1-.13.61,2.36,2.36,0,0,1-.31.64,2.06,2.06,0,0,1-.4.51.59.59,0,0,1-.38.2,2.92,2.92,0,0,1-1.18-.27c-.4-.2-.61-.39-.61-.57a.23.23,0,0,1,.07-.14A.87.87,0,0,0,227,178a2,2,0,0,0,.31-1,.88.88,0,0,0-.14-.51.43.43,0,0,0-.4-.24.75.75,0,0,0-.54.24,2.19,2.19,0,0,0-.41.57,3.72,3.72,0,0,0-.2.68,2.66,2.66,0,0,0-.07.57,2.76,2.76,0,0,0,.31,1.29,7.42,7.42,0,0,0,.71,1.11l.81,1.08a6,6,0,0,1,.71,1.12,6.67,6.67,0,0,0,2.26-2,10.77,10.77,0,0,0,1.35-2.74.46.46,0,0,1,.24-.27.5.5,0,0,1,.34,0,.41.41,0,0,1,.27.2.5.5,0,0,1,0,.38,10.54,10.54,0,0,1-1.66,3.21,8,8,0,0,1-2.53,2.09,3.23,3.23,0,0,1-.34,2,4.47,4.47,0,0,1-1.25,1.53,6.68,6.68,0,0,1-1.82.94,7.05,7.05,0,0,1-2,.31Zm2.33-3.65a5.46,5.46,0,0,1-1.31.13,4.15,4.15,0,0,0-1.32.14,1.1,1.1,0,0,0-.78.54,1.06,1.06,0,0,0-.1.78,1.09,1.09,0,0,0,.47.6,1.18,1.18,0,0,0,1,0,3.46,3.46,0,0,0,2.06-2.19Z" />
      <path
         id="path4923"
         class="cls-5"
         d="M229.54,186.1a3,3,0,0,0,.07-.65c0-.2.06-.41.1-.64a46.3,46.3,0,0,1,1-4.9,31.91,31.91,0,0,1,1.56-4.56c.13-.29.3-.44.5-.44a1.94,1.94,0,0,1,.54.1,3.32,3.32,0,0,1,.64.27,2.74,2.74,0,0,1,.54.31,4.09,4.09,0,0,1,.44.3.36.36,0,0,1,.11.51,1.6,1.6,0,0,0-.24.54c-.29.74-.58,1.53-.85,2.36s-.48,1.67-.7,2.5-.43,1.65-.61,2.44-.3,1.45-.41,2.06c0,.25,0,.38.1.4a.41.41,0,0,0,.37-.16,11,11,0,0,0,1.46-1.83,20.86,20.86,0,0,0,1.21-2.23c.39-.76.72-1.52,1-2.26s.58-1.41.81-2a.59.59,0,0,1,.27-.27.5.5,0,0,1,.34,0,.42.42,0,0,1,.23.24.43.43,0,0,1,0,.37c-.16.38-.36.89-.61,1.52s-.54,1.32-.88,2.06-.71,1.45-1.12,2.2a17.21,17.21,0,0,1-1.28,2,7.84,7.84,0,0,1-1.42,1.45,2.25,2.25,0,0,1-1.42.57,1.73,1.73,0,0,1-.81-.2,2.37,2.37,0,0,1-.61-.54,2.91,2.91,0,0,1-.37-.75,2.39,2.39,0,0,1-.07-.8ZM235,168.83c.32-.63.59-1,.81-1a3.58,3.58,0,0,1,.88.31,5.62,5.62,0,0,1,1.12.61c.47.31.52.77.13,1.38-.15.25-.38.59-.67,1s-.57.85-.88,1.26a13,13,0,0,1-1,1.08,1.21,1.21,0,0,1-.74.44.73.73,0,0,1-.84-.65,4.15,4.15,0,0,1,.1-1.58,10.27,10.27,0,0,1,.54-1.76,11.68,11.68,0,0,1,.5-1.15Z" />
      <path
         id="path4925"
         class="cls-5"
         d="M239.61,188.39a4.27,4.27,0,0,1-3.07-1,4.36,4.36,0,0,1-1.25-2.5,8.6,8.6,0,0,1,.17-3.28,12.69,12.69,0,0,1,1.21-3.28,10.61,10.61,0,0,1,1.93-2.53,3.39,3.39,0,0,1,2.26-1,2.72,2.72,0,0,1,1.18.27,3.45,3.45,0,0,1,1,.64,3.09,3.09,0,0,1,.74.95,2,2,0,0,1,.31,1,6.14,6.14,0,0,1-.17,1.39,6.35,6.35,0,0,1-.44,1.21,3.31,3.31,0,0,1-.54.88.85.85,0,0,1-.61.34,2,2,0,0,1-.95-.34,3.64,3.64,0,0,1-.91-.71.39.39,0,0,1-.1-.4,1,1,0,0,1,.37-.41,3.3,3.3,0,0,0,.91-.81,3.5,3.5,0,0,0,.64-1.11,1.6,1.6,0,0,0,.17-1,.41.41,0,0,0-.44-.33,2,2,0,0,0-1.41.77,8.11,8.11,0,0,0-1.29,1.93,13.66,13.66,0,0,0-.88,2.53,9.55,9.55,0,0,0-.3,2.5,4.13,4.13,0,0,0,.47,1.93,1.64,1.64,0,0,0,1.52.77,2.9,2.9,0,0,0,2.06-.91,9.54,9.54,0,0,0,1.76-2.23,20.9,20.9,0,0,0,1.42-2.84c.43-1,.8-1.87,1.11-2.63a.39.39,0,0,1,.27-.24.41.41,0,0,1,.31,0,.62.62,0,0,1,.27.24.35.35,0,0,1,0,.37c-.32.79-.71,1.74-1.18,2.87a25.47,25.47,0,0,1-1.66,3.25,11.55,11.55,0,0,1-2.16,2.63,4,4,0,0,1-2.74,1.08Z" />
      <path
         id="path4927"
         class="cls-5"
         d="M247.44,186a.93.93,0,0,1,.33-.07,8.15,8.15,0,0,0,1-.17l1-.27a9.63,9.63,0,0,0,.85-1.55,13.67,13.67,0,0,0,.67-1.89,14.12,14.12,0,0,0,.48-2,10.87,10.87,0,0,0,.17-1.79,3.06,3.06,0,0,0-.21-1.28.85.85,0,0,0-.57-.57,1.06,1.06,0,0,0-.78.1,2.72,2.72,0,0,0-.88.71,8,8,0,0,0-1.25,2,11.91,11.91,0,0,0-.81,2.47,11.45,11.45,0,0,0-.27,2.43,4.4,4.4,0,0,0,.31,1.83ZM248.79,175a1.86,1.86,0,0,1,1.21-.14,2.91,2.91,0,0,1,1.19.51,4.09,4.09,0,0,1,1.48.27,3.92,3.92,0,0,1,1.22.64,3,3,0,0,1,.84,1,2.17,2.17,0,0,1,.31,1.11,10.91,10.91,0,0,1-.27,2.37,12.84,12.84,0,0,1-.71,2.36,13,13,0,0,0,2-2.19,12.53,12.53,0,0,0,1.49-2.67.39.39,0,0,1,.27-.24.5.5,0,0,1,.34,0,.42.42,0,0,1,.23.24.43.43,0,0,1,0,.37,13.17,13.17,0,0,1-5.27,6.29,9.8,9.8,0,0,1-2.23,2.56,4.55,4.55,0,0,1-2.81,1,3.36,3.36,0,0,1-1.65-.4,4.31,4.31,0,0,1-1.22-1,5.24,5.24,0,0,1-.74-1.35,4.14,4.14,0,0,1-.27-1.42,12.41,12.41,0,0,1,.3-2.63,16.15,16.15,0,0,1,.91-2.67,10.22,10.22,0,0,1,1.42-2.3,6.14,6.14,0,0,1,1.93-1.62Z" />
      <path
         id="path4929"
         class="cls-5"
         d="M254.53,195q0-1.41.21-3.51c.13-1.38.32-2.82.57-4.33s.49-3,.78-4.49.58-2.82.88-4a26.34,26.34,0,0,1,.91-2.9c.29-.75.56-1.12.81-1.12a2.69,2.69,0,0,1,.74.17,6.29,6.29,0,0,1,1,.34,4.06,4.06,0,0,1,.85.47c.25.16.37.31.37.44a.51.51,0,0,1-.07.17,1.84,1.84,0,0,1-.23.27.73.73,0,0,0-.17.27,10.29,10.29,0,0,0-.61,1.28c-.18.48-.36,1-.54,1.63q.51-.94,1.08-1.83c.38-.61.78-1.19,1.18-1.76a5.72,5.72,0,0,1,1.08-1.11,1.82,1.82,0,0,1,1.15-.48,2.06,2.06,0,0,1,1.05.31,3.5,3.5,0,0,1,.88.74,4.13,4.13,0,0,1,.61,1,2.34,2.34,0,0,1,.23.92,8.9,8.9,0,0,1-.57,3,28.4,28.4,0,0,1-1.35,3,12.22,12.22,0,0,0,2.23-2.16,13,13,0,0,0,1.79-3.14.37.37,0,0,1,.27-.24.5.5,0,0,1,.34,0,.42.42,0,0,1,.23.24.43.43,0,0,1,0,.37,13.17,13.17,0,0,1-6.09,6.76,11.25,11.25,0,0,1-2.09,2.23,3.34,3.34,0,0,1-2,.84,3.5,3.5,0,0,1-1.18-.17,2.25,2.25,0,0,1-.75-.47c-.15.88-.3,1.73-.44,2.57s-.21,1.61-.3,2.33-.16,1.41-.2,2-.07,1.06-.07,1.42a.36.36,0,0,1-.41.41,2.39,2.39,0,0,1-.71-.14,3.77,3.77,0,0,1-.7-.34,2.25,2.25,0,0,1-.58-.47.82.82,0,0,1-.24-.54Zm8.59-18.31a20.43,20.43,0,0,0-2.74,4.19,28.38,28.38,0,0,0-1.76,4.59,3.06,3.06,0,0,0-.1.41,1,1,0,0,1-.07.37,2.47,2.47,0,0,1,.88-.27,4.38,4.38,0,0,0,.88-.17l1.05-.3a14.58,14.58,0,0,0,1-1.59,16.4,16.4,0,0,0,.91-2,18,18,0,0,0,.68-2.23,13.59,13.59,0,0,0,.33-2.29c0-.7-.17-1-.5-1a.66.66,0,0,0-.54.3Z" />
      <path
         id="path4931"
         class="cls-5"
         d="M271.75,188.39a4.92,4.92,0,0,1-2.5-.57,4,4,0,0,1-1.42-1.55,5.73,5.73,0,0,1-.54-2.17,9.6,9.6,0,0,1,.2-2.5,15,15,0,0,1,.85-2.5,10.42,10.42,0,0,1,1.28-2.2,7.79,7.79,0,0,1,1.59-1.52,3.15,3.15,0,0,1,1.79-.6,2.46,2.46,0,0,1,1.08.3,4.63,4.63,0,0,1,1.19.74,5.28,5.28,0,0,1,.91,1.05,2.12,2.12,0,0,1,.37,1.11,4.12,4.12,0,0,1-.61,2.2,6.61,6.61,0,0,1-1.55,1.79,8.31,8.31,0,0,1-2.06,1.19,5.92,5.92,0,0,1-2.07.4,4.82,4.82,0,0,0,.38,2.3,1.68,1.68,0,0,0,1.65.94,2.8,2.8,0,0,0,2-.91,10.47,10.47,0,0,0,1.79-2.23,20.15,20.15,0,0,0,1.49-2.84c.45-1,.82-1.87,1.11-2.63a.32.32,0,0,1,.24-.24.49.49,0,0,1,.34,0,.62.62,0,0,1,.27.24.35.35,0,0,1,0,.37c-.32.83-.72,1.82-1.22,2.94a20.77,20.77,0,0,1-1.69,3.24,12.57,12.57,0,0,1-2.19,2.61,4,4,0,0,1-2.64,1Zm1.35-11.59a4.56,4.56,0,0,0-1,1,10.39,10.39,0,0,0-.81,1.45,13.13,13.13,0,0,0-.64,1.73,13,13,0,0,0-.34,1.76,2.32,2.32,0,0,0,1.35-.48,4.67,4.67,0,0,0,1.25-1.22,6.34,6.34,0,0,0,.92-1.75,6.2,6.2,0,0,0,.33-2c0-.37-.12-.59-.37-.68a.63.63,0,0,0-.71.13Z" />
      <path
         id="path4933"
         class="cls-5"
         d="M283.08,185.08v-.23a1.55,1.55,0,0,0,0-.31,12.53,12.53,0,0,1-.81,1.49,7,7,0,0,1-.91,1.21,4.5,4.5,0,0,1-1.05.85,2.32,2.32,0,0,1-1.15.3,2.11,2.11,0,0,1-1.85-.81,3.89,3.89,0,0,1-.61-1.92,13.22,13.22,0,0,1,.2-2.94,15.18,15.18,0,0,1,.85-3.11,11.52,11.52,0,0,1,1.45-2.74,6.51,6.51,0,0,1,2.09-1.89,1.38,1.38,0,0,1,.85-.2,2,2,0,0,1,.84.17,3.78,3.78,0,0,1,.85.37l.77.37c.28-1.22.54-2.37.82-3.45s.58-2.07.87-2.9a21.27,21.27,0,0,1,.81-2c.25-.49.48-.74.68-.74a2.69,2.69,0,0,1,.74.17,6.29,6.29,0,0,1,1,.34,4.81,4.81,0,0,1,.88.44c.25.15.37.3.37.43s0,.15-.1.17a1.19,1.19,0,0,1-.23.31.73.73,0,0,0-.17.27,19.07,19.07,0,0,0-1.35,3.31c-.46,1.44-.89,3-1.32,4.7s-.78,3.33-1.12,5-.55,3.06-.71,4.25c-.09.75.09.87.54.38a10.71,10.71,0,0,0,1.39-1.83c.43-.72.82-1.45,1.18-2.2s.72-1.47,1-2.19.54-1.36.74-1.93a.59.59,0,0,1,.27-.27.5.5,0,0,1,.34,0,.42.42,0,0,1,.23.24.43.43,0,0,1,0,.37c-.16.38-.36.89-.61,1.52s-.54,1.32-.88,2.06-.71,1.45-1.11,2.2a18.64,18.64,0,0,1-1.29,2,7.84,7.84,0,0,1-1.42,1.45,2.25,2.25,0,0,1-1.42.57,1.54,1.54,0,0,1-1.08-.34,1.87,1.87,0,0,1-.54-.81,4.15,4.15,0,0,1-.13-1.08q0-.57,0-1.08Zm.54-8.75a2,2,0,0,0-1.55.88,9,9,0,0,0-1.19,2.19,19.94,19.94,0,0,0-.84,2.74,17.88,17.88,0,0,0-.44,2.54,3.59,3.59,0,0,0,.1,1.38c.14.32.33.48.58.48s.8-.37,1.25-1.09a14.84,14.84,0,0,0,1.11-2.09c.36-.83.69-1.67,1-2.5.11-.65.23-1.31.34-2s.27-1.35.4-2a.77.77,0,0,0-.74-.54Z" />
      <path
         id="path4935"
         class="cls-5"
         d="M294.39,186.1a3.74,3.74,0,0,0,.06-.65c0-.2.06-.41.1-.64a.45.45,0,0,0,0-.24,13.46,13.46,0,0,1-1.69,2.71,2.74,2.74,0,0,1-2.1,1.11,2.14,2.14,0,0,1-1.58-.57,2.73,2.73,0,0,1-.65-1.52,12,12,0,0,1,.07-3.08,15.58,15.58,0,0,1,.91-3.27,13.32,13.32,0,0,1,1.59-2.94,6.85,6.85,0,0,1,2.23-2,1.29,1.29,0,0,1,.81-.2,2.26,2.26,0,0,1,.88.17,4.72,4.72,0,0,1,.88.37c.29.16.6.31.91.47a.38.38,0,0,0,.1-.2c0-.09.05-.17.07-.24.14-.29.31-.44.51-.44a1.94,1.94,0,0,1,.54.1,3.61,3.61,0,0,1,.64.27,3.47,3.47,0,0,1,.54.31,4.09,4.09,0,0,1,.44.3.36.36,0,0,1,.1.51,3.4,3.4,0,0,0-.27.54c-.27.74-.53,1.53-.78,2.36s-.47,1.67-.67,2.5-.38,1.65-.54,2.44-.29,1.45-.41,2.06c0,.25,0,.38.1.4s.24,0,.38-.16a10.33,10.33,0,0,0,1.42-1.83,20.86,20.86,0,0,0,1.21-2.23c.36-.76.68-1.52.95-2.26l.78-2a.53.53,0,0,1,.26-.27.5.5,0,0,1,.34,0,.43.43,0,0,1,.24.24.4.4,0,0,1,0,.37l-.61,1.52c-.22.63-.5,1.32-.84,2.06s-.71,1.45-1.11,2.2a17.12,17.12,0,0,1-1.25,2,7.62,7.62,0,0,1-1.36,1.45,2.24,2.24,0,0,1-1.41.57,1.63,1.63,0,0,1-.82-.2,2.33,2.33,0,0,1-.6-.54,2.94,2.94,0,0,1-.38-.75,2.39,2.39,0,0,1-.06-.8Zm-2.61.54a1.18,1.18,0,0,0,.85-.54,11.44,11.44,0,0,0,.88-1.42,18.28,18.28,0,0,0,.88-1.93c.27-.72.51-1.41.74-2.06s.45-1.29.61-1.83l.4-1.21c.05-.16.09-.3.14-.44s.13-.31.2-.44a.89.89,0,0,0-.81-.44,2.2,2.2,0,0,0-1.66.95,10,10,0,0,0-1.31,2.33,18.22,18.22,0,0,0-.95,2.87,15.34,15.34,0,0,0-.4,2.57c0,.09,0,.22,0,.4a3.27,3.27,0,0,0,0,.54,1.25,1.25,0,0,0,.13.44.33.33,0,0,0,.31.21Z" />
      <path
         id="path4937"
         class="cls-5"
         d="M305.77,184.68a12.79,12.79,0,0,1-1.69,2.63,2.73,2.73,0,0,1-2.06,1.08,2.15,2.15,0,0,1-1.59-.57,2.56,2.56,0,0,1-.67-1.52,10.83,10.83,0,0,1,.1-3.08,15,15,0,0,1,.91-3.27,13.32,13.32,0,0,1,1.59-2.94,6.75,6.75,0,0,1,2.23-2,1.35,1.35,0,0,1,.84-.2,3.58,3.58,0,0,1,.95.2,6.46,6.46,0,0,1,.84.4l.85.41a1.24,1.24,0,0,0,.06-.2.88.88,0,0,1,.11-.24c.11-.29.27-.44.47-.44a2.61,2.61,0,0,1,1.18.37,6.62,6.62,0,0,1,1,.61.34.34,0,0,1,.13.34,1.19,1.19,0,0,1-.13.34,3.69,3.69,0,0,0-.31.84c-.38,1.2-.73,2.39-1,3.58s-.57,2.32-.82,3.38l-.06.31a22.14,22.14,0,0,0,2.53-2.81,14.76,14.76,0,0,0,2-3.65.43.43,0,0,1,.24-.27.47.47,0,0,1,.33,0,.6.6,0,0,1,.28.24.34.34,0,0,1,0,.34,15.94,15.94,0,0,1-2.51,4.43,24.28,24.28,0,0,1-3.21,3.27c-.24,1.1-.51,2.2-.81,3.28s-.63,2.15-1,3.21a7.28,7.28,0,0,1-1.62,2.7,3.82,3.82,0,0,1-2.94,1.05,3,3,0,0,1-1.22-.27,2.34,2.34,0,0,1-1-.81,2.58,2.58,0,0,1-.47-1.12,3.08,3.08,0,0,1,0-1.21,4,4,0,0,1,.41-1.15,4.15,4.15,0,0,1,.67-1,6.32,6.32,0,0,1,1-1c.38-.3.78-.58,1.18-.85s.81-.53,1.22-.78.82-.49,1.18-.74c.14-.47.27-.94.41-1.42l.4-1.48Zm1.08-8.35a2.09,2.09,0,0,0-1.62.95,10,10,0,0,0-1.32,2.33,18.2,18.2,0,0,0-.94,2.87,16.6,16.6,0,0,0-.41,2.57,3.94,3.94,0,0,1,0,.4,4.89,4.89,0,0,0,0,.54,1.26,1.26,0,0,0,.14.44.31.31,0,0,0,.3.21,1.17,1.17,0,0,0,.84-.54,9.47,9.47,0,0,0,.88-1.42,20.64,20.64,0,0,0,.85-1.93c.29-.72.55-1.41.77-2.06s.43-1.29.61-1.83l.41-1.21c0-.16.09-.3.13-.44a4.31,4.31,0,0,0,.17-.44.89.89,0,0,0-.81-.44Zm-5.27,18.55a1.38,1.38,0,0,0,.91-.44,2.87,2.87,0,0,0,.78-1.31c.2-.59.4-1.23.61-1.93s.45-1.43.67-2.2c-.38.27-.81.55-1.28.85a12.14,12.14,0,0,0-1.35,1,5.9,5.9,0,0,0-1,1.25,2.58,2.58,0,0,0-.38,1.49,2.22,2.22,0,0,0,.27.85.9.9,0,0,0,.78.4Z" />
      <path
         id="path4939"
         class="cls-5"
         d="M314.22,186a1,1,0,0,1,.34-.07,8.52,8.52,0,0,0,1-.17l1-.27a10.49,10.49,0,0,0,.84-1.55,13.71,13.71,0,0,0,.68-1.89,15.63,15.63,0,0,0,.47-2,10.87,10.87,0,0,0,.17-1.79,3.25,3.25,0,0,0-.2-1.28.88.88,0,0,0-.58-.57,1,1,0,0,0-.77.1,2.53,2.53,0,0,0-.88.71,7.73,7.73,0,0,0-1.25,2,11.91,11.91,0,0,0-.81,2.47,11.45,11.45,0,0,0-.27,2.43,4.59,4.59,0,0,0,.3,1.83ZM315.57,175a1.89,1.89,0,0,1,1.22-.14,2.93,2.93,0,0,1,1.18.51,4.18,4.18,0,0,1,1.49.27,3.86,3.86,0,0,1,1.21.64,3.05,3.05,0,0,1,.85,1,2.26,2.26,0,0,1,.3,1.11,10.91,10.91,0,0,1-.27,2.37,12.11,12.11,0,0,1-.71,2.36,12.89,12.89,0,0,0,3.48-4.86.39.39,0,0,1,.27-.24.5.5,0,0,1,.34,0,.47.47,0,0,1,.24.24.43.43,0,0,1,0,.37,13.11,13.11,0,0,1-5.27,6.29,9.44,9.44,0,0,1-2.23,2.56,4.55,4.55,0,0,1-2.8,1,3.42,3.42,0,0,1-1.66-.4,4.45,4.45,0,0,1-1.22-1,5.56,5.56,0,0,1-.74-1.35,4.14,4.14,0,0,1-.27-1.42,12.41,12.41,0,0,1,.3-2.63,15.3,15.3,0,0,1,.92-2.67,9.55,9.55,0,0,1,1.42-2.3,6.11,6.11,0,0,1,1.92-1.62Z" />
      <path
         id="path4941"
         class="cls-5"
         d="M328.08,184.68a12.79,12.79,0,0,1-1.69,2.63,2.73,2.73,0,0,1-2.06,1.08,2.15,2.15,0,0,1-1.59-.57,2.57,2.57,0,0,1-.68-1.52,11.21,11.21,0,0,1,.1-3.08,15.58,15.58,0,0,1,.91-3.27,13.32,13.32,0,0,1,1.59-2.94,6.85,6.85,0,0,1,2.23-2,1.38,1.38,0,0,1,.85-.2,3.51,3.51,0,0,1,.94.2,6,6,0,0,1,.85.4l.84.41a.66.66,0,0,0,.07-.2.87.87,0,0,1,.1-.24c.12-.29.27-.44.47-.44a2.64,2.64,0,0,1,1.19.37,6,6,0,0,1,1,.61.35.35,0,0,1,.14.34,1.22,1.22,0,0,1-.14.34,4.21,4.21,0,0,0-.3.84c-.39,1.2-.74,2.39-1.05,3.58s-.56,2.32-.81,3.38l-.07.31a22.21,22.21,0,0,0,2.54-2.81,14.74,14.74,0,0,0,2-3.65.46.46,0,0,1,.24-.27.49.49,0,0,1,.34,0,.62.62,0,0,1,.27.24.3.3,0,0,1,0,.34,15.92,15.92,0,0,1-2.5,4.43,24.28,24.28,0,0,1-3.21,3.27c-.25,1.1-.52,2.2-.81,3.28s-.63,2.15-1,3.21a7.29,7.29,0,0,1-1.63,2.7,3.82,3.82,0,0,1-2.94,1.05,3,3,0,0,1-1.21-.27,2.28,2.28,0,0,1-1-.81,2.6,2.6,0,0,1-.48-1.12,3.29,3.29,0,0,1,0-1.21,3.94,3.94,0,0,1,.4-1.15,4.19,4.19,0,0,1,.68-1,5.87,5.87,0,0,1,1-1c.39-.3.78-.58,1.19-.85s.81-.53,1.21-.78.82-.49,1.18-.74c.14-.47.27-.94.41-1.42S327.94,185.17,328.08,184.68Zm1.08-8.35a2.11,2.11,0,0,0-1.63.95,10,10,0,0,0-1.31,2.33,18.22,18.22,0,0,0-1,2.87,16.45,16.45,0,0,0-.4,2.57c0,.09,0,.22,0,.4a3.27,3.27,0,0,0,0,.54,1.25,1.25,0,0,0,.13.44.33.33,0,0,0,.31.21,1.17,1.17,0,0,0,.84-.54,10.36,10.36,0,0,0,.88-1.42c.29-.59.57-1.23.84-1.93s.55-1.41.78-2.06.43-1.29.61-1.83l.4-1.21c0-.16.09-.3.14-.44s.12-.31.17-.44a.89.89,0,0,0-.81-.44Zm-5.27,18.55a1.4,1.4,0,0,0,.91-.44,3.05,3.05,0,0,0,.78-1.31c.2-.59.4-1.23.6-1.93s.45-1.43.68-2.2c-.38.27-.81.55-1.28.85a11.38,11.38,0,0,0-1.36,1,6.23,6.23,0,0,0-1,1.25,2.65,2.65,0,0,0-.37,1.49,1.93,1.93,0,0,0,.27.85.9.9,0,0,0,.78.4Z" />
      <path
         id="path4943"
         class="cls-5"
         d="M333.35,186.1a3.79,3.79,0,0,0,.07-.65,5.59,5.59,0,0,1,.1-.64,46.3,46.3,0,0,1,1.05-4.9,33.24,33.24,0,0,1,1.55-4.56c.14-.29.3-.44.51-.44a2.08,2.08,0,0,1,.54.1,3.61,3.61,0,0,1,.64.27,3.47,3.47,0,0,1,.54.31,4.09,4.09,0,0,1,.44.3.36.36,0,0,1,.1.51,2.13,2.13,0,0,0-.24.54c-.29.74-.57,1.53-.84,2.36s-.49,1.67-.71,2.5-.43,1.65-.61,2.44-.29,1.45-.4,2.06c0,.25,0,.38.1.4s.23,0,.37-.16a10.92,10.92,0,0,0,1.45-1.83,20.94,20.94,0,0,0,1.22-2.23c.38-.76.72-1.52,1-2.26s.59-1.41.81-2a.59.59,0,0,1,.27-.27.5.5,0,0,1,.34,0,.47.47,0,0,1,.24.24.43.43,0,0,1,0,.37c-.16.38-.36.89-.61,1.52s-.54,1.32-.88,2.06-.71,1.45-1.11,2.2a18.61,18.61,0,0,1-1.28,2,8.52,8.52,0,0,1-1.42,1.45,2.29,2.29,0,0,1-1.42.57,1.7,1.7,0,0,1-.81-.2,2.22,2.22,0,0,1-.61-.54,2.63,2.63,0,0,1-.37-.75,2.39,2.39,0,0,1-.07-.8Z" />
      <path
         id="path4945"
         class="cls-5"
         d="M344.87,186.1a3,3,0,0,0,.07-.65,5.59,5.59,0,0,1,.1-.64.62.62,0,0,0,0-.24,13,13,0,0,1-1.69,2.71,2.73,2.73,0,0,1-2.09,1.11,2.15,2.15,0,0,1-1.59-.57,2.72,2.72,0,0,1-.64-1.52,12,12,0,0,1,.07-3.08A15,15,0,0,1,340,180a13.32,13.32,0,0,1,1.59-2.94,6.66,6.66,0,0,1,2.23-2,1.29,1.29,0,0,1,.81-.2,2.33,2.33,0,0,1,.88.17,4.64,4.64,0,0,1,.87.37l.92.47a.47.47,0,0,0,.1-.2,1.37,1.37,0,0,1,.07-.24c.13-.29.3-.44.5-.44a1.94,1.94,0,0,1,.54.1,3.32,3.32,0,0,1,.64.27,3.17,3.17,0,0,1,.55.31,3.84,3.84,0,0,1,.43.3.36.36,0,0,1,.11.51,2.27,2.27,0,0,0-.27.54c-.27.74-.53,1.53-.78,2.36s-.47,1.67-.68,2.5-.38,1.65-.54,2.44-.29,1.45-.4,2.06c-.05.25,0,.38.1.4a.41.41,0,0,0,.37-.16,9.88,9.88,0,0,0,1.42-1.83,22.89,22.89,0,0,0,1.22-2.23c.36-.76.67-1.52.94-2.26l.78-2a.59.59,0,0,1,.27-.27.5.5,0,0,1,.34,0,.42.42,0,0,1,.23.24.43.43,0,0,1,0,.37c-.16.38-.36.89-.61,1.52s-.51,1.32-.85,2.06-.71,1.45-1.11,2.2a14.84,14.84,0,0,1-1.25,2,7.92,7.92,0,0,1-1.35,1.45,2.29,2.29,0,0,1-1.42.57,1.62,1.62,0,0,1-.81-.2,2.22,2.22,0,0,1-.61-.54,2.63,2.63,0,0,1-.37-.75,2.39,2.39,0,0,1-.07-.8Zm-2.6.54a1.17,1.17,0,0,0,.84-.54,9.47,9.47,0,0,0,.88-1.42,16.46,16.46,0,0,0,.88-1.93c.27-.72.52-1.41.74-2.06s.45-1.29.61-1.83l.41-1.21c0-.16.09-.3.13-.44l.2-.44a.88.88,0,0,0-.81-.44,2.19,2.19,0,0,0-1.65.95,9.68,9.68,0,0,0-1.32,2.33,19.31,19.31,0,0,0-.95,2.87,16.45,16.45,0,0,0-.4,2.57,3.94,3.94,0,0,1,0,.4,4.89,4.89,0,0,0,0,.54,1.5,1.5,0,0,0,.13.44.33.33,0,0,0,.31.21Z" />
    </g>
    <g
       id="g4951">
      <path
         id="path4949"
         class="cls-5"
         d="M338.94,173.81a1,1,0,0,1-.73-.29,1.08,1.08,0,0,1-.29-.74,1.56,1.56,0,0,1,.15-.56l2.69-6a1.8,1.8,0,0,1,.66-.84,1.64,1.64,0,0,1,1-.29,1.79,1.79,0,0,1,1.27.52,1.68,1.68,0,0,1,.57,1.3,2.64,2.64,0,0,1-.63,1.62l-3.73,4.79A1.12,1.12,0,0,1,338.94,173.81Z" />
    </g>
  </g>
</svg>
