<svg id="svg5211" xmlns="http://www.w3.org/2000/svg" viewBox="0 0 440.64 267.84"><defs><style>.cls-1{fill:#eaad2b;}.cls-2{fill:#bf8f25;}.cls-3{fill:#009f98;}.cls-4{fill:#1d1d1b;}.cls-5{fill:#c55a8b;}.cls-6{fill:#1b83c0;}.cls-7{fill:#fff;}.cls-8{isolation:isolate;}</style></defs><g id="g4897"><path id="path4873" class="cls-1" d="M123.81,80.31l1.29-22.43,4.37,10.17,2.62-9.9,4.81,9.77,3.86-11.34,4.38,10.91,3.64-9.77,3.31,9.81,5.18-10.19.7,23Z"/><path id="ellipse4875" class="cls-2" d="M140.89,76.61c9.44,0,17.1,1.55,17.1,3.46s-7.66,3.46-17.1,3.46-17.1-1.55-17.1-3.46S131.45,76.61,140.89,76.61Z"/><path id="circle4877" class="cls-1" d="M125.16,55.82a1.87,1.87,0,1,1-1.87,1.87A1.87,1.87,0,0,1,125.16,55.82Z"/><path id="circle4879" class="cls-1" d="M132.12,55.2a1.87,1.87,0,1,1-1.87,1.87A1.87,1.87,0,0,1,132.12,55.2Z"/><path id="circle4881" class="cls-1" d="M148.77,54.7a1.87,1.87,0,1,1-1.87,1.87A1.87,1.87,0,0,1,148.77,54.7Z"/><path id="circle4883" class="cls-1" d="M157.21,54.79a1.87,1.87,0,1,1-1.87,1.87A1.87,1.87,0,0,1,157.21,54.79Z"/><path id="circle4885" class="cls-1" d="M141,51.94A3.07,3.07,0,1,1,137.9,55,3.06,3.06,0,0,1,141,51.94Z"/><path id="path4887" class="cls-1" d="M138.53,35.68h5.11l-2.46,10.89Z"/><path id="path4889" class="cls-1" d="M157.11,37.69l3.72,2.62L153.47,47Z"/><path id="path4891" class="cls-1" d="M123.3,39.47l-3.72,2.61,7.36,6.67Z"/><path id="path4893" class="cls-1" d="M110.31,60.86l-.78,4.49,8.68-1.06Z"/><path id="path4895" class="cls-1" d="M171,60.68,172,65.1l-8.72-.51Z"/></g><path id="path4899" class="cls-3" d="M123.93,125.31l4.82-45s13.44-4,25.07,0l4.05,45.39s-21.59-1.84-33.94-.45Z"/><path id="path6001" class="cls-4" d="M163.32,197.43a557.11,557.11,0,0,0-97.67,4.76.9.9,0,0,0,.28,1.78h0s80-12.37,150.75,1.17a.91.91,0,0,0,1.06-.72.9.9,0,0,0-.72-1A372.66,372.66,0,0,0,163.32,197.43Z"/><path id="path4903" class="cls-5" d="M119.05,171.18l-4.7,42.9a78.42,78.42,0,0,0,51.72,0l-4-43c-19.4,1-27.22,3.31-43,.1Z"/><path id="path4905" class="cls-6" d="M123.89,125.29l-4.84,45.91a96.41,96.41,0,0,0,43.05.05l-4.24-45.53s-11.71-2.61-34-.43Z"/><rect id="rect4907" class="cls-7" x="136.52" y="92.93" width="7.56" height="15.16"/><rect id="rect4909" class="cls-7" x="136.52" y="140.63" width="7.56" height="15.16"/><rect id="rect4911" class="cls-7" x="136.52" y="186.84" width="7.56" height="15.16"/><path id="path4913" class="cls-4" d="M99.26,192.24a4.2,4.2,0,0,0-.07-1.68,9.81,9.81,0,0,1-.28-1.29c-.09.28-.88.09-.88.09a.77.77,0,0,0-.16,1.15,1.07,1.07,0,0,1,0,1.27A11,11,0,0,0,96.54,190c-.38-.81.91-2.09.91-2.09.22-.58,1.1-.27,1.1-.27.06-.31.74-.82.74-.82a2,2,0,0,1,2.41.29c.61.31.1,1.93.1,1.93l0,1.24c-.28.89-1.46.8-1.46.8l-.13,1a8.1,8.1,0,0,0,1.75.56,8.33,8.33,0,0,0,2.09,1.46.87.87,0,0,0,.71-.38,8.42,8.42,0,0,0,1.06-1.55,2.21,2.21,0,0,1-.19-1.33s.73-.68,1-.56c0,0,1.1.69.63,1.64,0,0-1.12,2.66-2.34,3.13a4.62,4.62,0,0,1-2.45-.16.63.63,0,0,0-.76.53s-.38,2-.1,2.4a34.4,34.4,0,0,1,1.64,3l-.61.46s.89,3.7,1.09,3.93c0,0,2.24.65,2.41.68a6.47,6.47,0,0,1-2.84,1.15s-1.67-5.4-1.93-5.6l-1.15,0s-.77,2.81-1.81,3c0,0-.85.31-2-1.7l-.45-.49s0,1.62-.62,1.62l-.6,0s.1-2.92.46-3.3c0,0,1.3.17,1.54,1,0,0,.93,1,1.17.75l.28-1-1.05-.12,1.18-3.71a5.16,5.16,0,0,0-.94-3.43,44.35,44.35,0,0,0-3.28-3s-.83.42-1.69-1a2.66,2.66,0,0,1-.42-1.23l-4.12-6.75.28,5.51s2.18,9.3,2.39,9.38c0,0,2.46,7.71,2.56,7.88l.17.32a41.15,41.15,0,0,1,4.31.8s.91.37,0,.93c0,0-5,1.27-5.44,1.35A16.84,16.84,0,0,0,91,206.12l-.67-.05s-4.3-12-4.18-12.89c0,0-.9,10-2,11.35,0,0-1.27,1.42-1.45,1.56,0,0,2.12,3,2.18,3.63a1.27,1.27,0,0,1-.85.57l-4.85-2.58s1-2.9,1.56-3.09c0,0,3.38-8.14,2.43-10.74,0,0-3-9.93-3.46-11.09a67.33,67.33,0,0,0-.11,8.05l-.17,3s.95,1.29-.14,1.82a1.4,1.4,0,0,1-2.14-.15s-.52-1.14-.22-1.51c0,0-5-3.91-5.23-5.43L70,185.32s-.32,2.66-.32,3.47c.23.56,2.35,8.31,2.09,10.08l-1.08.29s1,7.17.83,8.06c0,0,3.12,1.2,3.23,1.89a20.78,20.78,0,0,0-3.6,0L69.91,209s.45-6-.07-7.44l-.67-2.08a5.53,5.53,0,0,1-2.55.28s-1.34,3-1.91,3.31a34.44,34.44,0,0,1-3.14,2h0s-.47,3.6-1,4.15a34.72,34.72,0,0,0-1.11-4.06s4.75-2.82,4.28-3.16c0,0,1.33-2.09,1.21-2.58,0,0-2.71-.15-2.82-.67,0,0,2.86-8.68,2.39-9,0,0,.06-.51-.87-.45,0,0-1.73-.41-1.6-.77,0,0,.73-5.53.76-5.85,0,0-.28-1-.42-.81s-.26.27-.66.36a1.34,1.34,0,0,1-.75-.43,1.87,1.87,0,0,0-1-.55s-.76-.2-.74-.83c0,0,0-.59.47-.53a1.31,1.31,0,0,1,.86.69,3.33,3.33,0,0,1,.95.56,5,5,0,0,0,.54-.6s-1.81-.91-1.25-2.51c0,0,.62-.9,1.71.11a2.41,2.41,0,0,1,.53,1.83,2.54,2.54,0,0,1,2,.6,4.26,4.26,0,0,1,1.2-.54l-.09-1.38a7.9,7.9,0,0,1-1.47.51s-1.42-4.47.76-5.82c0,0,1.66-1.13,2.38-.12A5,5,0,0,1,69,177.73l-1.52.69s.38,1.17.44,1.44c0,0,1.91.19,2.43,1.31.21.29,2.93,6.58,2.93,6.58s4,5,4.25,5.22c0,0-.09-.4.06-.58,0,0-.63-11.76-.21-12.28,0,0,1.64-2.91,3.57-3,0,0-3-6.2-2.09-7.5,0,0,1.36-1.34,2.56-1,0,0,1-.55,1.08-1,0,0,.87.27.36,1.53,0,0,1.27,3.33.9,4.8,0,0-1.36.39-1.3.87,0,0,.56,1.49.64,1.82a5.35,5.35,0,0,1,5.2,2.1s4.61,8.23,5.17,9.18c0,0,1.27,1.29,1.23,2.14,0,0,1.67,1.78,2.34,1.91a1.58,1.58,0,0,0,2.21.33Z"/><g id="text4917" class="cls-8"><g class="cls-8"><path class="cls-4" d="M192.2,106.55v13H215v9.13H192.2V146.6H180.82V97.42H218v9.13Z"/><path class="cls-4" d="M256.07,136.06H233.23l-4.35,10.54H217.21l21.92-49.18h11.24l22,49.18H260.42Zm-3.59-8.64-7.8-18.83-7.79,18.83Z"/><path class="cls-4" d="M308.83,146.6l-9.48-13.7H288.88v13.7H277.5V97.42h21.28a27.36,27.36,0,0,1,11.35,2.17,16.29,16.29,0,0,1,10,15.67A16,16,0,0,1,310,130.79l11,15.81ZM306,108.9q-2.67-2.2-7.8-2.21h-9.27v17.14h9.27c3.42,0,6-.74,7.8-2.24a8.87,8.87,0,0,0,0-12.69Z"/><path class="cls-4" d="M339.15,144.14a24.54,24.54,0,0,1-9.63-9.1,26.22,26.22,0,0,1,0-26.07,24.52,24.52,0,0,1,9.63-9.09,30.38,30.38,0,0,1,27.58,0,25.09,25.09,0,0,1,0,44.26,30.46,30.46,0,0,1-27.58,0Zm21.68-8.4a14.28,14.28,0,0,0,5.51-5.58,17.61,17.61,0,0,0,0-16.3,14.37,14.37,0,0,0-5.51-5.59,16.48,16.48,0,0,0-15.74,0,14.4,14.4,0,0,0-5.52,5.59,17.61,17.61,0,0,0,0,16.3,14.31,14.31,0,0,0,5.52,5.58,16.41,16.41,0,0,0,15.74,0Z"/></g></g><g id="g4953"><g id="g4947"><path id="path4919" class="cls-4" d="M207.25,176.9a33,33,0,0,1,.23-3.47c.18-1.38.41-2.82.68-4.33s.61-3,1-4.49.72-2.82,1.08-4,.7-2.16,1-2.9.63-1.12.88-1.12a2.77,2.77,0,0,1,.74.17,6.29,6.29,0,0,1,1,.34,5.2,5.2,0,0,1,.85.44c.24.15.37.3.37.43a.21.21,0,0,1-.07.17l-.24.31a.88.88,0,0,0-.16.27,16.08,16.08,0,0,0-1,2.3c-.34.94-.67,2-1,3.17s-.63,2.37-1,3.65-.55,2.49-.77,3.68q.7-2.29,1.52-4.52c.54-1.51,1.09-2.91,1.65-4.19a27.61,27.61,0,0,1,1.45-2.88,16,16,0,0,1,1.59-2.19,3.75,3.75,0,0,1,1.29-.95,3.32,3.32,0,0,1,1.42-.34,2.67,2.67,0,0,1,2.26,1,4.49,4.49,0,0,1,.91,2.46,9.83,9.83,0,0,1-.3,3.25,11.86,11.86,0,0,1-1.32,3.24,8.69,8.69,0,0,1-2.2,2.5,4.56,4.56,0,0,1-2.87,1,3.39,3.39,0,0,1-1.32-.27,3.05,3.05,0,0,1-1.08-.84.77.77,0,0,1-.13-.37.94.94,0,0,1,0-.41.39.39,0,0,1,.2-.27c.09-.05.2,0,.34.13a1.53,1.53,0,0,0,1.08.41,2.62,2.62,0,0,0,1.79-.74,6.85,6.85,0,0,0,1.39-1.86,10.52,10.52,0,0,0,.94-2.4,10.8,10.8,0,0,0,.37-2.43,4.56,4.56,0,0,0-.2-1.86.94.94,0,0,0-.91-.74c-.52,0-1.11.43-1.76,1.31a18.84,18.84,0,0,0-2,3.65c-.48,1.11-.95,2.29-1.42,3.55s-.89,2.54-1.32,3.85-.82,2.56-1.18,3.82-.63,2.43-.88,3.51c-.07.3-.28.44-.64.44a2.24,2.24,0,0,1-.71-.13,4.22,4.22,0,0,1-.71-.34,2.48,2.48,0,0,1-.58-.47.86.86,0,0,1-.23-.55Z"/><path id="path4921" class="cls-4" d="M222.93,178.6a2.93,2.93,0,0,1-1.38-.31,2.13,2.13,0,0,1-.82-.74,1.69,1.69,0,0,1-.27-1,2,2,0,0,1,.34-1.09,2.2,2.2,0,0,1,1-.91,4.78,4.78,0,0,1,1.35-.34l1.12-.1a6.55,6.55,0,0,0,1.05-.13,3.26,3.26,0,0,0-.54-1.39c-.3-.45-.6-.89-.92-1.32a16.15,16.15,0,0,1-.81-1.41,4,4,0,0,1-.37-1.76,3.43,3.43,0,0,1,.3-1.46,4,4,0,0,1,.85-1.08,4.19,4.19,0,0,1,1.18-.67,4.11,4.11,0,0,1,1.39-.24,1.66,1.66,0,0,1,.91.31,3.41,3.41,0,0,1,.91.7,4.65,4.65,0,0,1,.68,1,2.06,2.06,0,0,1,.27,1,1.71,1.71,0,0,1-.14.61,2.66,2.66,0,0,1-.3.64,1.88,1.88,0,0,1-.41.51.57.57,0,0,1-.37.2,2.88,2.88,0,0,1-1.18-.27c-.41-.2-.61-.39-.61-.57a.19.19,0,0,1,.07-.14A.87.87,0,0,0,227,168a2.13,2.13,0,0,0,.31-1,.88.88,0,0,0-.14-.51.44.44,0,0,0-.41-.24.75.75,0,0,0-.54.24,2.42,2.42,0,0,0-.4.57,4.79,4.79,0,0,0-.21.68,3.35,3.35,0,0,0-.06.57,2.88,2.88,0,0,0,.3,1.29,8.31,8.31,0,0,0,.71,1.11l.81,1.08a5.51,5.51,0,0,1,.71,1.12,6.7,6.7,0,0,0,2.27-2,10.77,10.77,0,0,0,1.35-2.74.42.42,0,0,1,.23-.27.5.5,0,0,1,.34,0,.39.39,0,0,1,.27.2.46.46,0,0,1,0,.38,10.54,10.54,0,0,1-1.66,3.21,8.07,8.07,0,0,1-2.53,2.09,3.3,3.3,0,0,1-.34,2,4.47,4.47,0,0,1-1.25,1.53,6.59,6.59,0,0,1-1.83.94,7,7,0,0,1-2,.31Zm2.33-3.65a5.55,5.55,0,0,1-1.32.13,4.12,4.12,0,0,0-1.31.14,1.06,1.06,0,0,0-.78.54,1,1,0,0,0-.1.78,1,1,0,0,0,.47.6,1.18,1.18,0,0,0,1,0,3.48,3.48,0,0,0,1.28-.87,3.38,3.38,0,0,0,.78-1.32Z"/><path id="path4923" class="cls-4" d="M229.52,176.1a3,3,0,0,0,.07-.65,5.59,5.59,0,0,1,.1-.64,46.3,46.3,0,0,1,1.05-4.9,33.24,33.24,0,0,1,1.55-4.56c.14-.29.31-.44.51-.44a1.94,1.94,0,0,1,.54.1,3.61,3.61,0,0,1,.64.27,3.47,3.47,0,0,1,.54.31,4.09,4.09,0,0,1,.44.3.35.35,0,0,1,.1.51,2.13,2.13,0,0,0-.24.54c-.29.74-.57,1.53-.84,2.36s-.48,1.67-.71,2.5-.43,1.65-.61,2.44-.29,1.45-.4,2.06c0,.25,0,.38.1.4a.41.41,0,0,0,.37-.16,10.92,10.92,0,0,0,1.45-1.83,20.94,20.94,0,0,0,1.22-2.23c.38-.76.72-1.52,1-2.26s.59-1.41.81-2a.56.56,0,0,1,.28-.27.47.47,0,0,1,.33,0,.43.43,0,0,1,.24.24.4.4,0,0,1,0,.37c-.15.38-.36.89-.6,1.52s-.55,1.32-.88,2.06-.71,1.45-1.12,2.2a17.21,17.21,0,0,1-1.28,2,8.16,8.16,0,0,1-1.42,1.45,2.27,2.27,0,0,1-1.42.57,1.73,1.73,0,0,1-.81-.2,2.22,2.22,0,0,1-.61-.54,2.63,2.63,0,0,1-.37-.75,2.39,2.39,0,0,1-.07-.8ZM235,158.83c.32-.63.59-1,.81-1a3.73,3.73,0,0,1,.88.31,5.62,5.62,0,0,1,1.12.61c.47.31.51.77.13,1.38-.16.25-.38.59-.68,1s-.56.85-.87,1.26a13,13,0,0,1-.95,1.08,1.21,1.21,0,0,1-.74.44.74.74,0,0,1-.85-.65,4.36,4.36,0,0,1,.1-1.58,12.41,12.41,0,0,1,.54-1.76c.23-.56.4-.95.51-1.15Z"/><path id="path4925" class="cls-4" d="M239.59,178.39a4.3,4.3,0,0,1-3.08-1,4.49,4.49,0,0,1-1.25-2.5,8.81,8.81,0,0,1,.17-3.28,12.7,12.7,0,0,1,1.22-3.28,10.33,10.33,0,0,1,1.92-2.53,3.42,3.42,0,0,1,2.27-1,2.75,2.75,0,0,1,1.18.27,3.4,3.4,0,0,1,1,.64,3,3,0,0,1,.75.95,2,2,0,0,1,.3,1,5.62,5.62,0,0,1-.17,1.39,5.73,5.73,0,0,1-.44,1.21,2.87,2.87,0,0,1-.54.88.82.82,0,0,1-.61.34,2,2,0,0,1-.94-.34,3.64,3.64,0,0,1-.91-.71.37.37,0,0,1-.1-.4.9.9,0,0,1,.37-.41,3.45,3.45,0,0,0,.91-.81,3.71,3.71,0,0,0,.64-1.11,1.68,1.68,0,0,0,.17-1,.42.42,0,0,0-.44-.33,2,2,0,0,0-1.42.77,8.4,8.4,0,0,0-1.28,1.93,13.66,13.66,0,0,0-.88,2.53,8.78,8.78,0,0,0-.3,2.5,4.13,4.13,0,0,0,.47,1.93,1.63,1.63,0,0,0,1.52.77,2.91,2.91,0,0,0,2.06-.91,9.8,9.8,0,0,0,1.76-2.23,20.9,20.9,0,0,0,1.42-2.84c.42-1,.8-1.87,1.11-2.63a.39.39,0,0,1,.27-.24.41.41,0,0,1,.31,0,.62.62,0,0,1,.27.24.4.4,0,0,1,0,.37c-.32.79-.71,1.74-1.19,2.87a24.18,24.18,0,0,1-1.65,3.25,11.33,11.33,0,0,1-2.17,2.63,4,4,0,0,1-2.73,1.08Z"/><path id="path4927" class="cls-4" d="M247.41,176a1,1,0,0,1,.34-.07,8.52,8.52,0,0,0,1-.17l1-.27a11.48,11.48,0,0,0,.85-1.55,13.67,13.67,0,0,0,.67-1.89,15.63,15.63,0,0,0,.47-2,9.88,9.88,0,0,0,.17-1.79,3.08,3.08,0,0,0-.2-1.28.89.89,0,0,0-.57-.57,1.06,1.06,0,0,0-.78.1,2.62,2.62,0,0,0-.88.71,8,8,0,0,0-1.25,2,11.91,11.91,0,0,0-.81,2.47,11.45,11.45,0,0,0-.27,2.43,4.59,4.59,0,0,0,.3,1.83ZM248.76,165a1.89,1.89,0,0,1,1.22-.14,2.87,2.87,0,0,1,1.18.51,4.14,4.14,0,0,1,1.49.27,4,4,0,0,1,1.22.64,3,3,0,0,1,.84,1,2.27,2.27,0,0,1,.31,1.11,10.35,10.35,0,0,1-.28,2.37,12.08,12.08,0,0,1-.7,2.36,13.39,13.39,0,0,0,2-2.19,13,13,0,0,0,1.49-2.67.36.36,0,0,1,.27-.24.47.47,0,0,1,.33,0,.43.43,0,0,1,.24.24.4.4,0,0,1,0,.37,13.11,13.11,0,0,1-5.27,6.29,9.44,9.44,0,0,1-2.23,2.56,4.53,4.53,0,0,1-2.8,1,3.42,3.42,0,0,1-1.66-.4,4.41,4.41,0,0,1-1.21-1,5.27,5.27,0,0,1-.75-1.35,4.14,4.14,0,0,1-.27-1.42,11.83,11.83,0,0,1,.31-2.63,15.27,15.27,0,0,1,.91-2.67,9.88,9.88,0,0,1,1.42-2.3,6.11,6.11,0,0,1,1.92-1.62Z"/><path id="path4929" class="cls-4" d="M254.51,185c0-.94.07-2.11.2-3.51s.33-2.82.58-4.33.48-3,.78-4.49.58-2.82.87-4a26.09,26.09,0,0,1,.92-2.9c.29-.75.56-1.12.81-1.12a2.86,2.86,0,0,1,.74.17,6.68,6.68,0,0,1,1,.34,3.75,3.75,0,0,1,.84.47c.25.16.38.31.38.44a1,1,0,0,1-.07.17,2.91,2.91,0,0,1-.24.27.89.89,0,0,0-.17.27,12,12,0,0,0-.6,1.28c-.18.48-.37,1-.55,1.63.34-.63.7-1.24,1.09-1.83s.77-1.19,1.18-1.76a5.72,5.72,0,0,1,1.08-1.11,1.8,1.8,0,0,1,1.15-.48,2.06,2.06,0,0,1,1,.31,3.45,3.45,0,0,1,.87.74,4.13,4.13,0,0,1,.61,1,2.21,2.21,0,0,1,.24.92,8.9,8.9,0,0,1-.57,3,26.61,26.61,0,0,1-1.36,3,12.22,12.22,0,0,0,2.23-2.16,12.64,12.64,0,0,0,1.79-3.14.39.39,0,0,1,.27-.24.5.5,0,0,1,.34,0,.47.47,0,0,1,.24.24.4.4,0,0,1,0,.37,12.9,12.9,0,0,1-2.43,3.92,13.38,13.38,0,0,1-3.65,2.84,11.25,11.25,0,0,1-2.09,2.23,3.36,3.36,0,0,1-2,.84,3.6,3.6,0,0,1-1.19-.17,2.3,2.3,0,0,1-.74-.47c-.16.88-.3,1.73-.44,2.57s-.21,1.61-.3,2.33-.16,1.41-.21,2-.06,1.06-.06,1.42a.37.37,0,0,1-.41.41,2.33,2.33,0,0,1-.71-.14,3.85,3.85,0,0,1-.71-.34,2.38,2.38,0,0,1-.57-.47.82.82,0,0,1-.24-.54Zm8.58-18.31a20.39,20.39,0,0,0-2.73,4.19,28.38,28.38,0,0,0-1.76,4.59,2,2,0,0,0-.1.41,1,1,0,0,1-.07.37,2.47,2.47,0,0,1,.88-.27,4.52,4.52,0,0,0,.88-.17l1-.3a13.13,13.13,0,0,0,1-1.59,17.58,17.58,0,0,0,1.58-4.26,13.64,13.64,0,0,0,.34-2.29c0-.7-.17-1-.51-1a.69.69,0,0,0-.54.3Z"/><path id="path4931" class="cls-4" d="M271.73,178.39a4.9,4.9,0,0,1-2.5-.57,4,4,0,0,1-1.42-1.55,5.38,5.38,0,0,1-.54-2.17,9.19,9.19,0,0,1,.2-2.5,13.4,13.4,0,0,1,.85-2.5,10,10,0,0,1,1.28-2.2,7.54,7.54,0,0,1,1.59-1.52,3.12,3.12,0,0,1,1.79-.6,2.53,2.53,0,0,1,1.08.3,4.42,4.42,0,0,1,1.18.74,5,5,0,0,1,.91,1.05,2.06,2.06,0,0,1,.38,1.11,4.21,4.21,0,0,1-.61,2.2,6.82,6.82,0,0,1-1.56,1.79,8.13,8.13,0,0,1-2.06,1.19,5.87,5.87,0,0,1-2.06.4,5,5,0,0,0,.37,2.3,1.7,1.7,0,0,0,1.66.94,2.82,2.82,0,0,0,2-.91,10.47,10.47,0,0,0,1.79-2.23,21.25,21.25,0,0,0,1.49-2.84c.45-1,.82-1.87,1.11-2.63.05-.14.12-.22.24-.24a.47.47,0,0,1,.33,0,.6.6,0,0,1,.28.24.4.4,0,0,1,0,.37c-.32.83-.73,1.82-1.22,2.94a21.66,21.66,0,0,1-1.69,3.24,12.61,12.61,0,0,1-2.2,2.61,4,4,0,0,1-2.63,1Zm1.35-11.59a4.56,4.56,0,0,0-1,1,10.39,10.39,0,0,0-.81,1.45,13.13,13.13,0,0,0-.64,1.73,13,13,0,0,0-.34,1.76,2.32,2.32,0,0,0,1.35-.48,4.82,4.82,0,0,0,1.25-1.22,6.32,6.32,0,0,0,.91-1.75,6,6,0,0,0,.34-2c0-.37-.12-.59-.37-.68a.63.63,0,0,0-.71.13Z"/><path id="path4933" class="cls-4" d="M283.06,175.08v-.23a1.55,1.55,0,0,0,0-.31,16.25,16.25,0,0,1-.81,1.49,7,7,0,0,1-.91,1.21,5,5,0,0,1-1.05.85,2.32,2.32,0,0,1-1.15.3,2.14,2.14,0,0,1-1.86-.81,3.88,3.88,0,0,1-.6-1.92,13.22,13.22,0,0,1,.2-2.94,15.82,15.82,0,0,1,.84-3.11,12.29,12.29,0,0,1,1.45-2.74,6.44,6.44,0,0,1,2.1-1.89,1.35,1.35,0,0,1,.84-.2,2.05,2.05,0,0,1,.85.17,3.91,3.91,0,0,1,.84.37l.78.37q.4-1.83.81-3.45c.3-1.1.59-2.07.88-2.9a16.93,16.93,0,0,1,.81-2c.25-.49.47-.74.68-.74a2.77,2.77,0,0,1,.74.17,6.68,6.68,0,0,1,1,.34,4.81,4.81,0,0,1,.88.44c.25.15.37.3.37.43s0,.15-.1.17a1.5,1.5,0,0,1-.24.31.89.89,0,0,0-.17.27A20.81,20.81,0,0,0,288.9,162q-.67,2.16-1.32,4.7t-1.11,5c-.32,1.64-.55,3.06-.71,4.25-.09.75.09.87.54.38a10.71,10.71,0,0,0,1.39-1.83c.42-.72.82-1.45,1.18-2.2s.72-1.47,1-2.19.54-1.36.75-1.93a.51.51,0,0,1,.27-.27.47.47,0,0,1,.33,0,.41.41,0,0,1,.24.24.4.4,0,0,1,0,.37c-.15.38-.36.89-.6,1.52s-.55,1.32-.88,2.06-.71,1.45-1.12,2.2a17.21,17.21,0,0,1-1.28,2,8.16,8.16,0,0,1-1.42,1.45,2.27,2.27,0,0,1-1.42.57,1.54,1.54,0,0,1-1.08-.34,1.87,1.87,0,0,1-.54-.81,4.15,4.15,0,0,1-.14-1.08c0-.38,0-.74,0-1.08Zm.54-8.75a2,2,0,0,0-1.56.88,9,9,0,0,0-1.18,2.19,18.65,18.65,0,0,0-.84,2.74,16.56,16.56,0,0,0-.44,2.54,3.59,3.59,0,0,0,.1,1.38c.13.32.33.48.57.48s.8-.37,1.25-1.09a13.85,13.85,0,0,0,1.12-2.09c.36-.83.69-1.67,1-2.5.11-.65.22-1.31.34-2s.27-1.35.4-2a.78.78,0,0,0-.74-.54Z"/><path id="path4935" class="cls-4" d="M294.36,176.1a3,3,0,0,0,.07-.65c0-.2.06-.41.1-.64a.62.62,0,0,0,0-.24,13,13,0,0,1-1.68,2.71,2.74,2.74,0,0,1-2.1,1.11,2.16,2.16,0,0,1-1.59-.57,2.72,2.72,0,0,1-.64-1.52,12,12,0,0,1,.07-3.08,15,15,0,0,1,.91-3.27,13.32,13.32,0,0,1,1.59-2.94,6.75,6.75,0,0,1,2.23-2,1.29,1.29,0,0,1,.81-.2,2.29,2.29,0,0,1,.88.17,5,5,0,0,1,.88.37c.29.16.59.31.91.47a.47.47,0,0,0,.1-.2c0-.09.05-.17.07-.24.13-.29.3-.44.51-.44a2.08,2.08,0,0,1,.54.1,4,4,0,0,1,.64.27,3.47,3.47,0,0,1,.54.31,4.09,4.09,0,0,1,.44.3.36.36,0,0,1,.1.51,3.4,3.4,0,0,0-.27.54c-.27.74-.53,1.53-.78,2.36s-.47,1.67-.67,2.5-.39,1.65-.54,2.44-.3,1.45-.41,2.06c0,.25,0,.38.1.4a.41.41,0,0,0,.37-.16,9.88,9.88,0,0,0,1.42-1.83,20.94,20.94,0,0,0,1.22-2.23,23.6,23.6,0,0,0,.94-2.26c.3-.75.56-1.41.78-2a.59.59,0,0,1,.27-.27.5.5,0,0,1,.34,0,.52.52,0,0,1,.27.61c-.16.38-.36.89-.61,1.52s-.51,1.32-.84,2.06-.71,1.45-1.12,2.2a14.84,14.84,0,0,1-1.25,2,7.92,7.92,0,0,1-1.35,1.45,2.27,2.27,0,0,1-1.42.57,1.62,1.62,0,0,1-.81-.2,2.22,2.22,0,0,1-.61-.54,2.63,2.63,0,0,1-.37-.75,2.39,2.39,0,0,1-.07-.8Zm-2.6.54a1.2,1.2,0,0,0,.85-.54,10.38,10.38,0,0,0,.87-1.42,16.46,16.46,0,0,0,.88-1.93c.27-.72.52-1.41.75-2.06s.45-1.29.6-1.83l.41-1.21a4.56,4.56,0,0,1,.14-.44,3.62,3.62,0,0,1,.2-.44.89.89,0,0,0-.81-.44,2.19,2.19,0,0,0-1.66.95,10.41,10.41,0,0,0-1.32,2.33,18.2,18.2,0,0,0-.94,2.87,16.6,16.6,0,0,0-.41,2.57,3.94,3.94,0,0,1,0,.4,4.89,4.89,0,0,0,0,.54,1.51,1.51,0,0,0,.14.44.33.33,0,0,0,.3.21Z"/><path id="path4937" class="cls-4" d="M305.75,174.68a12.79,12.79,0,0,1-1.69,2.63,2.73,2.73,0,0,1-2.06,1.08,2.15,2.15,0,0,1-1.59-.57,2.63,2.63,0,0,1-.68-1.52,11.21,11.21,0,0,1,.1-3.08,15.6,15.6,0,0,1,.92-3.27,12.92,12.92,0,0,1,1.59-2.94,6.72,6.72,0,0,1,2.22-2,1.39,1.39,0,0,1,.85-.2,3.67,3.67,0,0,1,.95.2,6.46,6.46,0,0,1,.84.4l.84.41a.66.66,0,0,0,.07-.2,1.33,1.33,0,0,1,.1-.24c.12-.29.27-.44.48-.44a2.64,2.64,0,0,1,1.18.37,6,6,0,0,1,1,.61.33.33,0,0,1,.14.34,1,1,0,0,1-.14.34,4.21,4.21,0,0,0-.3.84c-.38,1.2-.73,2.39-1.05,3.58s-.56,2.32-.81,3.38l-.07.31a22.21,22.21,0,0,0,2.54-2.81,14.76,14.76,0,0,0,2-3.65.42.42,0,0,1,.23-.27.49.49,0,0,1,.34,0,.62.62,0,0,1,.27.24.3.3,0,0,1,0,.34,15.92,15.92,0,0,1-2.5,4.43,24.28,24.28,0,0,1-3.21,3.27c-.25,1.1-.52,2.2-.81,3.28s-.63,2.15-1,3.21a7.42,7.42,0,0,1-1.62,2.7,3.85,3.85,0,0,1-2.94,1.05,3,3,0,0,1-1.22-.27,2.28,2.28,0,0,1-1-.81,2.47,2.47,0,0,1-.47-1.12,3.08,3.08,0,0,1,0-1.21,3.94,3.94,0,0,1,.4-1.15,4.51,4.51,0,0,1,.68-1,5.87,5.87,0,0,1,1-1c.39-.3.78-.58,1.19-.85s.81-.53,1.21-.78.83-.49,1.19-.74c.13-.47.27-.94.4-1.42s.27-1,.41-1.48Zm1.08-8.35a2.08,2.08,0,0,0-1.62.95,9.68,9.68,0,0,0-1.32,2.33,19.31,19.31,0,0,0-.95,2.87,16.45,16.45,0,0,0-.4,2.57,2.51,2.51,0,0,1,0,.4,4.9,4.9,0,0,0,0,.54,1.25,1.25,0,0,0,.13.44.33.33,0,0,0,.31.21,1.17,1.17,0,0,0,.84-.54,10.36,10.36,0,0,0,.88-1.42c.29-.59.57-1.23.85-1.93s.55-1.41.77-2.06.43-1.29.61-1.83l.41-1.21c0-.16.09-.3.13-.44s.12-.31.17-.44a.89.89,0,0,0-.81-.44Zm-5.27,18.55a1.4,1.4,0,0,0,.91-.44,3,3,0,0,0,.78-1.31c.2-.59.4-1.23.6-1.93s.46-1.43.68-2.2c-.38.27-.81.55-1.28.85a10.53,10.53,0,0,0-1.35,1,6,6,0,0,0-1,1.25,2.65,2.65,0,0,0-.37,1.49,1.93,1.93,0,0,0,.27.85.9.9,0,0,0,.78.4Z"/><path id="path4939" class="cls-4" d="M314.2,176a1,1,0,0,1,.33-.07,8.15,8.15,0,0,0,1-.17l1-.27a9.63,9.63,0,0,0,.85-1.55,15.16,15.16,0,0,0,.68-1.89,15.63,15.63,0,0,0,.47-2,10.87,10.87,0,0,0,.17-1.79,3.06,3.06,0,0,0-.21-1.28.85.85,0,0,0-.57-.57,1.06,1.06,0,0,0-.78.1,2.72,2.72,0,0,0-.88.71,8,8,0,0,0-1.25,2,11.91,11.91,0,0,0-.81,2.47,11.45,11.45,0,0,0-.27,2.43,4.4,4.4,0,0,0,.31,1.83ZM315.55,165a1.86,1.86,0,0,1,1.21-.14,2.91,2.91,0,0,1,1.19.51,4.09,4.09,0,0,1,1.48.27,3.92,3.92,0,0,1,1.22.64,3.18,3.18,0,0,1,.85,1,2.26,2.26,0,0,1,.3,1.11,10.91,10.91,0,0,1-.27,2.37,12.84,12.84,0,0,1-.71,2.36,13,13,0,0,0,2-2.19,12.53,12.53,0,0,0,1.49-2.67.39.39,0,0,1,.27-.24.5.5,0,0,1,.34,0,.42.42,0,0,1,.23.24.43.43,0,0,1,0,.37,13.17,13.17,0,0,1-5.27,6.29,9.62,9.62,0,0,1-2.23,2.56,4.55,4.55,0,0,1-2.81,1,3.39,3.39,0,0,1-1.65-.4,4.31,4.31,0,0,1-1.22-1,5.56,5.56,0,0,1-.74-1.35,4.14,4.14,0,0,1-.27-1.42,12.41,12.41,0,0,1,.3-2.63,16.15,16.15,0,0,1,.91-2.67,10.22,10.22,0,0,1,1.42-2.3,6.14,6.14,0,0,1,1.93-1.62Z"/><path id="path4941" class="cls-4" d="M328.05,174.68a12.39,12.39,0,0,1-1.69,2.63,2.72,2.72,0,0,1-2.06,1.08,2.18,2.18,0,0,1-1.59-.57,2.62,2.62,0,0,1-.67-1.52,11.21,11.21,0,0,1,.1-3.08,15,15,0,0,1,.91-3.27,13.32,13.32,0,0,1,1.59-2.94,6.75,6.75,0,0,1,2.23-2,1.35,1.35,0,0,1,.84-.2,3.5,3.5,0,0,1,1,.2,6.59,6.59,0,0,1,.85.4l.84.41a1.11,1.11,0,0,0,.07-.2.64.64,0,0,1,.1-.24c.11-.29.27-.44.47-.44a2.61,2.61,0,0,1,1.18.37,6.16,6.16,0,0,1,1,.61.33.33,0,0,1,.13.34,1,1,0,0,1-.13.34,3.69,3.69,0,0,0-.31.84c-.38,1.2-.73,2.39-1,3.58s-.57,2.32-.81,3.38l-.07.31a22.14,22.14,0,0,0,2.53-2.81,14.76,14.76,0,0,0,2-3.65.46.46,0,0,1,.24-.27.49.49,0,0,1,.34,0,.62.62,0,0,1,.27.24.34.34,0,0,1,0,.34,16.18,16.18,0,0,1-2.5,4.43,25.53,25.53,0,0,1-3.21,3.27c-.25,1.1-.52,2.2-.81,3.28s-.64,2.15-1,3.21a7.15,7.15,0,0,1-1.62,2.7,3.82,3.82,0,0,1-2.94,1.05,3,3,0,0,1-1.22-.27,2.34,2.34,0,0,1-1-.81,2.71,2.71,0,0,1-.47-1.12,3.28,3.28,0,0,1,0-1.21,4,4,0,0,1,.41-1.15,4.19,4.19,0,0,1,.68-1,5.87,5.87,0,0,1,1-1c.38-.3.78-.58,1.18-.85s.81-.53,1.22-.78.82-.49,1.18-.74c.14-.47.27-.94.41-1.42Zm1.08-8.35a2.1,2.1,0,0,0-1.62.95,10.41,10.41,0,0,0-1.32,2.33,19.29,19.29,0,0,0-.94,2.87,16.6,16.6,0,0,0-.41,2.57,3.94,3.94,0,0,1,0,.4,4.89,4.89,0,0,0,0,.54,1.51,1.51,0,0,0,.14.44.33.33,0,0,0,.3.21,1.2,1.2,0,0,0,.85-.54,11.44,11.44,0,0,0,.88-1.42c.29-.59.57-1.23.84-1.93s.55-1.41.78-2.06.43-1.29.61-1.83l.4-1.21c.05-.16.09-.3.14-.44s.12-.31.16-.44a.88.88,0,0,0-.81-.44Zm-5.27,18.55a1.4,1.4,0,0,0,.92-.44,3,3,0,0,0,.77-1.31c.21-.59.41-1.23.61-1.93s.45-1.43.68-2.2c-.39.27-.81.55-1.29.85a12.14,12.14,0,0,0-1.35,1,6.23,6.23,0,0,0-1,1.25,2.66,2.66,0,0,0-.38,1.49,2.08,2.08,0,0,0,.28.85.88.88,0,0,0,.77.4Z"/><path id="path4943" class="cls-4" d="M333.33,176.1a3.74,3.74,0,0,0,.06-.65c0-.2.06-.41.11-.64a43.84,43.84,0,0,1,1-4.9,31.91,31.91,0,0,1,1.56-4.56c.13-.29.3-.44.5-.44a1.94,1.94,0,0,1,.54.1,3.71,3.71,0,0,1,.65.27,3.47,3.47,0,0,1,.54.31c.18.11.32.21.44.3a.36.36,0,0,1,.1.51,1.83,1.83,0,0,0-.24.54c-.29.74-.57,1.53-.84,2.36s-.49,1.67-.71,2.5-.43,1.65-.61,2.44-.29,1.45-.41,2.06c0,.25,0,.38.1.4s.24,0,.38-.16a11.46,11.46,0,0,0,1.45-1.83,19.22,19.22,0,0,0,1.21-2.23,24.72,24.72,0,0,0,1-2.26c.31-.75.58-1.41.81-2a.59.59,0,0,1,.27-.27.5.5,0,0,1,.34,0,.52.52,0,0,1,.27.61c-.16.38-.36.89-.61,1.52s-.54,1.32-.88,2.06-.71,1.45-1.11,2.2a18.64,18.64,0,0,1-1.29,2,7.84,7.84,0,0,1-1.42,1.45,2.25,2.25,0,0,1-1.42.57,1.73,1.73,0,0,1-.81-.2,2.33,2.33,0,0,1-.6-.54,2.65,2.65,0,0,1-.38-.75,2.39,2.39,0,0,1-.06-.8Z"/><path id="path4945" class="cls-4" d="M344.85,176.1a3.74,3.74,0,0,0,.06-.65c0-.2.06-.41.11-.64a.62.62,0,0,0,0-.24,13.46,13.46,0,0,1-1.69,2.71,2.73,2.73,0,0,1-2.09,1.11,2.15,2.15,0,0,1-1.59-.57,2.65,2.65,0,0,1-.64-1.52,11.49,11.49,0,0,1,.06-3.08A15,15,0,0,1,340,170,12.89,12.89,0,0,1,341.6,167a6.85,6.85,0,0,1,2.23-2,1.29,1.29,0,0,1,.81-.2,2.26,2.26,0,0,1,.88.17,4.45,4.45,0,0,1,.88.37c.29.16.6.31.91.47a.38.38,0,0,0,.1-.2c0-.09,0-.17.07-.24.14-.29.31-.44.51-.44a1.94,1.94,0,0,1,.54.1,3.61,3.61,0,0,1,.64.27,3.06,3.06,0,0,1,.54.31,4.09,4.09,0,0,1,.44.3.35.35,0,0,1,.1.51,3.4,3.4,0,0,0-.27.54c-.27.74-.53,1.53-.77,2.36s-.48,1.67-.68,2.5-.38,1.65-.54,2.44-.29,1.45-.41,2.06c0,.25,0,.38.11.4s.23,0,.37-.16a9.44,9.44,0,0,0,1.41-1.83,19.3,19.3,0,0,0,1.22-2.23c.36-.76.68-1.52.95-2.26l.78-2a.51.51,0,0,1,.27-.27.47.47,0,0,1,.33,0,.43.43,0,0,1,.24.24.4.4,0,0,1,0,.37c-.15.38-.36.89-.6,1.52s-.51,1.32-.85,2.06-.71,1.45-1.11,2.2a14.88,14.88,0,0,1-1.26,2,7.28,7.28,0,0,1-1.35,1.45,2.24,2.24,0,0,1-1.41.57,1.63,1.63,0,0,1-.82-.2,2.33,2.33,0,0,1-.6-.54,2.65,2.65,0,0,1-.38-.75,2.39,2.39,0,0,1-.06-.8Zm-2.61.54a1.17,1.17,0,0,0,.85-.54,10.36,10.36,0,0,0,.88-1.42,18.28,18.28,0,0,0,.88-1.93c.27-.72.52-1.41.74-2.06s.45-1.29.61-1.83l.4-1.21c0-.16.09-.3.14-.44s.13-.31.2-.44a.89.89,0,0,0-.81-.44,2.19,2.19,0,0,0-1.66.95,10,10,0,0,0-1.31,2.33,18.22,18.22,0,0,0-1,2.87,16.45,16.45,0,0,0-.4,2.57,2.51,2.51,0,0,1,0,.4,3.27,3.27,0,0,0,0,.54,1.25,1.25,0,0,0,.13.44.33.33,0,0,0,.3.21Z"/></g><g id="g4951"><path id="path4949" class="cls-4" d="M338.91,163.81a1,1,0,0,1-.72-.29,1.08,1.08,0,0,1-.29-.74,1.56,1.56,0,0,1,.15-.56l2.68-6a1.88,1.88,0,0,1,.67-.84,1.64,1.64,0,0,1,1-.29,1.77,1.77,0,0,1,1.27.52,1.65,1.65,0,0,1,.58,1.3,2.59,2.59,0,0,1-.64,1.62l-3.72,4.79A1.12,1.12,0,0,1,338.91,163.81Z"/></g></g></svg>