<svg id="svg5211" xmlns="http://www.w3.org/2000/svg" viewBox="0 0 259.76 322.56"><defs><style>.cls-1{fill:#1d1d1b;}.cls-2{fill:#eaad2b;}.cls-3{fill:#bf8f25;}.cls-4{fill:#009f98;}.cls-5{fill:#fff;}.cls-6{fill:#c55a8b;}.cls-7{fill:#1b83c0;}.cls-8{isolation:isolate;}</style></defs><rect class="cls-1" width="259.76" height="322.56"/><g id="g4812"><path id="path4677" class="cls-2" d="M111.26,61.38,112.54,39l4.37,10.16,2.63-9.89L124.35,49l3.85-11.35,4.39,10.92,3.63-9.77,3.32,9.8,5.17-10.18.71,23Z"/><path id="ellipse4679" class="cls-3" d="M128.34,57.69c9.44,0,17.09,1.54,17.09,3.46s-7.65,3.45-17.09,3.45-17.1-1.54-17.1-3.45S118.89,57.69,128.34,57.69Z"/><path id="circle4681" class="cls-2" d="M112.6,36.89a1.88,1.88,0,1,1-1.87,1.87A1.87,1.87,0,0,1,112.6,36.89Z"/><path id="circle4683" class="cls-2" d="M119.57,36.27a1.87,1.87,0,1,1-1.88,1.87A1.87,1.87,0,0,1,119.57,36.27Z"/><path id="circle4685" class="cls-2" d="M136.21,35.77a1.87,1.87,0,1,1-1.87,1.87A1.87,1.87,0,0,1,136.21,35.77Z"/><path id="circle4687" class="cls-2" d="M144.66,35.86a1.87,1.87,0,1,1-1.87,1.87A1.87,1.87,0,0,1,144.66,35.86Z"/><path id="circle4689" class="cls-2" d="M128.41,33a3.06,3.06,0,1,1-3.06,3.06A3.06,3.06,0,0,1,128.41,33Z"/><path id="path4691" class="cls-2" d="M126,16.76h5.12l-2.46,10.89Z"/><path id="path4693" class="cls-2" d="M144.56,18.77l3.72,2.62-7.36,6.66Z"/><path id="path4695" class="cls-2" d="M110.74,20.54,107,23.16l7.36,6.66Z"/><path id="path4697" class="cls-2" d="M97.76,41.94,97,46.42l8.67-1.06Z"/><path id="path4699" class="cls-2" d="M158.43,41.75l1.06,4.43-8.72-.51Z"/></g><path id="path4701" class="cls-4" d="M111.38,106.39l4.82-45s13.44-4,25.07,0l4,45.4s-21.58-1.85-33.93-.45Z"/><path id="path5997" class="cls-5" d="M150.77,178.51a557.11,557.11,0,0,0-97.67,4.76.9.9,0,0,0,.28,1.78s80-12.38,150.75,1.17a.9.9,0,0,0,1.05-.72h0a.91.91,0,0,0-.72-1.06h0A372.79,372.79,0,0,0,150.77,178.51Z"/><path id="path4705" class="cls-6" d="M106.5,152.26l-4.7,42.9a78.49,78.49,0,0,0,51.72,0l-4-43c-19.4,1-27.22,3.3-43,.1Z"/><path id="path4707" class="cls-7" d="M111.34,106.36l-4.85,45.91a96.35,96.35,0,0,0,43.06.06l-4.24-45.54S133.6,104.19,111.34,106.36Z"/><rect id="rect4709" class="cls-5" x="123.96" y="74" width="7.56" height="15.16"/><rect id="rect4711" class="cls-5" x="123.96" y="121.7" width="7.56" height="15.16"/><rect id="rect4713" class="cls-5" x="123.96" y="167.91" width="7.56" height="15.16"/><path id="path4715" class="cls-5" d="M86.71,173.31a4.1,4.1,0,0,0-.08-1.67,11.87,11.87,0,0,1-.28-1.29c-.08.28-.87.08-.87.08a.76.76,0,0,0-.16,1.15,1.07,1.07,0,0,1,0,1.27A11.42,11.42,0,0,0,84,171.07c-.38-.8.9-2.09.9-2.09.22-.57,1.11-.26,1.11-.26,0-.31.74-.83.74-.83a2,2,0,0,1,2.41.29c.6.31.1,1.93.1,1.93l-.06,1.25c-.27.89-1.46.8-1.46.8l-.13,1a8.54,8.54,0,0,0,1.75.55,8.33,8.33,0,0,0,2.09,1.46.83.83,0,0,0,.71-.37,9.06,9.06,0,0,0,1.07-1.56A2.12,2.12,0,0,1,93,172s.73-.69,1-.57c0,0,1.09.69.62,1.64,0,0-1.11,2.66-2.34,3.14a4.72,4.72,0,0,1-2.44-.16.63.63,0,0,0-.76.52s-.38,2.05-.11,2.4c0,0,1.62,2.76,1.65,3l-.62.45s.89,3.71,1.09,3.93c0,0,2.24.66,2.41.69a6.54,6.54,0,0,1-2.84,1.15s-1.66-5.4-1.93-5.61H87.63s-.76,2.81-1.81,3c0,0-.84.3-2-1.7l-.45-.5s0,1.63-.63,1.63l-.59.05s.09-2.93.45-3.3c0,0,1.31.17,1.55,1,0,0,.93,1,1.17.75l.28-1-1-.11,1.17-3.72a5.13,5.13,0,0,0-.94-3.42,44.13,44.13,0,0,0-3.27-3s-.84.41-1.7-1a2.67,2.67,0,0,1-.42-1.24l-4.11-6.75.28,5.52s2.17,9.3,2.39,9.38c0,0,2.46,7.71,2.55,7.87l.18.32a41.37,41.37,0,0,1,4.3.81s.91.37,0,.92c0,0-5,1.28-5.43,1.35a19.77,19.77,0,0,0-1.07-2.21l-.68-.05s-4.3-12-4.17-12.89c0,0-.91,10-2,11.36,0,0-1.28,1.41-1.46,1.55,0,0,2.13,3,2.19,3.63a1.34,1.34,0,0,1-.85.58l-4.86-2.58s1-2.9,1.56-3.1c0,0,3.38-8.13,2.43-10.74,0,0-3-9.92-3.45-11.08a65.1,65.1,0,0,0-.11,8L66.84,175s1,1.29-.13,1.83a1.4,1.4,0,0,1-2.14-.16s-.52-1.13-.23-1.5c0,0-5-3.92-5.23-5.43l-1.63-3.31s-.32,2.67-.31,3.48c.22.55,2.34,8.31,2.09,10.07l-1.09.29s1,7.17.84,8.06c0,0,3.11,1.2,3.22,1.89a20.67,20.67,0,0,0-3.59,0l-1.28-.13s.44-6-.07-7.44l-.67-2.09a5.66,5.66,0,0,1-2.55.29s-1.35,3-1.92,3.31a36.8,36.8,0,0,1-3.14,2h0s-.46,3.6-1,4.15a34.33,34.33,0,0,0-1.12-4.06s4.75-2.82,4.28-3.16c0,0,1.33-2.09,1.22-2.58,0,0-2.71-.15-2.82-.67,0,0,2.86-8.69,2.39-9,0,0,.06-.5-.87-.44,0,0-1.73-.41-1.6-.77,0,0,.72-5.54.75-5.85,0,0-.27-1-.41-.81s-.27.27-.67.36a1.41,1.41,0,0,1-.74-.44,1.89,1.89,0,0,0-1-.54s-.77-.21-.74-.84c0,0,0-.58.46-.53a1.36,1.36,0,0,1,.87.7,3.18,3.18,0,0,1,.94.55,6.2,6.2,0,0,0,.55-.6s-1.81-.9-1.26-2.5c0,0,.63-.91,1.71.1a2.39,2.39,0,0,1,.53,1.83,2.56,2.56,0,0,1,2,.61,4.21,4.21,0,0,1,1.21-.54l-.09-1.38a7.46,7.46,0,0,1-1.47.5s-1.42-4.47.75-5.81c0,0,1.67-1.13,2.38-.12a5,5,0,0,1,1.15,4.52l-1.52.69s.38,1.16.44,1.44c0,0,1.92.19,2.43,1.31.21.28,2.93,6.58,2.93,6.58s4,5,4.26,5.21c0,0-.1-.39.06-.58,0,0-.64-11.76-.22-12.28,0,0,1.64-2.91,3.57-3,0,0-3-6.2-2.09-7.51,0,0,1.36-1.33,2.56-1,0,0,1-.55,1.09-1,0,0,.86.27.35,1.53,0,0,1.27,3.33.9,4.79,0,0-1.36.4-1.3.87,0,0,.57,1.5.64,1.83a5.32,5.32,0,0,1,5.2,2.1s4.61,8.23,5.17,9.18c0,0,1.28,1.29,1.24,2.14,0,0,1.67,1.78,2.34,1.91a1.58,1.58,0,0,0,2.21.33Z"/><g id="text4719" class="cls-8"><g class="cls-8"><path class="cls-5" d="M41.74,223.36v13H64.5v9.13H41.74v17.92H30.35V214.23H67.52v9.13Z"/><path class="cls-5" d="M105.61,252.87H82.77l-4.36,10.54H66.75l21.92-49.18H99.91l22,49.18H110ZM102,244.23l-7.8-18.83-7.8,18.83Z"/><path class="cls-5" d="M158.37,263.41l-9.48-13.7H138.42v13.7H127V214.23h21.29a27.2,27.2,0,0,1,11.35,2.18,16.27,16.27,0,0,1,10,15.66,16,16,0,0,1-10.11,15.53l11,15.81Zm-2.88-37.69q-2.67-2.22-7.8-2.22h-9.27v17.15h9.27q5.13,0,7.8-2.25a8.86,8.86,0,0,0,0-12.68Z"/><path class="cls-5" d="M188.69,261a24.47,24.47,0,0,1-9.63-9.1,26.13,26.13,0,0,1,0-26.06,24.47,24.47,0,0,1,9.63-9.1,30.38,30.38,0,0,1,27.58,0,25.09,25.09,0,0,1,0,44.26,30.46,30.46,0,0,1-27.58,0Zm21.67-8.39a14.4,14.4,0,0,0,5.52-5.59,17.61,17.61,0,0,0,0-16.3,14.4,14.4,0,0,0-5.52-5.59,16.48,16.48,0,0,0-15.74,0,14.37,14.37,0,0,0-5.51,5.59,17.61,17.61,0,0,0,0,16.3,14.37,14.37,0,0,0,5.51,5.59,16.48,16.48,0,0,0,15.74,0Z"/></g></g><g id="g4835"><g id="text4723"><path id="path4770" class="cls-5" d="M56.79,293.72a33,33,0,0,1,.23-3.48c.19-1.37.41-2.82.68-4.33s.61-3,.95-4.49.72-2.81,1.08-4,.7-2.16,1-2.9.63-1.12.88-1.12a2.69,2.69,0,0,1,.74.17,6.29,6.29,0,0,1,1,.34,5.2,5.2,0,0,1,.85.44c.25.16.37.3.37.44a.22.22,0,0,1-.07.17c-.09.11-.17.21-.23.3a.73.73,0,0,0-.17.27,16.08,16.08,0,0,0-1,2.3c-.33,1-.67,2-1,3.18s-.63,2.36-1,3.64-.55,2.49-.77,3.69q.7-2.3,1.52-4.53c.54-1.51,1.09-2.91,1.65-4.19A27.42,27.42,0,0,1,65,276.76a17.8,17.8,0,0,1,1.59-2.2,3.6,3.6,0,0,1,1.29-.94,3.19,3.19,0,0,1,1.42-.34,2.69,2.69,0,0,1,2.26,1,4.52,4.52,0,0,1,.91,2.47,9.8,9.8,0,0,1-.3,3.24,12.06,12.06,0,0,1-1.32,3.25,8.68,8.68,0,0,1-2.2,2.5,4.62,4.62,0,0,1-2.87,1,3.58,3.58,0,0,1-1.32-.27,3.2,3.2,0,0,1-1.08-.85.84.84,0,0,1-.13-.37,1.4,1.4,0,0,1,0-.41.44.44,0,0,1,.2-.27c.09,0,.2,0,.34.14a1.52,1.52,0,0,0,1.08.4,2.57,2.57,0,0,0,1.79-.74A6.85,6.85,0,0,0,68,282.5a10.52,10.52,0,0,0,.94-2.4,10.8,10.8,0,0,0,.37-2.43,4.6,4.6,0,0,0-.2-1.86,1,1,0,0,0-.91-.74c-.52,0-1.11.44-1.76,1.32a18.25,18.25,0,0,0-2,3.65c-.47,1.1-.95,2.28-1.42,3.54s-.89,2.55-1.32,3.85-.82,2.56-1.18,3.82-.63,2.44-.88,3.52a.57.57,0,0,1-.64.44,2.33,2.33,0,0,1-.71-.14,3.57,3.57,0,0,1-.71-.34,2.25,2.25,0,0,1-.58-.47.85.85,0,0,1-.23-.54Z"/><path id="path4773" class="cls-5" d="M72.47,295.41a2.93,2.93,0,0,1-1.38-.3,2.27,2.27,0,0,1-.81-.75,1.53,1.53,0,0,1-.27-1,1.91,1.91,0,0,1,.33-1.08,2.16,2.16,0,0,1,1-.92,4.45,4.45,0,0,1,1.35-.33c.39,0,.76-.08,1.12-.1a7.86,7.86,0,0,0,1-.14,3.26,3.26,0,0,0-.54-1.39c-.3-.45-.6-.89-.92-1.31a16.34,16.34,0,0,1-.81-1.42,4.17,4.17,0,0,1-.37-1.76,3.39,3.39,0,0,1,.3-1.45,3.67,3.67,0,0,1,.85-1.08,4,4,0,0,1,1.18-.68,4.11,4.11,0,0,1,1.39-.24,1.74,1.74,0,0,1,.91.31,3.25,3.25,0,0,1,.91.71,4.19,4.19,0,0,1,.68,1,2,2,0,0,1,.27.94,1.66,1.66,0,0,1-.14.61,2.2,2.2,0,0,1-.3.64,1.62,1.62,0,0,1-.41.51.53.53,0,0,1-.37.2,2.88,2.88,0,0,1-1.18-.27c-.41-.2-.61-.39-.61-.57a.19.19,0,0,1,.07-.14.87.87,0,0,0,.74-.54,2.13,2.13,0,0,0,.31-1,.93.93,0,0,0-.14-.51.42.42,0,0,0-.4-.23.74.74,0,0,0-.55.23,2.29,2.29,0,0,0-.4.58,3.41,3.41,0,0,0-.2.67,2.74,2.74,0,0,0-.07.58,2.83,2.83,0,0,0,.3,1.28,9.56,9.56,0,0,0,.71,1.12l.81,1.08a5.19,5.19,0,0,1,.71,1.11,6.7,6.7,0,0,0,2.27-2A10.87,10.87,0,0,0,81.19,285a.38.38,0,0,1,.23-.27.4.4,0,0,1,.34,0,.37.37,0,0,1,.27.2.43.43,0,0,1,0,.37,10.54,10.54,0,0,1-1.66,3.21,7.83,7.83,0,0,1-2.53,2.09,3.33,3.33,0,0,1-.34,2,4.53,4.53,0,0,1-1.25,1.52,6.34,6.34,0,0,1-1.83.94,6.65,6.65,0,0,1-2,.31Zm2.33-3.65a5.52,5.52,0,0,1-1.31.13,4.15,4.15,0,0,0-1.32.14,1.08,1.08,0,0,0-.78.54,1,1,0,0,0-.1.78,1,1,0,0,0,.47.61,1.27,1.27,0,0,0,1,0,3.62,3.62,0,0,0,1.29-.88,3.48,3.48,0,0,0,.77-1.32Z"/><path id="path4775" class="cls-5" d="M79.06,292.91a3,3,0,0,0,.07-.64c0-.21.06-.42.1-.65a46.13,46.13,0,0,1,1-4.89,33.86,33.86,0,0,1,1.55-4.57c.14-.29.31-.44.51-.44a1.67,1.67,0,0,1,.54.11,2.42,2.42,0,0,1,.64.27,3.45,3.45,0,0,1,.54.3,4.09,4.09,0,0,1,.44.3.35.35,0,0,1,.1.51,1.79,1.79,0,0,0-.23.54c-.3.75-.58,1.53-.85,2.37s-.48,1.66-.71,2.5-.43,1.64-.61,2.43-.29,1.45-.4,2.06c0,.25,0,.38.1.41a.45.45,0,0,0,.37-.17,10.92,10.92,0,0,0,1.45-1.83,19.3,19.3,0,0,0,1.22-2.23c.38-.76.72-1.52,1-2.26s.59-1.41.82-2a.45.45,0,0,1,.27-.27.38.38,0,0,1,.33,0,.37.37,0,0,1,.24.23.4.4,0,0,1,0,.37c-.15.39-.36.89-.6,1.52s-.55,1.32-.88,2.07-.71,1.45-1.12,2.19a16.42,16.42,0,0,1-1.28,2,8.16,8.16,0,0,1-1.42,1.45,2.28,2.28,0,0,1-1.42.58,1.63,1.63,0,0,1-.81-.21,2.07,2.07,0,0,1-.61-.54,2.7,2.7,0,0,1-.37-.74,2.47,2.47,0,0,1-.07-.81Zm5.44-17.27c.32-.63.59-.94.81-.94a3.57,3.57,0,0,1,.88.3,5.62,5.62,0,0,1,1.12.61c.47.31.51.78.13,1.38-.16.25-.38.59-.67,1s-.57.84-.88,1.25a13,13,0,0,1-1,1.08,1.21,1.21,0,0,1-.74.44.73.73,0,0,1-.85-.64,4.64,4.64,0,0,1,.1-1.59,12.41,12.41,0,0,1,.54-1.76c.23-.56.4-.94.51-1.15Z"/><path id="path4777" class="cls-5" d="M89.13,295.21a4.25,4.25,0,0,1-3.08-1,4.46,4.46,0,0,1-1.25-2.5,8.82,8.82,0,0,1,.17-3.28,12.63,12.63,0,0,1,1.22-3.27,10.2,10.2,0,0,1,1.92-2.54,3.42,3.42,0,0,1,2.27-1,2.72,2.72,0,0,1,1.18.27,3.45,3.45,0,0,1,1,.64,3.09,3.09,0,0,1,.74.95,2,2,0,0,1,.3,1.05,5.54,5.54,0,0,1-.17,1.38A5.83,5.83,0,0,1,93,287.1a3,3,0,0,1-.54.88.84.84,0,0,1-.6.33,2,2,0,0,1-1-.33,4.17,4.17,0,0,1-.91-.71.41.41,0,0,1-.1-.41.83.83,0,0,1,.37-.4,3.51,3.51,0,0,0,.91-.82,3.71,3.71,0,0,0,.64-1.11,1.66,1.66,0,0,0,.17-1,.42.42,0,0,0-.44-.34,2,2,0,0,0-1.42.77,8.4,8.4,0,0,0-1.28,1.93,13.92,13.92,0,0,0-.88,2.53,9.22,9.22,0,0,0-.3,2.51,4.12,4.12,0,0,0,.47,1.92,1.64,1.64,0,0,0,1.52.78,3,3,0,0,0,2.06-.91,10.26,10.26,0,0,0,1.76-2.23,22.13,22.13,0,0,0,1.42-2.84c.42-1,.8-1.87,1.11-2.64a.4.4,0,0,1,.27-.23.34.34,0,0,1,.31,0,.54.54,0,0,1,.27.23.4.4,0,0,1,0,.37c-.32.79-.71,1.75-1.19,2.88A24.67,24.67,0,0,1,94,291.49a11.34,11.34,0,0,1-2.16,2.63,4,4,0,0,1-2.74,1.09Z"/><path id="path4779" class="cls-5" d="M97,292.84a1.37,1.37,0,0,1,.34-.07,6.79,6.79,0,0,0,1-.17c.27-.06.6-.15,1-.27a9.54,9.54,0,0,0,.85-1.55,13.67,13.67,0,0,0,.67-1.89,14.28,14.28,0,0,0,.47-2,10,10,0,0,0,.17-1.79,3.13,3.13,0,0,0-.2-1.29.89.89,0,0,0-.57-.57,1.11,1.11,0,0,0-.78.1,2.75,2.75,0,0,0-.88.71,8.07,8.07,0,0,0-1.25,2,11.82,11.82,0,0,0-.81,2.46,11.61,11.61,0,0,0-.27,2.44A4.57,4.57,0,0,0,97,292.84Zm1.35-11a1.89,1.89,0,0,1,1.22-.13,3,3,0,0,1,1.18.5,4.14,4.14,0,0,1,1.49.27,4.05,4.05,0,0,1,1.22.65,3,3,0,0,1,.84.94,2.28,2.28,0,0,1,.31,1.12,10.89,10.89,0,0,1-.27,2.36,13.18,13.18,0,0,1-.71,2.37,13.89,13.89,0,0,0,2-2.2,12.48,12.48,0,0,0,1.49-2.67.36.36,0,0,1,.27-.23.38.38,0,0,1,.33,0,.37.37,0,0,1,.24.23.4.4,0,0,1,0,.37,13.11,13.11,0,0,1-5.27,6.29,9.64,9.64,0,0,1-2.23,2.57,4.53,4.53,0,0,1-2.8,1A3.43,3.43,0,0,1,96,294.8a4.56,4.56,0,0,1-1.21-1,5.63,5.63,0,0,1-.75-1.35,4.18,4.18,0,0,1-.27-1.42,11.85,11.85,0,0,1,.31-2.64,15.56,15.56,0,0,1,.91-2.67,10.09,10.09,0,0,1,1.42-2.3,6.25,6.25,0,0,1,1.92-1.62Z"/><path id="path4781" class="cls-5" d="M104.05,301.8c0-.95.07-2.12.2-3.52s.33-2.81.58-4.32.48-3,.78-4.5.58-2.81.87-4a25.67,25.67,0,0,1,.92-2.91c.29-.74.56-1.12.81-1.12a2.77,2.77,0,0,1,.74.17,7.54,7.54,0,0,1,1,.34,4.57,4.57,0,0,1,.85.47c.24.16.37.31.37.44a.73.73,0,0,1-.07.17,2.91,2.91,0,0,1-.24.27,1.14,1.14,0,0,0-.17.27,11.39,11.39,0,0,0-.6,1.29q-.27.7-.54,1.62a20.92,20.92,0,0,1,1.08-1.83c.38-.6.77-1.19,1.18-1.75a6.09,6.09,0,0,1,1.08-1.12,1.84,1.84,0,0,1,1.15-.47,2,2,0,0,1,1,.3,3.72,3.72,0,0,1,.88.75,3.91,3.91,0,0,1,.6,1,2.13,2.13,0,0,1,.24.91,9,9,0,0,1-.57,3,27.41,27.41,0,0,1-1.36,3,12,12,0,0,0,4-5.31.5.5,0,0,1,.61-.23.37.37,0,0,1,.24.23.4.4,0,0,1,0,.37,12.78,12.78,0,0,1-2.43,3.92,13.19,13.19,0,0,1-3.65,2.84,11,11,0,0,1-2.09,2.23,3.36,3.36,0,0,1-2,.85,3.88,3.88,0,0,1-1.19-.17,2.49,2.49,0,0,1-.74-.48c-.16.88-.3,1.74-.44,2.57s-.21,1.61-.3,2.33-.16,1.41-.2,2-.07,1.06-.07,1.42a.36.36,0,0,1-.41.4,2.28,2.28,0,0,1-.71-.13,4.63,4.63,0,0,1-.71-.34,2.65,2.65,0,0,1-.57-.47.84.84,0,0,1-.24-.54Zm8.58-18.32a20.66,20.66,0,0,0-2.73,4.19,28.49,28.49,0,0,0-1.76,4.6,2,2,0,0,0-.1.4,1,1,0,0,1-.07.37,2.47,2.47,0,0,1,.88-.27,4.52,4.52,0,0,0,.88-.17l1-.3a14.58,14.58,0,0,0,1-1.59,17.86,17.86,0,0,0,.91-2,19.08,19.08,0,0,0,.67-2.23,13.75,13.75,0,0,0,.34-2.3c0-.7-.17-1-.51-1a.69.69,0,0,0-.54.3Z"/><path id="path4783" class="cls-5" d="M121.27,295.21a4.89,4.89,0,0,1-2.5-.58,3.84,3.84,0,0,1-1.42-1.55,5.29,5.29,0,0,1-.54-2.16,9.26,9.26,0,0,1,.2-2.51,14.45,14.45,0,0,1,.85-2.5,9.7,9.7,0,0,1,1.28-2.19,7.29,7.29,0,0,1,1.59-1.52,3.07,3.07,0,0,1,1.79-.61,2.53,2.53,0,0,1,1.08.3,4.21,4.21,0,0,1,1.18.75,4.69,4.69,0,0,1,.91,1,2.09,2.09,0,0,1,.38,1.12,4.27,4.27,0,0,1-.61,2.2,7.16,7.16,0,0,1-1.56,1.79,8.1,8.1,0,0,1-2.06,1.18,5.83,5.83,0,0,1-2.06.4,4.93,4.93,0,0,0,.37,2.3,1.71,1.71,0,0,0,1.66.95,2.85,2.85,0,0,0,2-.91,11,11,0,0,0,1.79-2.23,22.54,22.54,0,0,0,1.49-2.84q.67-1.49,1.11-2.64a.31.31,0,0,1,.24-.23.4.4,0,0,1,.34,0,.54.54,0,0,1,.27.23.4.4,0,0,1,0,.37c-.32.84-.73,1.82-1.22,2.94a22.27,22.27,0,0,1-1.69,3.25,12.54,12.54,0,0,1-2.2,2.6,4,4,0,0,1-2.63,1Zm1.35-11.59a4.3,4.3,0,0,0-1,1,10.52,10.52,0,0,0-.81,1.46,12.49,12.49,0,0,0-.64,1.72,13.27,13.27,0,0,0-.34,1.76,2.32,2.32,0,0,0,1.35-.48,4.94,4.94,0,0,0,1.25-1.21,6.52,6.52,0,0,0,.91-1.76,6,6,0,0,0,.34-2c0-.36-.12-.59-.37-.68a.62.62,0,0,0-.71.14Z"/><path id="path4785" class="cls-5" d="M132.6,291.89v-.23a1.42,1.42,0,0,0,0-.31,16.25,16.25,0,0,1-.81,1.49,7,7,0,0,1-.91,1.22,4.62,4.62,0,0,1-1,.84,2.23,2.23,0,0,1-1.15.31,2.14,2.14,0,0,1-1.86-.81,4,4,0,0,1-.6-1.93,13.26,13.26,0,0,1,.2-2.94,16,16,0,0,1,.84-3.11,12.13,12.13,0,0,1,1.46-2.74,6.31,6.31,0,0,1,2.09-1.89,1.43,1.43,0,0,1,.85-.2,2.21,2.21,0,0,1,.84.17,3.7,3.7,0,0,1,.84.37l.78.37c.27-1.21.54-2.36.81-3.44s.59-2.08.88-2.91a16.68,16.68,0,0,1,.81-2c.25-.5.48-.75.68-.75a2.77,2.77,0,0,1,.74.17,6.29,6.29,0,0,1,1,.34,4.81,4.81,0,0,1,.88.44c.25.16.37.3.37.44a.16.16,0,0,1-.1.17,1.76,1.76,0,0,1-.24.3.88.88,0,0,0-.16.27,20.16,20.16,0,0,0-1.36,3.31q-.67,2.16-1.31,4.7c-.41,1.67-.78,3.33-1.12,5s-.55,3.06-.71,4.26c-.09.74.09.86.54.37a10.71,10.71,0,0,0,1.39-1.83c.43-.72.82-1.45,1.18-2.19s.72-1.48,1-2.2.54-1.36.75-1.92a.48.48,0,0,1,.27-.27.4.4,0,0,1,.34,0,.37.37,0,0,1,.23.23.43.43,0,0,1,0,.37c-.16.39-.37.89-.61,1.52s-.54,1.32-.88,2.07-.71,1.45-1.12,2.19a17.21,17.21,0,0,1-1.28,2,7.84,7.84,0,0,1-1.42,1.45,2.28,2.28,0,0,1-1.42.58,1.59,1.59,0,0,1-1.08-.34,2,2,0,0,1-.54-.81,4.2,4.2,0,0,1-.14-1.08c0-.39,0-.75,0-1.09Zm.54-8.75a2.05,2.05,0,0,0-1.56.88,8.89,8.89,0,0,0-1.18,2.2,18.28,18.28,0,0,0-.84,2.74,17.77,17.77,0,0,0-.44,2.53,3.62,3.62,0,0,0,.1,1.39.64.64,0,0,0,.57.47c.39,0,.8-.36,1.25-1.08a14.5,14.5,0,0,0,1.12-2.1c.36-.83.69-1.67,1-2.5.11-.65.22-1.31.34-2s.27-1.35.4-2a.78.78,0,0,0-.74-.54Z"/><path id="path4787" class="cls-5" d="M143.9,292.91a3,3,0,0,0,.07-.64c0-.21.06-.42.1-.65a.55.55,0,0,0,0-.23,13.37,13.37,0,0,1-1.69,2.7,2.75,2.75,0,0,1-2.1,1.12,2.15,2.15,0,0,1-1.58-.58,2.61,2.61,0,0,1-.65-1.52,11.86,11.86,0,0,1,.07-3.07,14.93,14.93,0,0,1,.91-3.28,13.78,13.78,0,0,1,1.59-2.94,6.75,6.75,0,0,1,2.23-2,1.36,1.36,0,0,1,.81-.2,2.5,2.5,0,0,1,.88.17,4.72,4.72,0,0,1,.88.37c.29.16.6.32.91.47a.42.42,0,0,0,.1-.2c0-.09.05-.17.07-.24.13-.29.3-.44.51-.44a1.78,1.78,0,0,1,.54.11,2.56,2.56,0,0,1,.64.27,3.45,3.45,0,0,1,.54.3,4.09,4.09,0,0,1,.44.3.36.36,0,0,1,.1.51,3.4,3.4,0,0,0-.27.54c-.27.75-.53,1.53-.78,2.37s-.47,1.66-.67,2.5-.39,1.64-.54,2.43-.3,1.45-.41,2.06c0,.25,0,.38.1.41a.45.45,0,0,0,.37-.17,9.47,9.47,0,0,0,1.42-1.83,20.94,20.94,0,0,0,1.22-2.23c.36-.76.68-1.52.95-2.26s.55-1.41.77-2a.51.51,0,0,1,.27-.27.4.4,0,0,1,.34,0,.42.42,0,0,1,.24.23.43.43,0,0,1,0,.37l-.61,1.52c-.22.64-.5,1.32-.84,2.07s-.71,1.45-1.12,2.19a14.26,14.26,0,0,1-1.25,2,7.59,7.59,0,0,1-1.35,1.45,2.26,2.26,0,0,1-1.42.58A1.63,1.63,0,0,1,145,295a2.2,2.2,0,0,1-.61-.54,3,3,0,0,1-.37-.74,2.47,2.47,0,0,1-.07-.81Zm-2.6.54a1.2,1.2,0,0,0,.85-.54,10.74,10.74,0,0,0,.88-1.42,18.29,18.29,0,0,0,.87-1.93c.27-.72.52-1.4.75-2.06s.45-1.28.6-1.82.32-.95.41-1.22.09-.3.14-.44a4.48,4.48,0,0,1,.2-.44.89.89,0,0,0-.81-.44,2.19,2.19,0,0,0-1.66.95,10.41,10.41,0,0,0-1.32,2.33,19.29,19.29,0,0,0-.94,2.87,16.6,16.6,0,0,0-.41,2.57,4.1,4.1,0,0,1,0,.41,4.89,4.89,0,0,0,0,.54,1.73,1.73,0,0,0,.14.44.33.33,0,0,0,.3.2Z"/><path id="path4789" class="cls-5" d="M155.29,291.49a12.79,12.79,0,0,1-1.69,2.63,2.71,2.71,0,0,1-2.06,1.09,2.15,2.15,0,0,1-1.59-.58,2.57,2.57,0,0,1-.68-1.52,11.12,11.12,0,0,1,.1-3.07,15.52,15.52,0,0,1,.92-3.28,13.36,13.36,0,0,1,1.59-2.94,6.66,6.66,0,0,1,2.23-2,1.42,1.42,0,0,1,.84-.2,3.58,3.58,0,0,1,1,.2,5.43,5.43,0,0,1,.84.41c.27.13.55.27.85.4a1,1,0,0,0,.06-.2,1.33,1.33,0,0,1,.1-.24c.12-.29.28-.44.48-.44a2.52,2.52,0,0,1,1.18.38,5.45,5.45,0,0,1,1,.6.34.34,0,0,1,.14.34,1,1,0,0,1-.14.34,4.08,4.08,0,0,0-.3.85c-.38,1.19-.73,2.38-1.05,3.58s-.56,2.32-.81,3.38l-.07.3a21.38,21.38,0,0,0,2.54-2.8,14.94,14.94,0,0,0,2-3.65.38.38,0,0,1,.23-.27.4.4,0,0,1,.34,0,.54.54,0,0,1,.27.23.3.3,0,0,1,0,.34,15.68,15.68,0,0,1-2.5,4.43,23.71,23.71,0,0,1-3.21,3.27c-.25,1.11-.52,2.2-.81,3.28s-.63,2.15-1,3.21a7.25,7.25,0,0,1-1.62,2.7,3.85,3.85,0,0,1-2.94,1,3,3,0,0,1-1.22-.27,2.28,2.28,0,0,1-1-.81,2.48,2.48,0,0,1-.47-1.11,3.13,3.13,0,0,1,0-1.22,3.79,3.79,0,0,1,.41-1.15,4.15,4.15,0,0,1,.67-1,5.93,5.93,0,0,1,1-1c.38-.29.77-.57,1.18-.84s.81-.53,1.21-.78.83-.5,1.19-.74c.13-.48.27-.95.4-1.42l.41-1.49Zm1.08-8.35a2.08,2.08,0,0,0-1.62.95,9.68,9.68,0,0,0-1.32,2.33,19.31,19.31,0,0,0-1,2.87,16.45,16.45,0,0,0-.4,2.57,4.1,4.1,0,0,1,0,.41,4.89,4.89,0,0,0,0,.54,1.71,1.71,0,0,0,.13.44.34.34,0,0,0,.31.2,1.17,1.17,0,0,0,.84-.54,9,9,0,0,0,.88-1.42c.29-.59.58-1.23.85-1.93s.55-1.4.77-2.06.43-1.28.61-1.82l.41-1.22c0-.16.09-.3.13-.44a3.57,3.57,0,0,0,.17-.44.89.89,0,0,0-.81-.44Zm-5.27,18.55a1.36,1.36,0,0,0,.91-.44,2.87,2.87,0,0,0,.78-1.31c.2-.59.4-1.23.61-1.93s.45-1.43.67-2.2c-.38.27-.81.56-1.28.85a10.41,10.41,0,0,0-1.35,1,5.71,5.71,0,0,0-1,1.25,2.62,2.62,0,0,0-.37,1.48,1.89,1.89,0,0,0,.27.85.88.88,0,0,0,.78.4Z"/><path id="path4791" class="cls-5" d="M163.74,292.84a1.28,1.28,0,0,1,.34-.07,7,7,0,0,0,1-.17c.27-.06.59-.15,1-.27a8.84,8.84,0,0,0,.85-1.55,13.71,13.71,0,0,0,.68-1.89,15.91,15.91,0,0,0,.47-2,11,11,0,0,0,.17-1.79,3.31,3.31,0,0,0-.2-1.29.93.93,0,0,0-.58-.57,1.12,1.12,0,0,0-.78.1,2.72,2.72,0,0,0-.87.71,7.54,7.54,0,0,0-1.25,2,11.29,11.29,0,0,0-.82,2.46,11.61,11.61,0,0,0-.27,2.44A4.55,4.55,0,0,0,163.74,292.84Zm1.35-11a1.88,1.88,0,0,1,1.22-.13,3.06,3.06,0,0,1,1.18.5,4.18,4.18,0,0,1,1.49.27,4,4,0,0,1,1.21.65,3,3,0,0,1,.84.94,2.18,2.18,0,0,1,.31,1.12,10.89,10.89,0,0,1-.27,2.36,12.42,12.42,0,0,1-.71,2.37,13.42,13.42,0,0,0,2-2.2,12.07,12.07,0,0,0,1.49-2.67.5.5,0,0,1,.61-.23.42.42,0,0,1,.24.23.47.47,0,0,1,0,.37,13.17,13.17,0,0,1-5.27,6.29,9.82,9.82,0,0,1-2.23,2.57,4.55,4.55,0,0,1-2.81,1,3.39,3.39,0,0,1-1.65-.41,4.45,4.45,0,0,1-1.22-1,6,6,0,0,1-.74-1.35,4.18,4.18,0,0,1-.27-1.42,12.43,12.43,0,0,1,.3-2.64,16.47,16.47,0,0,1,.91-2.67,10.45,10.45,0,0,1,1.42-2.3,6.4,6.4,0,0,1,1.93-1.62Z"/><path id="path4793" class="cls-5" d="M177.59,291.49a12.39,12.39,0,0,1-1.69,2.63,2.7,2.7,0,0,1-2.06,1.09,2.15,2.15,0,0,1-1.58-.58,2.52,2.52,0,0,1-.68-1.52,11.12,11.12,0,0,1,.1-3.07,14.93,14.93,0,0,1,.91-3.28,13.78,13.78,0,0,1,1.59-2.94,6.75,6.75,0,0,1,2.23-2,1.43,1.43,0,0,1,.85-.2,3.51,3.51,0,0,1,.94.2,5.54,5.54,0,0,1,.85.41l.84.4a.88.88,0,0,0,.07-.2.87.87,0,0,1,.1-.24c.11-.29.27-.44.47-.44a2.58,2.58,0,0,1,1.19.38,5.81,5.81,0,0,1,1,.6.33.33,0,0,1,.13.34,1,1,0,0,1-.13.34,3.6,3.6,0,0,0-.31.85c-.38,1.19-.73,2.38-1,3.58s-.57,2.32-.81,3.38l-.07.3a21.31,21.31,0,0,0,2.53-2.8,14.61,14.61,0,0,0,2-3.65.41.41,0,0,1,.24-.27.4.4,0,0,1,.34,0,.54.54,0,0,1,.27.23.34.34,0,0,1,0,.34,16.18,16.18,0,0,1-2.5,4.43,24.9,24.9,0,0,1-3.21,3.27c-.25,1.11-.52,2.2-.81,3.28s-.63,2.15-1,3.21a7,7,0,0,1-1.62,2.7,3.82,3.82,0,0,1-2.94,1,3,3,0,0,1-1.21-.27,2.23,2.23,0,0,1-1-.81,2.61,2.61,0,0,1-.48-1.11,3.33,3.33,0,0,1,0-1.22,3.76,3.76,0,0,1,.4-1.15,4.19,4.19,0,0,1,.68-1,5.87,5.87,0,0,1,1-1c.38-.29.78-.57,1.18-.84s.81-.53,1.22-.78.82-.5,1.18-.74c.14-.48.27-.95.41-1.42S177.46,292,177.59,291.49Zm1.08-8.35a2.1,2.1,0,0,0-1.62.95,10,10,0,0,0-1.31,2.33,18.22,18.22,0,0,0-1,2.87,16.6,16.6,0,0,0-.41,2.57,4.1,4.1,0,0,1,0,.41,4.89,4.89,0,0,0,0,.54,1.73,1.73,0,0,0,.14.44.33.33,0,0,0,.3.2,1.2,1.2,0,0,0,.85-.54,10.74,10.74,0,0,0,.88-1.42c.29-.59.57-1.23.84-1.93s.55-1.4.78-2.06.43-1.28.61-1.82l.4-1.22c0-.16.09-.3.14-.44s.12-.3.17-.44a.9.9,0,0,0-.82-.44Zm-5.27,18.55a1.36,1.36,0,0,0,.92-.44,3,3,0,0,0,.77-1.31c.21-.59.41-1.23.61-1.93s.45-1.43.68-2.2c-.39.27-.81.56-1.29.85a11.13,11.13,0,0,0-1.35,1,6,6,0,0,0-1,1.25,2.54,2.54,0,0,0-.37,1.48,1.89,1.89,0,0,0,.27.85.87.87,0,0,0,.77.4Z"/><path id="path4795" class="cls-5" d="M182.87,292.91a3.79,3.79,0,0,0,.07-.64,5.42,5.42,0,0,1,.1-.65,43.68,43.68,0,0,1,1-4.89,32.5,32.5,0,0,1,1.56-4.57c.13-.29.3-.44.5-.44a1.78,1.78,0,0,1,.55.11,2.73,2.73,0,0,1,.64.27,3.45,3.45,0,0,1,.54.3c.18.11.32.21.44.3a.36.36,0,0,1,.1.51,2.13,2.13,0,0,0-.24.54c-.29.75-.57,1.53-.84,2.37s-.49,1.66-.71,2.5-.43,1.64-.61,2.43-.29,1.45-.41,2.06c0,.25,0,.38.1.41a.46.46,0,0,0,.38-.17,11.46,11.46,0,0,0,1.45-1.83,20.94,20.94,0,0,0,1.22-2.23c.38-.76.72-1.52,1-2.26s.59-1.41.81-2a.51.51,0,0,1,.27-.27.4.4,0,0,1,.34,0,.42.42,0,0,1,.24.23.47.47,0,0,1,0,.37l-.61,1.52c-.25.64-.54,1.32-.88,2.07s-.71,1.45-1.11,2.19a17.72,17.72,0,0,1-1.29,2,7.84,7.84,0,0,1-1.42,1.45,2.26,2.26,0,0,1-1.41.58,1.64,1.64,0,0,1-.82-.21,2.17,2.17,0,0,1-.6-.54,2.7,2.7,0,0,1-.37-.74,2.23,2.23,0,0,1-.07-.81Z"/><path id="path4797" class="cls-5" d="M194.39,292.91a3.79,3.79,0,0,0,.07-.64,5.42,5.42,0,0,1,.1-.65.6.6,0,0,0,0-.23,13.37,13.37,0,0,1-1.69,2.7,2.75,2.75,0,0,1-2.09,1.12,2.15,2.15,0,0,1-1.59-.58,2.6,2.6,0,0,1-.64-1.52,11.83,11.83,0,0,1,.06-3.07,15,15,0,0,1,.92-3.28,13.33,13.33,0,0,1,1.58-2.94,6.85,6.85,0,0,1,2.23-2,1.37,1.37,0,0,1,.82-.2,2.45,2.45,0,0,1,.87.17,4.45,4.45,0,0,1,.88.37c.29.16.6.32.91.47a.34.34,0,0,0,.1-.2c0-.09.05-.17.07-.24.14-.29.31-.44.51-.44a1.67,1.67,0,0,1,.54.11,2.42,2.42,0,0,1,.64.27,2.73,2.73,0,0,1,.54.3,4.09,4.09,0,0,1,.44.3.35.35,0,0,1,.1.51,3.4,3.4,0,0,0-.27.54c-.27.75-.53,1.53-.77,2.37s-.48,1.66-.68,2.5-.38,1.64-.54,2.43-.29,1.45-.41,2.06c0,.25,0,.38.11.41a.46.46,0,0,0,.37-.17,9.88,9.88,0,0,0,1.42-1.83,20.86,20.86,0,0,0,1.21-2.23c.36-.76.68-1.52,1-2.26l.78-2a.45.45,0,0,1,.27-.27.4.4,0,0,1,.34,0,.37.37,0,0,1,.23.23.43.43,0,0,1,0,.37c-.16.39-.37.89-.61,1.52s-.51,1.32-.85,2.07-.71,1.45-1.11,2.19a15.23,15.23,0,0,1-1.25,2,7.92,7.92,0,0,1-1.35,1.45,2.31,2.31,0,0,1-1.42.58,1.58,1.58,0,0,1-.81-.21,2.07,2.07,0,0,1-.61-.54,2.7,2.7,0,0,1-.37-.74,2.47,2.47,0,0,1-.07-.81Zm-2.6.54a1.17,1.17,0,0,0,.84-.54,9.78,9.78,0,0,0,.88-1.42,18.28,18.28,0,0,0,.88-1.93c.27-.72.52-1.4.74-2.06s.45-1.28.61-1.82.32-.95.4-1.22.09-.3.14-.44.13-.3.2-.44a.89.89,0,0,0-.81-.44,2.17,2.17,0,0,0-1.65.95,9.68,9.68,0,0,0-1.32,2.33,19.31,19.31,0,0,0-.95,2.87,16.45,16.45,0,0,0-.4,2.57,2.61,2.61,0,0,1,0,.41,3.27,3.27,0,0,0,0,.54,1.39,1.39,0,0,0,.13.44.34.34,0,0,0,.31.2Z"/></g><g id="text4743"><path id="path4767" class="cls-5" d="M188.45,280.63a1,1,0,0,1-.72-.29,1.08,1.08,0,0,1-.29-.75,1.47,1.47,0,0,1,.15-.55l2.68-6a1.88,1.88,0,0,1,.67-.84,1.71,1.71,0,0,1,.95-.29,1.77,1.77,0,0,1,1.27.52,1.67,1.67,0,0,1,.58,1.3,2.64,2.64,0,0,1-.63,1.62l-3.73,4.8a1.15,1.15,0,0,1-.93.49Z"/></g></g></svg>