<svg id="svg5211" xmlns="http://www.w3.org/2000/svg" viewBox="0 0 259.76 322.56"><defs><style>.cls-1{fill:#eaad2b;}.cls-2{fill:#bf8f25;}.cls-3{fill:#009f98;}.cls-4{fill:#1d1d1b;}.cls-5{fill:#c55a8b;}.cls-6{fill:#1b83c0;}.cls-7{fill:#fff;}.cls-8{isolation:isolate;}</style></defs><g id="g4812"><path id="path4677" class="cls-1" d="M115.05,61.38,116.34,39l4.37,10.16,2.63-9.89,4.8,9.77L132,37.65l4.38,10.92L140,38.8l3.32,9.8,5.17-10.18.71,23Z"/><path id="ellipse4679" class="cls-2" d="M132.13,57.69c9.45,0,17.1,1.54,17.1,3.46s-7.65,3.45-17.1,3.45S115,63.06,115,61.15,122.69,57.69,132.13,57.69Z"/><path id="circle4681" class="cls-1" d="M116.4,36.89a1.88,1.88,0,1,1-1.87,1.87A1.87,1.87,0,0,1,116.4,36.89Z"/><path id="circle4683" class="cls-1" d="M123.36,36.27a1.87,1.87,0,1,1-1.87,1.87A1.87,1.87,0,0,1,123.36,36.27Z"/><path id="circle4685" class="cls-1" d="M140,35.77a1.87,1.87,0,1,1-1.87,1.87A1.87,1.87,0,0,1,140,35.77Z"/><path id="circle4687" class="cls-1" d="M148.45,35.86a1.87,1.87,0,1,1-1.87,1.87A1.88,1.88,0,0,1,148.45,35.86Z"/><path id="circle4689" class="cls-1" d="M132.21,33a3.06,3.06,0,1,1-3.07,3.06A3.06,3.06,0,0,1,132.21,33Z"/><path id="path4691" class="cls-1" d="M129.77,16.76h5.12l-2.46,10.89Z"/><path id="path4693" class="cls-1" d="M148.35,18.77l3.73,2.62-7.37,6.66Z"/><path id="path4695" class="cls-1" d="M114.54,20.54l-3.72,2.62,7.36,6.66Z"/><path id="path4697" class="cls-1" d="M101.56,41.94l-.78,4.48,8.67-1.06Z"/><path id="path4699" class="cls-1" d="M162.22,41.75l1.07,4.43-8.73-.51Z"/></g><path id="path4701" class="cls-3" d="M115.18,106.39l4.81-45s13.44-4,25.07,0l4.05,45.4s-21.58-1.85-33.93-.45Z"/><path id="path5997" class="cls-4" d="M154.57,178.51a557.11,557.11,0,0,0-97.67,4.76.91.91,0,0,0-.76,1,.9.9,0,0,0,1,.75s80-12.38,150.76,1.17a.9.9,0,0,0,1-.72h0a.9.9,0,0,0-.71-1.06h0A372.5,372.5,0,0,0,154.57,178.51Z"/><path id="path4705" class="cls-5" d="M110.29,152.26l-4.7,42.9a78.49,78.49,0,0,0,51.72,0l-4-43c-19.4,1-27.23,3.3-43,.1Z"/><path id="path4707" class="cls-6" d="M115.13,106.36l-4.84,45.91a96.35,96.35,0,0,0,43.06.06l-4.24-45.54S137.4,104.19,115.13,106.36Z"/><rect id="rect4709" class="cls-7" x="127.76" y="74" width="7.56" height="15.16"/><rect id="rect4711" class="cls-7" x="127.76" y="121.7" width="7.56" height="15.16"/><rect id="rect4713" class="cls-7" x="127.76" y="167.91" width="7.56" height="15.16"/><path id="path4715" class="cls-4" d="M90.5,173.31a4.16,4.16,0,0,0-.07-1.67,11.87,11.87,0,0,1-.28-1.29c-.09.28-.88.08-.88.08a.77.77,0,0,0-.16,1.15,1.07,1.07,0,0,1,0,1.27,11.43,11.43,0,0,0-1.31-1.78c-.38-.8.9-2.09.9-2.09.22-.57,1.1-.26,1.1-.26.06-.31.74-.83.74-.83a2,2,0,0,1,2.41.29c.61.31.11,1.93.11,1.93L93,171.36c-.27.89-1.46.8-1.46.8l-.13,1a8.54,8.54,0,0,0,1.75.55,8.33,8.33,0,0,0,2.09,1.46.83.83,0,0,0,.71-.37A8.51,8.51,0,0,0,97,173.28a2.14,2.14,0,0,1-.18-1.32s.73-.69,1-.57c0,0,1.1.69.63,1.64,0,0-1.12,2.66-2.34,3.14a4.75,4.75,0,0,1-2.45-.16.62.62,0,0,0-.75.52s-.39,2.05-.11,2.4c0,0,1.62,2.76,1.65,3l-.62.45s.89,3.71,1.09,3.93c0,0,2.24.66,2.41.69a6.54,6.54,0,0,1-2.84,1.15s-1.67-5.4-1.93-5.61H91.43s-.77,2.81-1.81,3c0,0-.84.3-2-1.7l-.45-.5s0,1.63-.62,1.63l-.6.05s.1-2.93.46-3.3c0,0,1.31.17,1.55,1,0,0,.93,1,1.17.75l.27-1-1-.11,1.18-3.72a5.13,5.13,0,0,0-.94-3.42s-3.06-3-3.27-3c0,0-.84.41-1.7-1a2.67,2.67,0,0,1-.42-1.24l-4.11-6.75.27,5.52s2.18,9.3,2.4,9.38c0,0,2.45,7.71,2.55,7.87l.17.32a41.92,41.92,0,0,1,4.31.81s.91.37,0,.92c0,0-5,1.28-5.44,1.35a18.17,18.17,0,0,0-1.07-2.21l-.67-.05s-4.3-12-4.18-12.89c0,0-.9,10-2,11.36,0,0-1.27,1.41-1.45,1.55,0,0,2.13,3,2.19,3.63a1.34,1.34,0,0,1-.85.58l-4.86-2.58s1-2.9,1.56-3.1c0,0,3.38-8.13,2.43-10.74,0,0-3-9.92-3.46-11.08a65.63,65.63,0,0,0-.1,8L70.64,175s1,1.29-.13,1.83a1.4,1.4,0,0,1-2.14-.16s-.53-1.13-.23-1.5c0,0-5-3.92-5.23-5.43l-1.63-3.31s-.32,2.67-.32,3.48c.23.55,2.35,8.31,2.1,10.07l-1.09.29s1,7.17.83,8.06c0,0,3.12,1.2,3.23,1.89a20.67,20.67,0,0,0-3.59,0l-1.28-.13s.44-6-.08-7.44l-.67-2.09a5.63,5.63,0,0,1-2.55.29s-1.34,3-1.91,3.31a36.8,36.8,0,0,1-3.14,2h0s-.47,3.6-1,4.15a34.19,34.19,0,0,0-1.11-4.06s4.75-2.82,4.28-3.16c0,0,1.33-2.09,1.21-2.58,0,0-2.7-.15-2.82-.67,0,0,2.87-8.69,2.39-9,0,0,.07-.5-.86-.44,0,0-1.74-.41-1.61-.77,0,0,.73-5.54.76-5.85,0,0-.27-1-.42-.81s-.26.27-.66.36a1.45,1.45,0,0,1-.75-.44,1.83,1.83,0,0,0-1-.54s-.76-.21-.74-.84c0,0,0-.58.47-.53a1.38,1.38,0,0,1,.87.7,3.18,3.18,0,0,1,.94.55,5,5,0,0,0,.54-.6s-1.8-.9-1.25-2.5c0,0,.63-.91,1.71.1a2.43,2.43,0,0,1,.53,1.83,2.56,2.56,0,0,1,2,.61,4.26,4.26,0,0,1,1.2-.54l-.09-1.38a7.24,7.24,0,0,1-1.47.5s-1.42-4.47.76-5.81c0,0,1.66-1.13,2.38-.12a5,5,0,0,1,1.15,4.52l-1.52.69s.38,1.16.44,1.44c0,0,1.91.19,2.43,1.31.21.28,2.93,6.58,2.93,6.58s4,5,4.25,5.21a.84.84,0,0,1,.06-.58s-.63-11.76-.21-12.28c0,0,1.64-2.91,3.57-3,0,0-3-6.2-2.09-7.51,0,0,1.36-1.33,2.56-1,0,0,1-.55,1.08-1,0,0,.87.27.36,1.53,0,0,1.27,3.33.9,4.79,0,0-1.36.4-1.3.87,0,0,.56,1.5.64,1.83a5.33,5.33,0,0,1,5.2,2.1s4.61,8.23,5.17,9.18c0,0,1.27,1.29,1.24,2.14,0,0,1.67,1.78,2.33,1.91a1.59,1.59,0,0,0,2.22.33Z"/><g id="text4719" class="cls-8"><g class="cls-8"><path class="cls-4" d="M45.53,223.36v13H68.3v9.13H45.53v17.92H34.15V214.23H71.32v9.13Z"/><path class="cls-4" d="M109.4,252.87H86.57l-4.36,10.54H70.55l21.92-49.18h11.24l22,49.18H113.76Zm-3.58-8.64L98,225.4l-7.8,18.83Z"/><path class="cls-4" d="M162.17,263.41l-9.49-13.7H142.22v13.7H130.83V214.23h21.29a27.2,27.2,0,0,1,11.35,2.18,16.81,16.81,0,0,1,7.41,6.18,17,17,0,0,1,2.6,9.48,16,16,0,0,1-10.12,15.53l11,15.81Zm-2.88-37.69q-2.67-2.22-7.8-2.22h-9.27v17.15h9.27q5.13,0,7.8-2.25a8.86,8.86,0,0,0,0-12.68Z"/><path class="cls-4" d="M192.49,261a24.47,24.47,0,0,1-9.63-9.1,26.13,26.13,0,0,1,0-26.06,24.47,24.47,0,0,1,9.63-9.1,30.36,30.36,0,0,1,27.57,0,25.08,25.08,0,0,1,0,44.26,30.44,30.44,0,0,1-27.57,0Zm21.67-8.39a14.47,14.47,0,0,0,5.52-5.59,17.61,17.61,0,0,0,0-16.3,14.47,14.47,0,0,0-5.52-5.59,16.48,16.48,0,0,0-15.74,0,14.37,14.37,0,0,0-5.51,5.59,17.61,17.61,0,0,0,0,16.3,14.37,14.37,0,0,0,5.51,5.59,16.48,16.48,0,0,0,15.74,0Z"/></g></g><g id="g4835"><g id="text4723"><path id="path4770" class="cls-4" d="M60.59,293.72a33,33,0,0,1,.23-3.48c.18-1.37.41-2.82.68-4.33s.61-3,.94-4.49.72-2.81,1.09-4a28.21,28.21,0,0,1,1-2.9c.34-.75.63-1.12.88-1.12a2.77,2.77,0,0,1,.74.17,6.29,6.29,0,0,1,1,.34,5.2,5.2,0,0,1,.85.44c.24.16.37.3.37.44a.26.26,0,0,1-.07.17l-.24.3a1.14,1.14,0,0,0-.17.27,17.44,17.44,0,0,0-1,2.3c-.34,1-.68,2-1,3.18s-.63,2.36-1,3.64-.55,2.49-.78,3.69c.48-1.53,1-3,1.52-4.53s1.1-2.91,1.66-4.19a25.61,25.61,0,0,1,1.45-2.87,15.94,15.94,0,0,1,1.59-2.2,3.51,3.51,0,0,1,1.29-.94,3.18,3.18,0,0,1,1.41-.34,2.69,2.69,0,0,1,2.27,1,4.52,4.52,0,0,1,.91,2.47,9.8,9.8,0,0,1-.3,3.24,12.74,12.74,0,0,1-1.32,3.25,8.83,8.83,0,0,1-2.2,2.5,4.62,4.62,0,0,1-2.87,1,3.58,3.58,0,0,1-1.32-.27,3.2,3.2,0,0,1-1.08-.85.74.74,0,0,1-.13-.37.94.94,0,0,1,0-.41.44.44,0,0,1,.2-.27c.09,0,.2,0,.34.14a1.52,1.52,0,0,0,1.08.4,2.57,2.57,0,0,0,1.79-.74,6.63,6.63,0,0,0,1.38-1.86,10.54,10.54,0,0,0,1-2.4,11.4,11.4,0,0,0,.37-2.43,4.6,4.6,0,0,0-.2-1.86,1,1,0,0,0-.91-.74c-.52,0-1.11.44-1.76,1.32a18.25,18.25,0,0,0-2,3.65c-.48,1.1-1,2.28-1.42,3.54s-.89,2.55-1.32,3.85-.82,2.56-1.18,3.82-.63,2.44-.88,3.52a.57.57,0,0,1-.64.44,2.28,2.28,0,0,1-.71-.14,3.57,3.57,0,0,1-.71-.34,2.25,2.25,0,0,1-.58-.47.85.85,0,0,1-.23-.54Z"/><path id="path4773" class="cls-4" d="M76.27,295.41a3,3,0,0,1-1.39-.3,2.27,2.27,0,0,1-.81-.75,1.66,1.66,0,0,1-.27-1,1.84,1.84,0,0,1,.34-1.08,2.16,2.16,0,0,1,1-.92,4.45,4.45,0,0,1,1.35-.33c.38,0,.76-.08,1.12-.1a7.49,7.49,0,0,0,1-.14,3,3,0,0,0-.54-1.39c-.29-.45-.59-.89-.91-1.31a16.34,16.34,0,0,1-.81-1.42A4,4,0,0,1,76,284.9a3.39,3.39,0,0,1,.3-1.45,3.67,3.67,0,0,1,.85-1.08,4,4,0,0,1,1.18-.68,4.11,4.11,0,0,1,1.39-.24,1.74,1.74,0,0,1,.91.31,3.25,3.25,0,0,1,.91.71,4.19,4.19,0,0,1,.68,1,2,2,0,0,1,.27.94,1.66,1.66,0,0,1-.14.61,2.5,2.5,0,0,1-.3.64,1.77,1.77,0,0,1-.41.51.53.53,0,0,1-.37.2,2.88,2.88,0,0,1-1.18-.27c-.41-.2-.61-.39-.61-.57a.19.19,0,0,1,.07-.14.87.87,0,0,0,.74-.54,2.11,2.11,0,0,0,.3-1,.92.92,0,0,0-.13-.51.44.44,0,0,0-.41-.23.73.73,0,0,0-.54.23,2.06,2.06,0,0,0-.4.58,4.31,4.31,0,0,0-.21.67,3.45,3.45,0,0,0-.06.58,2.83,2.83,0,0,0,.3,1.28,8.41,8.41,0,0,0,.71,1.12l.81,1.08a5.61,5.61,0,0,1,.71,1.11,6.7,6.7,0,0,0,2.27-2A10.87,10.87,0,0,0,85,285a.38.38,0,0,1,.23-.27.4.4,0,0,1,.34,0,.41.41,0,0,1,.27.2.4.4,0,0,1,0,.37,10.53,10.53,0,0,1-1.65,3.21,7.87,7.87,0,0,1-2.54,2.09,3.26,3.26,0,0,1-.33,2,4.65,4.65,0,0,1-1.25,1.52,6.34,6.34,0,0,1-1.83.94,6.65,6.65,0,0,1-2,.31Zm2.33-3.65a5.55,5.55,0,0,1-1.32.13A4.22,4.22,0,0,0,76,292a1.06,1.06,0,0,0-.77.54,1,1,0,0,0-.1.78,1,1,0,0,0,.47.61,1.26,1.26,0,0,0,1,0,3.5,3.5,0,0,0,1.28-.88,3.38,3.38,0,0,0,.78-1.32Z"/><path id="path4775" class="cls-4" d="M82.86,292.91a3.79,3.79,0,0,0,.07-.64,5.42,5.42,0,0,1,.1-.65,43.76,43.76,0,0,1,1-4.89,32.53,32.53,0,0,1,1.55-4.57c.13-.29.3-.44.51-.44a1.78,1.78,0,0,1,.54.11,2.56,2.56,0,0,1,.64.27,3.45,3.45,0,0,1,.54.3,4.09,4.09,0,0,1,.44.3.36.36,0,0,1,.1.51,2.13,2.13,0,0,0-.24.54c-.29.75-.57,1.53-.84,2.37s-.48,1.66-.71,2.5-.43,1.64-.61,2.43-.29,1.45-.4,2.06c0,.25,0,.38.1.41a.46.46,0,0,0,.37-.17,10.92,10.92,0,0,0,1.45-1.83,20.94,20.94,0,0,0,1.22-2.23c.38-.76.72-1.52,1-2.26s.59-1.41.81-2a.51.51,0,0,1,.27-.27.4.4,0,0,1,.34,0,.42.42,0,0,1,.24.23.4.4,0,0,1,0,.37l-.61,1.52c-.24.64-.54,1.32-.88,2.07s-.71,1.45-1.11,2.19a17.7,17.7,0,0,1-1.28,2,8.16,8.16,0,0,1-1.42,1.45,2.31,2.31,0,0,1-1.42.58,1.58,1.58,0,0,1-.81-.21,2.07,2.07,0,0,1-.61-.54,2.7,2.7,0,0,1-.37-.74,2.47,2.47,0,0,1-.07-.81Zm5.44-17.27c.31-.63.58-.94.81-.94a3.57,3.57,0,0,1,.88.3,5.27,5.27,0,0,1,1.11.61c.48.31.52.78.14,1.38-.16.25-.38.59-.68,1a14.88,14.88,0,0,1-.88,1.25,13,13,0,0,1-.94,1.08,1.24,1.24,0,0,1-.74.44.73.73,0,0,1-.85-.64,4.4,4.4,0,0,1,.1-1.59,12.41,12.41,0,0,1,.54-1.76c.23-.56.4-.94.51-1.15Z"/><path id="path4777" class="cls-4" d="M92.93,295.21a4.25,4.25,0,0,1-3.08-1,4.46,4.46,0,0,1-1.25-2.5,8.61,8.61,0,0,1,.17-3.28A12.63,12.63,0,0,1,90,285.14a10.2,10.2,0,0,1,1.92-2.54,3.42,3.42,0,0,1,2.27-1,2.75,2.75,0,0,1,1.18.27,3.4,3.4,0,0,1,1,.64,3,3,0,0,1,.75.95,2,2,0,0,1,.3,1.05,6.06,6.06,0,0,1-.17,1.38,5.83,5.83,0,0,1-.44,1.22,3.22,3.22,0,0,1-.54.88.84.84,0,0,1-.61.33,2,2,0,0,1-.94-.33,4.25,4.25,0,0,1-.92-.71.43.43,0,0,1-.1-.41.91.91,0,0,1,.38-.4,3.68,3.68,0,0,0,.91-.82,3.93,3.93,0,0,0,.64-1.11,1.66,1.66,0,0,0,.17-1,.43.43,0,0,0-.44-.34,2,2,0,0,0-1.42.77,8.4,8.4,0,0,0-1.28,1.93,13.2,13.2,0,0,0-.88,2.53,9.25,9.25,0,0,0-.31,2.51,4.12,4.12,0,0,0,.48,1.92,1.64,1.64,0,0,0,1.52.78,3,3,0,0,0,2.06-.91,9.94,9.94,0,0,0,1.75-2.23,19.81,19.81,0,0,0,1.42-2.84c.43-1,.8-1.87,1.12-2.64a.4.4,0,0,1,.27-.23.32.32,0,0,1,.3,0,.47.47,0,0,1,.27.23.35.35,0,0,1,0,.37c-.31.79-.71,1.75-1.18,2.88a24.67,24.67,0,0,1-1.65,3.24,11.37,11.37,0,0,1-2.17,2.63,4,4,0,0,1-2.73,1.09Z"/><path id="path4779" class="cls-4" d="M100.75,292.84a1.37,1.37,0,0,1,.34-.07,6.79,6.79,0,0,0,1-.17c.27-.06.6-.15,1-.27a9.56,9.56,0,0,0,.84-1.55,13.71,13.71,0,0,0,.68-1.89,15.91,15.91,0,0,0,.47-2,10,10,0,0,0,.17-1.79,3.31,3.31,0,0,0-.2-1.29.93.93,0,0,0-.58-.57,1.09,1.09,0,0,0-.77.1,2.65,2.65,0,0,0-.88.71,7.8,7.8,0,0,0-1.25,2,11.82,11.82,0,0,0-.81,2.46,11.61,11.61,0,0,0-.27,2.44A4.57,4.57,0,0,0,100.75,292.84Zm1.35-11a1.89,1.89,0,0,1,1.22-.13,3.06,3.06,0,0,1,1.18.5,4.18,4.18,0,0,1,1.49.27,3.88,3.88,0,0,1,1.21.65,2.9,2.9,0,0,1,.85.94,2.27,2.27,0,0,1,.3,1.12,10.89,10.89,0,0,1-.27,2.36,11.74,11.74,0,0,1-.71,2.37,13.48,13.48,0,0,0,2-2.2,12,12,0,0,0,1.48-2.67.5.5,0,0,1,.61-.23.42.42,0,0,1,.24.23.4.4,0,0,1,0,.37,13.11,13.11,0,0,1-5.27,6.29,9.64,9.64,0,0,1-2.23,2.57,4.53,4.53,0,0,1-2.8,1,3.43,3.43,0,0,1-1.66-.41,4.6,4.6,0,0,1-1.22-1,6,6,0,0,1-.74-1.35,4.18,4.18,0,0,1-.27-1.42,11.85,11.85,0,0,1,.31-2.64,14.75,14.75,0,0,1,.91-2.67,9.75,9.75,0,0,1,1.42-2.3,6.25,6.25,0,0,1,1.92-1.62Z"/><path id="path4781" class="cls-4" d="M107.85,301.8c0-.95.07-2.12.2-3.52s.33-2.81.58-4.32.48-3,.77-4.5.59-2.81.88-4a28.19,28.19,0,0,1,.91-2.91c.3-.74.57-1.12.82-1.12a2.86,2.86,0,0,1,.74.17,8.1,8.1,0,0,1,1,.34,4.48,4.48,0,0,1,.84.47c.25.16.37.31.37.44a.56.56,0,0,1-.06.17,2.91,2.91,0,0,1-.24.27.89.89,0,0,0-.17.27,13.31,13.31,0,0,0-.61,1.29q-.27.7-.54,1.62.51-.94,1.08-1.83c.39-.6.78-1.19,1.19-1.75a5.78,5.78,0,0,1,1.08-1.12,1.82,1.82,0,0,1,1.15-.47,2,2,0,0,1,1,.3,3.37,3.37,0,0,1,.88.75,3.94,3.94,0,0,1,.61,1,2.13,2.13,0,0,1,.24.91,8.74,8.74,0,0,1-.58,3,25.6,25.6,0,0,1-1.35,3,12.63,12.63,0,0,0,2.23-2.17,12.29,12.29,0,0,0,1.79-3.14.5.5,0,0,1,.61-.23.42.42,0,0,1,.24.23.43.43,0,0,1,0,.37,13.09,13.09,0,0,1-6.08,6.76,10.74,10.74,0,0,1-2.1,2.23,3.34,3.34,0,0,1-1.95.85,3.83,3.83,0,0,1-1.19-.17,2.49,2.49,0,0,1-.74-.48c-.16.88-.31,1.74-.44,2.57s-.21,1.61-.31,2.33-.15,1.41-.2,2-.07,1.06-.07,1.42a.35.35,0,0,1-.4.4,2.28,2.28,0,0,1-.71-.13,4.63,4.63,0,0,1-.71-.34,2.43,2.43,0,0,1-.57-.47.84.84,0,0,1-.24-.54Zm8.58-18.32a21.14,21.14,0,0,0-2.74,4.19,28.45,28.45,0,0,0-1.75,4.6,2,2,0,0,0-.1.4,1.33,1.33,0,0,1-.07.37,2.41,2.41,0,0,1,.88-.27,4.52,4.52,0,0,0,.88-.17l1-.3a13.17,13.17,0,0,0,1-1.59,16.27,16.27,0,0,0,.92-2,19.08,19.08,0,0,0,.67-2.23,14.87,14.87,0,0,0,.34-2.3c0-.7-.17-1-.51-1a.69.69,0,0,0-.54.3Z"/><path id="path4783" class="cls-4" d="M125.07,295.21a4.89,4.89,0,0,1-2.5-.58,3.77,3.77,0,0,1-1.42-1.55,5.29,5.29,0,0,1-.54-2.16,9.26,9.26,0,0,1,.2-2.51,14.41,14.41,0,0,1,.84-2.5,9.73,9.73,0,0,1,1.29-2.19,6.87,6.87,0,0,1,1.59-1.52,3.07,3.07,0,0,1,1.79-.61,2.53,2.53,0,0,1,1.08.3,4.21,4.21,0,0,1,1.18.75,5,5,0,0,1,.91,1,2.07,2.07,0,0,1,.37,1.12,4.26,4.26,0,0,1-.6,2.2,7.16,7.16,0,0,1-1.56,1.79,8.27,8.27,0,0,1-2.06,1.18,5.87,5.87,0,0,1-2.06.4,4.81,4.81,0,0,0,.37,2.3,1.71,1.71,0,0,0,1.66.95,2.88,2.88,0,0,0,2-.91,11,11,0,0,0,1.79-2.23,21.25,21.25,0,0,0,1.48-2.84c.45-1,.83-1.87,1.12-2.64a.3.3,0,0,1,.24-.23.38.38,0,0,1,.33,0,.47.47,0,0,1,.27.23.35.35,0,0,1,0,.37c-.31.84-.72,1.82-1.21,2.94a23.29,23.29,0,0,1-1.69,3.25,12.86,12.86,0,0,1-2.2,2.6,4,4,0,0,1-2.63,1Zm1.35-11.59a4.12,4.12,0,0,0-1,1,10.52,10.52,0,0,0-.81,1.46,12.49,12.49,0,0,0-.64,1.72,13.27,13.27,0,0,0-.34,1.76,2.32,2.32,0,0,0,1.35-.48,4.94,4.94,0,0,0,1.25-1.21,6.52,6.52,0,0,0,.91-1.76,6,6,0,0,0,.34-2,.64.64,0,0,0-.37-.68.62.62,0,0,0-.71.14Z"/><path id="path4785" class="cls-4" d="M136.4,291.89v-.23a1.42,1.42,0,0,0,0-.31,16.25,16.25,0,0,1-.81,1.49,7.59,7.59,0,0,1-.91,1.22,4.62,4.62,0,0,1-1.05.84,2.23,2.23,0,0,1-1.15.31,2.11,2.11,0,0,1-1.86-.81,4.07,4.07,0,0,1-.61-1.93,13.93,13.93,0,0,1,.21-2.94,16,16,0,0,1,.84-3.11,12.1,12.1,0,0,1,1.45-2.74,6.44,6.44,0,0,1,2.1-1.89,1.42,1.42,0,0,1,.84-.2,2.22,2.22,0,0,1,.85.17,3.91,3.91,0,0,1,.84.37c.27.14.53.26.78.37.27-1.21.54-2.36.81-3.44s.59-2.08.88-2.91a16.68,16.68,0,0,1,.81-2c.25-.5.47-.75.68-.75a2.86,2.86,0,0,1,.74.17,6.68,6.68,0,0,1,1,.34,4.81,4.81,0,0,1,.88.44c.24.16.37.3.37.44a.16.16,0,0,1-.1.17,1.76,1.76,0,0,1-.24.3.89.89,0,0,0-.17.27,19.41,19.41,0,0,0-1.35,3.31q-.68,2.16-1.32,4.7c-.4,1.67-.77,3.33-1.11,5s-.55,3.06-.71,4.26c-.09.74.09.86.54.37a10.19,10.19,0,0,0,1.38-1.83c.43-.72.83-1.45,1.19-2.19s.72-1.48,1-2.2.54-1.36.74-1.92a.51.51,0,0,1,.27-.27.4.4,0,0,1,.34,0,.42.42,0,0,1,.24.23.4.4,0,0,1,0,.37l-.61,1.52c-.24.64-.54,1.32-.87,2.07s-.71,1.45-1.12,2.19a17.21,17.21,0,0,1-1.28,2,8.16,8.16,0,0,1-1.42,1.45,2.31,2.31,0,0,1-1.42.58,1.59,1.59,0,0,1-1.08-.34,2,2,0,0,1-.54-.81,4.2,4.2,0,0,1-.14-1.08c0-.39,0-.75,0-1.09Zm.54-8.75a2,2,0,0,0-1.56.88,8.89,8.89,0,0,0-1.18,2.2,19.53,19.53,0,0,0-.85,2.74,17.62,17.62,0,0,0-.43,2.53,3.43,3.43,0,0,0,.1,1.39c.13.31.32.47.57.47s.8-.36,1.25-1.08a15.55,15.55,0,0,0,1.12-2.1c.36-.83.68-1.67,1-2.5l.33-2c.14-.67.27-1.35.41-2a.79.79,0,0,0-.74-.54Z"/><path id="path4787" class="cls-4" d="M147.7,292.91a3,3,0,0,0,.07-.64c0-.21.06-.42.1-.65a.6.6,0,0,0,0-.23,12.94,12.94,0,0,1-1.69,2.7,2.73,2.73,0,0,1-2.09,1.12,2.15,2.15,0,0,1-1.59-.58,2.66,2.66,0,0,1-.64-1.52A11.86,11.86,0,0,1,142,290a14.93,14.93,0,0,1,.91-3.28,13.78,13.78,0,0,1,1.59-2.94,6.66,6.66,0,0,1,2.23-2,1.36,1.36,0,0,1,.81-.2,2.54,2.54,0,0,1,.88.17,5,5,0,0,1,.88.37c.29.16.59.32.91.47a.42.42,0,0,0,.1-.2,1.37,1.37,0,0,1,.07-.24c.13-.29.3-.44.5-.44a1.67,1.67,0,0,1,.54.11,2.63,2.63,0,0,1,.65.27,3.45,3.45,0,0,1,.54.3c.18.11.32.21.44.3a.36.36,0,0,1,.1.51,2.27,2.27,0,0,0-.27.54c-.27.75-.53,1.53-.78,2.37s-.47,1.66-.68,2.5-.38,1.64-.54,2.43-.29,1.45-.4,2.06c-.05.25,0,.38.1.41a.45.45,0,0,0,.37-.17,9.88,9.88,0,0,0,1.42-1.83,20.94,20.94,0,0,0,1.22-2.23c.36-.76.67-1.52.94-2.26s.55-1.41.78-2a.51.51,0,0,1,.27-.27.4.4,0,0,1,.34,0,.42.42,0,0,1,.24.23.47.47,0,0,1,0,.37l-.61,1.52c-.23.64-.51,1.32-.84,2.07s-.71,1.45-1.12,2.19a14.26,14.26,0,0,1-1.25,2,7.92,7.92,0,0,1-1.35,1.45,2.28,2.28,0,0,1-1.42.58,1.63,1.63,0,0,1-.81-.21,2.07,2.07,0,0,1-.61-.54,2.7,2.7,0,0,1-.37-.74,2.47,2.47,0,0,1-.07-.81Zm-2.6.54a1.17,1.17,0,0,0,.84-.54,9,9,0,0,0,.88-1.42,16.46,16.46,0,0,0,.88-1.93c.27-.72.52-1.4.74-2.06s.46-1.28.61-1.82l.41-1.22c0-.16.09-.3.13-.44s.14-.3.21-.44a.89.89,0,0,0-.81-.44,2.19,2.19,0,0,0-1.66.95,9.68,9.68,0,0,0-1.32,2.33,18.2,18.2,0,0,0-.94,2.87,16.6,16.6,0,0,0-.41,2.57,4.1,4.1,0,0,1,0,.41,4.89,4.89,0,0,0,0,.54,1.41,1.41,0,0,0,.14.44.31.31,0,0,0,.3.2Z"/><path id="path4789" class="cls-4" d="M159.09,291.49a12.79,12.79,0,0,1-1.69,2.63,2.73,2.73,0,0,1-2.07,1.09,2.15,2.15,0,0,1-1.58-.58,2.52,2.52,0,0,1-.68-1.52,11.12,11.12,0,0,1,.1-3.07,15,15,0,0,1,.92-3.28,13.33,13.33,0,0,1,1.58-2.94,6.85,6.85,0,0,1,2.23-2,1.45,1.45,0,0,1,.85-.2,3.51,3.51,0,0,1,.94.2,5.12,5.12,0,0,1,.85.41l.84.4a.57.57,0,0,0,.07-.2.87.87,0,0,1,.1-.24c.11-.29.27-.44.48-.44a2.55,2.55,0,0,1,1.18.38,5.45,5.45,0,0,1,1,.6.36.36,0,0,1,.14.34,1.22,1.22,0,0,1-.14.34,3.58,3.58,0,0,0-.3.85c-.39,1.19-.73,2.38-1,3.58s-.56,2.32-.81,3.38l-.07.3a22.11,22.11,0,0,0,2.54-2.8,15.29,15.29,0,0,0,2-3.65.38.38,0,0,1,.23-.27.4.4,0,0,1,.34,0,.54.54,0,0,1,.27.23.3.3,0,0,1,0,.34,15.92,15.92,0,0,1-2.5,4.43,23.71,23.71,0,0,1-3.21,3.27c-.25,1.11-.52,2.2-.81,3.28s-.63,2.15-1,3.21a7,7,0,0,1-1.62,2.7,3.82,3.82,0,0,1-2.94,1A3,3,0,0,1,154,303a2.28,2.28,0,0,1-1-.81,2.61,2.61,0,0,1-.48-1.11,3.33,3.33,0,0,1,0-1.22,4,4,0,0,1,.4-1.15,4.19,4.19,0,0,1,.68-1,5.87,5.87,0,0,1,1-1c.39-.29.78-.57,1.19-.84s.81-.53,1.21-.78.82-.5,1.18-.74c.14-.48.28-.95.41-1.42s.27-1,.41-1.49Zm1.08-8.35a2.08,2.08,0,0,0-1.62.95,9.68,9.68,0,0,0-1.32,2.33,18.22,18.22,0,0,0-.95,2.87,15.34,15.34,0,0,0-.4,2.57c0,.09,0,.23,0,.41a3.27,3.27,0,0,0,0,.54,1.39,1.39,0,0,0,.13.44.34.34,0,0,0,.31.2,1.17,1.17,0,0,0,.84-.54,9.78,9.78,0,0,0,.88-1.42c.29-.59.57-1.23.84-1.93s.55-1.4.78-2.06.43-1.28.61-1.82l.4-1.22c.05-.16.09-.3.14-.44s.12-.3.17-.44a.89.89,0,0,0-.81-.44Zm-5.27,18.55a1.36,1.36,0,0,0,.91-.44,3.05,3.05,0,0,0,.78-1.31c.2-.59.4-1.23.6-1.93s.45-1.43.68-2.2c-.38.27-.81.56-1.28.85a10.5,10.5,0,0,0-1.36,1,6,6,0,0,0-1,1.25,2.62,2.62,0,0,0-.37,1.48,1.89,1.89,0,0,0,.27.85.88.88,0,0,0,.78.4Z"/><path id="path4791" class="cls-4" d="M167.53,292.84a1.37,1.37,0,0,1,.34-.07,6.55,6.55,0,0,0,1-.17c.27-.06.6-.15,1-.27a8.84,8.84,0,0,0,.85-1.55,13.67,13.67,0,0,0,.67-1.89,16,16,0,0,0,.48-2,11,11,0,0,0,.17-1.79,3.11,3.11,0,0,0-.21-1.29.89.89,0,0,0-.57-.57,1.11,1.11,0,0,0-.78.1,2.75,2.75,0,0,0-.88.71,8.07,8.07,0,0,0-1.25,2,11.82,11.82,0,0,0-.81,2.46,11.61,11.61,0,0,0-.27,2.44A4.57,4.57,0,0,0,167.53,292.84Zm1.36-11a1.86,1.86,0,0,1,1.21-.13,3.1,3.1,0,0,1,1.19.5,4.13,4.13,0,0,1,1.48.27,3.93,3.93,0,0,1,1.22.65,3,3,0,0,1,.84.94,2.18,2.18,0,0,1,.31,1.12,10.89,10.89,0,0,1-.27,2.36,13.18,13.18,0,0,1-.71,2.37,13.42,13.42,0,0,0,2-2.2,12.07,12.07,0,0,0,1.49-2.67.5.5,0,0,1,.61-.23.37.37,0,0,1,.23.23.43.43,0,0,1,0,.37,13.17,13.17,0,0,1-5.27,6.29,9.86,9.86,0,0,1-2.24,2.57,4.53,4.53,0,0,1-2.8,1,3.43,3.43,0,0,1-1.66-.41,4.56,4.56,0,0,1-1.21-1,5.59,5.59,0,0,1-.74-1.35,4.18,4.18,0,0,1-.27-1.42,12.43,12.43,0,0,1,.3-2.64,15.56,15.56,0,0,1,.91-2.67,10.09,10.09,0,0,1,1.42-2.3,6.28,6.28,0,0,1,1.93-1.62Z"/><path id="path4793" class="cls-4" d="M181.39,291.49a12.39,12.39,0,0,1-1.69,2.63,2.71,2.71,0,0,1-2.06,1.09,2.19,2.19,0,0,1-1.59-.58,2.51,2.51,0,0,1-.67-1.52,10.75,10.75,0,0,1,.1-3.07,14.93,14.93,0,0,1,.91-3.28,13.78,13.78,0,0,1,1.59-2.94,6.75,6.75,0,0,1,2.23-2,1.42,1.42,0,0,1,.84-.2,3.58,3.58,0,0,1,.95.2,5.43,5.43,0,0,1,.84.41l.85.4a2,2,0,0,0,.07-.2.64.64,0,0,1,.1-.24c.11-.29.27-.44.47-.44a2.52,2.52,0,0,1,1.18.38,6,6,0,0,1,1,.6.35.35,0,0,1,.13.34,1.19,1.19,0,0,1-.13.34,3.6,3.6,0,0,0-.31.85c-.38,1.19-.73,2.38-1,3.58s-.57,2.32-.82,3.38l-.06.3a22,22,0,0,0,2.53-2.8,14.94,14.94,0,0,0,2-3.65.39.39,0,0,1,.24-.27.4.4,0,0,1,.34,0,.54.54,0,0,1,.27.23.34.34,0,0,1,0,.34,16.18,16.18,0,0,1-2.5,4.43,24.9,24.9,0,0,1-3.21,3.27c-.25,1.11-.52,2.2-.82,3.28s-.63,2.15-1,3.21a7.25,7.25,0,0,1-1.62,2.7,3.82,3.82,0,0,1-2.94,1,3,3,0,0,1-1.22-.27,2.34,2.34,0,0,1-1-.81,2.6,2.6,0,0,1-.47-1.11,3.13,3.13,0,0,1,0-1.22,4.08,4.08,0,0,1,.41-1.15,4.19,4.19,0,0,1,.68-1,5.87,5.87,0,0,1,1-1c.38-.29.78-.57,1.18-.84s.81-.53,1.22-.78.82-.5,1.18-.74c.14-.48.27-.95.41-1.42S181.26,292,181.39,291.49Zm1.08-8.35a2.09,2.09,0,0,0-1.62.95,10,10,0,0,0-1.32,2.33,18.2,18.2,0,0,0-.94,2.87,16.6,16.6,0,0,0-.41,2.57,4.1,4.1,0,0,1,0,.41,4.89,4.89,0,0,0,0,.54,1.41,1.41,0,0,0,.14.44.31.31,0,0,0,.3.2,1.2,1.2,0,0,0,.85-.54,9.8,9.8,0,0,0,.87-1.42,20.64,20.64,0,0,0,.85-1.93c.29-.72.55-1.4.78-2.06l.6-1.82.41-1.22c0-.16.09-.3.13-.44a3.57,3.57,0,0,0,.17-.44.89.89,0,0,0-.81-.44Zm-5.27,18.55a1.34,1.34,0,0,0,.91-.44,2.87,2.87,0,0,0,.78-1.31c.2-.59.41-1.23.61-1.93s.45-1.43.68-2.2c-.39.27-.82.56-1.29.85a11.13,11.13,0,0,0-1.35,1,5.66,5.66,0,0,0-1,1.25,2.62,2.62,0,0,0-.38,1.48,2,2,0,0,0,.28.85.85.85,0,0,0,.77.4Z"/><path id="path4795" class="cls-4" d="M186.66,292.91a3,3,0,0,0,.07-.64c0-.21.06-.42.1-.65a46.13,46.13,0,0,1,1-4.89,33.86,33.86,0,0,1,1.55-4.57c.14-.29.31-.44.51-.44a1.67,1.67,0,0,1,.54.11,2.42,2.42,0,0,1,.64.27,3.16,3.16,0,0,1,.55.3,5.08,5.08,0,0,1,.43.3.36.36,0,0,1,.11.51,1.6,1.6,0,0,0-.24.54c-.29.75-.58,1.53-.85,2.37s-.48,1.66-.71,2.5-.42,1.64-.6,2.43-.3,1.45-.41,2.06c0,.25,0,.38.1.41a.44.44,0,0,0,.37-.17,11,11,0,0,0,1.46-1.83,20.86,20.86,0,0,0,1.21-2.23c.39-.76.72-1.52,1-2.26s.58-1.41.81-2a.48.48,0,0,1,.27-.27.4.4,0,0,1,.34,0,.37.37,0,0,1,.23.23.43.43,0,0,1,0,.37l-.61,1.52c-.25.64-.54,1.32-.88,2.07s-.71,1.45-1.11,2.19a17.72,17.72,0,0,1-1.29,2,7.84,7.84,0,0,1-1.42,1.45,2.26,2.26,0,0,1-1.42.58,1.63,1.63,0,0,1-.81-.21,2.2,2.2,0,0,1-.61-.54,3,3,0,0,1-.37-.74,2.47,2.47,0,0,1-.07-.81Z"/><path id="path4797" class="cls-4" d="M198.18,292.91a3,3,0,0,0,.07-.64c0-.21.06-.42.1-.65a.43.43,0,0,0,0-.23,13.37,13.37,0,0,1-1.69,2.7,2.75,2.75,0,0,1-2.1,1.12,2.15,2.15,0,0,1-1.58-.58,2.67,2.67,0,0,1-.65-1.52,11.86,11.86,0,0,1,.07-3.07,15.5,15.5,0,0,1,.91-3.28,13.78,13.78,0,0,1,1.59-2.94,6.75,6.75,0,0,1,2.23-2,1.36,1.36,0,0,1,.81-.2,2.46,2.46,0,0,1,.88.17,4.72,4.72,0,0,1,.88.37c.29.16.6.32.91.47a.34.34,0,0,0,.1-.2c0-.09.05-.17.07-.24.14-.29.3-.44.51-.44a1.67,1.67,0,0,1,.54.11,2.56,2.56,0,0,1,.64.27,3.45,3.45,0,0,1,.54.3,4.09,4.09,0,0,1,.44.3.36.36,0,0,1,.1.51,3.4,3.4,0,0,0-.27.54c-.27.75-.53,1.53-.78,2.37s-.47,1.66-.67,2.5-.38,1.64-.54,2.43-.29,1.45-.41,2.06c0,.25,0,.38.1.41a.44.44,0,0,0,.37-.17,9.47,9.47,0,0,0,1.42-1.83,20.94,20.94,0,0,0,1.22-2.23c.36-.76.68-1.52.95-2.26s.55-1.41.77-2a.51.51,0,0,1,.27-.27.4.4,0,0,1,.34,0,.42.42,0,0,1,.24.23.4.4,0,0,1,0,.37l-.61,1.52c-.22.64-.5,1.32-.84,2.07s-.71,1.45-1.12,2.19a14.26,14.26,0,0,1-1.25,2,7.28,7.28,0,0,1-1.35,1.45,2.26,2.26,0,0,1-1.42.58,1.63,1.63,0,0,1-.81-.21,2,2,0,0,1-.6-.54,2.73,2.73,0,0,1-.38-.74,2.47,2.47,0,0,1-.06-.81Zm-2.6.54a1.18,1.18,0,0,0,.85-.54,10.74,10.74,0,0,0,.88-1.42,18.29,18.29,0,0,0,.87-1.93c.28-.72.52-1.4.75-2.06s.45-1.28.61-1.82l.4-1.22c.05-.16.09-.3.14-.44a4.48,4.48,0,0,1,.2-.44.89.89,0,0,0-.81-.44,2.19,2.19,0,0,0-1.66.95,10,10,0,0,0-1.31,2.33,18.22,18.22,0,0,0-.95,2.87,16.6,16.6,0,0,0-.41,2.57,4.1,4.1,0,0,1,0,.41,4.89,4.89,0,0,0,0,.54,1.73,1.73,0,0,0,.14.44.33.33,0,0,0,.3.2Z"/></g><g id="text4743"><path id="path4767" class="cls-4" d="M192.25,280.63a1,1,0,0,1-.72-.29,1.08,1.08,0,0,1-.29-.75,1.63,1.63,0,0,1,.14-.55l2.69-6a1.82,1.82,0,0,1,.67-.84,1.69,1.69,0,0,1,.95-.29,1.77,1.77,0,0,1,1.27.52,1.67,1.67,0,0,1,.58,1.3,2.59,2.59,0,0,1-.64,1.62l-3.72,4.8a1.15,1.15,0,0,1-.93.49Z"/></g></g></svg>