<svg xmlns="http://www.w3.org/2000/svg" xmlns:xlink="http://www.w3.org/1999/xlink" viewBox="0 0 167.79 167.79"><defs><style>.cls-1{fill:none;}.cls-2{clip-path:url(#clip-path);}.cls-3{opacity:0.05;}.cls-4{fill:#7dd69b;}.cls-5{fill:#9f5ba2;}.cls-6{fill:#fff;}</style><clipPath id="clip-path"><rect class="cls-1" x="-90.88" y="-888.05" width="1366" height="623.8"/></clipPath></defs><g id="Capa_1" data-name="Capa 1"><polygon class="cls-4" points="19.62 62.15 68.48 120.48 94.58 49 19.62 62.15"/><polygon class="cls-5" points="23.91 83.65 89.82 121.7 89.82 45.6 23.91 83.65"/><path class="cls-6" d="M15.48,83.85a.25.25,0,0,1-.22-.13.26.26,0,0,1,.09-.35L47.51,65a.26.26,0,0,1,.25.45L15.61,83.81A.22.22,0,0,1,15.48,83.85Z"/><path class="cls-6" d="M56.25,70.38a.26.26,0,0,1-.22-.13.26.26,0,0,1,.09-.35l36.4-21.1a.25.25,0,0,1,.35.1.26.26,0,0,1-.09.35L56.38,70.34A.22.22,0,0,1,56.25,70.38Z"/><path class="cls-5" d="M15.48,83.34a.25.25,0,0,0-.22.13.26.26,0,0,0,.09.35l32.16,18.39a.26.26,0,0,0,.35-.09.26.26,0,0,0-.1-.35L15.61,83.38A.22.22,0,0,0,15.48,83.34Z"/><path class="cls-6" d="M61.64,94A18.58,18.58,0,0,1,61.77,98c1.33-.69,13.46-7.32,17.58-19.94,0,0-5.25,10.21-13.22,15.25,0,0-3-7.69,2.1-11.6s12.11-6.37,13.66-12.45c0,0,6.46,24.79-14.09,25.94a27.87,27.87,0,0,1-6.11,4l0-.48c0,.16-.07.33-.11.48l-.9-.45s1.84-10.45-3.95-18.55c0,0,3.63,7.27,3.16,13.93,0,0-5.15-1.55-5.73-6.08-.54-4.23,1.45-9.59-1.36-13C52.78,75,69.61,81.74,61.64,94Z"/><path d="M104.2,76.47h-3.3V68.08l-3.73,6.13H96.8l-3.73-6.13v8.39h-3.3V62h3.3L97,68.45,100.9,62h3.3Z"/><path d="M109.4,62V76.47h-3.3V62Z"/><path d="M110.38,73.2l2.84-1.65a3,3,0,0,0,3,2c1.57,0,2-.62,2-1.18,0-.89-.82-1.24-3-1.83S111,68.91,111,66.15s2.35-4.4,4.84-4.4A5.61,5.61,0,0,1,121.1,65l-2.78,1.63a2.54,2.54,0,0,0-2.5-1.67c-1,0-1.55.52-1.55,1.09s.36,1.12,2.6,1.8,4.64,1.42,4.64,4.47c0,2.78-2.23,4.43-5.36,4.43S111.18,75.32,110.38,73.2Z"/><path d="M125.78,62V76.47h-3.29V62Z"/><path d="M127,69.26a7.51,7.51,0,1,1,7.51,7.5A7.44,7.44,0,0,1,127,69.26Zm11.71,0a4.21,4.21,0,1,0-4.2,4.29A4.1,4.1,0,0,0,138.68,69.26Zm-3.09-8.66L138,57.71h-3.71l-1.65,2.89Z"/><path d="M154.51,62V76.47H152l-5.57-7.83v7.83h-3.3V62h2.47l5.57,7.84V62Z"/><path d="M94.14,92.3a28.57,28.57,0,0,1,3.06-.6,19.77,19.77,0,0,1,2.93-.24,6.77,6.77,0,0,1,1.55.15,2.65,2.65,0,0,1,1,.41,1.35,1.35,0,0,1,.5.6,2,2,0,0,1,.15.78,2.1,2.1,0,0,1-.08.56,2.31,2.31,0,0,1-.18.47,1.27,1.27,0,0,1-.23.33.41.41,0,0,1-.25.13q-.21,0-.21-.51a.78.78,0,0,0-.25-.59,2,2,0,0,0-.68-.4,4.09,4.09,0,0,0-1-.23,10.63,10.63,0,0,0-1.3-.07q-.81,0-1.71.09c-.6,0-1.2.13-1.81.23s-1.2.21-1.77.35-1.1.3-1.59.46a8.86,8.86,0,0,0-1.29.52,3.3,3.3,0,0,0-.82.55.25.25,0,0,1-.15.1c-.08,0-.14,0-.18-.16a1,1,0,0,1-.06-.36,1.81,1.81,0,0,1,.1-.58,1.19,1.19,0,0,1,.38-.49,3.24,3.24,0,0,1,.76-.45,13.2,13.2,0,0,1,1.26-.5,1.2,1.2,0,0,1-.06-.4,3.7,3.7,0,0,1,.32-1.1,20.22,20.22,0,0,1,.87-1.83c.36-.71.79-1.47,1.28-2.31s1-1.66,1.55-2.5,1.09-1.65,1.66-2.43,1.11-1.47,1.63-2.07a12.16,12.16,0,0,1,1.46-1.44,2,2,0,0,1,1.16-.54,2.06,2.06,0,0,1,.91.19,2.38,2.38,0,0,1,.7.51,2.31,2.31,0,0,1,.44.74,2.52,2.52,0,0,1,.16.86,5,5,0,0,1-.21,1.18,14.67,14.67,0,0,1-.56,1.71c-.24.63-.51,1.27-.82,1.92a14.83,14.83,0,0,1-1,1.78,6.86,6.86,0,0,1-1.1,1.32,1.63,1.63,0,0,1-1.08.51,1.78,1.78,0,0,1-.69-.12,1.54,1.54,0,0,1-.47-.31,1.18,1.18,0,0,1-.25-.39,1,1,0,0,1-.08-.36c0-.19,0-.29.16-.29a.3.3,0,0,1,.19.1.34.34,0,0,0,.21.1c.2,0,.44-.17.74-.51a10.42,10.42,0,0,0,.94-1.28c.32-.52.65-1.1,1-1.73s.62-1.25.88-1.86.48-1.16.64-1.66A4.12,4.12,0,0,0,103,79.5c0-.2-.06-.31-.17-.31a1.34,1.34,0,0,0-.78.41A10.43,10.43,0,0,0,101,80.7c-.39.46-.81,1-1.24,1.62s-.87,1.28-1.32,2-.89,1.43-1.32,2.17-.84,1.46-1.22,2.16-.72,1.37-1,2S94.32,91.82,94.14,92.3Z"/><path d="M114.64,87.56a.2.2,0,0,1,.14-.06.33.33,0,0,1,.26.18.6.6,0,0,1,.13.34.31.31,0,0,1-.08.22,5.5,5.5,0,0,0-.45.42c-.22.22-.48.47-.79.75l-1,.87c-.36.3-.72.58-1.08.83a10,10,0,0,1-1,.63A1.83,1.83,0,0,1,110,92a1.48,1.48,0,0,1-.58-.13,1.65,1.65,0,0,1-.52-.33,1.48,1.48,0,0,1-.35-.47,1.27,1.27,0,0,1-.14-.58,3.37,3.37,0,0,1,.17-.89c.12-.37.27-.78.45-1.22-.44.52-.89,1-1.34,1.55s-.9,1-1.31,1.4a9.5,9.5,0,0,1-1.12,1,1.47,1.47,0,0,1-.77.39,1.3,1.3,0,0,1-1-.42,1.64,1.64,0,0,1-.35-1.09,2.36,2.36,0,0,1,.19-.79c.13-.33.3-.7.5-1.11s.44-.82.7-1.26.51-.83.75-1.21.47-.72.69-1a5.86,5.86,0,0,1,.51-.64.67.67,0,0,1,.44-.17.81.81,0,0,1,.39.1,1.41,1.41,0,0,1,.36.24,1.39,1.39,0,0,1,.26.29.47.47,0,0,1,.1.24.15.15,0,0,1,0,.08,4.89,4.89,0,0,0-.42.52q-.28.39-.63.9c-.23.34-.46.71-.7,1.1s-.46.77-.65,1.13-.35.69-.48,1a2.07,2.07,0,0,0-.2.69q0,.21.18.21c.06,0,.23-.14.49-.42s.59-.64,1-1.07.79-.92,1.23-1.45l1.3-1.55,1.14-1.34q.51-.6.78-.87a.55.55,0,0,1,.41-.18.71.71,0,0,1,.35.11,1.48,1.48,0,0,1,.56.55.54.54,0,0,1,.09.25s0,.09,0,.1a3.53,3.53,0,0,0-.53.86c-.21.43-.42.9-.64,1.42s-.39,1-.54,1.5a4,4,0,0,0-.22,1.09c0,.18,0,.27.13.27a1.07,1.07,0,0,0,.46-.2c.21-.14.45-.31.71-.52s.55-.43.85-.68.59-.5.86-.74.52-.45.73-.64Z"/><path d="M124.69,87.68a.47.47,0,0,1,.42.22.72.72,0,0,1,.14.4c0,.11,0,.17-.11.17a4.5,4.5,0,0,0-1.61.4,23.44,23.44,0,0,0-2.18,1,9,9,0,0,1-.61,1.45c-.27.54-.6,1.09-1,1.66s-.77,1.12-1.2,1.66a13.42,13.42,0,0,1-1.32,1.45,7,7,0,0,1-1.32,1,2.49,2.49,0,0,1-1.22.38,1.95,1.95,0,0,1-1.35-.52,1.5,1.5,0,0,1-.39-.54,1.59,1.59,0,0,1-.13-.64,2.22,2.22,0,0,1,.61-1.28A12.41,12.41,0,0,1,115,93c.65-.56,1.39-1.13,2.2-1.7s1.65-1.09,2.49-1.58a2.6,2.6,0,0,0,.11-.7c0-.14-.07-.21-.23-.21a1.33,1.33,0,0,0-.49.11l-.65.24c-.23.09-.47.17-.7.24a2.34,2.34,0,0,1-.65.1,1,1,0,0,1-.68-.24.64.64,0,0,1-.27-.43c0-.13.09-.19.25-.19h0s0,0,0,0h.14a1.91,1.91,0,0,0,.72-.3,10.12,10.12,0,0,0,.88-.64c.31-.25.63-.53.94-.83s.62-.61.9-.9c-.61.22-1.22.43-1.85.63a14.89,14.89,0,0,1-1.69.45c-.6.63-1.08,1.11-1.42,1.43s-.6.55-.78.7a1.42,1.42,0,0,1-.35.23l-.09,0a.54.54,0,0,1-.35-.13.35.35,0,0,1-.18-.28.22.22,0,0,1,.07-.1l.28-.28.59-.56,1-1a1.21,1.21,0,0,1-.31-.21,1.45,1.45,0,0,1-.27-.29,2.29,2.29,0,0,1-.2-.31.72.72,0,0,1-.08-.27c0-.13.08-.2.22-.2a6.87,6.87,0,0,0,1.1-.1c.42-.07.87-.17,1.34-.28s1-.25,1.42-.4.92-.3,1.33-.45.76-.31,1.06-.46a2.62,2.62,0,0,0,.65-.41.22.22,0,0,1,.17-.06.82.82,0,0,1,.33.09,1.57,1.57,0,0,1,.37.22,1.94,1.94,0,0,1,.29.28.47.47,0,0,1,.11.28.23.23,0,0,1-.07.17L119.19,88l.67-.12a3.36,3.36,0,0,1,.45,0,1.18,1.18,0,0,1,.7.24,1.16,1.16,0,0,1,.46.63A13.14,13.14,0,0,1,123.3,88,4.47,4.47,0,0,1,124.69,87.68Zm-10.8,8.85a.2.2,0,0,0,.15.06,1.78,1.78,0,0,0,.9-.48,11.67,11.67,0,0,0,1.33-1.22c.47-.5,1-1.06,1.44-1.67A15.56,15.56,0,0,0,119,91.39c-.68.45-1.33.91-2,1.39s-1.17.94-1.65,1.38a10.28,10.28,0,0,0-1.15,1.2,1.7,1.7,0,0,0-.43.9A.37.37,0,0,0,113.89,96.53Z"/><path d="M108.76,98a.44.44,0,0,1-.15-.26.2.2,0,0,1,.11-.17.65.65,0,0,1,.29-.06,1.58,1.58,0,0,1,.49.1A1.41,1.41,0,0,1,110,98a1.72,1.72,0,0,1,.4.57,2,2,0,0,1,.17.85,3.52,3.52,0,0,1-.35,1.21,18,18,0,0,1-.94,1.84q-.58,1-1.38,2.25t-1.68,2.4c-.59.79-1.2,1.56-1.82,2.29a23.44,23.44,0,0,1-1.8,1.95,11.46,11.46,0,0,1-1.66,1.36,2.6,2.6,0,0,1-1.33.5,1.78,1.78,0,0,1-.75-.16,2.15,2.15,0,0,1-.65-.4,1.93,1.93,0,0,1-.45-.58,1.43,1.43,0,0,1-.18-.7A4.51,4.51,0,0,1,97.9,110c.21-.6.46-1.27.76-2s.64-1.51,1-2.32.69-1.57,1-2.3.56-1.38.77-2a4.57,4.57,0,0,0,.31-1.32.67.67,0,0,0,0-.28c0-.05-.12-.08-.26-.08a5.19,5.19,0,0,0-1.33.28c-.61.18-1.3.43-2.06.74s-1.56.66-2.37,1A23,23,0,0,0,93.43,103a12.12,12.12,0,0,0-1.67,1.21,1.58,1.58,0,0,0-.64,1c0,.28-.1.41-.29.41a.61.61,0,0,1-.31-.11,1.6,1.6,0,0,1-.33-.31,1.91,1.91,0,0,1-.26-.47,1.55,1.55,0,0,1-.11-.56,1.85,1.85,0,0,1,.64-1.25,8.56,8.56,0,0,1,1.65-1.26,20.65,20.65,0,0,1,2.26-1.18c.83-.37,1.66-.7,2.47-1s1.56-.5,2.26-.66a7.25,7.25,0,0,1,1.64-.25,2.06,2.06,0,0,1,.85.18,2.55,2.55,0,0,1,.72.49,2.72,2.72,0,0,1,.49.69,1.73,1.73,0,0,1,.18.76,4.73,4.73,0,0,1-.26,1.24c-.17.58-.39,1.24-.64,2s-.55,1.52-.86,2.35-.59,1.61-.85,2.35-.47,1.4-.64,2a4.76,4.76,0,0,0-.26,1.23c0,.16,0,.24.11.24s.39-.16.73-.48a14.55,14.55,0,0,0,1.2-1.28c.47-.54,1-1.17,1.52-1.87s1.1-1.43,1.64-2.2,1.08-1.54,1.59-2.33,1-1.53,1.34-2.23a20.62,20.62,0,0,0,.94-1.9,3.63,3.63,0,0,0,.36-1.34A.59.59,0,0,0,108.76,98Z"/><path d="M113.36,107a.21.21,0,0,1,.12,0,.36.36,0,0,1,.28.18.65.65,0,0,1,.12.36.26.26,0,0,1-.07.19l-.45.43c-.22.22-.48.46-.79.74s-.65.57-1,.87-.72.58-1.08.83a10,10,0,0,1-1,.63,1.7,1.7,0,0,1-.78.25,1.34,1.34,0,0,1-1-.44,1.5,1.5,0,0,1-.42-1.07,2.52,2.52,0,0,1,.17-.76,9.15,9.15,0,0,1,.43-1c.17-.38.37-.76.59-1.16s.44-.78.66-1.13.41-.66.61-.93a4.31,4.31,0,0,1,.48-.61.6.6,0,0,1,.45-.18,1.21,1.21,0,0,1,.44.1,2.86,2.86,0,0,1,.42.24,2.81,2.81,0,0,1,.3.29.49.49,0,0,1,.11.24.13.13,0,0,1,0,.08,4.42,4.42,0,0,0-.39.5c-.18.25-.37.54-.57.86s-.42.68-.63,1-.41.72-.58,1.06a10.14,10.14,0,0,0-.43.92,1.77,1.77,0,0,0-.16.6c0,.1,0,.15.11.15a1,1,0,0,0,.46-.2l.72-.51.86-.69c.31-.25.59-.49.86-.73l.73-.65C113.12,107.21,113.27,107.06,113.36,107Zm-.44-8.19a.83.83,0,0,1,.6-.27,1.2,1.2,0,0,1,.58.17,2.59,2.59,0,0,1,.51.42,2.54,2.54,0,0,1,.37.51,1.12,1.12,0,0,1,.14.46c0,.19-.1.28-.29.28a1,1,0,0,0-.55.26,5.3,5.3,0,0,0-.66.61,6.36,6.36,0,0,0-.54.71,1.12,1.12,0,0,0-.22.52c0,.16-.1.23-.31.23a1.13,1.13,0,0,1-.59-.19.59.59,0,0,1-.32-.5,2.81,2.81,0,0,1,.13-.79,6.89,6.89,0,0,1,.31-.94,5.85,5.85,0,0,1,.4-.87A2.75,2.75,0,0,1,112.92,98.78Z"/><path d="M123.51,97.72a.56.56,0,0,1,.42-.18.94.94,0,0,1,.39.1,1.69,1.69,0,0,1,.36.23,1.39,1.39,0,0,1,.26.29.54.54,0,0,1,.09.25s0,.07,0,.08a11.14,11.14,0,0,0-1,1.29c-.42.61-.88,1.3-1.38,2.08s-1,1.6-1.5,2.47-1,1.68-1.37,2.44-.75,1.45-1,2a4,4,0,0,0-.38,1.22c0,.11,0,.17.11.17A1.22,1.22,0,0,0,119,110c.24-.16.51-.36.82-.61l1-.78.92-.78.69-.61a1.78,1.78,0,0,1,.29-.24.35.35,0,0,1,.28.17.62.62,0,0,1,.12.35.28.28,0,0,1-.07.21c-.08.06-.23.21-.45.43s-.48.46-.79.74-.65.57-1,.87-.71.58-1.07.83a10,10,0,0,1-1,.63,1.77,1.77,0,0,1-.79.25,1.31,1.31,0,0,1-1-.45,1.48,1.48,0,0,1-.42-1.06,1.77,1.77,0,0,1,.17-.56c.11-.26.26-.57.44-.95-.36.42-.75.84-1.15,1.27s-.81.83-1.19,1.18a10.33,10.33,0,0,1-1.09.87,1.67,1.67,0,0,1-.85.34,1,1,0,0,1-.86-.44,1.85,1.85,0,0,1-.3-1.07,3.42,3.42,0,0,1,.28-1.19,9.91,9.91,0,0,1,.75-1.43,15.25,15.25,0,0,1,1.07-1.48,13.16,13.16,0,0,1,1.26-1.31,7.42,7.42,0,0,1,1.3-.94,2.55,2.55,0,0,1,1.21-.36,1.8,1.8,0,0,1,1,.27,1.43,1.43,0,0,1,.57.64c.45-.78.92-1.57,1.39-2.36s.93-1.5,1.35-2.16.78-1.21,1.08-1.66A7.69,7.69,0,0,1,123.51,97.72Zm-10.32,13a1.26,1.26,0,0,0,.5-.32c.26-.21.56-.48.92-.82s.73-.7,1.13-1.1.78-.79,1.16-1.16l1-1c.29-.31.5-.52.63-.65a.3.3,0,0,1,0-.1.48.48,0,0,0,0-.19,1.11,1.11,0,0,0-.13-.27,1.14,1.14,0,0,0-.2-.23.36.36,0,0,0-.24-.1,1.3,1.3,0,0,0-.73.4,9.58,9.58,0,0,0-1,1c-.35.41-.7.86-1.06,1.34s-.67,1-1,1.39-.53.82-.71,1.15a1.89,1.89,0,0,0-.27.62S113.16,110.76,113.19,110.76Z"/><path d="M132.51,107a.21.21,0,0,1,.12,0,.33.33,0,0,1,.28.17.63.63,0,0,1,.13.35.29.29,0,0,1-.08.21l-.45.43c-.21.22-.48.46-.79.74s-.64.57-1,.87-.72.58-1.08.83a10,10,0,0,1-1,.63,1.77,1.77,0,0,1-.78.25,1.32,1.32,0,0,1-1-.44,1.49,1.49,0,0,1-.41-1.07,2.77,2.77,0,0,1,.2-1,6.85,6.85,0,0,1,.51-1.11c-.45.4-.92.84-1.42,1.34s-1,1-1.47,1.39A15.13,15.13,0,0,1,123,111.6a2,2,0,0,1-1,.44,1,1,0,0,1-.86-.44,1.82,1.82,0,0,1-.3-1.07,3.29,3.29,0,0,1,.29-1.18,9.49,9.49,0,0,1,.79-1.44,14.41,14.41,0,0,1,1.12-1.48,12.39,12.39,0,0,1,1.3-1.31,7.64,7.64,0,0,1,1.34-.94,2.52,2.52,0,0,1,1.21-.36,1.87,1.87,0,0,1,.68.12,1.56,1.56,0,0,1,.52.31,1.54,1.54,0,0,1,.34.43,1.12,1.12,0,0,1,.13.48.54.54,0,0,1-.17.43.49.49,0,0,1-.32.15q-.09,0-.15-.15c0-.09-.08-.2-.13-.33a.92.92,0,0,0-.18-.32.4.4,0,0,0-.33-.15,1.36,1.36,0,0,0-.76.41,10.66,10.66,0,0,0-1,1c-.36.41-.73.85-1.1,1.34s-.71,1-1,1.4a13.62,13.62,0,0,0-.75,1.14,1.89,1.89,0,0,0-.29.61s0,0,0,0a1.88,1.88,0,0,0,.55-.35l1.1-.9,1.39-1.17c.5-.42,1-.82,1.44-1.19s.89-.69,1.26-.95a2.16,2.16,0,0,1,.83-.42,1.22,1.22,0,0,1,.46.09,2.5,2.5,0,0,1,.41.25,1.73,1.73,0,0,1,.31.28.43.43,0,0,1,.12.25.1.1,0,0,1,0,.07,4.77,4.77,0,0,0-.53.68c-.2.31-.4.64-.59,1a10.13,10.13,0,0,0-.5,1,2.05,2.05,0,0,0-.2.7c0,.09,0,.13.1.13a1,1,0,0,0,.45-.2l.73-.51.86-.69.86-.73.72-.65C132.27,107.21,132.42,107.06,132.51,107Z"/><path d="M135.82,95.65v4.16h-2.47V95.65L129.71,89h2.82l2.05,4.18L136.64,89h2.81Z"/></g></svg>