<svg xmlns="http://www.w3.org/2000/svg" xmlns:xlink="http://www.w3.org/1999/xlink" viewBox="0 0 167.79 167.79"><defs><style>.cls-1{fill:none;}.cls-2{clip-path:url(#clip-path);}.cls-3{opacity:0.05;}.cls-4{font-size:7.42px;font-family:Poppins-ExtraLight, Poppins;font-weight:200;}.cls-4,.cls-5{fill:#0d4084;}.cls-6,.cls-7{fill:#3bd6c6;}.cls-7{stroke:#3bd6c6;stroke-miterlimit:10;stroke-width:0.25px;}</style><clipPath id="clip-path"><rect class="cls-1" x="-275.76" y="-888.04" width="1366" height="623.8"/></clipPath></defs><g id="Capa_1" data-name="Capa 1"><text class="cls-4" transform="translate(63.4 131.23)">Tabernaculo<tspan x="4.05" y="7.42">Apostolico</tspan><tspan x="8.76" y="14.84">de la Fe</tspan></text><path class="cls-5" d="M117.78,51a.32.32,0,0,0,.32-.31c0-.39,0-.77,0-1.15a32,32,0,0,0-.38-4.93v-.24c-2.8-15.46-16.15-27.66-32.29-27.66-18.19,0-33,15.51-33,33.7A32.78,32.78,0,0,0,59.8,71.2h0l2.58-.31a.46.46,0,0,0,.34-.19l.36-.48,0,0a33,33,0,0,1-7.81-20.83A31.22,31.22,0,0,1,64.2,27.28l.07.06c.39.33.86.7,1.39,1.09a31.38,31.38,0,0,0,2.69,1.73c1.22.71,2.17,1.18,2.88,1.53a37.49,37.49,0,0,0,3.84,1.73,25,25,0,0,0,4.61,1.35l.77.13,2.69.44L82,35c-.79-.21-1.5-.43-2.14-.64-2.14-.7-3.69-1.38-4-1.53-1.15-.52-2-.94-3.07-1.54a37.2,37.2,0,0,1-3.65-2.11,18.69,18.69,0,0,1-2.69-2.11c-.37-.37-.68-.73-.94-1h0a29.91,29.91,0,0,1,4.6-3.38h0A21.2,21.2,0,0,0,73,25,23.81,23.81,0,0,0,76,26.7c1.15.56,2.12.94,2.69,1.15.77.29,1.4.49,2.31.77s1.43.44,1.92.58l.76.19c-.64-.25-1.42-.57-2.3-1-1-.46-1.81-.82-2.5-1.15-1.08-.52-1.63-.78-2.3-1.15-.41-.23-1.08-.6-1.92-1.16a19.54,19.54,0,0,1-2.31-1.72c-.47-.43-.88-.83-1.21-1.18h0A28.49,28.49,0,0,1,76,20h0l1,.55a24.93,24.93,0,0,0,2.5,1.15,17.3,17.3,0,0,0,5.08.94h0a20.12,20.12,0,0,1-3-.75,17.07,17.07,0,0,1-2.3-1,9.67,9.67,0,0,1-1.92-1.15,1.26,1.26,0,0,0-.17-.13l.05,0a30,30,0,0,1,8.76-1A33.06,33.06,0,0,1,103,23.89h0l-.43.12a14.31,14.31,0,0,1-1.73.39,16.24,16.24,0,0,1-2.11.19,20.32,20.32,0,0,1-3-.16l.14,0,.4.12a13.46,13.46,0,0,0,2.11.38,20.45,20.45,0,0,0,5.18-.19l.62-.11,0,0a32.33,32.33,0,0,1,4.28,3.63h0a9.34,9.34,0,0,1-.9.49,12,12,0,0,1-2.88,1,24.28,24.28,0,0,1-3.45.58c-.35,0-1.36.14-3.65.19-1,0-2.55,0-4.13,0h-.67l1.54.19c.47.06.74.13,1.53.2.5,0,1.78.15,2.88.19a29.31,29.31,0,0,0,5.76-.39,16.48,16.48,0,0,0,3.27-.76c.59-.22,1.13-.46,1.61-.69h0a31.87,31.87,0,0,1,3.41,4.48h0c-.5.25-1,.45-1.37.62a27.93,27.93,0,0,1-2.89,1c-1,.31-1.81.54-2.88.77a31.18,31.18,0,0,1-3.84.58c-.6.06-1.61.15-2.88.19-.63,0-1.51,0-2.68,0s-2-.14-2.5-.19l-1.39-.17.07,0,.34.14h0c.37.11.89.25,1.52.38a22.29,22.29,0,0,0,3.26.39,39.8,39.8,0,0,0,4,0,53.39,53.39,0,0,0,5.38-.58,33.83,33.83,0,0,0,4.61-1c.75-.22,1.44-.46,2-.69h0a31.64,31.64,0,0,1,3.27,8.8l.15.87,0,.05a30,30,0,0,1,.36,4.95c0,.25,0,.49,0,.73a.37.37,0,0,0,.37.38Z"/><path class="cls-5" d="M114.19,98.87c-.93-.33-2.2-.76-3.73-1.17a37.92,37.92,0,0,0-6.08-1.18,39.77,39.77,0,0,0-4.91-.2,38.64,38.64,0,0,0-4.71.4h-.2c1.22-.65,2.81-1.45,4.52-2.16.88-.37,1.81-.73,2-.79.49-.19,1.3-.49,2.16-.78.11,0,1.76-.59,3.53-1a35.45,35.45,0,0,1,8.24-.79,29.68,29.68,0,0,1,6.48.79,27.48,27.48,0,0,1,4.71,1.57c.51.22,1.24.59,2,1,.43.23.84.45,1.38.78.39.25.67.44,1.18.79s1,.68,1.37,1a15.51,15.51,0,0,1,1.37,1.18,14.42,14.42,0,0,1,1.18,1.17,12,12,0,0,1,1.18,1.57.43.43,0,0,0,.59.2.41.41,0,0,0,0-.54.24.24,0,0,1-.06-.11l-.07-.21s0,0,0,0c-.45-1.07-1.19-2.38-2-4a62.13,62.13,0,0,0-3.73-6.08,66,66,0,0,0-5.3-7.07,35.42,35.42,0,0,0-4.71-4.71,33.59,33.59,0,0,0-4.32-2.94c-3.2-1.85-4.81-2.09-5.49-2.16a10.19,10.19,0,0,0-2.16,0,.44.44,0,0,0-.2,0,.77.77,0,0,0-.39,1,.74.74,0,0,0,.22.29.5.5,0,0,0,.31.1h.09a15.13,15.13,0,0,1,2.52.58,16.6,16.6,0,0,1,3.34,1.57A25.9,25.9,0,0,1,118.7,80a29.26,29.26,0,0,1,3,3.14c.49.59,1.16,1.4,2,2.55.21.31.85,1.26,1.57,2.56a18.73,18.73,0,0,1,1,2l.32.74a.43.43,0,0,1-.54.57c-.51-.19-1.07-.38-1.54-.53a24.15,24.15,0,0,0-3.73-.78c-1.77-.27-3.14-.37-3.54-.39a36.06,36.06,0,0,0-4.9,0c-.87.05-1.58.13-2.16.19-1,.11-1.93.21-2.95.4a27.8,27.8,0,0,0-3.73,1c-1.89.58-3.31,1.13-3.92,1.37-1.66.66-2.87,1.24-3.14,1.37-1.74.85-3.09,1.64-3.93,2.16s-1.71,1.11-2.32,1.55l-.06,0-.09.09a.42.42,0,0,1-.18.11,18.92,18.92,0,0,0-2.06.75c-.58.26-1.1.53-1.57.79l.3-.49a17.89,17.89,0,0,1,1.27-1.87c.25-.34.88-1.09,2.16-2.55A21.88,21.88,0,0,1,92.4,92.2l.79-.59L94,91c.51-.36.92-.62,1.18-.78.56-.35,1-.58,1.37-.79.78-.41,1.39-.69,1.57-.78.58-.27,1-.44,1.38-.59.73-.29,1.09-.44,1.57-.59s1-.27,1.57-.39l1-.2a20.92,20.92,0,0,1,3.14-.39c.72,0,1.26,0,1.37,0a15,15,0,0,1,2.22.27l.1,0,1.5.76,0,0c.15.08.3.19.58.38a4,4,0,0,0,.59.39,2.17,2.17,0,0,0,.59.2c.2,0,.3.05.39,0a.42.42,0,0,0,.2-.2,1.32,1.32,0,0,0,0-.71,6.76,6.76,0,0,0-.42-1,7.42,7.42,0,0,0-.56-.93l0,0a22.14,22.14,0,0,0-1.53-2.19c-.55-.69-1-1.18-1.57-1.77-.7-.73-1.31-1.33-1.77-1.77a27.53,27.53,0,0,0-2.94-2.35,29.71,29.71,0,0,0-2.95-1.77l-.76-.39a.52.52,0,0,0-.59.2.53.53,0,0,0,0,.59l.08.09a17.6,17.6,0,0,1,2.94,2.16,22.62,22.62,0,0,1,2.75,3c.68.86,1.18,1.59,1.57,2.16.57.84,1,1.58,1.37,2.15l-.1.1a23,23,0,0,0-5.39-.29,19.7,19.7,0,0,0-3.34.59,23.12,23.12,0,0,0-5.69,2.35A25.43,25.43,0,0,0,90.64,92a27.29,27.29,0,0,0-3.93,4.31l-.08.12a.43.43,0,0,1-.78-.22L85.14,83.6v.23l-.7,12.39a.43.43,0,0,1-.78.22l-.08-.12A27.29,27.29,0,0,0,79.66,92,25.09,25.09,0,0,0,75,88.47a23.12,23.12,0,0,0-5.69-2.35,19.82,19.82,0,0,0-3.33-.59,23,23,0,0,0-5.4.29l-.1-.1c.34-.57.8-1.31,1.37-2.15.39-.57.89-1.3,1.57-2.16a22.62,22.62,0,0,1,2.75-3,19,19,0,0,1,2.08-1.63.51.51,0,0,0-.1-.9L68,75.88a.47.47,0,0,0-.35,0,29.34,29.34,0,0,0-2.77,1.68,26.57,26.57,0,0,0-2.95,2.35c-.46.44-1.07,1-1.76,1.77s-1,1.08-1.57,1.77A20.43,20.43,0,0,0,57,85.66l0,0a6.68,6.68,0,0,0-.55.93,6.81,6.81,0,0,0-.43,1,1.32,1.32,0,0,0,0,.71.42.42,0,0,0,.2.2c.09.05.19,0,.39,0a2.06,2.06,0,0,0,.59-.2,4,4,0,0,0,.59-.39c.28-.19.43-.3.58-.38l0,0,1.5-.76.11,0a14.64,14.64,0,0,1,2.21-.27c.11,0,.65,0,1.37,0a20.92,20.92,0,0,1,3.14.39l1,.2c.54.12,1,.22,1.57.39s.84.3,1.57.59c.36.15.8.32,1.38.59.18.09.79.37,1.57.78.38.21.81.44,1.37.79.26.16.67.42,1.18.78l.78.59.79.59a21.88,21.88,0,0,1,2.55,2.55c1.28,1.46,1.91,2.21,2.16,2.55a17.89,17.89,0,0,1,1.27,1.87l.3.49c-.47-.26-1-.53-1.57-.79a18.19,18.19,0,0,0-2.06-.75.42.42,0,0,1-.18-.11l-.09-.09-.06,0c-.61-.44-1.39-1-2.32-1.55S75.71,95,74,94.16c-.27-.13-1.48-.71-3.14-1.37-.61-.24-2-.79-3.92-1.37a27.8,27.8,0,0,0-3.73-1c-1-.19-2-.29-3-.4-.57-.06-1.29-.14-2.16-.19a36.06,36.06,0,0,0-4.9,0c-.4,0-1.77.12-3.54.39a24,24,0,0,0-3.72.78c-.48.15-1,.34-1.55.53a.43.43,0,0,1-.54-.57l.32-.74a18.73,18.73,0,0,1,1-2c.72-1.3,1.36-2.25,1.57-2.56.8-1.15,1.47-2,2-2.55a29.26,29.26,0,0,1,3-3.14,25.67,25.67,0,0,1,4.32-3.14,16.23,16.23,0,0,1,3.33-1.57,15.13,15.13,0,0,1,2.52-.58h.09a.5.5,0,0,0,.31-.1.74.74,0,0,0,.22-.29.77.77,0,0,0-.39-1,.44.44,0,0,0-.2,0,10.18,10.18,0,0,0-2.16,0c-.67.07-2.29.31-5.49,2.16a34.42,34.42,0,0,0-4.32,2.94,36,36,0,0,0-4.71,4.71,66,66,0,0,0-5.3,7.07,62.13,62.13,0,0,0-3.73,6.08c-.86,1.63-1.6,2.94-2.05,4l0,0-.07.21a.24.24,0,0,1-.06.11.37.37,0,1,0,.63.34,12,12,0,0,1,1.18-1.57,14.42,14.42,0,0,1,1.18-1.17,15.51,15.51,0,0,1,1.37-1.18c.39-.3.72-.53,1.37-1s.79-.54,1.18-.79c.54-.33,1-.55,1.38-.78.72-.39,1.46-.76,2-1A27.48,27.48,0,0,1,48.85,92a29.74,29.74,0,0,1,6.48-.79,35.45,35.45,0,0,1,8.24.79c1.77.39,3.42.94,3.53,1,.86.29,1.67.59,2.16.78.15.06,1.08.42,2,.79,1.71.71,3.3,1.51,4.52,2.16h-.2a38.64,38.64,0,0,0-4.71-.4,39.44,39.44,0,0,0-4.9.2,38.1,38.1,0,0,0-6.09,1.18c-1.53.41-2.8.84-3.73,1.17l-1,.42a.42.42,0,0,1-.55-.55l.41-1,.86-2.22a.92.92,0,0,0-.09-.82.73.73,0,0,0-.37-.3.55.55,0,0,0-.16,0,.94.94,0,0,0-.78.5l-5.3,10.24a.3.3,0,0,0-.05.16,1,1,0,0,0,.4.9,1.06,1.06,0,0,0,1.37-.2l.1-.1a7.66,7.66,0,0,1,1.57-1.76,17.85,17.85,0,0,1,3.73-2.16A34.5,34.5,0,0,1,63,99.86a30.79,30.79,0,0,1,5.69-.79,29.91,29.91,0,0,1,8.74.69,14.42,14.42,0,0,1,7.65,4.91l.1.09.08-.09a14.42,14.42,0,0,1,7.65-4.91,29.91,29.91,0,0,1,8.74-.69,30.79,30.79,0,0,1,5.69.79,34.5,34.5,0,0,1,6.77,2.06,17.85,17.85,0,0,1,3.73,2.16,7.66,7.66,0,0,1,1.57,1.76l.1.1a1.06,1.06,0,0,0,1.37.2,1,1,0,0,0,.4-.9.42.42,0,0,0,0-.16l-5.31-10.24a.92.92,0,0,0-.78-.5.55.55,0,0,0-.16,0,.73.73,0,0,0-.37.3.92.92,0,0,0-.09.82l.86,2.22.41,1a.42.42,0,0,1-.55.55l-1-.42"/><path class="cls-6" d="M88.68,55c.3-.3.54-.56.72-.75a8.89,8.89,0,0,0,.94-1.19,5.72,5.72,0,0,0,.43-.86,1.14,1.14,0,0,0,.1-.28.85.85,0,0,0,.07-.54.45.45,0,0,0-.16-.25.83.83,0,0,0-.43-.22,9.08,9.08,0,0,0-1.89,0c-.14,0-.54,0-1.34,0s-1.62,0-2,0a17.92,17.92,0,0,1-3.71-.64c-.45-.11-1.55-.39-2.92-.87a19,19,0,0,1-2.83-1.14A20.73,20.73,0,0,1,73,46.51c-.92-.68-1.72-1.32-2.37-1.88h0a.84.84,0,0,1,.09.37,6.87,6.87,0,0,0,.12.87,6.43,6.43,0,0,0,.59,1.55,10.42,10.42,0,0,0,1.31,2,10.2,10.2,0,0,0,2.1,1.9l.15.12a5.48,5.48,0,0,1-3.31-1.9A5,5,0,0,1,71,48.42l-.08.41a4.08,4.08,0,0,0-.06.68,4,4,0,0,0,.08.67,3,3,0,0,0,.38.89,3.19,3.19,0,0,0,.77.86,5.21,5.21,0,0,0,.87.57c.26.13.51.23,1,.42s.72.27,1.13.4c.14,0,.6.21,1.25.39s.67.18,1.39.38a12.51,12.51,0,0,1,1.54.49,4.1,4.1,0,0,1,1.15.67,3.13,3.13,0,0,1,.63.74l0,0h0a10.23,10.23,0,0,0-1.6-.81,16.72,16.72,0,0,0-1.95-.58c-.42-.11-1.25-.32-2.35-.53-.55-.11-1-.19-1.37-.24V54a3.91,3.91,0,0,0,.38.9,3.92,3.92,0,0,0,1.38,1.45,4,4,0,0,0,1,.42,7.53,7.53,0,0,0,1.11.27c.8.15,1,.12,1.64.22a7.92,7.92,0,0,1,1.8.46A5.85,5.85,0,0,1,83,59l0,.06h0c-.25-.15-.55-.32-.9-.49-.11,0-.37-.18-.71-.32a9.61,9.61,0,0,0-1.13-.41,6.19,6.19,0,0,0-1.24-.26,5.63,5.63,0,0,0-1.34,0v.13a4.09,4.09,0,0,0,.07.53,3.17,3.17,0,0,0,.21.65,2.82,2.82,0,0,0,.79,1,3.09,3.09,0,0,0,1,.55,6.3,6.3,0,0,0,1.92.32l1.63.08c1,0,1.16,0,1.75.06a5.21,5.21,0,0,1,1.37.24,3.7,3.7,0,0,1,.66.31l.2.13.1.09a4.86,4.86,0,0,0-.51-.18,5.06,5.06,0,0,0-.83-.17,5.44,5.44,0,0,0-.94,0l-1.34,0c-1.22,0-1.18,0-1.48,0A13.24,13.24,0,0,1,81,61.24,7.91,7.91,0,0,1,79.76,61a5.49,5.49,0,0,1-1.27-.52,4.79,4.79,0,0,1-1.84-1.94,5.21,5.21,0,0,1-.37-.87s0,0,0-.06v-.11a.19.19,0,0,0-.14-.15l-.27,0h0a6.25,6.25,0,0,1-1.7-.87,4.94,4.94,0,0,1-1.54-1.7,4,4,0,0,1-.4-1.15v0l0-.34a.06.06,0,0,0-.05-.06L71.83,53a3.8,3.8,0,0,1-1.15-.67,3.63,3.63,0,0,1-1-1.23,4.17,4.17,0,0,1-.34-1.71,4.66,4.66,0,0,1,.11-1.35v0l.37-1.21s0-.05,0-.06l-.14-.23A8.77,8.77,0,0,1,69,45.29a10.47,10.47,0,0,1-.69-2.47,12,12,0,0,1-.16-3.62l.11-.28c.31.46.64.91,1,1.37.79,1.09,1.18,1.65,1.45,2a18.41,18.41,0,0,0,1.84,1.94,25,25,0,0,0,2.39,2,19.71,19.71,0,0,0,3.19,2,19.89,19.89,0,0,0,2.27.94,20.4,20.4,0,0,0,3.19.84l.55.07,0,0a1.75,1.75,0,0,1-.23-.24,4.56,4.56,0,0,1-.4-.74,4.05,4.05,0,0,1-.21-.65l0-.26-.08-.06a3.46,3.46,0,0,1-.65-1,3.67,3.67,0,0,1-.26-1,3.46,3.46,0,0,1,0-1.07,3.42,3.42,0,0,1,.19-.7l.1-.28a8.12,8.12,0,0,1-.39-3.32,5,5,0,0,1,.48-1.67,4.89,4.89,0,0,1,.33-.57l.13-.18c.09.33.16.6.22.81a11.3,11.3,0,0,0,.43,1.43c.15.36.11.38.3.84s.29.57.45.95a8.94,8.94,0,0,0,.52,1c.26.44.5.8,1,1.5s.61.89.8,1.11a10.13,10.13,0,0,0,1.07,1.09,12.79,12.79,0,0,0,1,.82,17.91,17.91,0,0,0,1.6,1l.28.1a6.36,6.36,0,0,1-1.69-.61,8.83,8.83,0,0,1-1.32-.92,11.09,11.09,0,0,1-1.2-1.07A13.55,13.55,0,0,1,85.49,45c-.3-.39-.52-.69-.8-1.11s-.57-.77-.73-1.06l-.34-.63v.13l.2.51c.24.65.27.76.39,1,0,.1.16.4.35.77s.27.48.51.88a8.9,8.9,0,0,0,.49.75l.31.37.63.73-.08-.06a10.72,10.72,0,0,1-1.61-1.15,5.52,5.52,0,0,1-1.25-1.47l0,.26a3,3,0,0,0,.23.78,3.4,3.4,0,0,0,1,1.24,5.05,5.05,0,0,0,1,.69c.24.12.35.16,1,.42l1.28.52a4.28,4.28,0,0,1,1.42,1.25l-.07-.06A5.08,5.08,0,0,0,88.25,49a7.55,7.55,0,0,0-1.13-.4,11.8,11.8,0,0,0-1.39-.38,8.59,8.59,0,0,0-1-.15l-.14,0v0a3.9,3.9,0,0,0,.23.78A3.06,3.06,0,0,0,85.54,50a2.83,2.83,0,0,0,.59.47h.47c.36,0,.65,0,1-.05.54,0,.68,0,1.48,0,.42,0,.7,0,1.08,0l.48,0a.64.64,0,0,1,.34.13h0a1.14,1.14,0,0,1,.32.37,2.84,2.84,0,0,1-.54,2.35l-.23.3a10.79,10.79,0,0,0,1.12-.81,10.26,10.26,0,0,0,1-.92c.19-.19.48-.49.84-.9a11.52,11.52,0,0,0,.82-1c.16-.22.29-.44.57-.87l.45-.73a3.32,3.32,0,0,1,.47-.59,3.73,3.73,0,0,1,.87-.64,5.12,5.12,0,0,1,.76-.36,3.29,3.29,0,0,1,.78-.23,2.92,2.92,0,0,1,1,0,4.57,4.57,0,0,1,.69.18,2.33,2.33,0,0,1,.28.11,2.12,2.12,0,0,1,.58.33,5.75,5.75,0,0,0,.67,1.13,6.64,6.64,0,0,0,3.29,2.24l-.21,0a4.84,4.84,0,0,0-1.49-.1,2.38,2.38,0,0,0-1.43.44A1.91,1.91,0,0,0,101,52c-.15.76.08,1.14.31,2.65,0,.31.1.7.14,1.2a9.73,9.73,0,0,1-.09,2.7,7.19,7.19,0,0,1-.93,2.39A8.06,8.06,0,0,1,98,63.35a13.1,13.1,0,0,1-3,1.56,30.42,30.42,0,0,1-5.37,1.57.64.64,0,0,0-.18.06h0a.79.79,0,0,1-.22.06,35.83,35.83,0,0,0-3.83.72,30,30,0,0,0-7.1,2.58,28.16,28.16,0,0,0-5.48,3.74h0a7.35,7.35,0,0,1,.74-1.35c.23-.32.49-.67.8-1.05A22,22,0,0,1,77.56,68,36.07,36.07,0,0,1,83,64.29a18.29,18.29,0,0,1,2.55-1.24c0,.05-.69.46-2,1.31a32.7,32.7,0,0,0-3.23,2.27,18.44,18.44,0,0,0-2.29,2.28l-.29.37.44-.25a22.29,22.29,0,0,1,3.57-1.63,28.42,28.42,0,0,1,3.92-1c2.31-.47,2.62-.37,4.88-.84a21.42,21.42,0,0,0,3.65-1,11.66,11.66,0,0,0,3.55-1.89,8.24,8.24,0,0,0,2-2.26,7.75,7.75,0,0,0,.84-2,8.15,8.15,0,0,0,.27-2.32,14.54,14.54,0,0,0-.33-2.78,4.33,4.33,0,0,1-.14-1.2,2.48,2.48,0,0,1,.38-1.39,2.11,2.11,0,0,1,1.24-.81l.14,0a4.84,4.84,0,0,1-.89-.7,5.1,5.1,0,0,1-.63-.74,4.87,4.87,0,0,1-.5-.88,3.35,3.35,0,0,0-.43-.22,2.44,2.44,0,0,0-1.1-.14,3,3,0,0,0-.78.23A3.35,3.35,0,0,0,97,48a3.77,3.77,0,0,0-.72.75,7.14,7.14,0,0,1-.4,1.13A8.84,8.84,0,0,1,95.21,51a11.12,11.12,0,0,1-.94,1.19,8.61,8.61,0,0,1-1.59,1.39,8.13,8.13,0,0,1-2.42,1.09,10.43,10.43,0,0,1-1.45.31Z"/><path class="cls-7" d="M103.16,81.27a.54.54,0,0,0-.46-.26,19,19,0,0,0-4.4.59,20,20,0,0,0-6.29,3,24.7,24.7,0,0,0-4.64,4,.56.56,0,0,0-.06.65h0c.16.26.53,0,.74-.28a24.31,24.31,0,0,1,4.49-3.85,20,20,0,0,1,6.29-3,18.65,18.65,0,0,1,4-.58c.32,0,.51,0,.34-.28Z"/><path class="cls-7" d="M99.65,78.42c0,.23-.18.08-.41.11a16.22,16.22,0,0,0-1.69.26,19.83,19.83,0,0,0-6.43,2.61,24.46,24.46,0,0,0-2.93,2c-.23.19-.57.51-.76.28h0a.47.47,0,0,1,.06-.65,23.43,23.43,0,0,1,3.16-2.23,19.81,19.81,0,0,1,6.43-2.62,19.14,19.14,0,0,1,2.07-.3.47.47,0,0,1,.51.47Z"/><path class="cls-5" d="M65.15,122.74V110.87H60.87v-1a1.46,1.46,0,0,1,.44-1.07,1.44,1.44,0,0,1,1.07-.44h10v2.55H68.12v11.87Z"/><path class="cls-6" d="M77.72,108.32h2.35l5.24,14.42H82.16l-1-3H75.58l-.92,3H71.52l4.77-13.46A1.42,1.42,0,0,1,77.72,108.32Zm.67,2.89-2,6.12h4Z"/><path class="cls-5" d="M86.51,122.74V109.83a1.46,1.46,0,0,1,.44-1.07,1.44,1.44,0,0,1,1.07-.44h9v2.47H89.45v3.1h5.61v1a1.5,1.5,0,0,1-1.5,1.5H89.45v6.38Z"/><path class="cls-6" d="M98,122.74V109.83a1.46,1.46,0,0,1,.44-1.07,1.44,1.44,0,0,1,1.07-.44h9v2.47H101v3.1h5.61v1a1.5,1.5,0,0,1-1.51,1.5H101v3.69h7.54v2.69Z"/><path class="cls-7" d="M67.12,81.27a.53.53,0,0,1,.46-.26,19,19,0,0,1,4.4.59,19.81,19.81,0,0,1,6.28,3,24.4,24.4,0,0,1,4.65,4,.57.57,0,0,1,.06.65h0c-.16.26-.54,0-.74-.28a24,24,0,0,0-4.5-3.85,19.81,19.81,0,0,0-6.28-3,18.65,18.65,0,0,0-4-.58c-.32,0-.51,0-.34-.28Z"/><path class="cls-7" d="M70.63,78.42c0,.23.17.08.41.11a16.22,16.22,0,0,1,1.69.26,19.76,19.76,0,0,1,6.42,2.61,24.47,24.47,0,0,1,2.94,2c.23.19.57.51.76.28h0a.46.46,0,0,0,0-.65,23.43,23.43,0,0,0-3.16-2.23,19.81,19.81,0,0,0-6.43-2.62,19.14,19.14,0,0,0-2.07-.3.47.47,0,0,0-.51.47Z"/></g></svg>