<svg xmlns="http://www.w3.org/2000/svg" viewBox="0 0 167.79 167.79"><defs><style>.cls-1{fill:#f3bec1;}.cls-2{fill:#fff;}</style></defs><g id="Capa_1" data-name="Capa 1"><circle class="cls-1" cx="84.03" cy="83.89" r="73.83"/><path class="cls-2" d="M80.5,63.46a7.16,7.16,0,0,1,.44-1c.74-1.25,1.49-2.48,2.26-3.71a.72.72,0,0,1,.49-.33c.35,0,.7,0,1.07,0h1.3c-.93,2.7-3.33,3.76-5.56,5M83.79,57a.65.65,0,0,1-.69-.49,12.91,12.91,0,0,0-.94-1.76,11.46,11.46,0,0,1-1.71-5.1,3.71,3.71,0,0,1,.47,0c3.32,0,6,3.55,5.33,7.38H83.79m-4.36-8.73c0,.21,0,.31,0,.42a11.34,11.34,0,0,0,2,6.61,3.55,3.55,0,0,1,.22,4.3c-1.4,2.47-1.75,2.91-2.23,4.79-.18.72-.22,1.52-.37,2.25,0,.39,0,.46,0,.85s0,1.16,0,1.38c0,.86-.09,1.44-.09,2.36h1c.11-2,.16-3.94.31-5.9a1.33,1.33,0,0,1,.57-.82c1.16-.79,2.43-1.43,3.53-2.29a27.81,27.81,0,0,0,2.57-2.5V52.89c-1.56-3.18-4.12-4.44-7.41-4.58"/><path class="cls-2" d="M93.12,63.46c-2.24-1.27-4.63-2.33-5.56-5h1.3c.37,0,.72,0,1.07,0a.74.74,0,0,1,.49.33c.77,1.23,1.52,2.46,2.26,3.71a8.62,8.62,0,0,1,.44,1M89.83,57H87.37c-.64-3.83,2-7.38,5.33-7.38l.47,0a11.46,11.46,0,0,1-1.71,5.1,12.91,12.91,0,0,0-.94,1.76.65.65,0,0,1-.69.49m4.36-8.73c-3.29.14-5.85,1.4-7.41,4.58v6.87a27.81,27.81,0,0,0,2.57,2.5c1.1.86,2.37,1.5,3.53,2.29a1.37,1.37,0,0,1,.57.82c.15,2,.2,3.88.31,5.9h1c0-.92-.08-1.5-.1-2.36,0-.22-.06-1.07,0-1.38s0-.46,0-.85c-.15-.73-.19-1.53-.37-2.25-.48-1.88-.84-2.32-2.23-4.79a3.55,3.55,0,0,1,.22-4.3,11.34,11.34,0,0,0,2-6.61c0-.11,0-.21,0-.42"/><rect class="cls-2" x="84.51" y="43.26" width="4.69" height="1.17"/><path class="cls-2" d="M36.83,101.93a2.91,2.91,0,0,1-2.68-2.27A17.4,17.4,0,0,1,33.39,94,55,55,0,0,1,34,86.12c.4-2.74.78-5,1.15-6.79-.8,1.89-2,4.33-3.49,7.3a66.11,66.11,0,0,1-5.29,8.61,20.37,20.37,0,0,1-6.22,6,3.7,3.7,0,0,1-1.62.51,1.23,1.23,0,0,1-1.16-.68A4.06,4.06,0,0,1,17,99.17a23.52,23.52,0,0,1,1.16-6.4c.78-2.62,1.64-5.14,2.57-7.58s1.69-4.31,2.26-5.61a2,2,0,0,1,.61-.81,1.16,1.16,0,0,1,.66-.25.77.77,0,0,1,.49.15.44.44,0,0,1,.19.36c0,.31-.33.68-1,1.1Q23,82,21.47,85.59c-1,2.4-1.93,4.88-2.76,7.46a21.16,21.16,0,0,0-1.26,6.12,3.11,3.11,0,0,0,.28,1.46.94.94,0,0,0,.91.53,3,3,0,0,0,1.28-.38A22.16,22.16,0,0,0,27,93.54a82.65,82.65,0,0,0,5.63-9.94c1.53-3.25,2.49-5.39,2.89-6.44.25-.45.51-.68.76-.68a.71.71,0,0,1,.54.27,1.1,1.1,0,0,1,.23.71c-.09.62-.27,1.58-.55,2.89-.43,1.89-.87,4.19-1.34,6.88a46.8,46.8,0,0,0-.7,8.07A13.07,13.07,0,0,0,35,99.74a2.17,2.17,0,0,0,2.08,1.59,5,5,0,0,0,3.68-2,21.51,21.51,0,0,0,3.25-5.12,50.77,50.77,0,0,0,2.59-6.76,59,59,0,0,0,1.72-7.07A34.83,34.83,0,0,0,49,74.48a9.35,9.35,0,0,0-.3-2.59,1.4,1.4,0,0,1-.08-.47,1,1,0,0,1,.06-.36.21.21,0,0,1,.19-.15c.23,0,.41.42.55,1.26a18,18,0,0,1,.22,3A40.51,40.51,0,0,1,49,81.47a50.6,50.6,0,0,1-1.7,7.14,39.32,39.32,0,0,1-2.7,6.58,18.39,18.39,0,0,1-3.54,4.87A6.11,6.11,0,0,1,36.83,101.93Z"/><path class="cls-2" d="M50.34,96.66A1.23,1.23,0,0,1,49.17,96a2.78,2.78,0,0,1-.36-1.4,7.76,7.76,0,0,1,.42-2.42c.29-.85.53-1.53.73-2a.43.43,0,0,1,.42-.3.73.73,0,0,1,.4.13.34.34,0,0,1,.19.3v.08a22.93,22.93,0,0,0-.84,2.23,8.34,8.34,0,0,0-.51,2.57,1.22,1.22,0,0,0,.17.79.83.83,0,0,0,.59.23,3.88,3.88,0,0,0,2.23-1A25.2,25.2,0,0,0,55,93q1.13-1.17,1.68-1.77a.73.73,0,0,1,.09-.13A.25.25,0,0,1,57,91a.32.32,0,0,1,.17.06.22.22,0,0,1,.08.15l-.08.17q-.44.51-1.62,1.77a24.14,24.14,0,0,1-2.63,2.37A4.37,4.37,0,0,1,50.34,96.66Zm.76-8.2c-.11,0-.17-.08-.17-.25a1.44,1.44,0,0,1,.13-.54,2,2,0,0,1,.32-.55c.13-.15.23-.23.32-.23A.28.28,0,0,1,52,87a.55.55,0,0,1,.09.34,1.2,1.2,0,0,1-.32.72A.87.87,0,0,1,51.1,88.46Z"/><path class="cls-2" d="M56,96.07a.45.45,0,0,1-.26-.09.27.27,0,0,1-.13-.21v-.09l1.32-5a.42.42,0,0,1,.17-.25.51.51,0,0,1,.3-.09.44.44,0,0,1,.29.11.32.32,0,0,1,.13.27v.13l-1,3.44a23.44,23.44,0,0,1,2-3q1-1.26,1.83-1.26h.17a1,1,0,0,1,.76,1.06A6.67,6.67,0,0,1,61,93.6a5,5,0,0,0-.43,1.57.34.34,0,0,0,.13.3l.17,0a4.53,4.53,0,0,0,2.08-1,30.85,30.85,0,0,0,2.7-2.06,8.77,8.77,0,0,0,1.47-1.4c0-.08.11-.13.17-.13a.26.26,0,0,1,.15.07.2.2,0,0,1,.06.15l0,.12a12.14,12.14,0,0,1-1.77,1.66A29.7,29.7,0,0,1,62.79,95a4.93,4.93,0,0,1-2.43,1L60,95.94a.69.69,0,0,1-.34-.68,6.27,6.27,0,0,1,.6-2.34A5.48,5.48,0,0,0,60.79,91a.4.4,0,0,0-.26-.43h0c-.4,0-.88.37-1.46,1.09A18.94,18.94,0,0,0,57.43,94c-.48.83-.82,1.43-1,1.83a.27.27,0,0,1-.17.19A.65.65,0,0,1,56,96.07Z"/><path class="cls-2" d="M67.76,96.66A1.23,1.23,0,0,1,66.59,96a2.78,2.78,0,0,1-.36-1.4,7.76,7.76,0,0,1,.42-2.42q.43-1.28.72-2a.45.45,0,0,1,.43-.3.73.73,0,0,1,.4.13.34.34,0,0,1,.19.3v.08c-.22.48-.51,1.23-.85,2.23A8.34,8.34,0,0,0,67,95.17a1.29,1.29,0,0,0,.17.79.88.88,0,0,0,.6.23,3.88,3.88,0,0,0,2.23-1A25.2,25.2,0,0,0,72.45,93q1.13-1.17,1.68-1.77a.73.73,0,0,1,.09-.13.25.25,0,0,1,.17-.08.32.32,0,0,1,.17.06.22.22,0,0,1,.08.15l-.08.17q-.44.51-1.62,1.77a24.14,24.14,0,0,1-2.63,2.37A4.37,4.37,0,0,1,67.76,96.66Zm.76-8.2c-.11,0-.17-.08-.17-.25a1.44,1.44,0,0,1,.13-.54,2,2,0,0,1,.32-.55c.13-.15.23-.23.32-.23a.28.28,0,0,1,.25.13.55.55,0,0,1,.09.34,1.2,1.2,0,0,1-.32.72A.87.87,0,0,1,68.52,88.46Z"/><path class="cls-2" d="M73.2,105.16H73a1.83,1.83,0,0,1-.89-.21,1,1,0,0,1-.42-.85V104A6,6,0,0,1,73,101.48a35.39,35.39,0,0,1,2.93-3.29c-.14-.31-.29-.62-.46-.93a17.17,17.17,0,0,1-1.06-2.15,6.14,6.14,0,0,1-.47-2.44,6.62,6.62,0,0,1,0-.77,4,4,0,0,1,1.34-2.42,3.55,3.55,0,0,1,2.36-.93,3,3,0,0,1,1.87.72.76.76,0,0,1,.25.55.58.58,0,0,1-.13.38.38.38,0,0,1-.34.17.75.75,0,0,1-.46-.21,2.34,2.34,0,0,0-1.53-.68,2,2,0,0,0-1.51.72A3.46,3.46,0,0,0,75,92.11v.47a6.2,6.2,0,0,0,.4,2.25,18.88,18.88,0,0,0,.92,2c.08.2.18.41.29.64q2.3-2.25,4.53-4.06A26.53,26.53,0,0,1,84.5,91l.12,0a.19.19,0,0,1,.15.08.27.27,0,0,1,.07.17.24.24,0,0,1-.13.21,23.39,23.39,0,0,0-3.31,2.45c-1.48,1.23-3,2.6-4.55,4.1a4.8,4.8,0,0,1,.55,2.25,5.26,5.26,0,0,1-.93,3,4.47,4.47,0,0,1-1.55,1.43A4.29,4.29,0,0,1,73.2,105.16Zm0-.47a3.66,3.66,0,0,0,1.48-.47A3.58,3.58,0,0,0,76,103a4.39,4.39,0,0,0,.6-2.08,4.32,4.32,0,0,0-.17-1.24c-.12-.36-.23-.67-.34-.93a31.07,31.07,0,0,0-2.76,3.08A5,5,0,0,0,72.18,104v.13a.36.36,0,0,0,.21.38,1,1,0,0,0,.64.17Z"/><path class="cls-2" d="M95.46,102a.47.47,0,0,1-.28-.08.31.31,0,0,1-.1-.26,31.51,31.51,0,0,1,.82-3.76c.47-1.77,1-3.74,1.64-5.93.06-.19.11-.38.17-.55A4.34,4.34,0,0,1,96.82,90a10.92,10.92,0,0,1-.43-1.87c0-.2.07-.3.22-.3a.2.2,0,0,1,.21.15,3.88,3.88,0,0,1,.08.45c0,.14.06.29.09.46a5.07,5.07,0,0,0,.89,2q1.44-5,2.85-9.39c.93-2.92,1.6-4.86,2-5.82a.87.87,0,0,1,.73-.47.92.92,0,0,1,.65.21.62.62,0,0,1,.24.43.92.92,0,0,1-.24.59,5.7,5.7,0,0,1-.53.6,3.26,3.26,0,0,0-.59.68,31.6,31.6,0,0,0-1.59,4.23c-.73,2.19-1.5,4.68-2.32,7.45l1-2.5a60.44,60.44,0,0,1,2.63-5.61A18.7,18.7,0,0,1,106.57,76a5.38,5.38,0,0,1,3.29-1.57A2.93,2.93,0,0,1,112.45,76a7.29,7.29,0,0,1,1,3.91,12.34,12.34,0,0,1-.13,1.78,14,14,0,0,1-2.08,5.23,16.56,16.56,0,0,1-4.1,4.48,8.22,8.22,0,0,1-5,1.85,6.48,6.48,0,0,1-3.23-.89,1,1,0,0,0-.3-.21c-.74,2.12-1.36,4-1.87,5.65-.48,1.92-.78,3.21-.89,3.86a.28.28,0,0,1-.11.22A.4.4,0,0,1,95.46,102ZM102,92.79A7.45,7.45,0,0,0,106.74,91a17.36,17.36,0,0,0,3.84-4.42,16.13,16.13,0,0,0,2.09-4.91,11.78,11.78,0,0,0,.21-2.12,6.19,6.19,0,0,0-.77-3.26A2.34,2.34,0,0,0,110,75,5,5,0,0,0,107,76.54a20.24,20.24,0,0,0-3.74,5.12C102,84,101,85.84,100.43,87.23S99.37,89.81,99,90.8c-.09.31-.19.61-.3.89A5.21,5.21,0,0,0,102,92.79Z"/><path class="cls-2" d="M111,96.7c-.49,0-.78-.39-.9-1.19a6.58,6.58,0,0,1,1.19-3.31A4.18,4.18,0,0,1,113.85,90a1.89,1.89,0,0,1,1.45.89,2,2,0,0,0,.38-.5,1.15,1.15,0,0,1,.17-.32.32.32,0,0,1,.26-.11.59.59,0,0,1,.36.17.49.49,0,0,1,.19.38l0,.17a15.4,15.4,0,0,0-.64,1.7,6.37,6.37,0,0,0-.34,2,2,2,0,0,0,.21,1,.72.72,0,0,0,.68.39,4.05,4.05,0,0,0,2.1-.9,27.11,27.11,0,0,0,2.53-2c.82-.71,1.45-1.28,1.87-1.7l.13-.13.17-.08a.19.19,0,0,1,.15.08.32.32,0,0,1,.06.17.25.25,0,0,1-.08.17l-.17.17c-.46.46-1.1,1-1.94,1.77a22.19,22.19,0,0,1-2.65,2,4.69,4.69,0,0,1-2.42.89,1.25,1.25,0,0,1-1.13-.55,2.44,2.44,0,0,1-.36-1.36,5.36,5.36,0,0,1,.13-1.19c.08-.39.17-.73.25-1a28.76,28.76,0,0,1-2.08,3.08C112.3,96.19,111.59,96.7,111,96.7Zm-.09-.34c.43,0,1-.5,1.79-1.51a34.74,34.74,0,0,0,2-2.95c-.22-.45-.5-.68-.85-.68a2,2,0,0,0-1.44.94,10.65,10.65,0,0,0-1.32,2.06,4.49,4.49,0,0,0-.55,1.72C110.54,96.25,110.65,96.39,110.88,96.36Z"/><path class="cls-2" d="M124.94,100c-.68,0-1-.46-1.1-1.4a8.27,8.27,0,0,1,.42-2.21,6.55,6.55,0,0,1,.34-.85,4.11,4.11,0,0,0,.51-1.91,1.89,1.89,0,0,0-.29-1,7.87,7.87,0,0,0-.68-.87,5.45,5.45,0,0,1-.6-.7,1.4,1.4,0,0,1-.25-.83,3.54,3.54,0,0,1,.08-.6,2.5,2.5,0,0,1,.28-.7.63.63,0,0,1,.57-.31,1,1,0,0,1,.53.14.43.43,0,0,1,.24.37l0,.17a3.33,3.33,0,0,0-.59,1.48,1.44,1.44,0,0,0,.08.53,1.65,1.65,0,0,0,.34.45,7.18,7.18,0,0,1,.43.59,3.37,3.37,0,0,1,.51,1.75,6.17,6.17,0,0,1-.55,2.5v0a6.39,6.39,0,0,0-.39,1.87c0,.62.23.92.68.89q1,0,3-1.68a45.06,45.06,0,0,0,3.74-3.57,17.53,17.53,0,0,0,2.31-2.87c.12-.17.22-.25.3-.25s.19.07.21.21l-.08.25a17,17,0,0,1-2.64,3.38,30.51,30.51,0,0,1-4,3.57A6.41,6.41,0,0,1,124.94,100Z"/><path class="cls-2" d="M136.29,100c-.68,0-1-.46-1.11-1.4a8,8,0,0,1,.43-2.21,5.38,5.38,0,0,1,.34-.85,4.11,4.11,0,0,0,.51-1.91,1.82,1.82,0,0,0-.3-1,6.83,6.83,0,0,0-.68-.87,5.35,5.35,0,0,1-.59-.7,1.41,1.41,0,0,1-.26-.83,2.89,2.89,0,0,1,.09-.6,2.21,2.21,0,0,1,.27-.7.63.63,0,0,1,.58-.31,1.08,1.08,0,0,1,.53.14.44.44,0,0,1,.23.37l0,.17a3.25,3.25,0,0,0-.6,1.48,1.23,1.23,0,0,0,.09.53,1.47,1.47,0,0,0,.34.45c.11.14.25.34.42.59a3.37,3.37,0,0,1,.51,1.75,6,6,0,0,1-.55,2.5v0a6.66,6.66,0,0,0-.38,1.87c0,.62.22.92.68.89.68,0,1.68-.56,3-1.68a43.54,43.54,0,0,0,3.74-3.57,17.73,17.73,0,0,0,2.32-2.87c.11-.17.21-.25.3-.25s.18.07.21.21l-.09.25a17.3,17.3,0,0,1-2.63,3.38,31.25,31.25,0,0,1-4,3.57A6.39,6.39,0,0,1,136.29,100Z"/><path class="cls-2" d="M144.7,96.7c-.48,0-.78-.39-.89-1.19A6.58,6.58,0,0,1,145,92.2,4.13,4.13,0,0,1,147.59,90a1.87,1.87,0,0,1,1.44.89,2.35,2.35,0,0,0,.39-.5.94.94,0,0,1,.17-.32.3.3,0,0,1,.25-.11.57.57,0,0,1,.36.17.49.49,0,0,1,.19.38l0,.17a15.4,15.4,0,0,0-.64,1.7,6.68,6.68,0,0,0-.34,2,1.88,1.88,0,0,0,.22,1,.71.71,0,0,0,.68.39,4.08,4.08,0,0,0,2.1-.9,28.49,28.49,0,0,0,2.53-2c.82-.71,1.44-1.28,1.87-1.7l.12-.13.17-.08a.19.19,0,0,1,.15.08.27.27,0,0,1,.07.17.22.22,0,0,1-.09.17c-.06.06-.11.12-.17.17-.45.46-1.1,1-1.93,1.77a22.3,22.3,0,0,1-2.66,2,4.66,4.66,0,0,1-2.42.89,1.23,1.23,0,0,1-1.12-.55,2.36,2.36,0,0,1-.37-1.36,6,6,0,0,1,.13-1.19c.09-.39.17-.73.26-1a30.33,30.33,0,0,1-2.08,3.08C146,96.19,145.32,96.7,144.7,96.7Zm-.08-.34c.42,0,1-.5,1.78-1.51s1.44-2,2-2.95c-.23-.45-.51-.68-.85-.68a2,2,0,0,0-1.44.94,10.65,10.65,0,0,0-1.32,2.06,4.32,4.32,0,0,0-.55,1.72C144.28,96.25,144.39,96.39,144.62,96.36Z"/><path class="cls-2" d="M65.6,107.08a.24.24,0,0,1,.07.18v4.37a.21.21,0,0,1-.07.17.21.21,0,0,1-.17.08.25.25,0,0,1-.18-.08.21.21,0,0,1-.08-.17v-3.52l-1.78,3.54a.23.23,0,0,1-.22.11.25.25,0,0,1-.23-.14l-1.77-3.45v3.46a.24.24,0,0,1-.07.17.24.24,0,0,1-.36,0,.21.21,0,0,1-.07-.17v-4.37a.24.24,0,0,1,.07-.18.28.28,0,0,1,.18-.06.25.25,0,0,1,.22.12l2,4,2-4a.24.24,0,0,1,.22-.12A.24.24,0,0,1,65.6,107.08Z"/><path class="cls-2" d="M67.57,111.68a1.57,1.57,0,0,1-.63-.62,1.63,1.63,0,0,1-.23-.88,1.67,1.67,0,0,1,.23-.89,1.51,1.51,0,0,1,.63-.62,1.9,1.9,0,0,1,.92-.23,1.84,1.84,0,0,1,.91.23,1.59,1.59,0,0,1,.64.62,1.76,1.76,0,0,1,.23.89,1.72,1.72,0,0,1-.23.88,1.59,1.59,0,0,1-.64.62,1.84,1.84,0,0,1-.91.23A1.9,1.9,0,0,1,67.57,111.68Zm1.59-.38a1.2,1.2,0,0,0,.46-.46,1.46,1.46,0,0,0,0-1.33,1.3,1.3,0,0,0-.46-.47,1.48,1.48,0,0,0-1.34,0,1.3,1.3,0,0,0-.46.47,1.39,1.39,0,0,0,0,1.33,1.2,1.2,0,0,0,.46.46,1.41,1.41,0,0,0,1.34,0Z"/><path class="cls-2" d="M74.61,108.71v1.46a1.75,1.75,0,0,1-.23.88,1.68,1.68,0,0,1-.64.63,1.89,1.89,0,0,1-.91.23,1.86,1.86,0,0,1-.91-.23,1.68,1.68,0,0,1-.64-.63,1.65,1.65,0,0,1-.23-.88,1.74,1.74,0,0,1,.22-.88,1.7,1.7,0,0,1,.63-.62,1.79,1.79,0,0,1,1.64-.06,1.64,1.64,0,0,1,.57.47v-1.82a.24.24,0,0,1,.07-.18.3.3,0,0,1,.36,0,.29.29,0,0,1,.07.18v1.45Zm-1.12,2.59a1.16,1.16,0,0,0,.46-.47,1.2,1.2,0,0,0,.17-.66V110s0,0,0,0a1.21,1.21,0,0,0-.42-.79,1.25,1.25,0,0,0-.86-.31,1.32,1.32,0,0,0-.66.16,1.28,1.28,0,0,0-.64,1.13,1.2,1.2,0,0,0,.17.66,1.18,1.18,0,0,0,.47.47,1.23,1.23,0,0,0,.66.17A1.25,1.25,0,0,0,73.49,111.3Z"/><path class="cls-2" d="M78.27,108.67a1.73,1.73,0,0,1,.64.62,1.69,1.69,0,0,1,.23.89v1.46a.22.22,0,0,1-.07.17.25.25,0,0,1-.18.07.24.24,0,0,1-.17-.07.21.21,0,0,1-.08-.17v-.37a1.47,1.47,0,0,1-.57.47,1.73,1.73,0,0,1-.76.17,1.75,1.75,0,0,1-.88-.23,1.68,1.68,0,0,1-.62-.62,1.82,1.82,0,0,1,0-1.77,1.69,1.69,0,0,1,.65-.62,1.9,1.9,0,0,1,1.81,0ZM78,111.3a1.22,1.22,0,0,0,.47-.46,1.39,1.39,0,0,0,0-1.33,1.3,1.3,0,0,0-.47-.46,1.2,1.2,0,0,0-.66-.17,1.25,1.25,0,0,0-.66.17,1.22,1.22,0,0,0-.47.46,1.39,1.39,0,0,0,0,1.33,1.16,1.16,0,0,0,.47.46,1.25,1.25,0,0,0,.66.17A1.2,1.2,0,0,0,78,111.3Z"/><path class="cls-2" d="M81.73,111.8a.21.21,0,0,1-.08-.17v-4.37a.25.25,0,0,1,.08-.18.24.24,0,0,1,.17-.06h3a.28.28,0,0,1,.18.06.23.23,0,0,1,.07.17.22.22,0,0,1-.07.17.28.28,0,0,1-.18.06H82.15v1.72h2a.24.24,0,0,1,.18.07.21.21,0,0,1,.07.17.2.2,0,0,1-.07.16.24.24,0,0,1-.18.07h-2v2a.21.21,0,0,1-.07.17.25.25,0,0,1-.18.08A.21.21,0,0,1,81.73,111.8Z"/><path class="cls-2" d="M88.33,108.66a1.45,1.45,0,0,1,.56.59,1.74,1.74,0,0,1,.21.86.22.22,0,0,1-.07.16.23.23,0,0,1-.16.06h-2.6a1.26,1.26,0,0,0,.42.83,1.28,1.28,0,0,0,.89.32,1.55,1.55,0,0,0,.47-.08,1.08,1.08,0,0,0,.37-.2.32.32,0,0,1,.18-.06.3.3,0,0,1,.14,0,.25.25,0,0,1,.08.17.17.17,0,0,1-.07.14,1.54,1.54,0,0,1-.54.29,1.84,1.84,0,0,1-.63.12,1.94,1.94,0,0,1-.91-.22,1.73,1.73,0,0,1-.64-.62,1.75,1.75,0,0,1-.22-.89,1.87,1.87,0,0,1,.21-.9,1.49,1.49,0,0,1,.6-.62,1.66,1.66,0,0,1,.87-.22A1.6,1.6,0,0,1,88.33,108.66Zm-1.65.5a1.27,1.27,0,0,0-.39.77h2.34a1.23,1.23,0,0,0-.35-.77,1.13,1.13,0,0,0-.79-.29A1.16,1.16,0,0,0,86.68,109.16Z"/><path class="cls-2" d="M94.29,108.61a1.15,1.15,0,0,1,.46.49,1.65,1.65,0,0,1,.16.75v1.79a.21.21,0,0,1-.07.17.24.24,0,0,1-.17.07.29.29,0,0,1-.18-.07.21.21,0,0,1-.07-.17v-1.79a1,1,0,0,0-.24-.7.79.79,0,0,0-.61-.26.86.86,0,0,0-.65.26.92.92,0,0,0-.25.68v1.81a.24.24,0,0,1-.06.17.27.27,0,0,1-.36,0,.21.21,0,0,1-.07-.17v-1.79a1,1,0,0,0-.23-.7.81.81,0,0,0-.62-.26.88.88,0,0,0-.65.25.9.9,0,0,0-.26.66v1.84a.24.24,0,0,1-.06.17.27.27,0,0,1-.36,0,.21.21,0,0,1-.07-.17v-2.93a.22.22,0,0,1,.07-.17.27.27,0,0,1,.36,0,.25.25,0,0,1,.06.17v.14a1.48,1.48,0,0,1,.43-.31,1.35,1.35,0,0,1,1.17,0,1.12,1.12,0,0,1,.45.44,1.2,1.2,0,0,1,.48-.44,1.47,1.47,0,0,1,.67-.16A1.24,1.24,0,0,1,94.29,108.61Z"/><path class="cls-2" d="M98.34,108.66a1.45,1.45,0,0,1,.56.59,1.73,1.73,0,0,1,.2.86.21.21,0,0,1-.06.16.24.24,0,0,1-.17.06H96.28a1.25,1.25,0,0,0,.41.83,1.32,1.32,0,0,0,.9.32,1.55,1.55,0,0,0,.47-.08,1.08,1.08,0,0,0,.37-.2.32.32,0,0,1,.17-.06.3.3,0,0,1,.15,0,.25.25,0,0,1,.08.17.17.17,0,0,1-.07.14,1.54,1.54,0,0,1-.54.29,1.84,1.84,0,0,1-.63.12,1.91,1.91,0,0,1-.91-.22,1.66,1.66,0,0,1-.64-.62,1.75,1.75,0,0,1-.22-.89,1.87,1.87,0,0,1,.21-.9,1.49,1.49,0,0,1,.6-.62,1.66,1.66,0,0,1,.87-.22A1.6,1.6,0,0,1,98.34,108.66Zm-1.65.5a1.22,1.22,0,0,0-.39.77h2.34a1.19,1.19,0,0,0-.36-.77,1.09,1.09,0,0,0-.78-.29A1.16,1.16,0,0,0,96.69,109.16Z"/><path class="cls-2" d="M102.42,108.62a1.35,1.35,0,0,1,.56.55,1.62,1.62,0,0,1,.21.85v1.62a.22.22,0,0,1-.07.17.28.28,0,0,1-.17.07.25.25,0,0,1-.18-.07.22.22,0,0,1-.07-.17V110a1.08,1.08,0,0,0-.32-.84,1.2,1.2,0,0,0-.83-.29,1.32,1.32,0,0,0-.57.12,1,1,0,0,0-.4.32.8.8,0,0,0-.15.47v1.84a.21.21,0,0,1-.07.17.24.24,0,0,1-.17.07.29.29,0,0,1-.18-.07.21.21,0,0,1-.07-.17v-2.93a.22.22,0,0,1,.07-.17.24.24,0,0,1,.18-.07.21.21,0,0,1,.17.07.22.22,0,0,1,.07.17v.22a1.28,1.28,0,0,1,.52-.36,1.55,1.55,0,0,1,.65-.14A1.87,1.87,0,0,1,102.42,108.62Z"/><path class="cls-2" d="M104.38,107.72a.34.34,0,0,1,0-.48.39.39,0,0,1,.5,0,.34.34,0,0,1,0,.48.35.35,0,0,1-.25.1A.32.32,0,0,1,104.38,107.72Zm.07,4.09a.29.29,0,0,1-.07-.18v-2.92a.26.26,0,0,1,.07-.17.27.27,0,0,1,.36,0,.26.26,0,0,1,.07.17v2.92a.25.25,0,0,1-.43.18Z"/><path class="cls-2" d="M108.61,108.62a1.44,1.44,0,0,1,.57.55,1.72,1.72,0,0,1,.2.85v1.62a.22.22,0,0,1-.07.17.24.24,0,0,1-.17.07.29.29,0,0,1-.18-.07.22.22,0,0,1-.07-.17V110a1.08,1.08,0,0,0-.32-.84,1.2,1.2,0,0,0-.83-.29,1.32,1.32,0,0,0-.57.12,1.05,1.05,0,0,0-.4.32.86.86,0,0,0-.14.47v1.84a.24.24,0,0,1-.07.17.27.27,0,0,1-.18.07.29.29,0,0,1-.18-.07.24.24,0,0,1-.07-.17v-2.93a.26.26,0,0,1,.07-.17.24.24,0,0,1,.18-.07.23.23,0,0,1,.18.07.26.26,0,0,1,.07.17v.22a1.32,1.32,0,0,1,.51-.36,1.58,1.58,0,0,1,.65-.14A1.8,1.8,0,0,1,108.61,108.62Z"/><path class="cls-2" d="M113,108.67a1.73,1.73,0,0,1,.64.62,1.79,1.79,0,0,1,.23.89v1.46a.22.22,0,0,1-.07.17.27.27,0,0,1-.18.07.29.29,0,0,1-.18-.07.24.24,0,0,1-.07-.17v-.37a1.64,1.64,0,0,1-.57.47,1.79,1.79,0,0,1-1.64-.06,1.61,1.61,0,0,1-.62-.62,1.68,1.68,0,0,1-.23-.88,1.79,1.79,0,0,1,.23-.89,1.73,1.73,0,0,1,.64-.62,1.92,1.92,0,0,1,1.82,0Zm-.25,2.63a1.22,1.22,0,0,0,.47-.46,1.46,1.46,0,0,0,0-1.33,1.3,1.3,0,0,0-.47-.46,1.25,1.25,0,0,0-.66-.17,1.3,1.3,0,0,0-1.13.63,1.39,1.39,0,0,0,0,1.33,1.16,1.16,0,0,0,.47.46,1.23,1.23,0,0,0,.66.17A1.25,1.25,0,0,0,112.73,111.3Z"/></g></svg>